G04 #@! TF.GenerationSoftware,KiCad,Pcbnew,(5.1.5)-3*
G04 #@! TF.CreationDate,2020-01-17T18:23:17+09:00*
G04 #@! TF.ProjectId,sig_sensor,7369675f-7365-46e7-936f-722e6b696361,rev?*
G04 #@! TF.SameCoordinates,Original*
G04 #@! TF.FileFunction,Legend,Bot*
G04 #@! TF.FilePolarity,Positive*
%FSLAX46Y46*%
G04 Gerber Fmt 4.6, Leading zero omitted, Abs format (unit mm)*
G04 Created by KiCad (PCBNEW (5.1.5)-3) date 2020-01-17 18:23:17*
%MOMM*%
%LPD*%
G04 APERTURE LIST*
%ADD10C,0.150000*%
G04 APERTURE END LIST*
D10*
X155361904Y-84652380D02*
X155361904Y-85461904D01*
X155314285Y-85557142D01*
X155266666Y-85604761D01*
X155171428Y-85652380D01*
X154980952Y-85652380D01*
X154885714Y-85604761D01*
X154838095Y-85557142D01*
X154790476Y-85461904D01*
X154790476Y-84652380D01*
X153790476Y-85652380D02*
X154361904Y-85652380D01*
X154076190Y-85652380D02*
X154076190Y-84652380D01*
X154171428Y-84795238D01*
X154266666Y-84890476D01*
X154361904Y-84938095D01*
X158916666Y-81986380D02*
X159250000Y-81510190D01*
X159488095Y-81986380D02*
X159488095Y-80986380D01*
X159107142Y-80986380D01*
X159011904Y-81034000D01*
X158964285Y-81081619D01*
X158916666Y-81176857D01*
X158916666Y-81319714D01*
X158964285Y-81414952D01*
X159011904Y-81462571D01*
X159107142Y-81510190D01*
X159488095Y-81510190D01*
X157964285Y-81986380D02*
X158535714Y-81986380D01*
X158250000Y-81986380D02*
X158250000Y-80986380D01*
X158345238Y-81129238D01*
X158440476Y-81224476D01*
X158535714Y-81272095D01*
X159066666Y-83557142D02*
X159114285Y-83604761D01*
X159257142Y-83652380D01*
X159352380Y-83652380D01*
X159495238Y-83604761D01*
X159590476Y-83509523D01*
X159638095Y-83414285D01*
X159685714Y-83223809D01*
X159685714Y-83080952D01*
X159638095Y-82890476D01*
X159590476Y-82795238D01*
X159495238Y-82700000D01*
X159352380Y-82652380D01*
X159257142Y-82652380D01*
X159114285Y-82700000D01*
X159066666Y-82747619D01*
X158685714Y-82747619D02*
X158638095Y-82700000D01*
X158542857Y-82652380D01*
X158304761Y-82652380D01*
X158209523Y-82700000D01*
X158161904Y-82747619D01*
X158114285Y-82842857D01*
X158114285Y-82938095D01*
X158161904Y-83080952D01*
X158733333Y-83652380D01*
X158114285Y-83652380D01*
X150964666Y-82653142D02*
X151012285Y-82700761D01*
X151155142Y-82748380D01*
X151250380Y-82748380D01*
X151393238Y-82700761D01*
X151488476Y-82605523D01*
X151536095Y-82510285D01*
X151583714Y-82319809D01*
X151583714Y-82176952D01*
X151536095Y-81986476D01*
X151488476Y-81891238D01*
X151393238Y-81796000D01*
X151250380Y-81748380D01*
X151155142Y-81748380D01*
X151012285Y-81796000D01*
X150964666Y-81843619D01*
X150012285Y-82748380D02*
X150583714Y-82748380D01*
X150298000Y-82748380D02*
X150298000Y-81748380D01*
X150393238Y-81891238D01*
X150488476Y-81986476D01*
X150583714Y-82034095D01*
M02*
