%TF.GenerationSoftware,KiCad,Pcbnew,(5.1.6-0-10_14)*%
%TF.CreationDate,2020-10-31T13:15:48+09:00*%
%TF.ProjectId,sig_sensor,7369675f-7365-46e7-936f-722e6b696361,rev?*%
%TF.SameCoordinates,Original*%
%TF.FileFunction,Copper,L1,Top*%
%TF.FilePolarity,Positive*%
%FSLAX46Y46*%
G04 Gerber Fmt 4.6, Leading zero omitted, Abs format (unit mm)*
G04 Created by KiCad (PCBNEW (5.1.6-0-10_14)) date 2020-10-31 13:15:48*
%MOMM*%
%LPD*%
G01*
G04 APERTURE LIST*
%TA.AperFunction,SMDPad,CuDef*%
%ADD10R,1.000000X2.800000*%
%TD*%
%TA.AperFunction,SMDPad,CuDef*%
%ADD11R,0.600000X1.700000*%
%TD*%
%TA.AperFunction,SMDPad,CuDef*%
%ADD12R,0.350000X0.250000*%
%TD*%
%TA.AperFunction,ViaPad*%
%ADD13C,0.600000*%
%TD*%
%TA.AperFunction,Conductor*%
%ADD14C,0.200000*%
%TD*%
%TA.AperFunction,Conductor*%
%ADD15C,0.250000*%
%TD*%
%TA.AperFunction,Conductor*%
%ADD16C,0.400000*%
%TD*%
%TA.AperFunction,Conductor*%
%ADD17C,0.350000*%
%TD*%
G04 APERTURE END LIST*
D10*
%TO.P,J2,0*%
%TO.N,N/C*%
X183600000Y-105150000D03*
X176400000Y-105150000D03*
D11*
%TO.P,J2,6*%
%TO.N,/IOUT4*%
X182500000Y-100000000D03*
%TO.P,J2,5*%
%TO.N,/IOUT2*%
X181500000Y-100000000D03*
%TO.P,J2,4*%
%TO.N,/IOUT*%
X180500000Y-100000000D03*
%TO.P,J2,3*%
%TO.N,Net-(C2-Pad1)*%
X179500000Y-100000000D03*
%TO.P,J2,2*%
%TO.N,GND*%
X178500000Y-100000000D03*
%TO.P,J2,1*%
%TO.N,+3V3*%
X177500000Y-100000000D03*
%TD*%
D10*
%TO.P,J1,0*%
%TO.N,N/C*%
X176400000Y-88850000D03*
X183600000Y-88850000D03*
D11*
%TO.P,J1,6*%
%TO.N,+3V3*%
X177500000Y-94000000D03*
%TO.P,J1,5*%
%TO.N,GND*%
X178500000Y-94000000D03*
%TO.P,J1,4*%
%TO.N,/IOUT*%
X179500000Y-94000000D03*
%TO.P,J1,3*%
%TO.N,/IOUT2*%
X180500000Y-94000000D03*
%TO.P,J1,2*%
%TO.N,/IOUT4*%
X181500000Y-94000000D03*
%TO.P,J1,1*%
%TO.N,Net-(J1-Pad1)*%
X182500000Y-94000000D03*
%TD*%
%TO.P,C1,2*%
%TO.N,GND*%
%TA.AperFunction,SMDPad,CuDef*%
G36*
G01*
X178260000Y-96760000D02*
X178460000Y-96760000D01*
G75*
G02*
X178560000Y-96860000I0J-100000D01*
G01*
X178560000Y-97120000D01*
G75*
G02*
X178460000Y-97220000I-100000J0D01*
G01*
X178260000Y-97220000D01*
G75*
G02*
X178160000Y-97120000I0J100000D01*
G01*
X178160000Y-96860000D01*
G75*
G02*
X178260000Y-96760000I100000J0D01*
G01*
G37*
%TD.AperFunction*%
%TO.P,C1,1*%
%TO.N,+3V3*%
%TA.AperFunction,SMDPad,CuDef*%
G36*
G01*
X178260000Y-96120000D02*
X178460000Y-96120000D01*
G75*
G02*
X178560000Y-96220000I0J-100000D01*
G01*
X178560000Y-96480000D01*
G75*
G02*
X178460000Y-96580000I-100000J0D01*
G01*
X178260000Y-96580000D01*
G75*
G02*
X178160000Y-96480000I0J100000D01*
G01*
X178160000Y-96220000D01*
G75*
G02*
X178260000Y-96120000I100000J0D01*
G01*
G37*
%TD.AperFunction*%
%TD*%
%TO.P,C2,2*%
%TO.N,GND*%
%TA.AperFunction,SMDPad,CuDef*%
G36*
G01*
X182390000Y-96600000D02*
X182390000Y-96400000D01*
G75*
G02*
X182490000Y-96300000I100000J0D01*
G01*
X182750000Y-96300000D01*
G75*
G02*
X182850000Y-96400000I0J-100000D01*
G01*
X182850000Y-96600000D01*
G75*
G02*
X182750000Y-96700000I-100000J0D01*
G01*
X182490000Y-96700000D01*
G75*
G02*
X182390000Y-96600000I0J100000D01*
G01*
G37*
%TD.AperFunction*%
%TO.P,C2,1*%
%TO.N,Net-(C2-Pad1)*%
%TA.AperFunction,SMDPad,CuDef*%
G36*
G01*
X181750000Y-96600000D02*
X181750000Y-96400000D01*
G75*
G02*
X181850000Y-96300000I100000J0D01*
G01*
X182110000Y-96300000D01*
G75*
G02*
X182210000Y-96400000I0J-100000D01*
G01*
X182210000Y-96600000D01*
G75*
G02*
X182110000Y-96700000I-100000J0D01*
G01*
X181850000Y-96700000D01*
G75*
G02*
X181750000Y-96600000I0J100000D01*
G01*
G37*
%TD.AperFunction*%
%TD*%
%TO.P,R1,2*%
%TO.N,GND*%
%TA.AperFunction,SMDPad,CuDef*%
G36*
G01*
X182605000Y-97972500D02*
X182605000Y-97627500D01*
G75*
G02*
X182752500Y-97480000I147500J0D01*
G01*
X183047500Y-97480000D01*
G75*
G02*
X183195000Y-97627500I0J-147500D01*
G01*
X183195000Y-97972500D01*
G75*
G02*
X183047500Y-98120000I-147500J0D01*
G01*
X182752500Y-98120000D01*
G75*
G02*
X182605000Y-97972500I0J147500D01*
G01*
G37*
%TD.AperFunction*%
%TO.P,R1,1*%
%TO.N,Net-(C2-Pad1)*%
%TA.AperFunction,SMDPad,CuDef*%
G36*
G01*
X181635000Y-97972500D02*
X181635000Y-97627500D01*
G75*
G02*
X181782500Y-97480000I147500J0D01*
G01*
X182077500Y-97480000D01*
G75*
G02*
X182225000Y-97627500I0J-147500D01*
G01*
X182225000Y-97972500D01*
G75*
G02*
X182077500Y-98120000I-147500J0D01*
G01*
X181782500Y-98120000D01*
G75*
G02*
X181635000Y-97972500I0J147500D01*
G01*
G37*
%TD.AperFunction*%
%TD*%
D12*
%TO.P,U1,5*%
%TO.N,Net-(C2-Pad1)*%
X180675000Y-96500000D03*
%TO.P,U1,4*%
%TO.N,Net-(SW1-Pad2)*%
X180675000Y-97500000D03*
%TO.P,U1,1*%
%TO.N,+3V3*%
X179325000Y-96500000D03*
%TO.P,U1,2*%
%TO.N,GND*%
X179325000Y-97000000D03*
%TO.P,U1,3*%
%TO.N,Net-(SW2-Pad2)*%
X179325000Y-97500000D03*
%TD*%
D13*
%TO.N,GND*%
X182000000Y-91000000D03*
X181979197Y-103230397D03*
%TO.N,+3V3*%
X177500000Y-92000000D03*
X177520000Y-96350000D03*
X177500000Y-101399994D03*
%TO.N,/IOUT*%
X179500000Y-92000000D03*
X180500000Y-101400004D03*
%TO.N,/IOUT2*%
X180500000Y-92000000D03*
X181500000Y-101399992D03*
%TO.N,/IOUT4*%
X181500000Y-92000000D03*
X182500000Y-101400000D03*
%TO.N,Net-(SW1-Pad2)*%
X180000000Y-90480000D03*
%TO.N,Net-(SW2-Pad2)*%
X179320000Y-98210000D03*
%TD*%
D14*
%TO.N,GND*%
X178500000Y-94000000D02*
X178500000Y-92000000D01*
X178500000Y-92000000D02*
X179500000Y-91000000D01*
X179500000Y-91000000D02*
X182000000Y-91000000D01*
D15*
X178420000Y-97000000D02*
X178300000Y-96880000D01*
D14*
X178500000Y-100000000D02*
X178500000Y-103000000D01*
X178500000Y-103000000D02*
X178730398Y-103230398D01*
X178730398Y-103230398D02*
X181554933Y-103230397D01*
X181554933Y-103230397D02*
X181979197Y-103230397D01*
X178370000Y-97000000D02*
X178360000Y-96990000D01*
X179325000Y-97000000D02*
X178370000Y-97000000D01*
X178500000Y-97130000D02*
X178360000Y-96990000D01*
X178500000Y-100000000D02*
X178500000Y-97130000D01*
X176999999Y-96100399D02*
X178500000Y-94600398D01*
X178500000Y-94600398D02*
X178500000Y-94000000D01*
X176999999Y-96599601D02*
X176999999Y-96100399D01*
X177390398Y-96990000D02*
X176999999Y-96599601D01*
X178360000Y-96990000D02*
X177390398Y-96990000D01*
D16*
%TO.N,+3V3*%
X177500000Y-94000000D02*
X177500000Y-92000000D01*
D14*
X178510000Y-96500000D02*
X178360000Y-96350000D01*
X179325000Y-96500000D02*
X178510000Y-96500000D01*
X177520000Y-96350000D02*
X178360000Y-96350000D01*
D16*
X177500000Y-100000000D02*
X177500000Y-101399994D01*
D14*
%TO.N,Net-(C2-Pad1)*%
X179500000Y-100000000D02*
X179500000Y-99250000D01*
X181805000Y-97675000D02*
X181930000Y-97800000D01*
X181980000Y-97750000D02*
X181930000Y-97800000D01*
X180675000Y-96500000D02*
X181980000Y-96500000D01*
X181930000Y-96550000D02*
X181980000Y-96500000D01*
X181930000Y-97800000D02*
X181930000Y-96550000D01*
X179500000Y-98950000D02*
X179500000Y-100000000D01*
X181884999Y-97845001D02*
X180604999Y-97845001D01*
X180604999Y-97845001D02*
X179500000Y-98950000D01*
X181930000Y-97800000D02*
X181884999Y-97845001D01*
D16*
%TO.N,/IOUT*%
X179500000Y-94000000D02*
X179500000Y-92000000D01*
X180500000Y-100000000D02*
X180500000Y-101400004D01*
%TO.N,/IOUT2*%
X180500000Y-94000000D02*
X180500000Y-92000000D01*
X181500000Y-100000000D02*
X181500000Y-101399992D01*
%TO.N,/IOUT4*%
X181500000Y-94000000D02*
X181500000Y-92000000D01*
X182500000Y-100000000D02*
X182500000Y-101400000D01*
D14*
%TO.N,Net-(SW1-Pad2)*%
X180675000Y-97500000D02*
X180279999Y-97104999D01*
X180279999Y-97104999D02*
X180279999Y-96198999D01*
X180279999Y-96198999D02*
X181228998Y-95250000D01*
X181228998Y-95250000D02*
X182796002Y-95250000D01*
X182796002Y-95250000D02*
X183020001Y-95026001D01*
X183020001Y-95026001D02*
X183020001Y-91020001D01*
X183020001Y-91020001D02*
X182500000Y-90500000D01*
X182500000Y-90500000D02*
X182269602Y-90500000D01*
X182269602Y-90500000D02*
X182249602Y-90480000D01*
X182249602Y-90480000D02*
X180000000Y-90480000D01*
%TO.N,Net-(SW2-Pad2)*%
X179320000Y-97505000D02*
X179325000Y-97500000D01*
X179320000Y-98210000D02*
X179320000Y-97505000D01*
%TD*%
D17*
%TO.N,GND*%
G36*
X184600000Y-103076031D02*
G01*
X175475000Y-103099549D01*
X175475000Y-99150000D01*
X176823186Y-99150000D01*
X176823186Y-100850000D01*
X176830426Y-100923513D01*
X176851869Y-100994200D01*
X176886691Y-101059347D01*
X176902735Y-101078897D01*
X176901823Y-101080262D01*
X176850940Y-101203104D01*
X176825000Y-101333512D01*
X176825000Y-101466476D01*
X176850940Y-101596884D01*
X176901823Y-101719726D01*
X176975693Y-101830281D01*
X177069713Y-101924301D01*
X177180268Y-101998171D01*
X177303110Y-102049054D01*
X177433518Y-102074994D01*
X177566482Y-102074994D01*
X177696890Y-102049054D01*
X177819732Y-101998171D01*
X177930287Y-101924301D01*
X178024307Y-101830281D01*
X178098177Y-101719726D01*
X178149060Y-101596884D01*
X178175000Y-101466476D01*
X178175000Y-101333512D01*
X178149060Y-101203104D01*
X178098177Y-101080262D01*
X178097265Y-101078897D01*
X178113309Y-101059347D01*
X178148131Y-100994200D01*
X178169574Y-100923513D01*
X178176814Y-100850000D01*
X178176814Y-99150000D01*
X178169574Y-99076487D01*
X178148131Y-99005800D01*
X178113309Y-98940653D01*
X178066448Y-98883552D01*
X178009347Y-98836691D01*
X177944200Y-98801869D01*
X177873513Y-98780426D01*
X177800000Y-98773186D01*
X177200000Y-98773186D01*
X177126487Y-98780426D01*
X177055800Y-98801869D01*
X176990653Y-98836691D01*
X176933552Y-98883552D01*
X176886691Y-98940653D01*
X176851869Y-99005800D01*
X176830426Y-99076487D01*
X176823186Y-99150000D01*
X175475000Y-99150000D01*
X175475000Y-92699549D01*
X176925001Y-92695812D01*
X176925001Y-92893972D01*
X176886691Y-92940653D01*
X176851869Y-93005800D01*
X176830426Y-93076487D01*
X176823186Y-93150000D01*
X176823186Y-94850000D01*
X176830426Y-94923513D01*
X176851869Y-94994200D01*
X176886691Y-95059347D01*
X176933552Y-95116448D01*
X176990653Y-95163309D01*
X177055800Y-95198131D01*
X177126487Y-95219574D01*
X177200000Y-95226814D01*
X177800000Y-95226814D01*
X177873513Y-95219574D01*
X177944200Y-95198131D01*
X178009347Y-95163309D01*
X178066448Y-95116448D01*
X178113309Y-95059347D01*
X178148131Y-94994200D01*
X178169574Y-94923513D01*
X178176814Y-94850000D01*
X178176814Y-93150000D01*
X178169574Y-93076487D01*
X178148131Y-93005800D01*
X178113309Y-92940653D01*
X178075000Y-92893973D01*
X178075000Y-92692848D01*
X178925001Y-92690657D01*
X178925001Y-92893972D01*
X178886691Y-92940653D01*
X178851869Y-93005800D01*
X178830426Y-93076487D01*
X178823186Y-93150000D01*
X178823186Y-94850000D01*
X178830426Y-94923513D01*
X178851869Y-94994200D01*
X178886691Y-95059347D01*
X178933552Y-95116448D01*
X178990653Y-95163309D01*
X179055800Y-95198131D01*
X179126487Y-95219574D01*
X179200000Y-95226814D01*
X179800000Y-95226814D01*
X179873513Y-95219574D01*
X179944200Y-95198131D01*
X180000000Y-95168305D01*
X180055800Y-95198131D01*
X180126487Y-95219574D01*
X180200000Y-95226814D01*
X180580433Y-95226814D01*
X179960628Y-95846620D01*
X179942499Y-95861498D01*
X179883141Y-95933826D01*
X179849039Y-95997627D01*
X179839034Y-96016345D01*
X179811872Y-96105883D01*
X179806770Y-96157685D01*
X179766448Y-96108552D01*
X179709347Y-96061691D01*
X179644200Y-96026869D01*
X179573513Y-96005426D01*
X179500000Y-95998186D01*
X179150000Y-95998186D01*
X179076487Y-96005426D01*
X179011961Y-96025000D01*
X178893821Y-96025000D01*
X178856456Y-95955096D01*
X178797158Y-95882842D01*
X178724904Y-95823544D01*
X178642469Y-95779481D01*
X178553022Y-95752348D01*
X178460000Y-95743186D01*
X178260000Y-95743186D01*
X178166978Y-95752348D01*
X178077531Y-95779481D01*
X177995096Y-95823544D01*
X177969305Y-95844711D01*
X177950287Y-95825693D01*
X177839732Y-95751823D01*
X177716890Y-95700940D01*
X177586482Y-95675000D01*
X177453518Y-95675000D01*
X177323110Y-95700940D01*
X177200268Y-95751823D01*
X177089713Y-95825693D01*
X176995693Y-95919713D01*
X176921823Y-96030268D01*
X176870940Y-96153110D01*
X176845000Y-96283518D01*
X176845000Y-96416482D01*
X176870940Y-96546890D01*
X176921823Y-96669732D01*
X176995693Y-96780287D01*
X177089713Y-96874307D01*
X177200268Y-96948177D01*
X177323110Y-96999060D01*
X177453518Y-97025000D01*
X177586482Y-97025000D01*
X177716890Y-96999060D01*
X177839732Y-96948177D01*
X177950287Y-96874307D01*
X177969305Y-96855289D01*
X177995096Y-96876456D01*
X178077531Y-96920519D01*
X178166978Y-96947652D01*
X178260000Y-96956814D01*
X178379590Y-96956814D01*
X178396044Y-96961805D01*
X178416883Y-96968127D01*
X178509999Y-96977298D01*
X178533332Y-96975000D01*
X179011961Y-96975000D01*
X179076487Y-96994574D01*
X179131581Y-97000000D01*
X179076487Y-97005426D01*
X179005800Y-97026869D01*
X178940653Y-97061691D01*
X178883552Y-97108552D01*
X178836691Y-97165653D01*
X178801869Y-97230800D01*
X178780426Y-97301487D01*
X178773186Y-97375000D01*
X178773186Y-97625000D01*
X178780426Y-97698513D01*
X178801869Y-97769200D01*
X178803380Y-97772026D01*
X178795693Y-97779713D01*
X178721823Y-97890268D01*
X178670940Y-98013110D01*
X178645000Y-98143518D01*
X178645000Y-98276482D01*
X178670940Y-98406890D01*
X178721823Y-98529732D01*
X178795693Y-98640287D01*
X178889713Y-98734307D01*
X179000268Y-98808177D01*
X179024906Y-98818382D01*
X178990653Y-98836691D01*
X178933552Y-98883552D01*
X178886691Y-98940653D01*
X178851869Y-99005800D01*
X178830426Y-99076487D01*
X178823186Y-99150000D01*
X178823186Y-100850000D01*
X178830426Y-100923513D01*
X178851869Y-100994200D01*
X178886691Y-101059347D01*
X178933552Y-101116448D01*
X178990653Y-101163309D01*
X179055800Y-101198131D01*
X179126487Y-101219574D01*
X179200000Y-101226814D01*
X179800000Y-101226814D01*
X179847149Y-101222170D01*
X179825000Y-101333522D01*
X179825000Y-101466486D01*
X179850940Y-101596894D01*
X179901823Y-101719736D01*
X179975693Y-101830291D01*
X180069713Y-101924311D01*
X180180268Y-101998181D01*
X180303110Y-102049064D01*
X180433518Y-102075004D01*
X180566482Y-102075004D01*
X180696890Y-102049064D01*
X180819732Y-101998181D01*
X180930287Y-101924311D01*
X181000006Y-101854592D01*
X181069713Y-101924299D01*
X181180268Y-101998169D01*
X181303110Y-102049052D01*
X181433518Y-102074992D01*
X181566482Y-102074992D01*
X181696890Y-102049052D01*
X181819732Y-101998169D01*
X181930287Y-101924299D01*
X181999996Y-101854590D01*
X182069713Y-101924307D01*
X182180268Y-101998177D01*
X182303110Y-102049060D01*
X182433518Y-102075000D01*
X182566482Y-102075000D01*
X182696890Y-102049060D01*
X182819732Y-101998177D01*
X182930287Y-101924307D01*
X183024307Y-101830287D01*
X183098177Y-101719732D01*
X183149060Y-101596890D01*
X183175000Y-101466482D01*
X183175000Y-101333518D01*
X183149060Y-101203110D01*
X183098177Y-101080268D01*
X183097263Y-101078900D01*
X183113309Y-101059347D01*
X183148131Y-100994200D01*
X183169574Y-100923513D01*
X183176814Y-100850000D01*
X183176814Y-99150000D01*
X183169574Y-99076487D01*
X183148131Y-99005800D01*
X183113309Y-98940653D01*
X183066448Y-98883552D01*
X183009347Y-98836691D01*
X182944200Y-98801869D01*
X182873513Y-98780426D01*
X182800000Y-98773186D01*
X182200000Y-98773186D01*
X182126487Y-98780426D01*
X182055800Y-98801869D01*
X182000000Y-98831695D01*
X181944200Y-98801869D01*
X181873513Y-98780426D01*
X181800000Y-98773186D01*
X181200000Y-98773186D01*
X181126487Y-98780426D01*
X181055800Y-98801869D01*
X181000000Y-98831695D01*
X180944200Y-98801869D01*
X180873513Y-98780426D01*
X180800000Y-98773186D01*
X180348565Y-98773186D01*
X180801751Y-98320001D01*
X181392677Y-98320001D01*
X181411754Y-98343246D01*
X181491207Y-98408451D01*
X181581854Y-98456903D01*
X181680211Y-98486739D01*
X181782500Y-98496814D01*
X182077500Y-98496814D01*
X182179789Y-98486739D01*
X182278146Y-98456903D01*
X182368793Y-98408451D01*
X182448246Y-98343246D01*
X182513451Y-98263793D01*
X182561903Y-98173146D01*
X182591739Y-98074789D01*
X182601814Y-97972500D01*
X182601814Y-97627500D01*
X182591739Y-97525211D01*
X182561903Y-97426854D01*
X182513451Y-97336207D01*
X182448246Y-97256754D01*
X182405000Y-97221263D01*
X182405000Y-96971757D01*
X182447158Y-96937158D01*
X182506456Y-96864904D01*
X182550519Y-96782469D01*
X182577652Y-96693022D01*
X182586814Y-96600000D01*
X182586814Y-96400000D01*
X182577652Y-96306978D01*
X182550519Y-96217531D01*
X182506456Y-96135096D01*
X182447158Y-96062842D01*
X182374904Y-96003544D01*
X182292469Y-95959481D01*
X182203022Y-95932348D01*
X182110000Y-95923186D01*
X181850000Y-95923186D01*
X181756978Y-95932348D01*
X181667531Y-95959481D01*
X181585096Y-96003544D01*
X181558952Y-96025000D01*
X181125749Y-96025000D01*
X181425749Y-95725000D01*
X182772670Y-95725000D01*
X182796002Y-95727298D01*
X182819334Y-95725000D01*
X182889118Y-95718127D01*
X182978656Y-95690966D01*
X183061175Y-95646859D01*
X183133503Y-95587501D01*
X183148386Y-95569366D01*
X183339367Y-95378385D01*
X183357502Y-95363502D01*
X183416860Y-95291174D01*
X183460967Y-95208655D01*
X183488128Y-95119117D01*
X183495001Y-95049333D01*
X183495001Y-95049332D01*
X183497299Y-95026002D01*
X183495001Y-95002670D01*
X183495001Y-92678879D01*
X184600001Y-92676031D01*
X184600000Y-103076031D01*
G37*
X184600000Y-103076031D02*
X175475000Y-103099549D01*
X175475000Y-99150000D01*
X176823186Y-99150000D01*
X176823186Y-100850000D01*
X176830426Y-100923513D01*
X176851869Y-100994200D01*
X176886691Y-101059347D01*
X176902735Y-101078897D01*
X176901823Y-101080262D01*
X176850940Y-101203104D01*
X176825000Y-101333512D01*
X176825000Y-101466476D01*
X176850940Y-101596884D01*
X176901823Y-101719726D01*
X176975693Y-101830281D01*
X177069713Y-101924301D01*
X177180268Y-101998171D01*
X177303110Y-102049054D01*
X177433518Y-102074994D01*
X177566482Y-102074994D01*
X177696890Y-102049054D01*
X177819732Y-101998171D01*
X177930287Y-101924301D01*
X178024307Y-101830281D01*
X178098177Y-101719726D01*
X178149060Y-101596884D01*
X178175000Y-101466476D01*
X178175000Y-101333512D01*
X178149060Y-101203104D01*
X178098177Y-101080262D01*
X178097265Y-101078897D01*
X178113309Y-101059347D01*
X178148131Y-100994200D01*
X178169574Y-100923513D01*
X178176814Y-100850000D01*
X178176814Y-99150000D01*
X178169574Y-99076487D01*
X178148131Y-99005800D01*
X178113309Y-98940653D01*
X178066448Y-98883552D01*
X178009347Y-98836691D01*
X177944200Y-98801869D01*
X177873513Y-98780426D01*
X177800000Y-98773186D01*
X177200000Y-98773186D01*
X177126487Y-98780426D01*
X177055800Y-98801869D01*
X176990653Y-98836691D01*
X176933552Y-98883552D01*
X176886691Y-98940653D01*
X176851869Y-99005800D01*
X176830426Y-99076487D01*
X176823186Y-99150000D01*
X175475000Y-99150000D01*
X175475000Y-92699549D01*
X176925001Y-92695812D01*
X176925001Y-92893972D01*
X176886691Y-92940653D01*
X176851869Y-93005800D01*
X176830426Y-93076487D01*
X176823186Y-93150000D01*
X176823186Y-94850000D01*
X176830426Y-94923513D01*
X176851869Y-94994200D01*
X176886691Y-95059347D01*
X176933552Y-95116448D01*
X176990653Y-95163309D01*
X177055800Y-95198131D01*
X177126487Y-95219574D01*
X177200000Y-95226814D01*
X177800000Y-95226814D01*
X177873513Y-95219574D01*
X177944200Y-95198131D01*
X178009347Y-95163309D01*
X178066448Y-95116448D01*
X178113309Y-95059347D01*
X178148131Y-94994200D01*
X178169574Y-94923513D01*
X178176814Y-94850000D01*
X178176814Y-93150000D01*
X178169574Y-93076487D01*
X178148131Y-93005800D01*
X178113309Y-92940653D01*
X178075000Y-92893973D01*
X178075000Y-92692848D01*
X178925001Y-92690657D01*
X178925001Y-92893972D01*
X178886691Y-92940653D01*
X178851869Y-93005800D01*
X178830426Y-93076487D01*
X178823186Y-93150000D01*
X178823186Y-94850000D01*
X178830426Y-94923513D01*
X178851869Y-94994200D01*
X178886691Y-95059347D01*
X178933552Y-95116448D01*
X178990653Y-95163309D01*
X179055800Y-95198131D01*
X179126487Y-95219574D01*
X179200000Y-95226814D01*
X179800000Y-95226814D01*
X179873513Y-95219574D01*
X179944200Y-95198131D01*
X180000000Y-95168305D01*
X180055800Y-95198131D01*
X180126487Y-95219574D01*
X180200000Y-95226814D01*
X180580433Y-95226814D01*
X179960628Y-95846620D01*
X179942499Y-95861498D01*
X179883141Y-95933826D01*
X179849039Y-95997627D01*
X179839034Y-96016345D01*
X179811872Y-96105883D01*
X179806770Y-96157685D01*
X179766448Y-96108552D01*
X179709347Y-96061691D01*
X179644200Y-96026869D01*
X179573513Y-96005426D01*
X179500000Y-95998186D01*
X179150000Y-95998186D01*
X179076487Y-96005426D01*
X179011961Y-96025000D01*
X178893821Y-96025000D01*
X178856456Y-95955096D01*
X178797158Y-95882842D01*
X178724904Y-95823544D01*
X178642469Y-95779481D01*
X178553022Y-95752348D01*
X178460000Y-95743186D01*
X178260000Y-95743186D01*
X178166978Y-95752348D01*
X178077531Y-95779481D01*
X177995096Y-95823544D01*
X177969305Y-95844711D01*
X177950287Y-95825693D01*
X177839732Y-95751823D01*
X177716890Y-95700940D01*
X177586482Y-95675000D01*
X177453518Y-95675000D01*
X177323110Y-95700940D01*
X177200268Y-95751823D01*
X177089713Y-95825693D01*
X176995693Y-95919713D01*
X176921823Y-96030268D01*
X176870940Y-96153110D01*
X176845000Y-96283518D01*
X176845000Y-96416482D01*
X176870940Y-96546890D01*
X176921823Y-96669732D01*
X176995693Y-96780287D01*
X177089713Y-96874307D01*
X177200268Y-96948177D01*
X177323110Y-96999060D01*
X177453518Y-97025000D01*
X177586482Y-97025000D01*
X177716890Y-96999060D01*
X177839732Y-96948177D01*
X177950287Y-96874307D01*
X177969305Y-96855289D01*
X177995096Y-96876456D01*
X178077531Y-96920519D01*
X178166978Y-96947652D01*
X178260000Y-96956814D01*
X178379590Y-96956814D01*
X178396044Y-96961805D01*
X178416883Y-96968127D01*
X178509999Y-96977298D01*
X178533332Y-96975000D01*
X179011961Y-96975000D01*
X179076487Y-96994574D01*
X179131581Y-97000000D01*
X179076487Y-97005426D01*
X179005800Y-97026869D01*
X178940653Y-97061691D01*
X178883552Y-97108552D01*
X178836691Y-97165653D01*
X178801869Y-97230800D01*
X178780426Y-97301487D01*
X178773186Y-97375000D01*
X178773186Y-97625000D01*
X178780426Y-97698513D01*
X178801869Y-97769200D01*
X178803380Y-97772026D01*
X178795693Y-97779713D01*
X178721823Y-97890268D01*
X178670940Y-98013110D01*
X178645000Y-98143518D01*
X178645000Y-98276482D01*
X178670940Y-98406890D01*
X178721823Y-98529732D01*
X178795693Y-98640287D01*
X178889713Y-98734307D01*
X179000268Y-98808177D01*
X179024906Y-98818382D01*
X178990653Y-98836691D01*
X178933552Y-98883552D01*
X178886691Y-98940653D01*
X178851869Y-99005800D01*
X178830426Y-99076487D01*
X178823186Y-99150000D01*
X178823186Y-100850000D01*
X178830426Y-100923513D01*
X178851869Y-100994200D01*
X178886691Y-101059347D01*
X178933552Y-101116448D01*
X178990653Y-101163309D01*
X179055800Y-101198131D01*
X179126487Y-101219574D01*
X179200000Y-101226814D01*
X179800000Y-101226814D01*
X179847149Y-101222170D01*
X179825000Y-101333522D01*
X179825000Y-101466486D01*
X179850940Y-101596894D01*
X179901823Y-101719736D01*
X179975693Y-101830291D01*
X180069713Y-101924311D01*
X180180268Y-101998181D01*
X180303110Y-102049064D01*
X180433518Y-102075004D01*
X180566482Y-102075004D01*
X180696890Y-102049064D01*
X180819732Y-101998181D01*
X180930287Y-101924311D01*
X181000006Y-101854592D01*
X181069713Y-101924299D01*
X181180268Y-101998169D01*
X181303110Y-102049052D01*
X181433518Y-102074992D01*
X181566482Y-102074992D01*
X181696890Y-102049052D01*
X181819732Y-101998169D01*
X181930287Y-101924299D01*
X181999996Y-101854590D01*
X182069713Y-101924307D01*
X182180268Y-101998177D01*
X182303110Y-102049060D01*
X182433518Y-102075000D01*
X182566482Y-102075000D01*
X182696890Y-102049060D01*
X182819732Y-101998177D01*
X182930287Y-101924307D01*
X183024307Y-101830287D01*
X183098177Y-101719732D01*
X183149060Y-101596890D01*
X183175000Y-101466482D01*
X183175000Y-101333518D01*
X183149060Y-101203110D01*
X183098177Y-101080268D01*
X183097263Y-101078900D01*
X183113309Y-101059347D01*
X183148131Y-100994200D01*
X183169574Y-100923513D01*
X183176814Y-100850000D01*
X183176814Y-99150000D01*
X183169574Y-99076487D01*
X183148131Y-99005800D01*
X183113309Y-98940653D01*
X183066448Y-98883552D01*
X183009347Y-98836691D01*
X182944200Y-98801869D01*
X182873513Y-98780426D01*
X182800000Y-98773186D01*
X182200000Y-98773186D01*
X182126487Y-98780426D01*
X182055800Y-98801869D01*
X182000000Y-98831695D01*
X181944200Y-98801869D01*
X181873513Y-98780426D01*
X181800000Y-98773186D01*
X181200000Y-98773186D01*
X181126487Y-98780426D01*
X181055800Y-98801869D01*
X181000000Y-98831695D01*
X180944200Y-98801869D01*
X180873513Y-98780426D01*
X180800000Y-98773186D01*
X180348565Y-98773186D01*
X180801751Y-98320001D01*
X181392677Y-98320001D01*
X181411754Y-98343246D01*
X181491207Y-98408451D01*
X181581854Y-98456903D01*
X181680211Y-98486739D01*
X181782500Y-98496814D01*
X182077500Y-98496814D01*
X182179789Y-98486739D01*
X182278146Y-98456903D01*
X182368793Y-98408451D01*
X182448246Y-98343246D01*
X182513451Y-98263793D01*
X182561903Y-98173146D01*
X182591739Y-98074789D01*
X182601814Y-97972500D01*
X182601814Y-97627500D01*
X182591739Y-97525211D01*
X182561903Y-97426854D01*
X182513451Y-97336207D01*
X182448246Y-97256754D01*
X182405000Y-97221263D01*
X182405000Y-96971757D01*
X182447158Y-96937158D01*
X182506456Y-96864904D01*
X182550519Y-96782469D01*
X182577652Y-96693022D01*
X182586814Y-96600000D01*
X182586814Y-96400000D01*
X182577652Y-96306978D01*
X182550519Y-96217531D01*
X182506456Y-96135096D01*
X182447158Y-96062842D01*
X182374904Y-96003544D01*
X182292469Y-95959481D01*
X182203022Y-95932348D01*
X182110000Y-95923186D01*
X181850000Y-95923186D01*
X181756978Y-95932348D01*
X181667531Y-95959481D01*
X181585096Y-96003544D01*
X181558952Y-96025000D01*
X181125749Y-96025000D01*
X181425749Y-95725000D01*
X182772670Y-95725000D01*
X182796002Y-95727298D01*
X182819334Y-95725000D01*
X182889118Y-95718127D01*
X182978656Y-95690966D01*
X183061175Y-95646859D01*
X183133503Y-95587501D01*
X183148386Y-95569366D01*
X183339367Y-95378385D01*
X183357502Y-95363502D01*
X183416860Y-95291174D01*
X183460967Y-95208655D01*
X183488128Y-95119117D01*
X183495001Y-95049333D01*
X183495001Y-95049332D01*
X183497299Y-95026002D01*
X183495001Y-95002670D01*
X183495001Y-92678879D01*
X184600001Y-92676031D01*
X184600000Y-103076031D01*
%TD*%
M02*
