%TF.GenerationSoftware,KiCad,Pcbnew,(5.1.6-0-10_14)*%
%TF.CreationDate,2020-10-31T13:15:48+09:00*%
%TF.ProjectId,sig_sensor,7369675f-7365-46e7-936f-722e6b696361,rev?*%
%TF.SameCoordinates,Original*%
%TF.FileFunction,Copper,L2,Bot*%
%TF.FilePolarity,Positive*%
%FSLAX46Y46*%
G04 Gerber Fmt 4.6, Leading zero omitted, Abs format (unit mm)*
G04 Created by KiCad (PCBNEW (5.1.6-0-10_14)) date 2020-10-31 13:15:48*
%MOMM*%
%LPD*%
G01*
G04 APERTURE LIST*
%TA.AperFunction,NonConductor*%
%ADD10C,0.200000*%
%TD*%
%TA.AperFunction,SMDPad,CuDef*%
%ADD11R,1.000000X2.000000*%
%TD*%
%TA.AperFunction,ViaPad*%
%ADD12C,0.600000*%
%TD*%
%TA.AperFunction,Conductor*%
%ADD13C,0.200000*%
%TD*%
%TA.AperFunction,Conductor*%
%ADD14C,0.400000*%
%TD*%
G04 APERTURE END LIST*
D10*
X178000000Y-105200000D02*
X180000000Y-105200000D01*
X180000000Y-89000000D02*
X182000000Y-89000000D01*
D11*
%TO.P,SW1,3*%
%TO.N,+3V3*%
X178000000Y-89000000D03*
%TO.P,SW1,2*%
%TO.N,Net-(SW1-Pad2)*%
X180000000Y-89000000D03*
%TO.P,SW1,1*%
%TO.N,GND*%
X182000000Y-89000000D03*
%TD*%
%TO.P,SW2,3*%
%TO.N,GND*%
X182000000Y-105200000D03*
%TO.P,SW2,2*%
%TO.N,Net-(SW2-Pad2)*%
X180000000Y-105200000D03*
%TO.P,SW2,1*%
%TO.N,+3V3*%
X178000000Y-105200000D03*
%TD*%
D12*
%TO.N,GND*%
X182000000Y-91000000D03*
X181979197Y-103230397D03*
%TO.N,+3V3*%
X177500000Y-92000000D03*
X177520000Y-96350000D03*
X177500000Y-101399994D03*
%TO.N,/IOUT*%
X179500000Y-92000000D03*
X180500000Y-101400004D03*
%TO.N,/IOUT2*%
X180500000Y-92000000D03*
X181500000Y-101399992D03*
%TO.N,/IOUT4*%
X181500000Y-92000000D03*
X182500000Y-101400000D03*
%TO.N,Net-(SW1-Pad2)*%
X180000000Y-90480000D03*
%TO.N,Net-(SW2-Pad2)*%
X179320000Y-98210000D03*
%TD*%
D13*
%TO.N,GND*%
X182000000Y-103251200D02*
X181979197Y-103230397D01*
X182000000Y-105200000D02*
X182000000Y-103251200D01*
X182000000Y-91000000D02*
X182000000Y-88900000D01*
%TO.N,+3V3*%
X178000000Y-105200000D02*
X178000000Y-101899994D01*
X177500000Y-92000000D02*
X178000000Y-91500000D01*
X178000000Y-91500000D02*
X178000000Y-91100000D01*
X178000000Y-89000000D02*
X178000000Y-91100000D01*
D14*
X177500000Y-92000000D02*
X177500000Y-101399994D01*
D13*
X178000000Y-101899994D02*
X177500000Y-101399994D01*
D14*
%TO.N,/IOUT*%
X179500000Y-92000000D02*
X180500000Y-93000000D01*
X180500000Y-93000000D02*
X180500000Y-101400004D01*
%TO.N,/IOUT2*%
X181500000Y-93000000D02*
X181500000Y-101399992D01*
X180500000Y-92000000D02*
X181500000Y-93000000D01*
%TO.N,/IOUT4*%
X182500000Y-93000000D02*
X182500000Y-101400000D01*
X181500000Y-92000000D02*
X182500000Y-93000000D01*
D13*
%TO.N,Net-(SW1-Pad2)*%
X180000000Y-90480000D02*
X180000000Y-88900000D01*
%TO.N,Net-(SW2-Pad2)*%
X180000000Y-105200000D02*
X180000000Y-102709980D01*
X179320000Y-102029980D02*
X180000000Y-102709980D01*
X179320000Y-98210000D02*
X179320000Y-102029980D01*
%TD*%
M02*
