G04 #@! TF.GenerationSoftware,KiCad,Pcbnew,(5.1.4)-1*
G04 #@! TF.CreationDate,2019-11-18T11:48:03+09:00*
G04 #@! TF.ProjectId,signaltowr_hikarikensyutu,7369676e-616c-4746-9f77-725f68696b61,rev?*
G04 #@! TF.SameCoordinates,Original*
G04 #@! TF.FileFunction,Paste,Top*
G04 #@! TF.FilePolarity,Positive*
%FSLAX46Y46*%
G04 Gerber Fmt 4.6, Leading zero omitted, Abs format (unit mm)*
G04 Created by KiCad (PCBNEW (5.1.4)-1) date 2019-11-18 11:48:03*
%MOMM*%
%LPD*%
G04 APERTURE LIST*
%ADD10R,7.000000X7.000000*%
%ADD11R,0.760000X2.500000*%
%ADD12R,0.600000X0.900000*%
%ADD13R,1.350000X0.400000*%
%ADD14R,1.900000X1.600000*%
%ADD15R,2.000000X2.100000*%
%ADD16R,0.800000X1.000000*%
%ADD17R,0.700000X1.000000*%
%ADD18C,0.100000*%
%ADD19C,0.590000*%
%ADD20R,1.050000X0.350000*%
%ADD21R,1.350000X2.000000*%
%ADD22C,1.250000*%
G04 APERTURE END LIST*
D10*
X107188000Y-77470000D03*
D11*
X105918000Y-83720000D03*
X104648000Y-83720000D03*
X109728000Y-83720000D03*
X108458000Y-83720000D03*
D12*
X98806000Y-90678000D03*
X99756000Y-92378000D03*
X97856000Y-92378000D03*
D13*
X95575000Y-92262000D03*
X95575000Y-92912000D03*
X95575000Y-93562000D03*
X95575000Y-91612000D03*
D14*
X92900000Y-97012000D03*
D15*
X95250000Y-96012000D03*
D14*
X92900000Y-88812000D03*
D13*
X95575000Y-94212000D03*
D15*
X95250000Y-89812000D03*
D16*
X107728000Y-87122000D03*
X109728000Y-87122000D03*
X109728000Y-89522000D03*
X107728000Y-89522000D03*
D17*
X108728000Y-89522000D03*
D18*
G36*
X102294958Y-83479710D02*
G01*
X102309276Y-83481834D01*
X102323317Y-83485351D01*
X102336946Y-83490228D01*
X102350031Y-83496417D01*
X102362447Y-83503858D01*
X102374073Y-83512481D01*
X102384798Y-83522202D01*
X102394519Y-83532927D01*
X102403142Y-83544553D01*
X102410583Y-83556969D01*
X102416772Y-83570054D01*
X102421649Y-83583683D01*
X102425166Y-83597724D01*
X102427290Y-83612042D01*
X102428000Y-83626500D01*
X102428000Y-83921500D01*
X102427290Y-83935958D01*
X102425166Y-83950276D01*
X102421649Y-83964317D01*
X102416772Y-83977946D01*
X102410583Y-83991031D01*
X102403142Y-84003447D01*
X102394519Y-84015073D01*
X102384798Y-84025798D01*
X102374073Y-84035519D01*
X102362447Y-84044142D01*
X102350031Y-84051583D01*
X102336946Y-84057772D01*
X102323317Y-84062649D01*
X102309276Y-84066166D01*
X102294958Y-84068290D01*
X102280500Y-84069000D01*
X101935500Y-84069000D01*
X101921042Y-84068290D01*
X101906724Y-84066166D01*
X101892683Y-84062649D01*
X101879054Y-84057772D01*
X101865969Y-84051583D01*
X101853553Y-84044142D01*
X101841927Y-84035519D01*
X101831202Y-84025798D01*
X101821481Y-84015073D01*
X101812858Y-84003447D01*
X101805417Y-83991031D01*
X101799228Y-83977946D01*
X101794351Y-83964317D01*
X101790834Y-83950276D01*
X101788710Y-83935958D01*
X101788000Y-83921500D01*
X101788000Y-83626500D01*
X101788710Y-83612042D01*
X101790834Y-83597724D01*
X101794351Y-83583683D01*
X101799228Y-83570054D01*
X101805417Y-83556969D01*
X101812858Y-83544553D01*
X101821481Y-83532927D01*
X101831202Y-83522202D01*
X101841927Y-83512481D01*
X101853553Y-83503858D01*
X101865969Y-83496417D01*
X101879054Y-83490228D01*
X101892683Y-83485351D01*
X101906724Y-83481834D01*
X101921042Y-83479710D01*
X101935500Y-83479000D01*
X102280500Y-83479000D01*
X102294958Y-83479710D01*
X102294958Y-83479710D01*
G37*
D19*
X102108000Y-83774000D03*
D18*
G36*
X102294958Y-82509710D02*
G01*
X102309276Y-82511834D01*
X102323317Y-82515351D01*
X102336946Y-82520228D01*
X102350031Y-82526417D01*
X102362447Y-82533858D01*
X102374073Y-82542481D01*
X102384798Y-82552202D01*
X102394519Y-82562927D01*
X102403142Y-82574553D01*
X102410583Y-82586969D01*
X102416772Y-82600054D01*
X102421649Y-82613683D01*
X102425166Y-82627724D01*
X102427290Y-82642042D01*
X102428000Y-82656500D01*
X102428000Y-82951500D01*
X102427290Y-82965958D01*
X102425166Y-82980276D01*
X102421649Y-82994317D01*
X102416772Y-83007946D01*
X102410583Y-83021031D01*
X102403142Y-83033447D01*
X102394519Y-83045073D01*
X102384798Y-83055798D01*
X102374073Y-83065519D01*
X102362447Y-83074142D01*
X102350031Y-83081583D01*
X102336946Y-83087772D01*
X102323317Y-83092649D01*
X102309276Y-83096166D01*
X102294958Y-83098290D01*
X102280500Y-83099000D01*
X101935500Y-83099000D01*
X101921042Y-83098290D01*
X101906724Y-83096166D01*
X101892683Y-83092649D01*
X101879054Y-83087772D01*
X101865969Y-83081583D01*
X101853553Y-83074142D01*
X101841927Y-83065519D01*
X101831202Y-83055798D01*
X101821481Y-83045073D01*
X101812858Y-83033447D01*
X101805417Y-83021031D01*
X101799228Y-83007946D01*
X101794351Y-82994317D01*
X101790834Y-82980276D01*
X101788710Y-82965958D01*
X101788000Y-82951500D01*
X101788000Y-82656500D01*
X101788710Y-82642042D01*
X101790834Y-82627724D01*
X101794351Y-82613683D01*
X101799228Y-82600054D01*
X101805417Y-82586969D01*
X101812858Y-82574553D01*
X101821481Y-82562927D01*
X101831202Y-82552202D01*
X101841927Y-82542481D01*
X101853553Y-82533858D01*
X101865969Y-82526417D01*
X101879054Y-82520228D01*
X101892683Y-82515351D01*
X101906724Y-82511834D01*
X101921042Y-82509710D01*
X101935500Y-82509000D01*
X102280500Y-82509000D01*
X102294958Y-82509710D01*
X102294958Y-82509710D01*
G37*
D19*
X102108000Y-82804000D03*
D18*
G36*
X98967958Y-93914710D02*
G01*
X98982276Y-93916834D01*
X98996317Y-93920351D01*
X99009946Y-93925228D01*
X99023031Y-93931417D01*
X99035447Y-93938858D01*
X99047073Y-93947481D01*
X99057798Y-93957202D01*
X99067519Y-93967927D01*
X99076142Y-93979553D01*
X99083583Y-93991969D01*
X99089772Y-94005054D01*
X99094649Y-94018683D01*
X99098166Y-94032724D01*
X99100290Y-94047042D01*
X99101000Y-94061500D01*
X99101000Y-94406500D01*
X99100290Y-94420958D01*
X99098166Y-94435276D01*
X99094649Y-94449317D01*
X99089772Y-94462946D01*
X99083583Y-94476031D01*
X99076142Y-94488447D01*
X99067519Y-94500073D01*
X99057798Y-94510798D01*
X99047073Y-94520519D01*
X99035447Y-94529142D01*
X99023031Y-94536583D01*
X99009946Y-94542772D01*
X98996317Y-94547649D01*
X98982276Y-94551166D01*
X98967958Y-94553290D01*
X98953500Y-94554000D01*
X98658500Y-94554000D01*
X98644042Y-94553290D01*
X98629724Y-94551166D01*
X98615683Y-94547649D01*
X98602054Y-94542772D01*
X98588969Y-94536583D01*
X98576553Y-94529142D01*
X98564927Y-94520519D01*
X98554202Y-94510798D01*
X98544481Y-94500073D01*
X98535858Y-94488447D01*
X98528417Y-94476031D01*
X98522228Y-94462946D01*
X98517351Y-94449317D01*
X98513834Y-94435276D01*
X98511710Y-94420958D01*
X98511000Y-94406500D01*
X98511000Y-94061500D01*
X98511710Y-94047042D01*
X98513834Y-94032724D01*
X98517351Y-94018683D01*
X98522228Y-94005054D01*
X98528417Y-93991969D01*
X98535858Y-93979553D01*
X98544481Y-93967927D01*
X98554202Y-93957202D01*
X98564927Y-93947481D01*
X98576553Y-93938858D01*
X98588969Y-93931417D01*
X98602054Y-93925228D01*
X98615683Y-93920351D01*
X98629724Y-93916834D01*
X98644042Y-93914710D01*
X98658500Y-93914000D01*
X98953500Y-93914000D01*
X98967958Y-93914710D01*
X98967958Y-93914710D01*
G37*
D19*
X98806000Y-94234000D03*
D18*
G36*
X97997958Y-93914710D02*
G01*
X98012276Y-93916834D01*
X98026317Y-93920351D01*
X98039946Y-93925228D01*
X98053031Y-93931417D01*
X98065447Y-93938858D01*
X98077073Y-93947481D01*
X98087798Y-93957202D01*
X98097519Y-93967927D01*
X98106142Y-93979553D01*
X98113583Y-93991969D01*
X98119772Y-94005054D01*
X98124649Y-94018683D01*
X98128166Y-94032724D01*
X98130290Y-94047042D01*
X98131000Y-94061500D01*
X98131000Y-94406500D01*
X98130290Y-94420958D01*
X98128166Y-94435276D01*
X98124649Y-94449317D01*
X98119772Y-94462946D01*
X98113583Y-94476031D01*
X98106142Y-94488447D01*
X98097519Y-94500073D01*
X98087798Y-94510798D01*
X98077073Y-94520519D01*
X98065447Y-94529142D01*
X98053031Y-94536583D01*
X98039946Y-94542772D01*
X98026317Y-94547649D01*
X98012276Y-94551166D01*
X97997958Y-94553290D01*
X97983500Y-94554000D01*
X97688500Y-94554000D01*
X97674042Y-94553290D01*
X97659724Y-94551166D01*
X97645683Y-94547649D01*
X97632054Y-94542772D01*
X97618969Y-94536583D01*
X97606553Y-94529142D01*
X97594927Y-94520519D01*
X97584202Y-94510798D01*
X97574481Y-94500073D01*
X97565858Y-94488447D01*
X97558417Y-94476031D01*
X97552228Y-94462946D01*
X97547351Y-94449317D01*
X97543834Y-94435276D01*
X97541710Y-94420958D01*
X97541000Y-94406500D01*
X97541000Y-94061500D01*
X97541710Y-94047042D01*
X97543834Y-94032724D01*
X97547351Y-94018683D01*
X97552228Y-94005054D01*
X97558417Y-93991969D01*
X97565858Y-93979553D01*
X97574481Y-93967927D01*
X97584202Y-93957202D01*
X97594927Y-93947481D01*
X97606553Y-93938858D01*
X97618969Y-93931417D01*
X97632054Y-93925228D01*
X97645683Y-93920351D01*
X97659724Y-93916834D01*
X97674042Y-93914710D01*
X97688500Y-93914000D01*
X97983500Y-93914000D01*
X97997958Y-93914710D01*
X97997958Y-93914710D01*
G37*
D19*
X97836000Y-94234000D03*
D20*
X93218000Y-65746000D03*
X93218000Y-65246000D03*
X93218000Y-64746000D03*
X93218000Y-64246000D03*
X93218000Y-62246000D03*
X93218000Y-62746000D03*
X93218000Y-63246000D03*
X93218000Y-63746000D03*
D21*
X95968000Y-59896000D03*
X95968000Y-68096000D03*
D18*
G36*
X114637504Y-76840204D02*
G01*
X114661773Y-76843804D01*
X114685571Y-76849765D01*
X114708671Y-76858030D01*
X114730849Y-76868520D01*
X114751893Y-76881133D01*
X114771598Y-76895747D01*
X114789777Y-76912223D01*
X114806253Y-76930402D01*
X114820867Y-76950107D01*
X114833480Y-76971151D01*
X114843970Y-76993329D01*
X114852235Y-77016429D01*
X114858196Y-77040227D01*
X114861796Y-77064496D01*
X114863000Y-77089000D01*
X114863000Y-77839000D01*
X114861796Y-77863504D01*
X114858196Y-77887773D01*
X114852235Y-77911571D01*
X114843970Y-77934671D01*
X114833480Y-77956849D01*
X114820867Y-77977893D01*
X114806253Y-77997598D01*
X114789777Y-78015777D01*
X114771598Y-78032253D01*
X114751893Y-78046867D01*
X114730849Y-78059480D01*
X114708671Y-78069970D01*
X114685571Y-78078235D01*
X114661773Y-78084196D01*
X114637504Y-78087796D01*
X114613000Y-78089000D01*
X112463000Y-78089000D01*
X112438496Y-78087796D01*
X112414227Y-78084196D01*
X112390429Y-78078235D01*
X112367329Y-78069970D01*
X112345151Y-78059480D01*
X112324107Y-78046867D01*
X112304402Y-78032253D01*
X112286223Y-78015777D01*
X112269747Y-77997598D01*
X112255133Y-77977893D01*
X112242520Y-77956849D01*
X112232030Y-77934671D01*
X112223765Y-77911571D01*
X112217804Y-77887773D01*
X112214204Y-77863504D01*
X112213000Y-77839000D01*
X112213000Y-77089000D01*
X112214204Y-77064496D01*
X112217804Y-77040227D01*
X112223765Y-77016429D01*
X112232030Y-76993329D01*
X112242520Y-76971151D01*
X112255133Y-76950107D01*
X112269747Y-76930402D01*
X112286223Y-76912223D01*
X112304402Y-76895747D01*
X112324107Y-76881133D01*
X112345151Y-76868520D01*
X112367329Y-76858030D01*
X112390429Y-76849765D01*
X112414227Y-76843804D01*
X112438496Y-76840204D01*
X112463000Y-76839000D01*
X114613000Y-76839000D01*
X114637504Y-76840204D01*
X114637504Y-76840204D01*
G37*
D22*
X113538000Y-77464000D03*
D18*
G36*
X114637504Y-79640204D02*
G01*
X114661773Y-79643804D01*
X114685571Y-79649765D01*
X114708671Y-79658030D01*
X114730849Y-79668520D01*
X114751893Y-79681133D01*
X114771598Y-79695747D01*
X114789777Y-79712223D01*
X114806253Y-79730402D01*
X114820867Y-79750107D01*
X114833480Y-79771151D01*
X114843970Y-79793329D01*
X114852235Y-79816429D01*
X114858196Y-79840227D01*
X114861796Y-79864496D01*
X114863000Y-79889000D01*
X114863000Y-80639000D01*
X114861796Y-80663504D01*
X114858196Y-80687773D01*
X114852235Y-80711571D01*
X114843970Y-80734671D01*
X114833480Y-80756849D01*
X114820867Y-80777893D01*
X114806253Y-80797598D01*
X114789777Y-80815777D01*
X114771598Y-80832253D01*
X114751893Y-80846867D01*
X114730849Y-80859480D01*
X114708671Y-80869970D01*
X114685571Y-80878235D01*
X114661773Y-80884196D01*
X114637504Y-80887796D01*
X114613000Y-80889000D01*
X112463000Y-80889000D01*
X112438496Y-80887796D01*
X112414227Y-80884196D01*
X112390429Y-80878235D01*
X112367329Y-80869970D01*
X112345151Y-80859480D01*
X112324107Y-80846867D01*
X112304402Y-80832253D01*
X112286223Y-80815777D01*
X112269747Y-80797598D01*
X112255133Y-80777893D01*
X112242520Y-80756849D01*
X112232030Y-80734671D01*
X112223765Y-80711571D01*
X112217804Y-80687773D01*
X112214204Y-80663504D01*
X112213000Y-80639000D01*
X112213000Y-79889000D01*
X112214204Y-79864496D01*
X112217804Y-79840227D01*
X112223765Y-79816429D01*
X112232030Y-79793329D01*
X112242520Y-79771151D01*
X112255133Y-79750107D01*
X112269747Y-79730402D01*
X112286223Y-79712223D01*
X112304402Y-79695747D01*
X112324107Y-79681133D01*
X112345151Y-79668520D01*
X112367329Y-79658030D01*
X112390429Y-79649765D01*
X112414227Y-79643804D01*
X112438496Y-79640204D01*
X112463000Y-79639000D01*
X114613000Y-79639000D01*
X114637504Y-79640204D01*
X114637504Y-79640204D01*
G37*
D22*
X113538000Y-80264000D03*
D18*
G36*
X100159504Y-79380204D02*
G01*
X100183773Y-79383804D01*
X100207571Y-79389765D01*
X100230671Y-79398030D01*
X100252849Y-79408520D01*
X100273893Y-79421133D01*
X100293598Y-79435747D01*
X100311777Y-79452223D01*
X100328253Y-79470402D01*
X100342867Y-79490107D01*
X100355480Y-79511151D01*
X100365970Y-79533329D01*
X100374235Y-79556429D01*
X100380196Y-79580227D01*
X100383796Y-79604496D01*
X100385000Y-79629000D01*
X100385000Y-80379000D01*
X100383796Y-80403504D01*
X100380196Y-80427773D01*
X100374235Y-80451571D01*
X100365970Y-80474671D01*
X100355480Y-80496849D01*
X100342867Y-80517893D01*
X100328253Y-80537598D01*
X100311777Y-80555777D01*
X100293598Y-80572253D01*
X100273893Y-80586867D01*
X100252849Y-80599480D01*
X100230671Y-80609970D01*
X100207571Y-80618235D01*
X100183773Y-80624196D01*
X100159504Y-80627796D01*
X100135000Y-80629000D01*
X97985000Y-80629000D01*
X97960496Y-80627796D01*
X97936227Y-80624196D01*
X97912429Y-80618235D01*
X97889329Y-80609970D01*
X97867151Y-80599480D01*
X97846107Y-80586867D01*
X97826402Y-80572253D01*
X97808223Y-80555777D01*
X97791747Y-80537598D01*
X97777133Y-80517893D01*
X97764520Y-80496849D01*
X97754030Y-80474671D01*
X97745765Y-80451571D01*
X97739804Y-80427773D01*
X97736204Y-80403504D01*
X97735000Y-80379000D01*
X97735000Y-79629000D01*
X97736204Y-79604496D01*
X97739804Y-79580227D01*
X97745765Y-79556429D01*
X97754030Y-79533329D01*
X97764520Y-79511151D01*
X97777133Y-79490107D01*
X97791747Y-79470402D01*
X97808223Y-79452223D01*
X97826402Y-79435747D01*
X97846107Y-79421133D01*
X97867151Y-79408520D01*
X97889329Y-79398030D01*
X97912429Y-79389765D01*
X97936227Y-79383804D01*
X97960496Y-79380204D01*
X97985000Y-79379000D01*
X100135000Y-79379000D01*
X100159504Y-79380204D01*
X100159504Y-79380204D01*
G37*
D22*
X99060000Y-80004000D03*
D18*
G36*
X100159504Y-82180204D02*
G01*
X100183773Y-82183804D01*
X100207571Y-82189765D01*
X100230671Y-82198030D01*
X100252849Y-82208520D01*
X100273893Y-82221133D01*
X100293598Y-82235747D01*
X100311777Y-82252223D01*
X100328253Y-82270402D01*
X100342867Y-82290107D01*
X100355480Y-82311151D01*
X100365970Y-82333329D01*
X100374235Y-82356429D01*
X100380196Y-82380227D01*
X100383796Y-82404496D01*
X100385000Y-82429000D01*
X100385000Y-83179000D01*
X100383796Y-83203504D01*
X100380196Y-83227773D01*
X100374235Y-83251571D01*
X100365970Y-83274671D01*
X100355480Y-83296849D01*
X100342867Y-83317893D01*
X100328253Y-83337598D01*
X100311777Y-83355777D01*
X100293598Y-83372253D01*
X100273893Y-83386867D01*
X100252849Y-83399480D01*
X100230671Y-83409970D01*
X100207571Y-83418235D01*
X100183773Y-83424196D01*
X100159504Y-83427796D01*
X100135000Y-83429000D01*
X97985000Y-83429000D01*
X97960496Y-83427796D01*
X97936227Y-83424196D01*
X97912429Y-83418235D01*
X97889329Y-83409970D01*
X97867151Y-83399480D01*
X97846107Y-83386867D01*
X97826402Y-83372253D01*
X97808223Y-83355777D01*
X97791747Y-83337598D01*
X97777133Y-83317893D01*
X97764520Y-83296849D01*
X97754030Y-83274671D01*
X97745765Y-83251571D01*
X97739804Y-83227773D01*
X97736204Y-83203504D01*
X97735000Y-83179000D01*
X97735000Y-82429000D01*
X97736204Y-82404496D01*
X97739804Y-82380227D01*
X97745765Y-82356429D01*
X97754030Y-82333329D01*
X97764520Y-82311151D01*
X97777133Y-82290107D01*
X97791747Y-82270402D01*
X97808223Y-82252223D01*
X97826402Y-82235747D01*
X97846107Y-82221133D01*
X97867151Y-82208520D01*
X97889329Y-82198030D01*
X97912429Y-82189765D01*
X97936227Y-82183804D01*
X97960496Y-82180204D01*
X97985000Y-82179000D01*
X100135000Y-82179000D01*
X100159504Y-82180204D01*
X100159504Y-82180204D01*
G37*
D22*
X99060000Y-82804000D03*
M02*
