G04 #@! TF.GenerationSoftware,KiCad,Pcbnew,(5.1.4)-1*
G04 #@! TF.CreationDate,2019-11-18T11:48:03+09:00*
G04 #@! TF.ProjectId,signaltowr_hikarikensyutu,7369676e-616c-4746-9f77-725f68696b61,rev?*
G04 #@! TF.SameCoordinates,Original*
G04 #@! TF.FileFunction,Copper,L1,Top*
G04 #@! TF.FilePolarity,Positive*
%FSLAX46Y46*%
G04 Gerber Fmt 4.6, Leading zero omitted, Abs format (unit mm)*
G04 Created by KiCad (PCBNEW (5.1.4)-1) date 2019-11-18 11:48:03*
%MOMM*%
%LPD*%
G04 APERTURE LIST*
%ADD10R,7.000000X7.000000*%
%ADD11R,0.760000X2.500000*%
%ADD12R,0.600000X0.900000*%
%ADD13R,1.350000X0.400000*%
%ADD14R,1.900000X1.600000*%
%ADD15R,2.000000X2.100000*%
%ADD16C,4.500000*%
%ADD17O,0.800000X1.400000*%
%ADD18O,1.400000X0.800000*%
%ADD19R,0.800000X1.000000*%
%ADD20R,0.700000X1.000000*%
%ADD21C,0.100000*%
%ADD22C,0.590000*%
%ADD23R,1.050000X0.350000*%
%ADD24R,1.350000X2.000000*%
%ADD25C,1.600000*%
%ADD26C,1.250000*%
%ADD27C,0.600000*%
%ADD28C,0.250000*%
%ADD29C,0.254000*%
G04 APERTURE END LIST*
D10*
X107188000Y-77470000D03*
D11*
X105918000Y-83720000D03*
X104648000Y-83720000D03*
X109728000Y-83720000D03*
X108458000Y-83720000D03*
D12*
X98806000Y-90678000D03*
X99756000Y-92378000D03*
X97856000Y-92378000D03*
D13*
X95575000Y-92262000D03*
X95575000Y-92912000D03*
X95575000Y-93562000D03*
X95575000Y-91612000D03*
D14*
X92900000Y-97012000D03*
D15*
X95250000Y-96012000D03*
D14*
X92900000Y-88812000D03*
D13*
X95575000Y-94212000D03*
D15*
X95250000Y-89812000D03*
D16*
X140606000Y-81923000D03*
X158606000Y-81923000D03*
D17*
X149606000Y-81463000D03*
X150876000Y-81463000D03*
X152146000Y-81463000D03*
X153416000Y-81463000D03*
X154686000Y-81463000D03*
X149606000Y-83383000D03*
X150876000Y-83383000D03*
X152146000Y-83383000D03*
X153416000Y-83383000D03*
X154686000Y-83383000D03*
D18*
X160091000Y-77978000D03*
X160091000Y-76708000D03*
X160091000Y-75438000D03*
X160091000Y-74168000D03*
X160091000Y-72898000D03*
X160091000Y-71628000D03*
X160091000Y-70358000D03*
X160091000Y-69088000D03*
X139121000Y-77978000D03*
X139121000Y-76708000D03*
X139121000Y-75438000D03*
X139121000Y-74168000D03*
X139121000Y-72898000D03*
X139121000Y-71628000D03*
X139121000Y-70358000D03*
X139121000Y-69088000D03*
X139121000Y-67818000D03*
X139121000Y-66548000D03*
X160091000Y-67818000D03*
X160091000Y-66548000D03*
D19*
X107728000Y-87122000D03*
X109728000Y-87122000D03*
X109728000Y-89522000D03*
X107728000Y-89522000D03*
D20*
X108728000Y-89522000D03*
D21*
G36*
X102294958Y-83479710D02*
G01*
X102309276Y-83481834D01*
X102323317Y-83485351D01*
X102336946Y-83490228D01*
X102350031Y-83496417D01*
X102362447Y-83503858D01*
X102374073Y-83512481D01*
X102384798Y-83522202D01*
X102394519Y-83532927D01*
X102403142Y-83544553D01*
X102410583Y-83556969D01*
X102416772Y-83570054D01*
X102421649Y-83583683D01*
X102425166Y-83597724D01*
X102427290Y-83612042D01*
X102428000Y-83626500D01*
X102428000Y-83921500D01*
X102427290Y-83935958D01*
X102425166Y-83950276D01*
X102421649Y-83964317D01*
X102416772Y-83977946D01*
X102410583Y-83991031D01*
X102403142Y-84003447D01*
X102394519Y-84015073D01*
X102384798Y-84025798D01*
X102374073Y-84035519D01*
X102362447Y-84044142D01*
X102350031Y-84051583D01*
X102336946Y-84057772D01*
X102323317Y-84062649D01*
X102309276Y-84066166D01*
X102294958Y-84068290D01*
X102280500Y-84069000D01*
X101935500Y-84069000D01*
X101921042Y-84068290D01*
X101906724Y-84066166D01*
X101892683Y-84062649D01*
X101879054Y-84057772D01*
X101865969Y-84051583D01*
X101853553Y-84044142D01*
X101841927Y-84035519D01*
X101831202Y-84025798D01*
X101821481Y-84015073D01*
X101812858Y-84003447D01*
X101805417Y-83991031D01*
X101799228Y-83977946D01*
X101794351Y-83964317D01*
X101790834Y-83950276D01*
X101788710Y-83935958D01*
X101788000Y-83921500D01*
X101788000Y-83626500D01*
X101788710Y-83612042D01*
X101790834Y-83597724D01*
X101794351Y-83583683D01*
X101799228Y-83570054D01*
X101805417Y-83556969D01*
X101812858Y-83544553D01*
X101821481Y-83532927D01*
X101831202Y-83522202D01*
X101841927Y-83512481D01*
X101853553Y-83503858D01*
X101865969Y-83496417D01*
X101879054Y-83490228D01*
X101892683Y-83485351D01*
X101906724Y-83481834D01*
X101921042Y-83479710D01*
X101935500Y-83479000D01*
X102280500Y-83479000D01*
X102294958Y-83479710D01*
X102294958Y-83479710D01*
G37*
D22*
X102108000Y-83774000D03*
D21*
G36*
X102294958Y-82509710D02*
G01*
X102309276Y-82511834D01*
X102323317Y-82515351D01*
X102336946Y-82520228D01*
X102350031Y-82526417D01*
X102362447Y-82533858D01*
X102374073Y-82542481D01*
X102384798Y-82552202D01*
X102394519Y-82562927D01*
X102403142Y-82574553D01*
X102410583Y-82586969D01*
X102416772Y-82600054D01*
X102421649Y-82613683D01*
X102425166Y-82627724D01*
X102427290Y-82642042D01*
X102428000Y-82656500D01*
X102428000Y-82951500D01*
X102427290Y-82965958D01*
X102425166Y-82980276D01*
X102421649Y-82994317D01*
X102416772Y-83007946D01*
X102410583Y-83021031D01*
X102403142Y-83033447D01*
X102394519Y-83045073D01*
X102384798Y-83055798D01*
X102374073Y-83065519D01*
X102362447Y-83074142D01*
X102350031Y-83081583D01*
X102336946Y-83087772D01*
X102323317Y-83092649D01*
X102309276Y-83096166D01*
X102294958Y-83098290D01*
X102280500Y-83099000D01*
X101935500Y-83099000D01*
X101921042Y-83098290D01*
X101906724Y-83096166D01*
X101892683Y-83092649D01*
X101879054Y-83087772D01*
X101865969Y-83081583D01*
X101853553Y-83074142D01*
X101841927Y-83065519D01*
X101831202Y-83055798D01*
X101821481Y-83045073D01*
X101812858Y-83033447D01*
X101805417Y-83021031D01*
X101799228Y-83007946D01*
X101794351Y-82994317D01*
X101790834Y-82980276D01*
X101788710Y-82965958D01*
X101788000Y-82951500D01*
X101788000Y-82656500D01*
X101788710Y-82642042D01*
X101790834Y-82627724D01*
X101794351Y-82613683D01*
X101799228Y-82600054D01*
X101805417Y-82586969D01*
X101812858Y-82574553D01*
X101821481Y-82562927D01*
X101831202Y-82552202D01*
X101841927Y-82542481D01*
X101853553Y-82533858D01*
X101865969Y-82526417D01*
X101879054Y-82520228D01*
X101892683Y-82515351D01*
X101906724Y-82511834D01*
X101921042Y-82509710D01*
X101935500Y-82509000D01*
X102280500Y-82509000D01*
X102294958Y-82509710D01*
X102294958Y-82509710D01*
G37*
D22*
X102108000Y-82804000D03*
D21*
G36*
X98967958Y-93914710D02*
G01*
X98982276Y-93916834D01*
X98996317Y-93920351D01*
X99009946Y-93925228D01*
X99023031Y-93931417D01*
X99035447Y-93938858D01*
X99047073Y-93947481D01*
X99057798Y-93957202D01*
X99067519Y-93967927D01*
X99076142Y-93979553D01*
X99083583Y-93991969D01*
X99089772Y-94005054D01*
X99094649Y-94018683D01*
X99098166Y-94032724D01*
X99100290Y-94047042D01*
X99101000Y-94061500D01*
X99101000Y-94406500D01*
X99100290Y-94420958D01*
X99098166Y-94435276D01*
X99094649Y-94449317D01*
X99089772Y-94462946D01*
X99083583Y-94476031D01*
X99076142Y-94488447D01*
X99067519Y-94500073D01*
X99057798Y-94510798D01*
X99047073Y-94520519D01*
X99035447Y-94529142D01*
X99023031Y-94536583D01*
X99009946Y-94542772D01*
X98996317Y-94547649D01*
X98982276Y-94551166D01*
X98967958Y-94553290D01*
X98953500Y-94554000D01*
X98658500Y-94554000D01*
X98644042Y-94553290D01*
X98629724Y-94551166D01*
X98615683Y-94547649D01*
X98602054Y-94542772D01*
X98588969Y-94536583D01*
X98576553Y-94529142D01*
X98564927Y-94520519D01*
X98554202Y-94510798D01*
X98544481Y-94500073D01*
X98535858Y-94488447D01*
X98528417Y-94476031D01*
X98522228Y-94462946D01*
X98517351Y-94449317D01*
X98513834Y-94435276D01*
X98511710Y-94420958D01*
X98511000Y-94406500D01*
X98511000Y-94061500D01*
X98511710Y-94047042D01*
X98513834Y-94032724D01*
X98517351Y-94018683D01*
X98522228Y-94005054D01*
X98528417Y-93991969D01*
X98535858Y-93979553D01*
X98544481Y-93967927D01*
X98554202Y-93957202D01*
X98564927Y-93947481D01*
X98576553Y-93938858D01*
X98588969Y-93931417D01*
X98602054Y-93925228D01*
X98615683Y-93920351D01*
X98629724Y-93916834D01*
X98644042Y-93914710D01*
X98658500Y-93914000D01*
X98953500Y-93914000D01*
X98967958Y-93914710D01*
X98967958Y-93914710D01*
G37*
D22*
X98806000Y-94234000D03*
D21*
G36*
X97997958Y-93914710D02*
G01*
X98012276Y-93916834D01*
X98026317Y-93920351D01*
X98039946Y-93925228D01*
X98053031Y-93931417D01*
X98065447Y-93938858D01*
X98077073Y-93947481D01*
X98087798Y-93957202D01*
X98097519Y-93967927D01*
X98106142Y-93979553D01*
X98113583Y-93991969D01*
X98119772Y-94005054D01*
X98124649Y-94018683D01*
X98128166Y-94032724D01*
X98130290Y-94047042D01*
X98131000Y-94061500D01*
X98131000Y-94406500D01*
X98130290Y-94420958D01*
X98128166Y-94435276D01*
X98124649Y-94449317D01*
X98119772Y-94462946D01*
X98113583Y-94476031D01*
X98106142Y-94488447D01*
X98097519Y-94500073D01*
X98087798Y-94510798D01*
X98077073Y-94520519D01*
X98065447Y-94529142D01*
X98053031Y-94536583D01*
X98039946Y-94542772D01*
X98026317Y-94547649D01*
X98012276Y-94551166D01*
X97997958Y-94553290D01*
X97983500Y-94554000D01*
X97688500Y-94554000D01*
X97674042Y-94553290D01*
X97659724Y-94551166D01*
X97645683Y-94547649D01*
X97632054Y-94542772D01*
X97618969Y-94536583D01*
X97606553Y-94529142D01*
X97594927Y-94520519D01*
X97584202Y-94510798D01*
X97574481Y-94500073D01*
X97565858Y-94488447D01*
X97558417Y-94476031D01*
X97552228Y-94462946D01*
X97547351Y-94449317D01*
X97543834Y-94435276D01*
X97541710Y-94420958D01*
X97541000Y-94406500D01*
X97541000Y-94061500D01*
X97541710Y-94047042D01*
X97543834Y-94032724D01*
X97547351Y-94018683D01*
X97552228Y-94005054D01*
X97558417Y-93991969D01*
X97565858Y-93979553D01*
X97574481Y-93967927D01*
X97584202Y-93957202D01*
X97594927Y-93947481D01*
X97606553Y-93938858D01*
X97618969Y-93931417D01*
X97632054Y-93925228D01*
X97645683Y-93920351D01*
X97659724Y-93916834D01*
X97674042Y-93914710D01*
X97688500Y-93914000D01*
X97983500Y-93914000D01*
X97997958Y-93914710D01*
X97997958Y-93914710D01*
G37*
D22*
X97836000Y-94234000D03*
D17*
X149606000Y-91369000D03*
X150876000Y-91369000D03*
X152146000Y-91369000D03*
X153416000Y-91369000D03*
X154686000Y-91369000D03*
X154686000Y-93289000D03*
X149606000Y-93289000D03*
X150876000Y-93289000D03*
X153416000Y-93289000D03*
X152146000Y-93289000D03*
D23*
X93218000Y-65746000D03*
X93218000Y-65246000D03*
X93218000Y-64746000D03*
X93218000Y-64246000D03*
X93218000Y-62246000D03*
X93218000Y-62746000D03*
X93218000Y-63246000D03*
X93218000Y-63746000D03*
D24*
X95968000Y-59896000D03*
X95968000Y-68096000D03*
D25*
X95250000Y-77724000D03*
X95250000Y-82804000D03*
D21*
G36*
X114637504Y-76840204D02*
G01*
X114661773Y-76843804D01*
X114685571Y-76849765D01*
X114708671Y-76858030D01*
X114730849Y-76868520D01*
X114751893Y-76881133D01*
X114771598Y-76895747D01*
X114789777Y-76912223D01*
X114806253Y-76930402D01*
X114820867Y-76950107D01*
X114833480Y-76971151D01*
X114843970Y-76993329D01*
X114852235Y-77016429D01*
X114858196Y-77040227D01*
X114861796Y-77064496D01*
X114863000Y-77089000D01*
X114863000Y-77839000D01*
X114861796Y-77863504D01*
X114858196Y-77887773D01*
X114852235Y-77911571D01*
X114843970Y-77934671D01*
X114833480Y-77956849D01*
X114820867Y-77977893D01*
X114806253Y-77997598D01*
X114789777Y-78015777D01*
X114771598Y-78032253D01*
X114751893Y-78046867D01*
X114730849Y-78059480D01*
X114708671Y-78069970D01*
X114685571Y-78078235D01*
X114661773Y-78084196D01*
X114637504Y-78087796D01*
X114613000Y-78089000D01*
X112463000Y-78089000D01*
X112438496Y-78087796D01*
X112414227Y-78084196D01*
X112390429Y-78078235D01*
X112367329Y-78069970D01*
X112345151Y-78059480D01*
X112324107Y-78046867D01*
X112304402Y-78032253D01*
X112286223Y-78015777D01*
X112269747Y-77997598D01*
X112255133Y-77977893D01*
X112242520Y-77956849D01*
X112232030Y-77934671D01*
X112223765Y-77911571D01*
X112217804Y-77887773D01*
X112214204Y-77863504D01*
X112213000Y-77839000D01*
X112213000Y-77089000D01*
X112214204Y-77064496D01*
X112217804Y-77040227D01*
X112223765Y-77016429D01*
X112232030Y-76993329D01*
X112242520Y-76971151D01*
X112255133Y-76950107D01*
X112269747Y-76930402D01*
X112286223Y-76912223D01*
X112304402Y-76895747D01*
X112324107Y-76881133D01*
X112345151Y-76868520D01*
X112367329Y-76858030D01*
X112390429Y-76849765D01*
X112414227Y-76843804D01*
X112438496Y-76840204D01*
X112463000Y-76839000D01*
X114613000Y-76839000D01*
X114637504Y-76840204D01*
X114637504Y-76840204D01*
G37*
D26*
X113538000Y-77464000D03*
D21*
G36*
X114637504Y-79640204D02*
G01*
X114661773Y-79643804D01*
X114685571Y-79649765D01*
X114708671Y-79658030D01*
X114730849Y-79668520D01*
X114751893Y-79681133D01*
X114771598Y-79695747D01*
X114789777Y-79712223D01*
X114806253Y-79730402D01*
X114820867Y-79750107D01*
X114833480Y-79771151D01*
X114843970Y-79793329D01*
X114852235Y-79816429D01*
X114858196Y-79840227D01*
X114861796Y-79864496D01*
X114863000Y-79889000D01*
X114863000Y-80639000D01*
X114861796Y-80663504D01*
X114858196Y-80687773D01*
X114852235Y-80711571D01*
X114843970Y-80734671D01*
X114833480Y-80756849D01*
X114820867Y-80777893D01*
X114806253Y-80797598D01*
X114789777Y-80815777D01*
X114771598Y-80832253D01*
X114751893Y-80846867D01*
X114730849Y-80859480D01*
X114708671Y-80869970D01*
X114685571Y-80878235D01*
X114661773Y-80884196D01*
X114637504Y-80887796D01*
X114613000Y-80889000D01*
X112463000Y-80889000D01*
X112438496Y-80887796D01*
X112414227Y-80884196D01*
X112390429Y-80878235D01*
X112367329Y-80869970D01*
X112345151Y-80859480D01*
X112324107Y-80846867D01*
X112304402Y-80832253D01*
X112286223Y-80815777D01*
X112269747Y-80797598D01*
X112255133Y-80777893D01*
X112242520Y-80756849D01*
X112232030Y-80734671D01*
X112223765Y-80711571D01*
X112217804Y-80687773D01*
X112214204Y-80663504D01*
X112213000Y-80639000D01*
X112213000Y-79889000D01*
X112214204Y-79864496D01*
X112217804Y-79840227D01*
X112223765Y-79816429D01*
X112232030Y-79793329D01*
X112242520Y-79771151D01*
X112255133Y-79750107D01*
X112269747Y-79730402D01*
X112286223Y-79712223D01*
X112304402Y-79695747D01*
X112324107Y-79681133D01*
X112345151Y-79668520D01*
X112367329Y-79658030D01*
X112390429Y-79649765D01*
X112414227Y-79643804D01*
X112438496Y-79640204D01*
X112463000Y-79639000D01*
X114613000Y-79639000D01*
X114637504Y-79640204D01*
X114637504Y-79640204D01*
G37*
D26*
X113538000Y-80264000D03*
D21*
G36*
X100159504Y-79380204D02*
G01*
X100183773Y-79383804D01*
X100207571Y-79389765D01*
X100230671Y-79398030D01*
X100252849Y-79408520D01*
X100273893Y-79421133D01*
X100293598Y-79435747D01*
X100311777Y-79452223D01*
X100328253Y-79470402D01*
X100342867Y-79490107D01*
X100355480Y-79511151D01*
X100365970Y-79533329D01*
X100374235Y-79556429D01*
X100380196Y-79580227D01*
X100383796Y-79604496D01*
X100385000Y-79629000D01*
X100385000Y-80379000D01*
X100383796Y-80403504D01*
X100380196Y-80427773D01*
X100374235Y-80451571D01*
X100365970Y-80474671D01*
X100355480Y-80496849D01*
X100342867Y-80517893D01*
X100328253Y-80537598D01*
X100311777Y-80555777D01*
X100293598Y-80572253D01*
X100273893Y-80586867D01*
X100252849Y-80599480D01*
X100230671Y-80609970D01*
X100207571Y-80618235D01*
X100183773Y-80624196D01*
X100159504Y-80627796D01*
X100135000Y-80629000D01*
X97985000Y-80629000D01*
X97960496Y-80627796D01*
X97936227Y-80624196D01*
X97912429Y-80618235D01*
X97889329Y-80609970D01*
X97867151Y-80599480D01*
X97846107Y-80586867D01*
X97826402Y-80572253D01*
X97808223Y-80555777D01*
X97791747Y-80537598D01*
X97777133Y-80517893D01*
X97764520Y-80496849D01*
X97754030Y-80474671D01*
X97745765Y-80451571D01*
X97739804Y-80427773D01*
X97736204Y-80403504D01*
X97735000Y-80379000D01*
X97735000Y-79629000D01*
X97736204Y-79604496D01*
X97739804Y-79580227D01*
X97745765Y-79556429D01*
X97754030Y-79533329D01*
X97764520Y-79511151D01*
X97777133Y-79490107D01*
X97791747Y-79470402D01*
X97808223Y-79452223D01*
X97826402Y-79435747D01*
X97846107Y-79421133D01*
X97867151Y-79408520D01*
X97889329Y-79398030D01*
X97912429Y-79389765D01*
X97936227Y-79383804D01*
X97960496Y-79380204D01*
X97985000Y-79379000D01*
X100135000Y-79379000D01*
X100159504Y-79380204D01*
X100159504Y-79380204D01*
G37*
D26*
X99060000Y-80004000D03*
D21*
G36*
X100159504Y-82180204D02*
G01*
X100183773Y-82183804D01*
X100207571Y-82189765D01*
X100230671Y-82198030D01*
X100252849Y-82208520D01*
X100273893Y-82221133D01*
X100293598Y-82235747D01*
X100311777Y-82252223D01*
X100328253Y-82270402D01*
X100342867Y-82290107D01*
X100355480Y-82311151D01*
X100365970Y-82333329D01*
X100374235Y-82356429D01*
X100380196Y-82380227D01*
X100383796Y-82404496D01*
X100385000Y-82429000D01*
X100385000Y-83179000D01*
X100383796Y-83203504D01*
X100380196Y-83227773D01*
X100374235Y-83251571D01*
X100365970Y-83274671D01*
X100355480Y-83296849D01*
X100342867Y-83317893D01*
X100328253Y-83337598D01*
X100311777Y-83355777D01*
X100293598Y-83372253D01*
X100273893Y-83386867D01*
X100252849Y-83399480D01*
X100230671Y-83409970D01*
X100207571Y-83418235D01*
X100183773Y-83424196D01*
X100159504Y-83427796D01*
X100135000Y-83429000D01*
X97985000Y-83429000D01*
X97960496Y-83427796D01*
X97936227Y-83424196D01*
X97912429Y-83418235D01*
X97889329Y-83409970D01*
X97867151Y-83399480D01*
X97846107Y-83386867D01*
X97826402Y-83372253D01*
X97808223Y-83355777D01*
X97791747Y-83337598D01*
X97777133Y-83317893D01*
X97764520Y-83296849D01*
X97754030Y-83274671D01*
X97745765Y-83251571D01*
X97739804Y-83227773D01*
X97736204Y-83203504D01*
X97735000Y-83179000D01*
X97735000Y-82429000D01*
X97736204Y-82404496D01*
X97739804Y-82380227D01*
X97745765Y-82356429D01*
X97754030Y-82333329D01*
X97764520Y-82311151D01*
X97777133Y-82290107D01*
X97791747Y-82270402D01*
X97808223Y-82252223D01*
X97826402Y-82235747D01*
X97846107Y-82221133D01*
X97867151Y-82208520D01*
X97889329Y-82198030D01*
X97912429Y-82189765D01*
X97936227Y-82183804D01*
X97960496Y-82180204D01*
X97985000Y-82179000D01*
X100135000Y-82179000D01*
X100159504Y-82180204D01*
X100159504Y-82180204D01*
G37*
D26*
X99060000Y-82804000D03*
D27*
X97536000Y-62230000D03*
X96520000Y-85852000D03*
X96819999Y-79964001D03*
X101600000Y-77470000D03*
X117094000Y-77470000D03*
X100838000Y-94234000D03*
X100838000Y-92202000D03*
D28*
X99060000Y-82804000D02*
X102108000Y-82804000D01*
X102108000Y-82804000D02*
X102870000Y-82804000D01*
X103786000Y-83720000D02*
X104648000Y-83720000D01*
X102870000Y-82804000D02*
X103786000Y-83720000D01*
X104648000Y-82220000D02*
X105080000Y-81788000D01*
X104648000Y-83720000D02*
X104648000Y-82220000D01*
X105080000Y-81788000D02*
X106934000Y-81788000D01*
X106934000Y-81788000D02*
X107188000Y-82042000D01*
X107188000Y-82042000D02*
X107188000Y-85598000D01*
X107728000Y-86138000D02*
X107728000Y-87122000D01*
X107188000Y-85598000D02*
X107728000Y-86138000D01*
X99060000Y-82804000D02*
X95250000Y-82804000D01*
X107728000Y-88772000D02*
X108108000Y-88392000D01*
X107728000Y-89522000D02*
X107728000Y-88772000D01*
X108108000Y-88392000D02*
X109474000Y-88392000D01*
X109728000Y-88138000D02*
X109728000Y-87122000D01*
X109474000Y-88392000D02*
X109728000Y-88138000D01*
X109728000Y-87122000D02*
X109728000Y-83720000D01*
X113538000Y-83058000D02*
X113538000Y-80264000D01*
X112876000Y-83720000D02*
X113538000Y-83058000D01*
X154686000Y-83058000D02*
X154686000Y-83438318D01*
X112676000Y-85244000D02*
X112676000Y-83720000D01*
X112676000Y-83720000D02*
X112876000Y-83720000D01*
X109728000Y-83720000D02*
X112676000Y-83720000D01*
X154686000Y-83058000D02*
X154686000Y-86106000D01*
X154686000Y-86106000D02*
X154178000Y-86614000D01*
X154178000Y-86614000D02*
X114046000Y-86614000D01*
X114046000Y-86614000D02*
X112676000Y-85244000D01*
X93218000Y-62246000D02*
X97520000Y-62246000D01*
X97520000Y-62246000D02*
X97536000Y-62230000D01*
X96859998Y-80004000D02*
X96819999Y-79964001D01*
X99060000Y-80004000D02*
X96859998Y-80004000D01*
X107188000Y-77470000D02*
X101600000Y-77470000D01*
X113538000Y-77464000D02*
X117088000Y-77464000D01*
X117088000Y-77464000D02*
X117094000Y-77470000D01*
X95100000Y-89812000D02*
X95250000Y-89812000D01*
X94100000Y-88812000D02*
X95100000Y-89812000D01*
X92900000Y-88812000D02*
X94100000Y-88812000D01*
X96520000Y-85852000D02*
X96520000Y-86614000D01*
X95250000Y-87884000D02*
X95250000Y-89812000D01*
X96520000Y-86614000D02*
X95250000Y-87884000D01*
X95250000Y-91287000D02*
X95575000Y-91612000D01*
X95250000Y-89812000D02*
X95250000Y-91287000D01*
X95575000Y-91612000D02*
X95575000Y-92262000D01*
X95100000Y-96012000D02*
X95250000Y-96012000D01*
X94100000Y-97012000D02*
X95100000Y-96012000D01*
X92900000Y-97012000D02*
X94100000Y-97012000D01*
X92900000Y-89862000D02*
X92900000Y-97012000D01*
X92900000Y-88812000D02*
X92900000Y-89862000D01*
X98806000Y-94234000D02*
X100838000Y-94234000D01*
X100662000Y-92378000D02*
X100838000Y-92202000D01*
X99756000Y-92378000D02*
X100662000Y-92378000D01*
X105918000Y-83720000D02*
X105918000Y-85598000D01*
X105156000Y-86360000D02*
X102108000Y-86360000D01*
X105918000Y-85598000D02*
X105156000Y-86360000D01*
X102108000Y-83774000D02*
X102108000Y-86360000D01*
X101854000Y-90678000D02*
X98806000Y-90678000D01*
X102108000Y-86360000D02*
X102108000Y-90424000D01*
X102108000Y-90424000D02*
X101854000Y-90678000D01*
X104096948Y-72898000D02*
X139446000Y-72898000D01*
X96444948Y-65246000D02*
X104096948Y-72898000D01*
X93218000Y-65246000D02*
X96444948Y-65246000D01*
X103463358Y-71628000D02*
X139446000Y-71628000D01*
X96581358Y-64746000D02*
X103463358Y-71628000D01*
X93218000Y-64746000D02*
X96581358Y-64746000D01*
X102829768Y-70358000D02*
X139446000Y-70358000D01*
X96717768Y-64246000D02*
X102829768Y-70358000D01*
X93218000Y-64246000D02*
X96717768Y-64246000D01*
X102196178Y-69088000D02*
X139446000Y-69088000D01*
X96854178Y-63746000D02*
X102196178Y-69088000D01*
X93218000Y-63746000D02*
X96854178Y-63746000D01*
X101562588Y-67818000D02*
X139446000Y-67818000D01*
X96990588Y-63246000D02*
X101562588Y-67818000D01*
X93218000Y-63246000D02*
X96990588Y-63246000D01*
X100928998Y-66548000D02*
X139446000Y-66548000D01*
X97126998Y-62746000D02*
X100928998Y-66548000D01*
X93218000Y-62746000D02*
X97126998Y-62746000D01*
X95878002Y-65746000D02*
X103538002Y-73406000D01*
X93218000Y-65746000D02*
X95878002Y-65746000D01*
X103538002Y-73406000D02*
X114554000Y-73406000D01*
X117856000Y-76708000D02*
X139446000Y-76708000D01*
X114554000Y-73406000D02*
X117856000Y-76708000D01*
X152146000Y-91694000D02*
X152146000Y-92964000D01*
X154686000Y-92964000D02*
X154686000Y-91694000D01*
X109728000Y-90678000D02*
X109728000Y-89522000D01*
X109474000Y-90932000D02*
X109728000Y-90678000D01*
X154686000Y-91694000D02*
X154686000Y-90170000D01*
X154038000Y-89522000D02*
X109728000Y-89522000D01*
X154686000Y-90170000D02*
X154038000Y-89522000D01*
X97836000Y-92398000D02*
X97856000Y-92378000D01*
X97836000Y-94234000D02*
X97836000Y-92398000D01*
X97814000Y-94212000D02*
X97836000Y-94234000D01*
X95575000Y-94212000D02*
X97814000Y-94212000D01*
D29*
G36*
X154868103Y-79397058D02*
G01*
X155032541Y-79446143D01*
X155184186Y-79526468D01*
X155317180Y-79634931D01*
X155426365Y-79767328D01*
X155507517Y-79918529D01*
X155557503Y-80082705D01*
X155575000Y-80259737D01*
X155575000Y-80623125D01*
X155476013Y-80482388D01*
X155328052Y-80341342D01*
X155155418Y-80231872D01*
X154972123Y-80168334D01*
X154813000Y-80296002D01*
X154813000Y-81336000D01*
X154833000Y-81336000D01*
X154833000Y-81590000D01*
X154813000Y-81590000D01*
X154813000Y-83256000D01*
X154833000Y-83256000D01*
X154833000Y-83510000D01*
X154813000Y-83510000D01*
X154813000Y-84549998D01*
X154972123Y-84677666D01*
X155155418Y-84614128D01*
X155328052Y-84504658D01*
X155476013Y-84363612D01*
X155575000Y-84222875D01*
X155575000Y-86877766D01*
X155557624Y-87054189D01*
X155507978Y-87217850D01*
X155427362Y-87368672D01*
X155318870Y-87500870D01*
X155186672Y-87609362D01*
X155035850Y-87689978D01*
X154872189Y-87739624D01*
X154695766Y-87757000D01*
X110782405Y-87757000D01*
X110777530Y-87757094D01*
X110750275Y-87758141D01*
X110753812Y-87746482D01*
X110766072Y-87622000D01*
X110763000Y-87407750D01*
X110604250Y-87249000D01*
X109855000Y-87249000D01*
X109855000Y-87269000D01*
X109601000Y-87269000D01*
X109601000Y-87249000D01*
X109581000Y-87249000D01*
X109581000Y-86995000D01*
X109601000Y-86995000D01*
X109601000Y-86145750D01*
X109855000Y-86145750D01*
X109855000Y-86995000D01*
X110604250Y-86995000D01*
X110763000Y-86836250D01*
X110766072Y-86622000D01*
X110753812Y-86497518D01*
X110717502Y-86377820D01*
X110658537Y-86267506D01*
X110579185Y-86170815D01*
X110482494Y-86091463D01*
X110372180Y-86032498D01*
X110252482Y-85996188D01*
X110128000Y-85983928D01*
X110013750Y-85987000D01*
X109855000Y-86145750D01*
X109601000Y-86145750D01*
X109442250Y-85987000D01*
X109328000Y-85983928D01*
X109250155Y-85991595D01*
X109256015Y-85599013D01*
X109348000Y-85608072D01*
X109442250Y-85605000D01*
X109601000Y-85446250D01*
X109601000Y-83847000D01*
X109855000Y-83847000D01*
X109855000Y-85446250D01*
X110013750Y-85605000D01*
X110108000Y-85608072D01*
X110232482Y-85595812D01*
X110352180Y-85559502D01*
X110462494Y-85500537D01*
X110559185Y-85421185D01*
X110638537Y-85324494D01*
X110697502Y-85214180D01*
X110733812Y-85094482D01*
X110746072Y-84970000D01*
X110743000Y-84005750D01*
X110584250Y-83847000D01*
X109855000Y-83847000D01*
X109601000Y-83847000D01*
X109581000Y-83847000D01*
X109581000Y-83593000D01*
X109601000Y-83593000D01*
X109601000Y-81993750D01*
X109855000Y-81993750D01*
X109855000Y-83593000D01*
X110584250Y-83593000D01*
X110743000Y-83434250D01*
X110746072Y-82470000D01*
X110733812Y-82345518D01*
X110697502Y-82225820D01*
X110638537Y-82115506D01*
X110559185Y-82018815D01*
X110462494Y-81939463D01*
X110352180Y-81880498D01*
X110232482Y-81844188D01*
X110108000Y-81831928D01*
X110013750Y-81835000D01*
X109855000Y-81993750D01*
X109601000Y-81993750D01*
X109442250Y-81835000D01*
X109348000Y-81831928D01*
X109312187Y-81835455D01*
X109315581Y-81608072D01*
X110688000Y-81608072D01*
X110812482Y-81595812D01*
X110932180Y-81559502D01*
X111042494Y-81500537D01*
X111139185Y-81421185D01*
X111218537Y-81324494D01*
X111277502Y-81214180D01*
X111313812Y-81094482D01*
X111326072Y-80970000D01*
X111326072Y-80889000D01*
X111574928Y-80889000D01*
X111587188Y-81013482D01*
X111623498Y-81133180D01*
X111682463Y-81243494D01*
X111761815Y-81340185D01*
X111858506Y-81419537D01*
X111968820Y-81478502D01*
X112088518Y-81514812D01*
X112213000Y-81527072D01*
X113252250Y-81524000D01*
X113411000Y-81365250D01*
X113411000Y-80391000D01*
X113665000Y-80391000D01*
X113665000Y-81365250D01*
X113823750Y-81524000D01*
X114863000Y-81527072D01*
X114987482Y-81514812D01*
X115107180Y-81478502D01*
X115217494Y-81419537D01*
X115314185Y-81340185D01*
X115393537Y-81243494D01*
X115452502Y-81133180D01*
X115488812Y-81013482D01*
X115501072Y-80889000D01*
X115498000Y-80549750D01*
X115339250Y-80391000D01*
X113665000Y-80391000D01*
X113411000Y-80391000D01*
X111736750Y-80391000D01*
X111578000Y-80549750D01*
X111574928Y-80889000D01*
X111326072Y-80889000D01*
X111326072Y-79617493D01*
X111577181Y-79616121D01*
X111574928Y-79639000D01*
X111578000Y-79978250D01*
X111736750Y-80137000D01*
X113411000Y-80137000D01*
X113411000Y-80117000D01*
X113665000Y-80117000D01*
X113665000Y-80137000D01*
X115339250Y-80137000D01*
X115498000Y-79978250D01*
X115501072Y-79639000D01*
X115496709Y-79594703D01*
X139090636Y-79465774D01*
X138766920Y-79682074D01*
X138365074Y-80083920D01*
X138049346Y-80556440D01*
X137831869Y-81081477D01*
X137721000Y-81638852D01*
X137721000Y-82207148D01*
X137831869Y-82764523D01*
X138049346Y-83289560D01*
X138365074Y-83762080D01*
X138766920Y-84163926D01*
X139239440Y-84479654D01*
X139764477Y-84697131D01*
X140321852Y-84808000D01*
X140890148Y-84808000D01*
X141447523Y-84697131D01*
X141972560Y-84479654D01*
X142445080Y-84163926D01*
X142846926Y-83762080D01*
X143162654Y-83289560D01*
X143380131Y-82764523D01*
X143491000Y-82207148D01*
X143491000Y-81638852D01*
X143386235Y-81112162D01*
X148571000Y-81112162D01*
X148571000Y-81813837D01*
X148585976Y-81965894D01*
X148645159Y-82160992D01*
X148741266Y-82340797D01*
X148808728Y-82423000D01*
X148741266Y-82505203D01*
X148645159Y-82685008D01*
X148585976Y-82880106D01*
X148571000Y-83032163D01*
X148571000Y-83733838D01*
X148585976Y-83885895D01*
X148645160Y-84080993D01*
X148741267Y-84260797D01*
X148870605Y-84418396D01*
X149028204Y-84547734D01*
X149208008Y-84643841D01*
X149403106Y-84703024D01*
X149606000Y-84723007D01*
X149808895Y-84703024D01*
X150003993Y-84643841D01*
X150183797Y-84547734D01*
X150241001Y-84500788D01*
X150298204Y-84547734D01*
X150478008Y-84643841D01*
X150673106Y-84703024D01*
X150876000Y-84723007D01*
X151078895Y-84703024D01*
X151273993Y-84643841D01*
X151453797Y-84547734D01*
X151511001Y-84500788D01*
X151568204Y-84547734D01*
X151748008Y-84643841D01*
X151943106Y-84703024D01*
X152146000Y-84723007D01*
X152348895Y-84703024D01*
X152543993Y-84643841D01*
X152723797Y-84547734D01*
X152781001Y-84500788D01*
X152838204Y-84547734D01*
X153018008Y-84643841D01*
X153213106Y-84703024D01*
X153416000Y-84723007D01*
X153618895Y-84703024D01*
X153813993Y-84643841D01*
X153993797Y-84547734D01*
X154045267Y-84505494D01*
X154216582Y-84614128D01*
X154399877Y-84677666D01*
X154559000Y-84549998D01*
X154559000Y-83510000D01*
X154539000Y-83510000D01*
X154539000Y-83256000D01*
X154559000Y-83256000D01*
X154559000Y-81590000D01*
X154539000Y-81590000D01*
X154539000Y-81336000D01*
X154559000Y-81336000D01*
X154559000Y-80296002D01*
X154399877Y-80168334D01*
X154216582Y-80231872D01*
X154045267Y-80340506D01*
X153993797Y-80298266D01*
X153813993Y-80202159D01*
X153618895Y-80142976D01*
X153416000Y-80122993D01*
X153213106Y-80142976D01*
X153018008Y-80202159D01*
X152838204Y-80298266D01*
X152781001Y-80345212D01*
X152723797Y-80298266D01*
X152543993Y-80202159D01*
X152348895Y-80142976D01*
X152146000Y-80122993D01*
X151943106Y-80142976D01*
X151748008Y-80202159D01*
X151568204Y-80298266D01*
X151511001Y-80345212D01*
X151453797Y-80298266D01*
X151273993Y-80202159D01*
X151078895Y-80142976D01*
X150876000Y-80122993D01*
X150673106Y-80142976D01*
X150478008Y-80202159D01*
X150298204Y-80298266D01*
X150241001Y-80345212D01*
X150183797Y-80298266D01*
X150003993Y-80202159D01*
X149808895Y-80142976D01*
X149606000Y-80122993D01*
X149403106Y-80142976D01*
X149208008Y-80202159D01*
X149028204Y-80298266D01*
X148870605Y-80427604D01*
X148741267Y-80585203D01*
X148645160Y-80765007D01*
X148585976Y-80960105D01*
X148571000Y-81112162D01*
X143386235Y-81112162D01*
X143380131Y-81081477D01*
X143162654Y-80556440D01*
X142846926Y-80083920D01*
X142445080Y-79682074D01*
X142096779Y-79449347D01*
X154690963Y-79380526D01*
X154868103Y-79397058D01*
X154868103Y-79397058D01*
G37*
X154868103Y-79397058D02*
X155032541Y-79446143D01*
X155184186Y-79526468D01*
X155317180Y-79634931D01*
X155426365Y-79767328D01*
X155507517Y-79918529D01*
X155557503Y-80082705D01*
X155575000Y-80259737D01*
X155575000Y-80623125D01*
X155476013Y-80482388D01*
X155328052Y-80341342D01*
X155155418Y-80231872D01*
X154972123Y-80168334D01*
X154813000Y-80296002D01*
X154813000Y-81336000D01*
X154833000Y-81336000D01*
X154833000Y-81590000D01*
X154813000Y-81590000D01*
X154813000Y-83256000D01*
X154833000Y-83256000D01*
X154833000Y-83510000D01*
X154813000Y-83510000D01*
X154813000Y-84549998D01*
X154972123Y-84677666D01*
X155155418Y-84614128D01*
X155328052Y-84504658D01*
X155476013Y-84363612D01*
X155575000Y-84222875D01*
X155575000Y-86877766D01*
X155557624Y-87054189D01*
X155507978Y-87217850D01*
X155427362Y-87368672D01*
X155318870Y-87500870D01*
X155186672Y-87609362D01*
X155035850Y-87689978D01*
X154872189Y-87739624D01*
X154695766Y-87757000D01*
X110782405Y-87757000D01*
X110777530Y-87757094D01*
X110750275Y-87758141D01*
X110753812Y-87746482D01*
X110766072Y-87622000D01*
X110763000Y-87407750D01*
X110604250Y-87249000D01*
X109855000Y-87249000D01*
X109855000Y-87269000D01*
X109601000Y-87269000D01*
X109601000Y-87249000D01*
X109581000Y-87249000D01*
X109581000Y-86995000D01*
X109601000Y-86995000D01*
X109601000Y-86145750D01*
X109855000Y-86145750D01*
X109855000Y-86995000D01*
X110604250Y-86995000D01*
X110763000Y-86836250D01*
X110766072Y-86622000D01*
X110753812Y-86497518D01*
X110717502Y-86377820D01*
X110658537Y-86267506D01*
X110579185Y-86170815D01*
X110482494Y-86091463D01*
X110372180Y-86032498D01*
X110252482Y-85996188D01*
X110128000Y-85983928D01*
X110013750Y-85987000D01*
X109855000Y-86145750D01*
X109601000Y-86145750D01*
X109442250Y-85987000D01*
X109328000Y-85983928D01*
X109250155Y-85991595D01*
X109256015Y-85599013D01*
X109348000Y-85608072D01*
X109442250Y-85605000D01*
X109601000Y-85446250D01*
X109601000Y-83847000D01*
X109855000Y-83847000D01*
X109855000Y-85446250D01*
X110013750Y-85605000D01*
X110108000Y-85608072D01*
X110232482Y-85595812D01*
X110352180Y-85559502D01*
X110462494Y-85500537D01*
X110559185Y-85421185D01*
X110638537Y-85324494D01*
X110697502Y-85214180D01*
X110733812Y-85094482D01*
X110746072Y-84970000D01*
X110743000Y-84005750D01*
X110584250Y-83847000D01*
X109855000Y-83847000D01*
X109601000Y-83847000D01*
X109581000Y-83847000D01*
X109581000Y-83593000D01*
X109601000Y-83593000D01*
X109601000Y-81993750D01*
X109855000Y-81993750D01*
X109855000Y-83593000D01*
X110584250Y-83593000D01*
X110743000Y-83434250D01*
X110746072Y-82470000D01*
X110733812Y-82345518D01*
X110697502Y-82225820D01*
X110638537Y-82115506D01*
X110559185Y-82018815D01*
X110462494Y-81939463D01*
X110352180Y-81880498D01*
X110232482Y-81844188D01*
X110108000Y-81831928D01*
X110013750Y-81835000D01*
X109855000Y-81993750D01*
X109601000Y-81993750D01*
X109442250Y-81835000D01*
X109348000Y-81831928D01*
X109312187Y-81835455D01*
X109315581Y-81608072D01*
X110688000Y-81608072D01*
X110812482Y-81595812D01*
X110932180Y-81559502D01*
X111042494Y-81500537D01*
X111139185Y-81421185D01*
X111218537Y-81324494D01*
X111277502Y-81214180D01*
X111313812Y-81094482D01*
X111326072Y-80970000D01*
X111326072Y-80889000D01*
X111574928Y-80889000D01*
X111587188Y-81013482D01*
X111623498Y-81133180D01*
X111682463Y-81243494D01*
X111761815Y-81340185D01*
X111858506Y-81419537D01*
X111968820Y-81478502D01*
X112088518Y-81514812D01*
X112213000Y-81527072D01*
X113252250Y-81524000D01*
X113411000Y-81365250D01*
X113411000Y-80391000D01*
X113665000Y-80391000D01*
X113665000Y-81365250D01*
X113823750Y-81524000D01*
X114863000Y-81527072D01*
X114987482Y-81514812D01*
X115107180Y-81478502D01*
X115217494Y-81419537D01*
X115314185Y-81340185D01*
X115393537Y-81243494D01*
X115452502Y-81133180D01*
X115488812Y-81013482D01*
X115501072Y-80889000D01*
X115498000Y-80549750D01*
X115339250Y-80391000D01*
X113665000Y-80391000D01*
X113411000Y-80391000D01*
X111736750Y-80391000D01*
X111578000Y-80549750D01*
X111574928Y-80889000D01*
X111326072Y-80889000D01*
X111326072Y-79617493D01*
X111577181Y-79616121D01*
X111574928Y-79639000D01*
X111578000Y-79978250D01*
X111736750Y-80137000D01*
X113411000Y-80137000D01*
X113411000Y-80117000D01*
X113665000Y-80117000D01*
X113665000Y-80137000D01*
X115339250Y-80137000D01*
X115498000Y-79978250D01*
X115501072Y-79639000D01*
X115496709Y-79594703D01*
X139090636Y-79465774D01*
X138766920Y-79682074D01*
X138365074Y-80083920D01*
X138049346Y-80556440D01*
X137831869Y-81081477D01*
X137721000Y-81638852D01*
X137721000Y-82207148D01*
X137831869Y-82764523D01*
X138049346Y-83289560D01*
X138365074Y-83762080D01*
X138766920Y-84163926D01*
X139239440Y-84479654D01*
X139764477Y-84697131D01*
X140321852Y-84808000D01*
X140890148Y-84808000D01*
X141447523Y-84697131D01*
X141972560Y-84479654D01*
X142445080Y-84163926D01*
X142846926Y-83762080D01*
X143162654Y-83289560D01*
X143380131Y-82764523D01*
X143491000Y-82207148D01*
X143491000Y-81638852D01*
X143386235Y-81112162D01*
X148571000Y-81112162D01*
X148571000Y-81813837D01*
X148585976Y-81965894D01*
X148645159Y-82160992D01*
X148741266Y-82340797D01*
X148808728Y-82423000D01*
X148741266Y-82505203D01*
X148645159Y-82685008D01*
X148585976Y-82880106D01*
X148571000Y-83032163D01*
X148571000Y-83733838D01*
X148585976Y-83885895D01*
X148645160Y-84080993D01*
X148741267Y-84260797D01*
X148870605Y-84418396D01*
X149028204Y-84547734D01*
X149208008Y-84643841D01*
X149403106Y-84703024D01*
X149606000Y-84723007D01*
X149808895Y-84703024D01*
X150003993Y-84643841D01*
X150183797Y-84547734D01*
X150241001Y-84500788D01*
X150298204Y-84547734D01*
X150478008Y-84643841D01*
X150673106Y-84703024D01*
X150876000Y-84723007D01*
X151078895Y-84703024D01*
X151273993Y-84643841D01*
X151453797Y-84547734D01*
X151511001Y-84500788D01*
X151568204Y-84547734D01*
X151748008Y-84643841D01*
X151943106Y-84703024D01*
X152146000Y-84723007D01*
X152348895Y-84703024D01*
X152543993Y-84643841D01*
X152723797Y-84547734D01*
X152781001Y-84500788D01*
X152838204Y-84547734D01*
X153018008Y-84643841D01*
X153213106Y-84703024D01*
X153416000Y-84723007D01*
X153618895Y-84703024D01*
X153813993Y-84643841D01*
X153993797Y-84547734D01*
X154045267Y-84505494D01*
X154216582Y-84614128D01*
X154399877Y-84677666D01*
X154559000Y-84549998D01*
X154559000Y-83510000D01*
X154539000Y-83510000D01*
X154539000Y-83256000D01*
X154559000Y-83256000D01*
X154559000Y-81590000D01*
X154539000Y-81590000D01*
X154539000Y-81336000D01*
X154559000Y-81336000D01*
X154559000Y-80296002D01*
X154399877Y-80168334D01*
X154216582Y-80231872D01*
X154045267Y-80340506D01*
X153993797Y-80298266D01*
X153813993Y-80202159D01*
X153618895Y-80142976D01*
X153416000Y-80122993D01*
X153213106Y-80142976D01*
X153018008Y-80202159D01*
X152838204Y-80298266D01*
X152781001Y-80345212D01*
X152723797Y-80298266D01*
X152543993Y-80202159D01*
X152348895Y-80142976D01*
X152146000Y-80122993D01*
X151943106Y-80142976D01*
X151748008Y-80202159D01*
X151568204Y-80298266D01*
X151511001Y-80345212D01*
X151453797Y-80298266D01*
X151273993Y-80202159D01*
X151078895Y-80142976D01*
X150876000Y-80122993D01*
X150673106Y-80142976D01*
X150478008Y-80202159D01*
X150298204Y-80298266D01*
X150241001Y-80345212D01*
X150183797Y-80298266D01*
X150003993Y-80202159D01*
X149808895Y-80142976D01*
X149606000Y-80122993D01*
X149403106Y-80142976D01*
X149208008Y-80202159D01*
X149028204Y-80298266D01*
X148870605Y-80427604D01*
X148741267Y-80585203D01*
X148645160Y-80765007D01*
X148585976Y-80960105D01*
X148571000Y-81112162D01*
X143386235Y-81112162D01*
X143380131Y-81081477D01*
X143162654Y-80556440D01*
X142846926Y-80083920D01*
X142445080Y-79682074D01*
X142096779Y-79449347D01*
X154690963Y-79380526D01*
X154868103Y-79397058D01*
G36*
X94436903Y-81811298D02*
G01*
X95250000Y-82624395D01*
X96063097Y-81811298D01*
X96018998Y-81661000D01*
X97365230Y-81661000D01*
X97283815Y-81727815D01*
X97204463Y-81824506D01*
X97145498Y-81934820D01*
X97109188Y-82054518D01*
X97096928Y-82179000D01*
X97100000Y-82518250D01*
X97258750Y-82677000D01*
X98933000Y-82677000D01*
X98933000Y-82657000D01*
X99187000Y-82657000D01*
X99187000Y-82677000D01*
X100861250Y-82677000D01*
X101020000Y-82518250D01*
X101020083Y-82509000D01*
X101149928Y-82509000D01*
X101153000Y-82518250D01*
X101311750Y-82677000D01*
X101981000Y-82677000D01*
X101981000Y-82032750D01*
X102235000Y-82032750D01*
X102235000Y-82677000D01*
X102904250Y-82677000D01*
X103063000Y-82518250D01*
X103066072Y-82509000D01*
X103062231Y-82470000D01*
X103629928Y-82470000D01*
X103633000Y-83434250D01*
X103791750Y-83593000D01*
X104521000Y-83593000D01*
X104521000Y-81993750D01*
X104362250Y-81835000D01*
X104268000Y-81831928D01*
X104143518Y-81844188D01*
X104023820Y-81880498D01*
X103913506Y-81939463D01*
X103816815Y-82018815D01*
X103737463Y-82115506D01*
X103678498Y-82225820D01*
X103642188Y-82345518D01*
X103629928Y-82470000D01*
X103062231Y-82470000D01*
X103053812Y-82384518D01*
X103017502Y-82264820D01*
X102958537Y-82154506D01*
X102879185Y-82057815D01*
X102782494Y-81978463D01*
X102672180Y-81919498D01*
X102552482Y-81883188D01*
X102428000Y-81870928D01*
X102393750Y-81874000D01*
X102235000Y-82032750D01*
X101981000Y-82032750D01*
X101822250Y-81874000D01*
X101788000Y-81870928D01*
X101663518Y-81883188D01*
X101543820Y-81919498D01*
X101433506Y-81978463D01*
X101336815Y-82057815D01*
X101257463Y-82154506D01*
X101198498Y-82264820D01*
X101162188Y-82384518D01*
X101149928Y-82509000D01*
X101020083Y-82509000D01*
X101023072Y-82179000D01*
X101010812Y-82054518D01*
X100974502Y-81934820D01*
X100915537Y-81824506D01*
X100836185Y-81727815D01*
X100754770Y-81661000D01*
X108331000Y-81661000D01*
X108331000Y-81831928D01*
X108078000Y-81831928D01*
X107953518Y-81844188D01*
X107833820Y-81880498D01*
X107723506Y-81939463D01*
X107626815Y-82018815D01*
X107547463Y-82115506D01*
X107488498Y-82225820D01*
X107452188Y-82345518D01*
X107439928Y-82470000D01*
X107439928Y-84970000D01*
X107452188Y-85094482D01*
X107488498Y-85214180D01*
X107547463Y-85324494D01*
X107626815Y-85421185D01*
X107723506Y-85500537D01*
X107833820Y-85559502D01*
X107953518Y-85595812D01*
X108078000Y-85608072D01*
X108331000Y-85608072D01*
X108331000Y-86020006D01*
X108252482Y-85996188D01*
X108128000Y-85983928D01*
X108013750Y-85987000D01*
X107855000Y-86145750D01*
X107855000Y-86995000D01*
X107875000Y-86995000D01*
X107875000Y-87249000D01*
X107855000Y-87249000D01*
X107855000Y-87269000D01*
X107601000Y-87269000D01*
X107601000Y-87249000D01*
X107581000Y-87249000D01*
X107581000Y-86995000D01*
X107601000Y-86995000D01*
X107601000Y-86145750D01*
X107442250Y-85987000D01*
X107328000Y-85983928D01*
X107203518Y-85996188D01*
X107083820Y-86032498D01*
X106973506Y-86091463D01*
X106876815Y-86170815D01*
X106807000Y-86255885D01*
X106807000Y-85350737D01*
X106828537Y-85324494D01*
X106887502Y-85214180D01*
X106923812Y-85094482D01*
X106936072Y-84970000D01*
X106936072Y-82470000D01*
X106923812Y-82345518D01*
X106887502Y-82225820D01*
X106828537Y-82115506D01*
X106749185Y-82018815D01*
X106652494Y-81939463D01*
X106542180Y-81880498D01*
X106422482Y-81844188D01*
X106298000Y-81831928D01*
X105538000Y-81831928D01*
X105413518Y-81844188D01*
X105293820Y-81880498D01*
X105283000Y-81886282D01*
X105272180Y-81880498D01*
X105152482Y-81844188D01*
X105028000Y-81831928D01*
X104933750Y-81835000D01*
X104775000Y-81993750D01*
X104775000Y-83593000D01*
X104795000Y-83593000D01*
X104795000Y-83847000D01*
X104775000Y-83847000D01*
X104775000Y-83867000D01*
X104521000Y-83867000D01*
X104521000Y-83847000D01*
X103791750Y-83847000D01*
X103633000Y-84005750D01*
X103629950Y-84963000D01*
X102868000Y-84963000D01*
X102868000Y-84437970D01*
X102933679Y-84357940D01*
X103006274Y-84222125D01*
X103050977Y-84074757D01*
X103066072Y-83921500D01*
X103066072Y-83626500D01*
X103050977Y-83473243D01*
X103013688Y-83350316D01*
X103017502Y-83343180D01*
X103053812Y-83223482D01*
X103066072Y-83099000D01*
X103063000Y-83089750D01*
X102904250Y-82931000D01*
X102637763Y-82931000D01*
X102581125Y-82900726D01*
X102433757Y-82856023D01*
X102280500Y-82840928D01*
X101935500Y-82840928D01*
X101782243Y-82856023D01*
X101634875Y-82900726D01*
X101578237Y-82931000D01*
X101311750Y-82931000D01*
X101153000Y-83089750D01*
X101149928Y-83099000D01*
X101162188Y-83223482D01*
X101198498Y-83343180D01*
X101202312Y-83350316D01*
X101165023Y-83473243D01*
X101149928Y-83626500D01*
X101149928Y-83921500D01*
X101165023Y-84074757D01*
X101209726Y-84222125D01*
X101282321Y-84357940D01*
X101348000Y-84437970D01*
X101348000Y-84963000D01*
X96817036Y-84963000D01*
X96792729Y-84952932D01*
X96612089Y-84917000D01*
X96427911Y-84917000D01*
X96247271Y-84952932D01*
X96222964Y-84963000D01*
X94107000Y-84963000D01*
X94107000Y-83796702D01*
X94436903Y-83796702D01*
X94508486Y-84040671D01*
X94763996Y-84161571D01*
X95038184Y-84230300D01*
X95320512Y-84244217D01*
X95600130Y-84202787D01*
X95866292Y-84107603D01*
X95991514Y-84040671D01*
X96063097Y-83796702D01*
X95250000Y-82983605D01*
X94436903Y-83796702D01*
X94107000Y-83796702D01*
X94107000Y-83572998D01*
X94257298Y-83617097D01*
X95070395Y-82804000D01*
X95429605Y-82804000D01*
X96242702Y-83617097D01*
X96486671Y-83545514D01*
X96541802Y-83429000D01*
X97096928Y-83429000D01*
X97109188Y-83553482D01*
X97145498Y-83673180D01*
X97204463Y-83783494D01*
X97283815Y-83880185D01*
X97380506Y-83959537D01*
X97490820Y-84018502D01*
X97610518Y-84054812D01*
X97735000Y-84067072D01*
X98774250Y-84064000D01*
X98933000Y-83905250D01*
X98933000Y-82931000D01*
X99187000Y-82931000D01*
X99187000Y-83905250D01*
X99345750Y-84064000D01*
X100385000Y-84067072D01*
X100509482Y-84054812D01*
X100629180Y-84018502D01*
X100739494Y-83959537D01*
X100836185Y-83880185D01*
X100915537Y-83783494D01*
X100974502Y-83673180D01*
X101010812Y-83553482D01*
X101023072Y-83429000D01*
X101020000Y-83089750D01*
X100861250Y-82931000D01*
X99187000Y-82931000D01*
X98933000Y-82931000D01*
X97258750Y-82931000D01*
X97100000Y-83089750D01*
X97096928Y-83429000D01*
X96541802Y-83429000D01*
X96607571Y-83290004D01*
X96676300Y-83015816D01*
X96690217Y-82733488D01*
X96648787Y-82453870D01*
X96553603Y-82187708D01*
X96486671Y-82062486D01*
X96242702Y-81990903D01*
X95429605Y-82804000D01*
X95070395Y-82804000D01*
X94257298Y-81990903D01*
X94107000Y-82035002D01*
X94107000Y-81661000D01*
X94481002Y-81661000D01*
X94436903Y-81811298D01*
X94436903Y-81811298D01*
G37*
X94436903Y-81811298D02*
X95250000Y-82624395D01*
X96063097Y-81811298D01*
X96018998Y-81661000D01*
X97365230Y-81661000D01*
X97283815Y-81727815D01*
X97204463Y-81824506D01*
X97145498Y-81934820D01*
X97109188Y-82054518D01*
X97096928Y-82179000D01*
X97100000Y-82518250D01*
X97258750Y-82677000D01*
X98933000Y-82677000D01*
X98933000Y-82657000D01*
X99187000Y-82657000D01*
X99187000Y-82677000D01*
X100861250Y-82677000D01*
X101020000Y-82518250D01*
X101020083Y-82509000D01*
X101149928Y-82509000D01*
X101153000Y-82518250D01*
X101311750Y-82677000D01*
X101981000Y-82677000D01*
X101981000Y-82032750D01*
X102235000Y-82032750D01*
X102235000Y-82677000D01*
X102904250Y-82677000D01*
X103063000Y-82518250D01*
X103066072Y-82509000D01*
X103062231Y-82470000D01*
X103629928Y-82470000D01*
X103633000Y-83434250D01*
X103791750Y-83593000D01*
X104521000Y-83593000D01*
X104521000Y-81993750D01*
X104362250Y-81835000D01*
X104268000Y-81831928D01*
X104143518Y-81844188D01*
X104023820Y-81880498D01*
X103913506Y-81939463D01*
X103816815Y-82018815D01*
X103737463Y-82115506D01*
X103678498Y-82225820D01*
X103642188Y-82345518D01*
X103629928Y-82470000D01*
X103062231Y-82470000D01*
X103053812Y-82384518D01*
X103017502Y-82264820D01*
X102958537Y-82154506D01*
X102879185Y-82057815D01*
X102782494Y-81978463D01*
X102672180Y-81919498D01*
X102552482Y-81883188D01*
X102428000Y-81870928D01*
X102393750Y-81874000D01*
X102235000Y-82032750D01*
X101981000Y-82032750D01*
X101822250Y-81874000D01*
X101788000Y-81870928D01*
X101663518Y-81883188D01*
X101543820Y-81919498D01*
X101433506Y-81978463D01*
X101336815Y-82057815D01*
X101257463Y-82154506D01*
X101198498Y-82264820D01*
X101162188Y-82384518D01*
X101149928Y-82509000D01*
X101020083Y-82509000D01*
X101023072Y-82179000D01*
X101010812Y-82054518D01*
X100974502Y-81934820D01*
X100915537Y-81824506D01*
X100836185Y-81727815D01*
X100754770Y-81661000D01*
X108331000Y-81661000D01*
X108331000Y-81831928D01*
X108078000Y-81831928D01*
X107953518Y-81844188D01*
X107833820Y-81880498D01*
X107723506Y-81939463D01*
X107626815Y-82018815D01*
X107547463Y-82115506D01*
X107488498Y-82225820D01*
X107452188Y-82345518D01*
X107439928Y-82470000D01*
X107439928Y-84970000D01*
X107452188Y-85094482D01*
X107488498Y-85214180D01*
X107547463Y-85324494D01*
X107626815Y-85421185D01*
X107723506Y-85500537D01*
X107833820Y-85559502D01*
X107953518Y-85595812D01*
X108078000Y-85608072D01*
X108331000Y-85608072D01*
X108331000Y-86020006D01*
X108252482Y-85996188D01*
X108128000Y-85983928D01*
X108013750Y-85987000D01*
X107855000Y-86145750D01*
X107855000Y-86995000D01*
X107875000Y-86995000D01*
X107875000Y-87249000D01*
X107855000Y-87249000D01*
X107855000Y-87269000D01*
X107601000Y-87269000D01*
X107601000Y-87249000D01*
X107581000Y-87249000D01*
X107581000Y-86995000D01*
X107601000Y-86995000D01*
X107601000Y-86145750D01*
X107442250Y-85987000D01*
X107328000Y-85983928D01*
X107203518Y-85996188D01*
X107083820Y-86032498D01*
X106973506Y-86091463D01*
X106876815Y-86170815D01*
X106807000Y-86255885D01*
X106807000Y-85350737D01*
X106828537Y-85324494D01*
X106887502Y-85214180D01*
X106923812Y-85094482D01*
X106936072Y-84970000D01*
X106936072Y-82470000D01*
X106923812Y-82345518D01*
X106887502Y-82225820D01*
X106828537Y-82115506D01*
X106749185Y-82018815D01*
X106652494Y-81939463D01*
X106542180Y-81880498D01*
X106422482Y-81844188D01*
X106298000Y-81831928D01*
X105538000Y-81831928D01*
X105413518Y-81844188D01*
X105293820Y-81880498D01*
X105283000Y-81886282D01*
X105272180Y-81880498D01*
X105152482Y-81844188D01*
X105028000Y-81831928D01*
X104933750Y-81835000D01*
X104775000Y-81993750D01*
X104775000Y-83593000D01*
X104795000Y-83593000D01*
X104795000Y-83847000D01*
X104775000Y-83847000D01*
X104775000Y-83867000D01*
X104521000Y-83867000D01*
X104521000Y-83847000D01*
X103791750Y-83847000D01*
X103633000Y-84005750D01*
X103629950Y-84963000D01*
X102868000Y-84963000D01*
X102868000Y-84437970D01*
X102933679Y-84357940D01*
X103006274Y-84222125D01*
X103050977Y-84074757D01*
X103066072Y-83921500D01*
X103066072Y-83626500D01*
X103050977Y-83473243D01*
X103013688Y-83350316D01*
X103017502Y-83343180D01*
X103053812Y-83223482D01*
X103066072Y-83099000D01*
X103063000Y-83089750D01*
X102904250Y-82931000D01*
X102637763Y-82931000D01*
X102581125Y-82900726D01*
X102433757Y-82856023D01*
X102280500Y-82840928D01*
X101935500Y-82840928D01*
X101782243Y-82856023D01*
X101634875Y-82900726D01*
X101578237Y-82931000D01*
X101311750Y-82931000D01*
X101153000Y-83089750D01*
X101149928Y-83099000D01*
X101162188Y-83223482D01*
X101198498Y-83343180D01*
X101202312Y-83350316D01*
X101165023Y-83473243D01*
X101149928Y-83626500D01*
X101149928Y-83921500D01*
X101165023Y-84074757D01*
X101209726Y-84222125D01*
X101282321Y-84357940D01*
X101348000Y-84437970D01*
X101348000Y-84963000D01*
X96817036Y-84963000D01*
X96792729Y-84952932D01*
X96612089Y-84917000D01*
X96427911Y-84917000D01*
X96247271Y-84952932D01*
X96222964Y-84963000D01*
X94107000Y-84963000D01*
X94107000Y-83796702D01*
X94436903Y-83796702D01*
X94508486Y-84040671D01*
X94763996Y-84161571D01*
X95038184Y-84230300D01*
X95320512Y-84244217D01*
X95600130Y-84202787D01*
X95866292Y-84107603D01*
X95991514Y-84040671D01*
X96063097Y-83796702D01*
X95250000Y-82983605D01*
X94436903Y-83796702D01*
X94107000Y-83796702D01*
X94107000Y-83572998D01*
X94257298Y-83617097D01*
X95070395Y-82804000D01*
X95429605Y-82804000D01*
X96242702Y-83617097D01*
X96486671Y-83545514D01*
X96541802Y-83429000D01*
X97096928Y-83429000D01*
X97109188Y-83553482D01*
X97145498Y-83673180D01*
X97204463Y-83783494D01*
X97283815Y-83880185D01*
X97380506Y-83959537D01*
X97490820Y-84018502D01*
X97610518Y-84054812D01*
X97735000Y-84067072D01*
X98774250Y-84064000D01*
X98933000Y-83905250D01*
X98933000Y-82931000D01*
X99187000Y-82931000D01*
X99187000Y-83905250D01*
X99345750Y-84064000D01*
X100385000Y-84067072D01*
X100509482Y-84054812D01*
X100629180Y-84018502D01*
X100739494Y-83959537D01*
X100836185Y-83880185D01*
X100915537Y-83783494D01*
X100974502Y-83673180D01*
X101010812Y-83553482D01*
X101023072Y-83429000D01*
X101020000Y-83089750D01*
X100861250Y-82931000D01*
X99187000Y-82931000D01*
X98933000Y-82931000D01*
X97258750Y-82931000D01*
X97100000Y-83089750D01*
X97096928Y-83429000D01*
X96541802Y-83429000D01*
X96607571Y-83290004D01*
X96676300Y-83015816D01*
X96690217Y-82733488D01*
X96648787Y-82453870D01*
X96553603Y-82187708D01*
X96486671Y-82062486D01*
X96242702Y-81990903D01*
X95429605Y-82804000D01*
X95070395Y-82804000D01*
X94257298Y-81990903D01*
X94107000Y-82035002D01*
X94107000Y-81661000D01*
X94481002Y-81661000D01*
X94436903Y-81811298D01*
G36*
X154869114Y-88793897D02*
G01*
X155033356Y-88843120D01*
X155184802Y-88923520D01*
X155317598Y-89031989D01*
X155426609Y-89164334D01*
X155507632Y-89315448D01*
X155557533Y-89479492D01*
X155575000Y-89656377D01*
X155575000Y-90529125D01*
X155476013Y-90388388D01*
X155328052Y-90247342D01*
X155155418Y-90137872D01*
X154972123Y-90074334D01*
X154813000Y-90202002D01*
X154813000Y-91242000D01*
X154833000Y-91242000D01*
X154833000Y-91496000D01*
X154813000Y-91496000D01*
X154813000Y-93162000D01*
X154833000Y-93162000D01*
X154833000Y-93416000D01*
X154813000Y-93416000D01*
X154813000Y-93436000D01*
X154559000Y-93436000D01*
X154559000Y-93416000D01*
X154539000Y-93416000D01*
X154539000Y-93162000D01*
X154559000Y-93162000D01*
X154559000Y-91496000D01*
X154539000Y-91496000D01*
X154539000Y-91242000D01*
X154559000Y-91242000D01*
X154559000Y-90202002D01*
X154399877Y-90074334D01*
X154216582Y-90137872D01*
X154045267Y-90246506D01*
X153993797Y-90204266D01*
X153813992Y-90108159D01*
X153618894Y-90048976D01*
X153416000Y-90028993D01*
X153213105Y-90048976D01*
X153018007Y-90108159D01*
X152838203Y-90204266D01*
X152781000Y-90251211D01*
X152723797Y-90204266D01*
X152543992Y-90108159D01*
X152348894Y-90048976D01*
X152146000Y-90028993D01*
X151943105Y-90048976D01*
X151748007Y-90108159D01*
X151568203Y-90204266D01*
X151511000Y-90251211D01*
X151453797Y-90204266D01*
X151273992Y-90108159D01*
X151078894Y-90048976D01*
X150876000Y-90028993D01*
X150673105Y-90048976D01*
X150478007Y-90108159D01*
X150298203Y-90204266D01*
X150241000Y-90251211D01*
X150183797Y-90204266D01*
X150003992Y-90108159D01*
X149808894Y-90048976D01*
X149606000Y-90028993D01*
X149403105Y-90048976D01*
X149208007Y-90108159D01*
X149028203Y-90204266D01*
X148870604Y-90333604D01*
X148741266Y-90491203D01*
X148645159Y-90671008D01*
X148585976Y-90866106D01*
X148571000Y-91018163D01*
X148571000Y-91719838D01*
X148585976Y-91871895D01*
X148645160Y-92066993D01*
X148741267Y-92246797D01*
X148808729Y-92329000D01*
X148741267Y-92411203D01*
X148645160Y-92591007D01*
X148585976Y-92786105D01*
X148571000Y-92938162D01*
X148571000Y-93639837D01*
X148585976Y-93791894D01*
X148645159Y-93986992D01*
X148741266Y-94166797D01*
X148870604Y-94324396D01*
X149028203Y-94453734D01*
X149208007Y-94549841D01*
X149403105Y-94609024D01*
X149463782Y-94615000D01*
X101692221Y-94615000D01*
X101737068Y-94506729D01*
X101773000Y-94326089D01*
X101773000Y-94141911D01*
X101737068Y-93961271D01*
X101666586Y-93791111D01*
X101564262Y-93637972D01*
X101434028Y-93507738D01*
X101280889Y-93405414D01*
X101110729Y-93334932D01*
X100930089Y-93299000D01*
X100745911Y-93299000D01*
X100565271Y-93334932D01*
X100395111Y-93405414D01*
X100292465Y-93474000D01*
X99469970Y-93474000D01*
X99460310Y-93466072D01*
X100056000Y-93466072D01*
X100180482Y-93453812D01*
X100300180Y-93417502D01*
X100410494Y-93358537D01*
X100507185Y-93279185D01*
X100586537Y-93182494D01*
X100610320Y-93138000D01*
X100624678Y-93138000D01*
X100662000Y-93141676D01*
X100699322Y-93138000D01*
X100699333Y-93138000D01*
X100733848Y-93134601D01*
X100745911Y-93137000D01*
X100930089Y-93137000D01*
X101110729Y-93101068D01*
X101280889Y-93030586D01*
X101434028Y-92928262D01*
X101564262Y-92798028D01*
X101666586Y-92644889D01*
X101737068Y-92474729D01*
X101773000Y-92294089D01*
X101773000Y-92109911D01*
X101737068Y-91929271D01*
X101666586Y-91759111D01*
X101564262Y-91605972D01*
X101434028Y-91475738D01*
X101377549Y-91438000D01*
X101816678Y-91438000D01*
X101854000Y-91441676D01*
X101891322Y-91438000D01*
X101891333Y-91438000D01*
X102002986Y-91427003D01*
X102146247Y-91383546D01*
X102278276Y-91312974D01*
X102394001Y-91218001D01*
X102417804Y-91188997D01*
X102618997Y-90987804D01*
X102648001Y-90964001D01*
X102742974Y-90848276D01*
X102813546Y-90716247D01*
X102857003Y-90572986D01*
X102868000Y-90461333D01*
X102868000Y-90461324D01*
X102871676Y-90424001D01*
X102868000Y-90386678D01*
X102868000Y-88990425D01*
X106694589Y-88974678D01*
X106689928Y-89022000D01*
X106689928Y-90022000D01*
X106702188Y-90146482D01*
X106738498Y-90266180D01*
X106797463Y-90376494D01*
X106876815Y-90473185D01*
X106973506Y-90552537D01*
X107083820Y-90611502D01*
X107203518Y-90647812D01*
X107328000Y-90660072D01*
X108128000Y-90660072D01*
X108252482Y-90647812D01*
X108253000Y-90647655D01*
X108253518Y-90647812D01*
X108378000Y-90660072D01*
X109078000Y-90660072D01*
X109202482Y-90647812D01*
X109203000Y-90647655D01*
X109203518Y-90647812D01*
X109328000Y-90660072D01*
X109442250Y-90657000D01*
X109601000Y-90498250D01*
X109601000Y-90385678D01*
X109608537Y-90376494D01*
X109667502Y-90266180D01*
X109703812Y-90146482D01*
X109716072Y-90022000D01*
X109716072Y-89649000D01*
X109855000Y-89649000D01*
X109855000Y-90498250D01*
X110013750Y-90657000D01*
X110128000Y-90660072D01*
X110252482Y-90647812D01*
X110372180Y-90611502D01*
X110482494Y-90552537D01*
X110579185Y-90473185D01*
X110658537Y-90376494D01*
X110717502Y-90266180D01*
X110753812Y-90146482D01*
X110766072Y-90022000D01*
X110763000Y-89807750D01*
X110604250Y-89649000D01*
X109855000Y-89649000D01*
X109716072Y-89649000D01*
X109716072Y-89375000D01*
X109855000Y-89375000D01*
X109855000Y-89395000D01*
X110604250Y-89395000D01*
X110763000Y-89236250D01*
X110766072Y-89022000D01*
X110759764Y-88957949D01*
X154692149Y-88777157D01*
X154869114Y-88793897D01*
X154869114Y-88793897D01*
G37*
X154869114Y-88793897D02*
X155033356Y-88843120D01*
X155184802Y-88923520D01*
X155317598Y-89031989D01*
X155426609Y-89164334D01*
X155507632Y-89315448D01*
X155557533Y-89479492D01*
X155575000Y-89656377D01*
X155575000Y-90529125D01*
X155476013Y-90388388D01*
X155328052Y-90247342D01*
X155155418Y-90137872D01*
X154972123Y-90074334D01*
X154813000Y-90202002D01*
X154813000Y-91242000D01*
X154833000Y-91242000D01*
X154833000Y-91496000D01*
X154813000Y-91496000D01*
X154813000Y-93162000D01*
X154833000Y-93162000D01*
X154833000Y-93416000D01*
X154813000Y-93416000D01*
X154813000Y-93436000D01*
X154559000Y-93436000D01*
X154559000Y-93416000D01*
X154539000Y-93416000D01*
X154539000Y-93162000D01*
X154559000Y-93162000D01*
X154559000Y-91496000D01*
X154539000Y-91496000D01*
X154539000Y-91242000D01*
X154559000Y-91242000D01*
X154559000Y-90202002D01*
X154399877Y-90074334D01*
X154216582Y-90137872D01*
X154045267Y-90246506D01*
X153993797Y-90204266D01*
X153813992Y-90108159D01*
X153618894Y-90048976D01*
X153416000Y-90028993D01*
X153213105Y-90048976D01*
X153018007Y-90108159D01*
X152838203Y-90204266D01*
X152781000Y-90251211D01*
X152723797Y-90204266D01*
X152543992Y-90108159D01*
X152348894Y-90048976D01*
X152146000Y-90028993D01*
X151943105Y-90048976D01*
X151748007Y-90108159D01*
X151568203Y-90204266D01*
X151511000Y-90251211D01*
X151453797Y-90204266D01*
X151273992Y-90108159D01*
X151078894Y-90048976D01*
X150876000Y-90028993D01*
X150673105Y-90048976D01*
X150478007Y-90108159D01*
X150298203Y-90204266D01*
X150241000Y-90251211D01*
X150183797Y-90204266D01*
X150003992Y-90108159D01*
X149808894Y-90048976D01*
X149606000Y-90028993D01*
X149403105Y-90048976D01*
X149208007Y-90108159D01*
X149028203Y-90204266D01*
X148870604Y-90333604D01*
X148741266Y-90491203D01*
X148645159Y-90671008D01*
X148585976Y-90866106D01*
X148571000Y-91018163D01*
X148571000Y-91719838D01*
X148585976Y-91871895D01*
X148645160Y-92066993D01*
X148741267Y-92246797D01*
X148808729Y-92329000D01*
X148741267Y-92411203D01*
X148645160Y-92591007D01*
X148585976Y-92786105D01*
X148571000Y-92938162D01*
X148571000Y-93639837D01*
X148585976Y-93791894D01*
X148645159Y-93986992D01*
X148741266Y-94166797D01*
X148870604Y-94324396D01*
X149028203Y-94453734D01*
X149208007Y-94549841D01*
X149403105Y-94609024D01*
X149463782Y-94615000D01*
X101692221Y-94615000D01*
X101737068Y-94506729D01*
X101773000Y-94326089D01*
X101773000Y-94141911D01*
X101737068Y-93961271D01*
X101666586Y-93791111D01*
X101564262Y-93637972D01*
X101434028Y-93507738D01*
X101280889Y-93405414D01*
X101110729Y-93334932D01*
X100930089Y-93299000D01*
X100745911Y-93299000D01*
X100565271Y-93334932D01*
X100395111Y-93405414D01*
X100292465Y-93474000D01*
X99469970Y-93474000D01*
X99460310Y-93466072D01*
X100056000Y-93466072D01*
X100180482Y-93453812D01*
X100300180Y-93417502D01*
X100410494Y-93358537D01*
X100507185Y-93279185D01*
X100586537Y-93182494D01*
X100610320Y-93138000D01*
X100624678Y-93138000D01*
X100662000Y-93141676D01*
X100699322Y-93138000D01*
X100699333Y-93138000D01*
X100733848Y-93134601D01*
X100745911Y-93137000D01*
X100930089Y-93137000D01*
X101110729Y-93101068D01*
X101280889Y-93030586D01*
X101434028Y-92928262D01*
X101564262Y-92798028D01*
X101666586Y-92644889D01*
X101737068Y-92474729D01*
X101773000Y-92294089D01*
X101773000Y-92109911D01*
X101737068Y-91929271D01*
X101666586Y-91759111D01*
X101564262Y-91605972D01*
X101434028Y-91475738D01*
X101377549Y-91438000D01*
X101816678Y-91438000D01*
X101854000Y-91441676D01*
X101891322Y-91438000D01*
X101891333Y-91438000D01*
X102002986Y-91427003D01*
X102146247Y-91383546D01*
X102278276Y-91312974D01*
X102394001Y-91218001D01*
X102417804Y-91188997D01*
X102618997Y-90987804D01*
X102648001Y-90964001D01*
X102742974Y-90848276D01*
X102813546Y-90716247D01*
X102857003Y-90572986D01*
X102868000Y-90461333D01*
X102868000Y-90461324D01*
X102871676Y-90424001D01*
X102868000Y-90386678D01*
X102868000Y-88990425D01*
X106694589Y-88974678D01*
X106689928Y-89022000D01*
X106689928Y-90022000D01*
X106702188Y-90146482D01*
X106738498Y-90266180D01*
X106797463Y-90376494D01*
X106876815Y-90473185D01*
X106973506Y-90552537D01*
X107083820Y-90611502D01*
X107203518Y-90647812D01*
X107328000Y-90660072D01*
X108128000Y-90660072D01*
X108252482Y-90647812D01*
X108253000Y-90647655D01*
X108253518Y-90647812D01*
X108378000Y-90660072D01*
X109078000Y-90660072D01*
X109202482Y-90647812D01*
X109203000Y-90647655D01*
X109203518Y-90647812D01*
X109328000Y-90660072D01*
X109442250Y-90657000D01*
X109601000Y-90498250D01*
X109601000Y-90385678D01*
X109608537Y-90376494D01*
X109667502Y-90266180D01*
X109703812Y-90146482D01*
X109716072Y-90022000D01*
X109716072Y-89649000D01*
X109855000Y-89649000D01*
X109855000Y-90498250D01*
X110013750Y-90657000D01*
X110128000Y-90660072D01*
X110252482Y-90647812D01*
X110372180Y-90611502D01*
X110482494Y-90552537D01*
X110579185Y-90473185D01*
X110658537Y-90376494D01*
X110717502Y-90266180D01*
X110753812Y-90146482D01*
X110766072Y-90022000D01*
X110763000Y-89807750D01*
X110604250Y-89649000D01*
X109855000Y-89649000D01*
X109716072Y-89649000D01*
X109716072Y-89375000D01*
X109855000Y-89375000D01*
X109855000Y-89395000D01*
X110604250Y-89395000D01*
X110763000Y-89236250D01*
X110766072Y-89022000D01*
X110759764Y-88957949D01*
X154692149Y-88777157D01*
X154869114Y-88793897D01*
G36*
X101348001Y-89918000D02*
G01*
X99660320Y-89918000D01*
X99636537Y-89873506D01*
X99557185Y-89776815D01*
X99460494Y-89697463D01*
X99350180Y-89638498D01*
X99230482Y-89602188D01*
X99106000Y-89589928D01*
X98506000Y-89589928D01*
X98381518Y-89602188D01*
X98261820Y-89638498D01*
X98151506Y-89697463D01*
X98054815Y-89776815D01*
X97975463Y-89873506D01*
X97916498Y-89983820D01*
X97880188Y-90103518D01*
X97867928Y-90228000D01*
X97867928Y-91128000D01*
X97880188Y-91252482D01*
X97916498Y-91372180D01*
X97975463Y-91482494D01*
X97983000Y-91491678D01*
X97983000Y-92251000D01*
X98632250Y-92251000D01*
X98791000Y-92092250D01*
X98794072Y-91928000D01*
X98781812Y-91803518D01*
X98770453Y-91766072D01*
X98841547Y-91766072D01*
X98830188Y-91803518D01*
X98817928Y-91928000D01*
X98817928Y-92828000D01*
X98830188Y-92952482D01*
X98866498Y-93072180D01*
X98925463Y-93182494D01*
X99004815Y-93279185D01*
X99007304Y-93281227D01*
X98953500Y-93275928D01*
X98658500Y-93275928D01*
X98604696Y-93281227D01*
X98607185Y-93279185D01*
X98686537Y-93182494D01*
X98745502Y-93072180D01*
X98781812Y-92952482D01*
X98794072Y-92828000D01*
X98791000Y-92663750D01*
X98632250Y-92505000D01*
X97983000Y-92505000D01*
X97983000Y-93304250D01*
X98039750Y-93361000D01*
X97963000Y-93437750D01*
X97963000Y-93704237D01*
X97932726Y-93760875D01*
X97888023Y-93908243D01*
X97872928Y-94061500D01*
X97872928Y-94381000D01*
X97709000Y-94381000D01*
X97709000Y-94361000D01*
X97064750Y-94361000D01*
X96906000Y-94519750D01*
X96902928Y-94554000D01*
X96908936Y-94615000D01*
X96851751Y-94615000D01*
X96873741Y-94546474D01*
X96885000Y-94443750D01*
X96726250Y-94285000D01*
X96613678Y-94285000D01*
X96701185Y-94213185D01*
X96780537Y-94116494D01*
X96817032Y-94048218D01*
X96885000Y-93980250D01*
X96877739Y-93914000D01*
X96902928Y-93914000D01*
X96906000Y-93948250D01*
X97064750Y-94107000D01*
X97709000Y-94107000D01*
X97709000Y-93437750D01*
X97652250Y-93381000D01*
X97729000Y-93304250D01*
X97729000Y-92505000D01*
X97079750Y-92505000D01*
X96921000Y-92663750D01*
X96917928Y-92828000D01*
X96930188Y-92952482D01*
X96966498Y-93072180D01*
X97025463Y-93182494D01*
X97104815Y-93279185D01*
X97201506Y-93358537D01*
X97217322Y-93366991D01*
X97186506Y-93383463D01*
X97089815Y-93462815D01*
X97010463Y-93559506D01*
X96951498Y-93669820D01*
X96915188Y-93789518D01*
X96902928Y-93914000D01*
X96877739Y-93914000D01*
X96875012Y-93889120D01*
X96875812Y-93886482D01*
X96888072Y-93762000D01*
X96888072Y-93362000D01*
X96875812Y-93237518D01*
X96875655Y-93237000D01*
X96875812Y-93236482D01*
X96888072Y-93112000D01*
X96888072Y-92712000D01*
X96875812Y-92587518D01*
X96875655Y-92587000D01*
X96875812Y-92586482D01*
X96888072Y-92462000D01*
X96888072Y-92062000D01*
X96875812Y-91937518D01*
X96875655Y-91937000D01*
X96875812Y-91936482D01*
X96876647Y-91928000D01*
X96917928Y-91928000D01*
X96921000Y-92092250D01*
X97079750Y-92251000D01*
X97729000Y-92251000D01*
X97729000Y-91451750D01*
X97570250Y-91293000D01*
X97556000Y-91289928D01*
X97431518Y-91302188D01*
X97311820Y-91338498D01*
X97201506Y-91397463D01*
X97104815Y-91476815D01*
X97025463Y-91573506D01*
X96966498Y-91683820D01*
X96930188Y-91803518D01*
X96917928Y-91928000D01*
X96876647Y-91928000D01*
X96888072Y-91812000D01*
X96888072Y-91412000D01*
X96875812Y-91287518D01*
X96839502Y-91167820D01*
X96823028Y-91137000D01*
X96839502Y-91106180D01*
X96875812Y-90986482D01*
X96888072Y-90862000D01*
X96888072Y-89015034D01*
X101348001Y-88996680D01*
X101348001Y-89918000D01*
X101348001Y-89918000D01*
G37*
X101348001Y-89918000D02*
X99660320Y-89918000D01*
X99636537Y-89873506D01*
X99557185Y-89776815D01*
X99460494Y-89697463D01*
X99350180Y-89638498D01*
X99230482Y-89602188D01*
X99106000Y-89589928D01*
X98506000Y-89589928D01*
X98381518Y-89602188D01*
X98261820Y-89638498D01*
X98151506Y-89697463D01*
X98054815Y-89776815D01*
X97975463Y-89873506D01*
X97916498Y-89983820D01*
X97880188Y-90103518D01*
X97867928Y-90228000D01*
X97867928Y-91128000D01*
X97880188Y-91252482D01*
X97916498Y-91372180D01*
X97975463Y-91482494D01*
X97983000Y-91491678D01*
X97983000Y-92251000D01*
X98632250Y-92251000D01*
X98791000Y-92092250D01*
X98794072Y-91928000D01*
X98781812Y-91803518D01*
X98770453Y-91766072D01*
X98841547Y-91766072D01*
X98830188Y-91803518D01*
X98817928Y-91928000D01*
X98817928Y-92828000D01*
X98830188Y-92952482D01*
X98866498Y-93072180D01*
X98925463Y-93182494D01*
X99004815Y-93279185D01*
X99007304Y-93281227D01*
X98953500Y-93275928D01*
X98658500Y-93275928D01*
X98604696Y-93281227D01*
X98607185Y-93279185D01*
X98686537Y-93182494D01*
X98745502Y-93072180D01*
X98781812Y-92952482D01*
X98794072Y-92828000D01*
X98791000Y-92663750D01*
X98632250Y-92505000D01*
X97983000Y-92505000D01*
X97983000Y-93304250D01*
X98039750Y-93361000D01*
X97963000Y-93437750D01*
X97963000Y-93704237D01*
X97932726Y-93760875D01*
X97888023Y-93908243D01*
X97872928Y-94061500D01*
X97872928Y-94381000D01*
X97709000Y-94381000D01*
X97709000Y-94361000D01*
X97064750Y-94361000D01*
X96906000Y-94519750D01*
X96902928Y-94554000D01*
X96908936Y-94615000D01*
X96851751Y-94615000D01*
X96873741Y-94546474D01*
X96885000Y-94443750D01*
X96726250Y-94285000D01*
X96613678Y-94285000D01*
X96701185Y-94213185D01*
X96780537Y-94116494D01*
X96817032Y-94048218D01*
X96885000Y-93980250D01*
X96877739Y-93914000D01*
X96902928Y-93914000D01*
X96906000Y-93948250D01*
X97064750Y-94107000D01*
X97709000Y-94107000D01*
X97709000Y-93437750D01*
X97652250Y-93381000D01*
X97729000Y-93304250D01*
X97729000Y-92505000D01*
X97079750Y-92505000D01*
X96921000Y-92663750D01*
X96917928Y-92828000D01*
X96930188Y-92952482D01*
X96966498Y-93072180D01*
X97025463Y-93182494D01*
X97104815Y-93279185D01*
X97201506Y-93358537D01*
X97217322Y-93366991D01*
X97186506Y-93383463D01*
X97089815Y-93462815D01*
X97010463Y-93559506D01*
X96951498Y-93669820D01*
X96915188Y-93789518D01*
X96902928Y-93914000D01*
X96877739Y-93914000D01*
X96875012Y-93889120D01*
X96875812Y-93886482D01*
X96888072Y-93762000D01*
X96888072Y-93362000D01*
X96875812Y-93237518D01*
X96875655Y-93237000D01*
X96875812Y-93236482D01*
X96888072Y-93112000D01*
X96888072Y-92712000D01*
X96875812Y-92587518D01*
X96875655Y-92587000D01*
X96875812Y-92586482D01*
X96888072Y-92462000D01*
X96888072Y-92062000D01*
X96875812Y-91937518D01*
X96875655Y-91937000D01*
X96875812Y-91936482D01*
X96876647Y-91928000D01*
X96917928Y-91928000D01*
X96921000Y-92092250D01*
X97079750Y-92251000D01*
X97729000Y-92251000D01*
X97729000Y-91451750D01*
X97570250Y-91293000D01*
X97556000Y-91289928D01*
X97431518Y-91302188D01*
X97311820Y-91338498D01*
X97201506Y-91397463D01*
X97104815Y-91476815D01*
X97025463Y-91573506D01*
X96966498Y-91683820D01*
X96930188Y-91803518D01*
X96917928Y-91928000D01*
X96876647Y-91928000D01*
X96888072Y-91812000D01*
X96888072Y-91412000D01*
X96875812Y-91287518D01*
X96839502Y-91167820D01*
X96823028Y-91137000D01*
X96839502Y-91106180D01*
X96875812Y-90986482D01*
X96888072Y-90862000D01*
X96888072Y-89015034D01*
X101348001Y-88996680D01*
X101348001Y-89918000D01*
M02*
