G04 #@! TF.GenerationSoftware,KiCad,Pcbnew,(5.1.4)-1*
G04 #@! TF.CreationDate,2019-11-19T10:04:28+09:00*
G04 #@! TF.ProjectId,signaltowr_hikarikensyutu,7369676e-616c-4746-9f77-725f68696b61,rev?*
G04 #@! TF.SameCoordinates,Original*
G04 #@! TF.FileFunction,Soldermask,Bot*
G04 #@! TF.FilePolarity,Negative*
%FSLAX46Y46*%
G04 Gerber Fmt 4.6, Leading zero omitted, Abs format (unit mm)*
G04 Created by KiCad (PCBNEW (5.1.4)-1) date 2019-11-19 10:04:28*
%MOMM*%
%LPD*%
G04 APERTURE LIST*
%ADD10C,1.600000*%
%ADD11C,4.500000*%
%ADD12O,0.800000X1.400000*%
%ADD13O,1.400000X0.800000*%
G04 APERTURE END LIST*
D10*
X96266000Y-75946000D03*
X96266000Y-81026000D03*
D11*
X140606000Y-81923000D03*
X158606000Y-81923000D03*
D12*
X149606000Y-81463000D03*
X150876000Y-81463000D03*
X152146000Y-81463000D03*
X153416000Y-81463000D03*
X154686000Y-81463000D03*
X149606000Y-83383000D03*
X150876000Y-83383000D03*
X152146000Y-83383000D03*
X153416000Y-83383000D03*
X154686000Y-83383000D03*
D13*
X160091000Y-77978000D03*
X160091000Y-76708000D03*
X160091000Y-75438000D03*
X160091000Y-74168000D03*
X160091000Y-72898000D03*
X160091000Y-71628000D03*
X160091000Y-70358000D03*
X160091000Y-69088000D03*
X139121000Y-77978000D03*
X139121000Y-76708000D03*
X139121000Y-75438000D03*
X139121000Y-74168000D03*
X139121000Y-72898000D03*
X139121000Y-71628000D03*
X139121000Y-70358000D03*
X139121000Y-69088000D03*
X139121000Y-67818000D03*
X139121000Y-66548000D03*
X160091000Y-67818000D03*
X160091000Y-66548000D03*
D12*
X149606000Y-91369000D03*
X150876000Y-91369000D03*
X152146000Y-91369000D03*
X153416000Y-91369000D03*
X154686000Y-91369000D03*
X154686000Y-93289000D03*
X149606000Y-93289000D03*
X150876000Y-93289000D03*
X153416000Y-93289000D03*
X152146000Y-93289000D03*
M02*
