G04 #@! TF.GenerationSoftware,KiCad,Pcbnew,(5.1.4)-1*
G04 #@! TF.CreationDate,2019-11-19T10:04:28+09:00*
G04 #@! TF.ProjectId,signaltowr_hikarikensyutu,7369676e-616c-4746-9f77-725f68696b61,rev?*
G04 #@! TF.SameCoordinates,Original*
G04 #@! TF.FileFunction,Soldermask,Top*
G04 #@! TF.FilePolarity,Negative*
%FSLAX46Y46*%
G04 Gerber Fmt 4.6, Leading zero omitted, Abs format (unit mm)*
G04 Created by KiCad (PCBNEW (5.1.4)-1) date 2019-11-19 10:04:28*
%MOMM*%
%LPD*%
G04 APERTURE LIST*
%ADD10C,1.600000*%
%ADD11R,7.000000X7.000000*%
%ADD12R,0.760000X2.500000*%
%ADD13R,0.600000X0.900000*%
%ADD14R,1.350000X0.400000*%
%ADD15R,1.900000X1.600000*%
%ADD16R,2.000000X2.100000*%
%ADD17C,4.500000*%
%ADD18O,0.800000X1.400000*%
%ADD19O,1.400000X0.800000*%
%ADD20R,0.800000X1.000000*%
%ADD21R,0.700000X1.000000*%
%ADD22C,0.100000*%
%ADD23C,0.590000*%
%ADD24R,1.050000X0.350000*%
%ADD25R,1.350000X2.000000*%
%ADD26C,1.250000*%
G04 APERTURE END LIST*
D10*
X96266000Y-75946000D03*
X96266000Y-81026000D03*
D11*
X113538000Y-77978000D03*
D12*
X112268000Y-84228000D03*
X110998000Y-84228000D03*
X116078000Y-84228000D03*
X114808000Y-84228000D03*
D13*
X98806000Y-90678000D03*
X99756000Y-92378000D03*
X97856000Y-92378000D03*
D14*
X95575000Y-92262000D03*
X95575000Y-92912000D03*
X95575000Y-93562000D03*
X95575000Y-91612000D03*
D15*
X92900000Y-97012000D03*
D16*
X95250000Y-96012000D03*
D15*
X92900000Y-88812000D03*
D14*
X95575000Y-94212000D03*
D16*
X95250000Y-89812000D03*
D17*
X140606000Y-81923000D03*
X158606000Y-81923000D03*
D18*
X149606000Y-81463000D03*
X150876000Y-81463000D03*
X152146000Y-81463000D03*
X153416000Y-81463000D03*
X154686000Y-81463000D03*
X149606000Y-83383000D03*
X150876000Y-83383000D03*
X152146000Y-83383000D03*
X153416000Y-83383000D03*
X154686000Y-83383000D03*
D19*
X160091000Y-77978000D03*
X160091000Y-76708000D03*
X160091000Y-75438000D03*
X160091000Y-74168000D03*
X160091000Y-72898000D03*
X160091000Y-71628000D03*
X160091000Y-70358000D03*
X160091000Y-69088000D03*
X139121000Y-77978000D03*
X139121000Y-76708000D03*
X139121000Y-75438000D03*
X139121000Y-74168000D03*
X139121000Y-72898000D03*
X139121000Y-71628000D03*
X139121000Y-70358000D03*
X139121000Y-69088000D03*
X139121000Y-67818000D03*
X139121000Y-66548000D03*
X160091000Y-67818000D03*
X160091000Y-66548000D03*
D20*
X111014000Y-88786000D03*
X113014000Y-88786000D03*
X113014000Y-91186000D03*
X111014000Y-91186000D03*
D21*
X112014000Y-91186000D03*
D22*
G36*
X106866958Y-85257710D02*
G01*
X106881276Y-85259834D01*
X106895317Y-85263351D01*
X106908946Y-85268228D01*
X106922031Y-85274417D01*
X106934447Y-85281858D01*
X106946073Y-85290481D01*
X106956798Y-85300202D01*
X106966519Y-85310927D01*
X106975142Y-85322553D01*
X106982583Y-85334969D01*
X106988772Y-85348054D01*
X106993649Y-85361683D01*
X106997166Y-85375724D01*
X106999290Y-85390042D01*
X107000000Y-85404500D01*
X107000000Y-85699500D01*
X106999290Y-85713958D01*
X106997166Y-85728276D01*
X106993649Y-85742317D01*
X106988772Y-85755946D01*
X106982583Y-85769031D01*
X106975142Y-85781447D01*
X106966519Y-85793073D01*
X106956798Y-85803798D01*
X106946073Y-85813519D01*
X106934447Y-85822142D01*
X106922031Y-85829583D01*
X106908946Y-85835772D01*
X106895317Y-85840649D01*
X106881276Y-85844166D01*
X106866958Y-85846290D01*
X106852500Y-85847000D01*
X106507500Y-85847000D01*
X106493042Y-85846290D01*
X106478724Y-85844166D01*
X106464683Y-85840649D01*
X106451054Y-85835772D01*
X106437969Y-85829583D01*
X106425553Y-85822142D01*
X106413927Y-85813519D01*
X106403202Y-85803798D01*
X106393481Y-85793073D01*
X106384858Y-85781447D01*
X106377417Y-85769031D01*
X106371228Y-85755946D01*
X106366351Y-85742317D01*
X106362834Y-85728276D01*
X106360710Y-85713958D01*
X106360000Y-85699500D01*
X106360000Y-85404500D01*
X106360710Y-85390042D01*
X106362834Y-85375724D01*
X106366351Y-85361683D01*
X106371228Y-85348054D01*
X106377417Y-85334969D01*
X106384858Y-85322553D01*
X106393481Y-85310927D01*
X106403202Y-85300202D01*
X106413927Y-85290481D01*
X106425553Y-85281858D01*
X106437969Y-85274417D01*
X106451054Y-85268228D01*
X106464683Y-85263351D01*
X106478724Y-85259834D01*
X106493042Y-85257710D01*
X106507500Y-85257000D01*
X106852500Y-85257000D01*
X106866958Y-85257710D01*
X106866958Y-85257710D01*
G37*
D23*
X106680000Y-85552000D03*
D22*
G36*
X106866958Y-84287710D02*
G01*
X106881276Y-84289834D01*
X106895317Y-84293351D01*
X106908946Y-84298228D01*
X106922031Y-84304417D01*
X106934447Y-84311858D01*
X106946073Y-84320481D01*
X106956798Y-84330202D01*
X106966519Y-84340927D01*
X106975142Y-84352553D01*
X106982583Y-84364969D01*
X106988772Y-84378054D01*
X106993649Y-84391683D01*
X106997166Y-84405724D01*
X106999290Y-84420042D01*
X107000000Y-84434500D01*
X107000000Y-84729500D01*
X106999290Y-84743958D01*
X106997166Y-84758276D01*
X106993649Y-84772317D01*
X106988772Y-84785946D01*
X106982583Y-84799031D01*
X106975142Y-84811447D01*
X106966519Y-84823073D01*
X106956798Y-84833798D01*
X106946073Y-84843519D01*
X106934447Y-84852142D01*
X106922031Y-84859583D01*
X106908946Y-84865772D01*
X106895317Y-84870649D01*
X106881276Y-84874166D01*
X106866958Y-84876290D01*
X106852500Y-84877000D01*
X106507500Y-84877000D01*
X106493042Y-84876290D01*
X106478724Y-84874166D01*
X106464683Y-84870649D01*
X106451054Y-84865772D01*
X106437969Y-84859583D01*
X106425553Y-84852142D01*
X106413927Y-84843519D01*
X106403202Y-84833798D01*
X106393481Y-84823073D01*
X106384858Y-84811447D01*
X106377417Y-84799031D01*
X106371228Y-84785946D01*
X106366351Y-84772317D01*
X106362834Y-84758276D01*
X106360710Y-84743958D01*
X106360000Y-84729500D01*
X106360000Y-84434500D01*
X106360710Y-84420042D01*
X106362834Y-84405724D01*
X106366351Y-84391683D01*
X106371228Y-84378054D01*
X106377417Y-84364969D01*
X106384858Y-84352553D01*
X106393481Y-84340927D01*
X106403202Y-84330202D01*
X106413927Y-84320481D01*
X106425553Y-84311858D01*
X106437969Y-84304417D01*
X106451054Y-84298228D01*
X106464683Y-84293351D01*
X106478724Y-84289834D01*
X106493042Y-84287710D01*
X106507500Y-84287000D01*
X106852500Y-84287000D01*
X106866958Y-84287710D01*
X106866958Y-84287710D01*
G37*
D23*
X106680000Y-84582000D03*
D22*
G36*
X98967958Y-93914710D02*
G01*
X98982276Y-93916834D01*
X98996317Y-93920351D01*
X99009946Y-93925228D01*
X99023031Y-93931417D01*
X99035447Y-93938858D01*
X99047073Y-93947481D01*
X99057798Y-93957202D01*
X99067519Y-93967927D01*
X99076142Y-93979553D01*
X99083583Y-93991969D01*
X99089772Y-94005054D01*
X99094649Y-94018683D01*
X99098166Y-94032724D01*
X99100290Y-94047042D01*
X99101000Y-94061500D01*
X99101000Y-94406500D01*
X99100290Y-94420958D01*
X99098166Y-94435276D01*
X99094649Y-94449317D01*
X99089772Y-94462946D01*
X99083583Y-94476031D01*
X99076142Y-94488447D01*
X99067519Y-94500073D01*
X99057798Y-94510798D01*
X99047073Y-94520519D01*
X99035447Y-94529142D01*
X99023031Y-94536583D01*
X99009946Y-94542772D01*
X98996317Y-94547649D01*
X98982276Y-94551166D01*
X98967958Y-94553290D01*
X98953500Y-94554000D01*
X98658500Y-94554000D01*
X98644042Y-94553290D01*
X98629724Y-94551166D01*
X98615683Y-94547649D01*
X98602054Y-94542772D01*
X98588969Y-94536583D01*
X98576553Y-94529142D01*
X98564927Y-94520519D01*
X98554202Y-94510798D01*
X98544481Y-94500073D01*
X98535858Y-94488447D01*
X98528417Y-94476031D01*
X98522228Y-94462946D01*
X98517351Y-94449317D01*
X98513834Y-94435276D01*
X98511710Y-94420958D01*
X98511000Y-94406500D01*
X98511000Y-94061500D01*
X98511710Y-94047042D01*
X98513834Y-94032724D01*
X98517351Y-94018683D01*
X98522228Y-94005054D01*
X98528417Y-93991969D01*
X98535858Y-93979553D01*
X98544481Y-93967927D01*
X98554202Y-93957202D01*
X98564927Y-93947481D01*
X98576553Y-93938858D01*
X98588969Y-93931417D01*
X98602054Y-93925228D01*
X98615683Y-93920351D01*
X98629724Y-93916834D01*
X98644042Y-93914710D01*
X98658500Y-93914000D01*
X98953500Y-93914000D01*
X98967958Y-93914710D01*
X98967958Y-93914710D01*
G37*
D23*
X98806000Y-94234000D03*
D22*
G36*
X97997958Y-93914710D02*
G01*
X98012276Y-93916834D01*
X98026317Y-93920351D01*
X98039946Y-93925228D01*
X98053031Y-93931417D01*
X98065447Y-93938858D01*
X98077073Y-93947481D01*
X98087798Y-93957202D01*
X98097519Y-93967927D01*
X98106142Y-93979553D01*
X98113583Y-93991969D01*
X98119772Y-94005054D01*
X98124649Y-94018683D01*
X98128166Y-94032724D01*
X98130290Y-94047042D01*
X98131000Y-94061500D01*
X98131000Y-94406500D01*
X98130290Y-94420958D01*
X98128166Y-94435276D01*
X98124649Y-94449317D01*
X98119772Y-94462946D01*
X98113583Y-94476031D01*
X98106142Y-94488447D01*
X98097519Y-94500073D01*
X98087798Y-94510798D01*
X98077073Y-94520519D01*
X98065447Y-94529142D01*
X98053031Y-94536583D01*
X98039946Y-94542772D01*
X98026317Y-94547649D01*
X98012276Y-94551166D01*
X97997958Y-94553290D01*
X97983500Y-94554000D01*
X97688500Y-94554000D01*
X97674042Y-94553290D01*
X97659724Y-94551166D01*
X97645683Y-94547649D01*
X97632054Y-94542772D01*
X97618969Y-94536583D01*
X97606553Y-94529142D01*
X97594927Y-94520519D01*
X97584202Y-94510798D01*
X97574481Y-94500073D01*
X97565858Y-94488447D01*
X97558417Y-94476031D01*
X97552228Y-94462946D01*
X97547351Y-94449317D01*
X97543834Y-94435276D01*
X97541710Y-94420958D01*
X97541000Y-94406500D01*
X97541000Y-94061500D01*
X97541710Y-94047042D01*
X97543834Y-94032724D01*
X97547351Y-94018683D01*
X97552228Y-94005054D01*
X97558417Y-93991969D01*
X97565858Y-93979553D01*
X97574481Y-93967927D01*
X97584202Y-93957202D01*
X97594927Y-93947481D01*
X97606553Y-93938858D01*
X97618969Y-93931417D01*
X97632054Y-93925228D01*
X97645683Y-93920351D01*
X97659724Y-93916834D01*
X97674042Y-93914710D01*
X97688500Y-93914000D01*
X97983500Y-93914000D01*
X97997958Y-93914710D01*
X97997958Y-93914710D01*
G37*
D23*
X97836000Y-94234000D03*
D18*
X149606000Y-91369000D03*
X150876000Y-91369000D03*
X152146000Y-91369000D03*
X153416000Y-91369000D03*
X154686000Y-91369000D03*
X154686000Y-93289000D03*
X149606000Y-93289000D03*
X150876000Y-93289000D03*
X153416000Y-93289000D03*
X152146000Y-93289000D03*
D24*
X93218000Y-65746000D03*
X93218000Y-65246000D03*
X93218000Y-64746000D03*
X93218000Y-64246000D03*
X93218000Y-62246000D03*
X93218000Y-62746000D03*
X93218000Y-63246000D03*
X93218000Y-63746000D03*
D25*
X95968000Y-59896000D03*
X95968000Y-68096000D03*
D22*
G36*
X131909504Y-77478204D02*
G01*
X131933773Y-77481804D01*
X131957571Y-77487765D01*
X131980671Y-77496030D01*
X132002849Y-77506520D01*
X132023893Y-77519133D01*
X132043598Y-77533747D01*
X132061777Y-77550223D01*
X132078253Y-77568402D01*
X132092867Y-77588107D01*
X132105480Y-77609151D01*
X132115970Y-77631329D01*
X132124235Y-77654429D01*
X132130196Y-77678227D01*
X132133796Y-77702496D01*
X132135000Y-77727000D01*
X132135000Y-78477000D01*
X132133796Y-78501504D01*
X132130196Y-78525773D01*
X132124235Y-78549571D01*
X132115970Y-78572671D01*
X132105480Y-78594849D01*
X132092867Y-78615893D01*
X132078253Y-78635598D01*
X132061777Y-78653777D01*
X132043598Y-78670253D01*
X132023893Y-78684867D01*
X132002849Y-78697480D01*
X131980671Y-78707970D01*
X131957571Y-78716235D01*
X131933773Y-78722196D01*
X131909504Y-78725796D01*
X131885000Y-78727000D01*
X129735000Y-78727000D01*
X129710496Y-78725796D01*
X129686227Y-78722196D01*
X129662429Y-78716235D01*
X129639329Y-78707970D01*
X129617151Y-78697480D01*
X129596107Y-78684867D01*
X129576402Y-78670253D01*
X129558223Y-78653777D01*
X129541747Y-78635598D01*
X129527133Y-78615893D01*
X129514520Y-78594849D01*
X129504030Y-78572671D01*
X129495765Y-78549571D01*
X129489804Y-78525773D01*
X129486204Y-78501504D01*
X129485000Y-78477000D01*
X129485000Y-77727000D01*
X129486204Y-77702496D01*
X129489804Y-77678227D01*
X129495765Y-77654429D01*
X129504030Y-77631329D01*
X129514520Y-77609151D01*
X129527133Y-77588107D01*
X129541747Y-77568402D01*
X129558223Y-77550223D01*
X129576402Y-77533747D01*
X129596107Y-77519133D01*
X129617151Y-77506520D01*
X129639329Y-77496030D01*
X129662429Y-77487765D01*
X129686227Y-77481804D01*
X129710496Y-77478204D01*
X129735000Y-77477000D01*
X131885000Y-77477000D01*
X131909504Y-77478204D01*
X131909504Y-77478204D01*
G37*
D26*
X130810000Y-78102000D03*
D22*
G36*
X131909504Y-80278204D02*
G01*
X131933773Y-80281804D01*
X131957571Y-80287765D01*
X131980671Y-80296030D01*
X132002849Y-80306520D01*
X132023893Y-80319133D01*
X132043598Y-80333747D01*
X132061777Y-80350223D01*
X132078253Y-80368402D01*
X132092867Y-80388107D01*
X132105480Y-80409151D01*
X132115970Y-80431329D01*
X132124235Y-80454429D01*
X132130196Y-80478227D01*
X132133796Y-80502496D01*
X132135000Y-80527000D01*
X132135000Y-81277000D01*
X132133796Y-81301504D01*
X132130196Y-81325773D01*
X132124235Y-81349571D01*
X132115970Y-81372671D01*
X132105480Y-81394849D01*
X132092867Y-81415893D01*
X132078253Y-81435598D01*
X132061777Y-81453777D01*
X132043598Y-81470253D01*
X132023893Y-81484867D01*
X132002849Y-81497480D01*
X131980671Y-81507970D01*
X131957571Y-81516235D01*
X131933773Y-81522196D01*
X131909504Y-81525796D01*
X131885000Y-81527000D01*
X129735000Y-81527000D01*
X129710496Y-81525796D01*
X129686227Y-81522196D01*
X129662429Y-81516235D01*
X129639329Y-81507970D01*
X129617151Y-81497480D01*
X129596107Y-81484867D01*
X129576402Y-81470253D01*
X129558223Y-81453777D01*
X129541747Y-81435598D01*
X129527133Y-81415893D01*
X129514520Y-81394849D01*
X129504030Y-81372671D01*
X129495765Y-81349571D01*
X129489804Y-81325773D01*
X129486204Y-81301504D01*
X129485000Y-81277000D01*
X129485000Y-80527000D01*
X129486204Y-80502496D01*
X129489804Y-80478227D01*
X129495765Y-80454429D01*
X129504030Y-80431329D01*
X129514520Y-80409151D01*
X129527133Y-80388107D01*
X129541747Y-80368402D01*
X129558223Y-80350223D01*
X129576402Y-80333747D01*
X129596107Y-80319133D01*
X129617151Y-80306520D01*
X129639329Y-80296030D01*
X129662429Y-80287765D01*
X129686227Y-80281804D01*
X129710496Y-80278204D01*
X129735000Y-80277000D01*
X131885000Y-80277000D01*
X131909504Y-80278204D01*
X131909504Y-80278204D01*
G37*
D26*
X130810000Y-80902000D03*
D22*
G36*
X107525504Y-77100204D02*
G01*
X107549773Y-77103804D01*
X107573571Y-77109765D01*
X107596671Y-77118030D01*
X107618849Y-77128520D01*
X107639893Y-77141133D01*
X107659598Y-77155747D01*
X107677777Y-77172223D01*
X107694253Y-77190402D01*
X107708867Y-77210107D01*
X107721480Y-77231151D01*
X107731970Y-77253329D01*
X107740235Y-77276429D01*
X107746196Y-77300227D01*
X107749796Y-77324496D01*
X107751000Y-77349000D01*
X107751000Y-78099000D01*
X107749796Y-78123504D01*
X107746196Y-78147773D01*
X107740235Y-78171571D01*
X107731970Y-78194671D01*
X107721480Y-78216849D01*
X107708867Y-78237893D01*
X107694253Y-78257598D01*
X107677777Y-78275777D01*
X107659598Y-78292253D01*
X107639893Y-78306867D01*
X107618849Y-78319480D01*
X107596671Y-78329970D01*
X107573571Y-78338235D01*
X107549773Y-78344196D01*
X107525504Y-78347796D01*
X107501000Y-78349000D01*
X105351000Y-78349000D01*
X105326496Y-78347796D01*
X105302227Y-78344196D01*
X105278429Y-78338235D01*
X105255329Y-78329970D01*
X105233151Y-78319480D01*
X105212107Y-78306867D01*
X105192402Y-78292253D01*
X105174223Y-78275777D01*
X105157747Y-78257598D01*
X105143133Y-78237893D01*
X105130520Y-78216849D01*
X105120030Y-78194671D01*
X105111765Y-78171571D01*
X105105804Y-78147773D01*
X105102204Y-78123504D01*
X105101000Y-78099000D01*
X105101000Y-77349000D01*
X105102204Y-77324496D01*
X105105804Y-77300227D01*
X105111765Y-77276429D01*
X105120030Y-77253329D01*
X105130520Y-77231151D01*
X105143133Y-77210107D01*
X105157747Y-77190402D01*
X105174223Y-77172223D01*
X105192402Y-77155747D01*
X105212107Y-77141133D01*
X105233151Y-77128520D01*
X105255329Y-77118030D01*
X105278429Y-77109765D01*
X105302227Y-77103804D01*
X105326496Y-77100204D01*
X105351000Y-77099000D01*
X107501000Y-77099000D01*
X107525504Y-77100204D01*
X107525504Y-77100204D01*
G37*
D26*
X106426000Y-77724000D03*
D22*
G36*
X107525504Y-79900204D02*
G01*
X107549773Y-79903804D01*
X107573571Y-79909765D01*
X107596671Y-79918030D01*
X107618849Y-79928520D01*
X107639893Y-79941133D01*
X107659598Y-79955747D01*
X107677777Y-79972223D01*
X107694253Y-79990402D01*
X107708867Y-80010107D01*
X107721480Y-80031151D01*
X107731970Y-80053329D01*
X107740235Y-80076429D01*
X107746196Y-80100227D01*
X107749796Y-80124496D01*
X107751000Y-80149000D01*
X107751000Y-80899000D01*
X107749796Y-80923504D01*
X107746196Y-80947773D01*
X107740235Y-80971571D01*
X107731970Y-80994671D01*
X107721480Y-81016849D01*
X107708867Y-81037893D01*
X107694253Y-81057598D01*
X107677777Y-81075777D01*
X107659598Y-81092253D01*
X107639893Y-81106867D01*
X107618849Y-81119480D01*
X107596671Y-81129970D01*
X107573571Y-81138235D01*
X107549773Y-81144196D01*
X107525504Y-81147796D01*
X107501000Y-81149000D01*
X105351000Y-81149000D01*
X105326496Y-81147796D01*
X105302227Y-81144196D01*
X105278429Y-81138235D01*
X105255329Y-81129970D01*
X105233151Y-81119480D01*
X105212107Y-81106867D01*
X105192402Y-81092253D01*
X105174223Y-81075777D01*
X105157747Y-81057598D01*
X105143133Y-81037893D01*
X105130520Y-81016849D01*
X105120030Y-80994671D01*
X105111765Y-80971571D01*
X105105804Y-80947773D01*
X105102204Y-80923504D01*
X105101000Y-80899000D01*
X105101000Y-80149000D01*
X105102204Y-80124496D01*
X105105804Y-80100227D01*
X105111765Y-80076429D01*
X105120030Y-80053329D01*
X105130520Y-80031151D01*
X105143133Y-80010107D01*
X105157747Y-79990402D01*
X105174223Y-79972223D01*
X105192402Y-79955747D01*
X105212107Y-79941133D01*
X105233151Y-79928520D01*
X105255329Y-79918030D01*
X105278429Y-79909765D01*
X105302227Y-79903804D01*
X105326496Y-79900204D01*
X105351000Y-79899000D01*
X107501000Y-79899000D01*
X107525504Y-79900204D01*
X107525504Y-79900204D01*
G37*
D26*
X106426000Y-80524000D03*
M02*
