G04 #@! TF.GenerationSoftware,KiCad,Pcbnew,(5.1.6-0-10_14)*
G04 #@! TF.CreationDate,2020-07-22T10:43:18+09:00*
G04 #@! TF.ProjectId,signaltower_host,7369676e-616c-4746-9f77-65725f686f73,rev?*
G04 #@! TF.SameCoordinates,Original*
G04 #@! TF.FileFunction,Copper,L2,Bot*
G04 #@! TF.FilePolarity,Positive*
%FSLAX46Y46*%
G04 Gerber Fmt 4.6, Leading zero omitted, Abs format (unit mm)*
G04 Created by KiCad (PCBNEW (5.1.6-0-10_14)) date 2020-07-22 10:43:18*
%MOMM*%
%LPD*%
G01*
G04 APERTURE LIST*
G04 #@! TA.AperFunction,ComponentPad*
%ADD10C,4.500000*%
G04 #@! TD*
G04 #@! TA.AperFunction,ComponentPad*
%ADD11O,0.800000X1.400000*%
G04 #@! TD*
G04 #@! TA.AperFunction,ComponentPad*
%ADD12O,1.400000X0.800000*%
G04 #@! TD*
G04 #@! TA.AperFunction,ComponentPad*
%ADD13C,1.600000*%
G04 #@! TD*
G04 #@! TA.AperFunction,ViaPad*
%ADD14C,0.600000*%
G04 #@! TD*
G04 #@! TA.AperFunction,Conductor*
%ADD15C,0.500000*%
G04 #@! TD*
G04 #@! TA.AperFunction,Conductor*
%ADD16C,0.200000*%
G04 #@! TD*
G04 #@! TA.AperFunction,Conductor*
%ADD17C,0.254000*%
G04 #@! TD*
G04 APERTURE END LIST*
D10*
X116000000Y-74625000D03*
X98000000Y-74625000D03*
D11*
X107000000Y-75085000D03*
X105730000Y-75085000D03*
X104460000Y-75085000D03*
X103190000Y-75085000D03*
X101920000Y-75085000D03*
X107000000Y-73165000D03*
X105730000Y-73165000D03*
X104460000Y-73165000D03*
X103190000Y-73165000D03*
X101920000Y-73165000D03*
D12*
X96515000Y-78570000D03*
X96515000Y-79840000D03*
X96515000Y-81110000D03*
X96515000Y-82380000D03*
X96515000Y-83650000D03*
X96515000Y-84920000D03*
X96515000Y-86190000D03*
X96515000Y-87460000D03*
X117485000Y-78570000D03*
X117485000Y-79840000D03*
X117485000Y-81110000D03*
X117485000Y-82380000D03*
X117485000Y-83650000D03*
X117485000Y-84920000D03*
X117485000Y-86190000D03*
X117485000Y-87460000D03*
X117485000Y-88730000D03*
X117485000Y-90000000D03*
X96515000Y-88730000D03*
X96515000Y-90000000D03*
D11*
X107010000Y-65025000D03*
X105740000Y-65025000D03*
X104470000Y-65025000D03*
X103200000Y-65025000D03*
X101930000Y-65025000D03*
X101930000Y-63105000D03*
X107010000Y-63105000D03*
X105740000Y-63105000D03*
X103200000Y-63105000D03*
X104470000Y-63105000D03*
D13*
X129540000Y-74295000D03*
X129540000Y-69215000D03*
D14*
X117300000Y-54900000D03*
X114750000Y-63750000D03*
X128100000Y-81500000D03*
X124200000Y-56400000D03*
D15*
X101920000Y-74760000D02*
X101920000Y-73490000D01*
D16*
X107000000Y-74760000D02*
X107140000Y-74760000D01*
X107800000Y-73960000D02*
X107000000Y-74760000D01*
X107800000Y-64220000D02*
X107800000Y-73960000D01*
X107010000Y-63430000D02*
X107800000Y-64220000D01*
X106000000Y-76500000D02*
X105730000Y-76230000D01*
X107700000Y-76500000D02*
X106000000Y-76500000D01*
X108130009Y-76069991D02*
X107700000Y-76500000D01*
X105730000Y-76230000D02*
X105730000Y-74760000D01*
X105740000Y-63430000D02*
X105740000Y-62460000D01*
X108130009Y-63034041D02*
X108130009Y-76069991D01*
X107270958Y-62174990D02*
X108130009Y-63034041D01*
X105740000Y-62460000D02*
X106025010Y-62174990D01*
X106025010Y-62174990D02*
X107270958Y-62174990D01*
D15*
X104470000Y-63430000D02*
X104470000Y-64700000D01*
X104400000Y-64770000D02*
X104470000Y-64700000D01*
X104460000Y-74760000D02*
X104460000Y-73490000D01*
X104470000Y-73480000D02*
X104460000Y-73490000D01*
X104470000Y-64700000D02*
X104470000Y-73480000D01*
D16*
X107010000Y-68510000D02*
X107000000Y-68520000D01*
X107000000Y-68520000D02*
X107000000Y-73490000D01*
X107010000Y-64700000D02*
X107010000Y-68510000D01*
X105730000Y-64710000D02*
X105740000Y-64700000D01*
X105730000Y-73490000D02*
X105730000Y-64710000D01*
D15*
X101930000Y-63430000D02*
X101930000Y-54270000D01*
X101930000Y-54270000D02*
X103300000Y-52900000D01*
X101930000Y-63430000D02*
X101930000Y-64700000D01*
X125600000Y-57800000D02*
X124200000Y-56400000D01*
X127300000Y-81500000D02*
X125600000Y-79800000D01*
X128100000Y-81500000D02*
X127300000Y-81500000D01*
X124200000Y-53400000D02*
X123700000Y-52900000D01*
X124200000Y-56400000D02*
X124200000Y-53400000D01*
X103300000Y-52900000D02*
X123700000Y-52900000D01*
D16*
X125500000Y-65700000D02*
X125600000Y-65800000D01*
D15*
X125600000Y-79800000D02*
X125600000Y-65800000D01*
X125450000Y-63750000D02*
X125600000Y-63900000D01*
X125600000Y-63900000D02*
X125600000Y-57800000D01*
X114750000Y-63750000D02*
X125450000Y-63750000D01*
X125600000Y-65800000D02*
X125600000Y-63900000D01*
D17*
G36*
X102704953Y-52243468D02*
G01*
X102704951Y-52243470D01*
X102671183Y-52271183D01*
X102643470Y-52304951D01*
X101334951Y-53613471D01*
X101301184Y-53641183D01*
X101273471Y-53674951D01*
X101273468Y-53674954D01*
X101190590Y-53775941D01*
X101108412Y-53929687D01*
X101057805Y-54096510D01*
X101040719Y-54270000D01*
X101045001Y-54313479D01*
X101045000Y-62265118D01*
X100969159Y-62407008D01*
X100909976Y-62602106D01*
X100895000Y-62754163D01*
X100895000Y-63455838D01*
X100909976Y-63607895D01*
X100969160Y-63802993D01*
X101045000Y-63944881D01*
X101045001Y-64185119D01*
X100969160Y-64327007D01*
X100909976Y-64522105D01*
X100895000Y-64674162D01*
X100895000Y-65375837D01*
X100909976Y-65527894D01*
X100969159Y-65722992D01*
X101065266Y-65902797D01*
X101194604Y-66060396D01*
X101352203Y-66189734D01*
X101532007Y-66285841D01*
X101727105Y-66345024D01*
X101930000Y-66365007D01*
X102132894Y-66345024D01*
X102327992Y-66285841D01*
X102507797Y-66189734D01*
X102565000Y-66142789D01*
X102622203Y-66189734D01*
X102802007Y-66285841D01*
X102997105Y-66345024D01*
X103200000Y-66365007D01*
X103402894Y-66345024D01*
X103585000Y-66289782D01*
X103585001Y-71903251D01*
X103392895Y-71844976D01*
X103190000Y-71824993D01*
X102987106Y-71844976D01*
X102792008Y-71904159D01*
X102612204Y-72000266D01*
X102560734Y-72042506D01*
X102389418Y-71933872D01*
X102206123Y-71870334D01*
X102047000Y-71998002D01*
X102047000Y-73038000D01*
X102067000Y-73038000D01*
X102067000Y-73292000D01*
X102047000Y-73292000D01*
X102047000Y-74958000D01*
X102067000Y-74958000D01*
X102067000Y-75212000D01*
X102047000Y-75212000D01*
X102047000Y-76251998D01*
X102206123Y-76379666D01*
X102389418Y-76316128D01*
X102560734Y-76207494D01*
X102612204Y-76249734D01*
X102792008Y-76345841D01*
X102987106Y-76405024D01*
X103190000Y-76425007D01*
X103392895Y-76405024D01*
X103587993Y-76345841D01*
X103767797Y-76249734D01*
X103825001Y-76202788D01*
X103882204Y-76249734D01*
X104062008Y-76345841D01*
X104257106Y-76405024D01*
X104460000Y-76425007D01*
X104662895Y-76405024D01*
X104857993Y-76345841D01*
X104995609Y-76272284D01*
X105005635Y-76374085D01*
X105018384Y-76416113D01*
X105047663Y-76512632D01*
X105115913Y-76640319D01*
X105207762Y-76752237D01*
X105235808Y-76775254D01*
X105454741Y-76994187D01*
X105477762Y-77022238D01*
X105589680Y-77114087D01*
X105716089Y-77181654D01*
X105717367Y-77182337D01*
X105855915Y-77224365D01*
X106000000Y-77238556D01*
X106036105Y-77235000D01*
X107663895Y-77235000D01*
X107700000Y-77238556D01*
X107736105Y-77235000D01*
X107844085Y-77224365D01*
X107982633Y-77182337D01*
X108110320Y-77114087D01*
X108222238Y-77022238D01*
X108245259Y-76994187D01*
X108624196Y-76615250D01*
X108652247Y-76592229D01*
X108744096Y-76480311D01*
X108800875Y-76374085D01*
X108812346Y-76352625D01*
X108854374Y-76214076D01*
X108868565Y-76069991D01*
X108865009Y-76033886D01*
X108865009Y-74340852D01*
X113115000Y-74340852D01*
X113115000Y-74909148D01*
X113225869Y-75466523D01*
X113443346Y-75991560D01*
X113759074Y-76464080D01*
X114160920Y-76865926D01*
X114633440Y-77181654D01*
X115158477Y-77399131D01*
X115715852Y-77510000D01*
X116284148Y-77510000D01*
X116841523Y-77399131D01*
X117366560Y-77181654D01*
X117839080Y-76865926D01*
X118240926Y-76464080D01*
X118556654Y-75991560D01*
X118774131Y-75466523D01*
X118885000Y-74909148D01*
X118885000Y-74340852D01*
X118774131Y-73783477D01*
X118556654Y-73258440D01*
X118240926Y-72785920D01*
X117839080Y-72384074D01*
X117366560Y-72068346D01*
X116841523Y-71850869D01*
X116284148Y-71740000D01*
X115715852Y-71740000D01*
X115158477Y-71850869D01*
X114633440Y-72068346D01*
X114160920Y-72384074D01*
X113759074Y-72785920D01*
X113443346Y-73258440D01*
X113225869Y-73783477D01*
X113115000Y-74340852D01*
X108865009Y-74340852D01*
X108865009Y-63070146D01*
X108868565Y-63034041D01*
X108854374Y-62889956D01*
X108812346Y-62751407D01*
X108744096Y-62623721D01*
X108675262Y-62539847D01*
X108675259Y-62539844D01*
X108652246Y-62511803D01*
X108624206Y-62488791D01*
X107816216Y-61680802D01*
X107793196Y-61652752D01*
X107681278Y-61560903D01*
X107553591Y-61492653D01*
X107415043Y-61450625D01*
X107307063Y-61439990D01*
X107270958Y-61436434D01*
X107234853Y-61439990D01*
X106061114Y-61439990D01*
X106025009Y-61436434D01*
X105880924Y-61450625D01*
X105838896Y-61463374D01*
X105742377Y-61492653D01*
X105614690Y-61560903D01*
X105502772Y-61652752D01*
X105479751Y-61680803D01*
X105286985Y-61873569D01*
X105162203Y-61940266D01*
X105105000Y-61987211D01*
X105047797Y-61940266D01*
X104867992Y-61844159D01*
X104672894Y-61784976D01*
X104470000Y-61764993D01*
X104267105Y-61784976D01*
X104072007Y-61844159D01*
X103892203Y-61940266D01*
X103835000Y-61987211D01*
X103777797Y-61940266D01*
X103597992Y-61844159D01*
X103402894Y-61784976D01*
X103200000Y-61764993D01*
X102997105Y-61784976D01*
X102815000Y-61840218D01*
X102815000Y-54636578D01*
X103666579Y-53785000D01*
X123315001Y-53785000D01*
X123315000Y-56093307D01*
X123300932Y-56127271D01*
X123265000Y-56307911D01*
X123265000Y-56492089D01*
X123300932Y-56672729D01*
X123371414Y-56842889D01*
X123473738Y-56996028D01*
X123603972Y-57126262D01*
X123757111Y-57228586D01*
X123791077Y-57242655D01*
X124715001Y-58166580D01*
X124715000Y-62865000D01*
X115056692Y-62865000D01*
X115022729Y-62850932D01*
X114842089Y-62815000D01*
X114657911Y-62815000D01*
X114477271Y-62850932D01*
X114307111Y-62921414D01*
X114153972Y-63023738D01*
X114023738Y-63153972D01*
X113921414Y-63307111D01*
X113850932Y-63477271D01*
X113815000Y-63657911D01*
X113815000Y-63842089D01*
X113850932Y-64022729D01*
X113921414Y-64192889D01*
X114023738Y-64346028D01*
X114153972Y-64476262D01*
X114307111Y-64578586D01*
X114477271Y-64649068D01*
X114657911Y-64685000D01*
X114842089Y-64685000D01*
X115022729Y-64649068D01*
X115056692Y-64635000D01*
X124715001Y-64635000D01*
X124715000Y-65843476D01*
X124715001Y-65843486D01*
X124715000Y-79756531D01*
X124710719Y-79800000D01*
X124715000Y-79843469D01*
X124715000Y-79843476D01*
X124727805Y-79973489D01*
X124778411Y-80140312D01*
X124860589Y-80294058D01*
X124971183Y-80428817D01*
X125004956Y-80456534D01*
X126643470Y-82095049D01*
X126671183Y-82128817D01*
X126704951Y-82156530D01*
X126704953Y-82156532D01*
X126776452Y-82215210D01*
X126805941Y-82239411D01*
X126959687Y-82321589D01*
X127126510Y-82372195D01*
X127256523Y-82385000D01*
X127256533Y-82385000D01*
X127299999Y-82389281D01*
X127343466Y-82385000D01*
X127793308Y-82385000D01*
X127827271Y-82399068D01*
X127873000Y-82408164D01*
X127873000Y-89873000D01*
X118812499Y-89873000D01*
X118805024Y-89797105D01*
X118745841Y-89602007D01*
X118649734Y-89422203D01*
X118602789Y-89365000D01*
X118649734Y-89307797D01*
X118745841Y-89127993D01*
X118805024Y-88932895D01*
X118825007Y-88730000D01*
X118805024Y-88527105D01*
X118745841Y-88332007D01*
X118649734Y-88152203D01*
X118602789Y-88095000D01*
X118649734Y-88037797D01*
X118745841Y-87857993D01*
X118805024Y-87662895D01*
X118825007Y-87460000D01*
X118805024Y-87257105D01*
X118745841Y-87062007D01*
X118649734Y-86882203D01*
X118602789Y-86825000D01*
X118649734Y-86767797D01*
X118745841Y-86587993D01*
X118805024Y-86392895D01*
X118825007Y-86190000D01*
X118805024Y-85987105D01*
X118745841Y-85792007D01*
X118649734Y-85612203D01*
X118602789Y-85555000D01*
X118649734Y-85497797D01*
X118745841Y-85317993D01*
X118805024Y-85122895D01*
X118825007Y-84920000D01*
X118805024Y-84717105D01*
X118745841Y-84522007D01*
X118649734Y-84342203D01*
X118602789Y-84285000D01*
X118649734Y-84227797D01*
X118745841Y-84047993D01*
X118805024Y-83852895D01*
X118825007Y-83650000D01*
X118805024Y-83447105D01*
X118745841Y-83252007D01*
X118649734Y-83072203D01*
X118602789Y-83015000D01*
X118649734Y-82957797D01*
X118745841Y-82777993D01*
X118805024Y-82582895D01*
X118825007Y-82380000D01*
X118805024Y-82177105D01*
X118745841Y-81982007D01*
X118649734Y-81802203D01*
X118602789Y-81745000D01*
X118649734Y-81687797D01*
X118745841Y-81507993D01*
X118805024Y-81312895D01*
X118825007Y-81110000D01*
X118805024Y-80907105D01*
X118745841Y-80712007D01*
X118649734Y-80532203D01*
X118602789Y-80475000D01*
X118649734Y-80417797D01*
X118745841Y-80237993D01*
X118805024Y-80042895D01*
X118825007Y-79840000D01*
X118805024Y-79637105D01*
X118745841Y-79442007D01*
X118649734Y-79262203D01*
X118602789Y-79205000D01*
X118649734Y-79147797D01*
X118745841Y-78967993D01*
X118805024Y-78772895D01*
X118825007Y-78570000D01*
X118805024Y-78367105D01*
X118745841Y-78172007D01*
X118649734Y-77992203D01*
X118520396Y-77834604D01*
X118362797Y-77705266D01*
X118182993Y-77609159D01*
X117987895Y-77549976D01*
X117835838Y-77535000D01*
X117134162Y-77535000D01*
X116982105Y-77549976D01*
X116787007Y-77609159D01*
X116607203Y-77705266D01*
X116449604Y-77834604D01*
X116320266Y-77992203D01*
X116224159Y-78172007D01*
X116164976Y-78367105D01*
X116144993Y-78570000D01*
X116164976Y-78772895D01*
X116224159Y-78967993D01*
X116320266Y-79147797D01*
X116367211Y-79205000D01*
X116320266Y-79262203D01*
X116224159Y-79442007D01*
X116164976Y-79637105D01*
X116144993Y-79840000D01*
X116164976Y-80042895D01*
X116224159Y-80237993D01*
X116320266Y-80417797D01*
X116367211Y-80475000D01*
X116320266Y-80532203D01*
X116224159Y-80712007D01*
X116164976Y-80907105D01*
X116144993Y-81110000D01*
X116164976Y-81312895D01*
X116224159Y-81507993D01*
X116320266Y-81687797D01*
X116367211Y-81745000D01*
X116320266Y-81802203D01*
X116224159Y-81982007D01*
X116164976Y-82177105D01*
X116144993Y-82380000D01*
X116164976Y-82582895D01*
X116224159Y-82777993D01*
X116320266Y-82957797D01*
X116367211Y-83015000D01*
X116320266Y-83072203D01*
X116224159Y-83252007D01*
X116164976Y-83447105D01*
X116144993Y-83650000D01*
X116164976Y-83852895D01*
X116224159Y-84047993D01*
X116320266Y-84227797D01*
X116367211Y-84285000D01*
X116320266Y-84342203D01*
X116224159Y-84522007D01*
X116164976Y-84717105D01*
X116144993Y-84920000D01*
X116164976Y-85122895D01*
X116224159Y-85317993D01*
X116320266Y-85497797D01*
X116367211Y-85555000D01*
X116320266Y-85612203D01*
X116224159Y-85792007D01*
X116164976Y-85987105D01*
X116144993Y-86190000D01*
X116164976Y-86392895D01*
X116224159Y-86587993D01*
X116320266Y-86767797D01*
X116367211Y-86825000D01*
X116320266Y-86882203D01*
X116224159Y-87062007D01*
X116164976Y-87257105D01*
X116144993Y-87460000D01*
X116164976Y-87662895D01*
X116224159Y-87857993D01*
X116320266Y-88037797D01*
X116367211Y-88095000D01*
X116320266Y-88152203D01*
X116224159Y-88332007D01*
X116164976Y-88527105D01*
X116144993Y-88730000D01*
X116164976Y-88932895D01*
X116224159Y-89127993D01*
X116320266Y-89307797D01*
X116367211Y-89365000D01*
X116320266Y-89422203D01*
X116224159Y-89602007D01*
X116164976Y-89797105D01*
X116157501Y-89873000D01*
X97842499Y-89873000D01*
X97835024Y-89797105D01*
X97775841Y-89602007D01*
X97679734Y-89422203D01*
X97632789Y-89365000D01*
X97679734Y-89307797D01*
X97775841Y-89127993D01*
X97835024Y-88932895D01*
X97855007Y-88730000D01*
X97835024Y-88527105D01*
X97775841Y-88332007D01*
X97679734Y-88152203D01*
X97632789Y-88095000D01*
X97679734Y-88037797D01*
X97775841Y-87857993D01*
X97835024Y-87662895D01*
X97855007Y-87460000D01*
X97835024Y-87257105D01*
X97775841Y-87062007D01*
X97679734Y-86882203D01*
X97632789Y-86825000D01*
X97679734Y-86767797D01*
X97775841Y-86587993D01*
X97835024Y-86392895D01*
X97855007Y-86190000D01*
X97835024Y-85987105D01*
X97775841Y-85792007D01*
X97679734Y-85612203D01*
X97632789Y-85555000D01*
X97679734Y-85497797D01*
X97775841Y-85317993D01*
X97835024Y-85122895D01*
X97855007Y-84920000D01*
X97835024Y-84717105D01*
X97775841Y-84522007D01*
X97679734Y-84342203D01*
X97632789Y-84285000D01*
X97679734Y-84227797D01*
X97775841Y-84047993D01*
X97835024Y-83852895D01*
X97855007Y-83650000D01*
X97835024Y-83447105D01*
X97775841Y-83252007D01*
X97679734Y-83072203D01*
X97632789Y-83015000D01*
X97679734Y-82957797D01*
X97775841Y-82777993D01*
X97835024Y-82582895D01*
X97855007Y-82380000D01*
X97835024Y-82177105D01*
X97775841Y-81982007D01*
X97679734Y-81802203D01*
X97632789Y-81745000D01*
X97679734Y-81687797D01*
X97775841Y-81507993D01*
X97835024Y-81312895D01*
X97855007Y-81110000D01*
X97835024Y-80907105D01*
X97775841Y-80712007D01*
X97679734Y-80532203D01*
X97632789Y-80475000D01*
X97679734Y-80417797D01*
X97775841Y-80237993D01*
X97835024Y-80042895D01*
X97855007Y-79840000D01*
X97835024Y-79637105D01*
X97775841Y-79442007D01*
X97679734Y-79262203D01*
X97632789Y-79205000D01*
X97679734Y-79147797D01*
X97775841Y-78967993D01*
X97835024Y-78772895D01*
X97855007Y-78570000D01*
X97835024Y-78367105D01*
X97775841Y-78172007D01*
X97679734Y-77992203D01*
X97550396Y-77834604D01*
X97392797Y-77705266D01*
X97212993Y-77609159D01*
X97017895Y-77549976D01*
X96865838Y-77535000D01*
X96164162Y-77535000D01*
X96012105Y-77549976D01*
X95817007Y-77609159D01*
X95637203Y-77705266D01*
X95479604Y-77834604D01*
X95350266Y-77992203D01*
X95254159Y-78172007D01*
X95194976Y-78367105D01*
X95174993Y-78570000D01*
X95194976Y-78772895D01*
X95254159Y-78967993D01*
X95350266Y-79147797D01*
X95397211Y-79205000D01*
X95350266Y-79262203D01*
X95254159Y-79442007D01*
X95194976Y-79637105D01*
X95174993Y-79840000D01*
X95194976Y-80042895D01*
X95254159Y-80237993D01*
X95350266Y-80417797D01*
X95397211Y-80475000D01*
X95350266Y-80532203D01*
X95254159Y-80712007D01*
X95194976Y-80907105D01*
X95174993Y-81110000D01*
X95194976Y-81312895D01*
X95254159Y-81507993D01*
X95350266Y-81687797D01*
X95397211Y-81745000D01*
X95350266Y-81802203D01*
X95254159Y-81982007D01*
X95194976Y-82177105D01*
X95174993Y-82380000D01*
X95194976Y-82582895D01*
X95254159Y-82777993D01*
X95350266Y-82957797D01*
X95397211Y-83015000D01*
X95350266Y-83072203D01*
X95254159Y-83252007D01*
X95194976Y-83447105D01*
X95174993Y-83650000D01*
X95194976Y-83852895D01*
X95254159Y-84047993D01*
X95350266Y-84227797D01*
X95397211Y-84285000D01*
X95350266Y-84342203D01*
X95254159Y-84522007D01*
X95194976Y-84717105D01*
X95174993Y-84920000D01*
X95194976Y-85122895D01*
X95254159Y-85317993D01*
X95350266Y-85497797D01*
X95397211Y-85555000D01*
X95350266Y-85612203D01*
X95254159Y-85792007D01*
X95194976Y-85987105D01*
X95174993Y-86190000D01*
X95194976Y-86392895D01*
X95254159Y-86587993D01*
X95350266Y-86767797D01*
X95397211Y-86825000D01*
X95350266Y-86882203D01*
X95254159Y-87062007D01*
X95194976Y-87257105D01*
X95174993Y-87460000D01*
X95194976Y-87662895D01*
X95254159Y-87857993D01*
X95350266Y-88037797D01*
X95397211Y-88095000D01*
X95350266Y-88152203D01*
X95254159Y-88332007D01*
X95194976Y-88527105D01*
X95174993Y-88730000D01*
X95194976Y-88932895D01*
X95254159Y-89127993D01*
X95350266Y-89307797D01*
X95397211Y-89365000D01*
X95350266Y-89422203D01*
X95254159Y-89602007D01*
X95194976Y-89797105D01*
X95187501Y-89873000D01*
X92210000Y-89873000D01*
X92210000Y-74340852D01*
X95115000Y-74340852D01*
X95115000Y-74909148D01*
X95225869Y-75466523D01*
X95443346Y-75991560D01*
X95759074Y-76464080D01*
X96160920Y-76865926D01*
X96633440Y-77181654D01*
X97158477Y-77399131D01*
X97715852Y-77510000D01*
X98284148Y-77510000D01*
X98841523Y-77399131D01*
X99366560Y-77181654D01*
X99839080Y-76865926D01*
X100240926Y-76464080D01*
X100556654Y-75991560D01*
X100774131Y-75466523D01*
X100824758Y-75212000D01*
X100885000Y-75212000D01*
X100885000Y-75512000D01*
X100929664Y-75711478D01*
X101012386Y-75898410D01*
X101129987Y-76065612D01*
X101277948Y-76206658D01*
X101450582Y-76316128D01*
X101633877Y-76379666D01*
X101793000Y-76251998D01*
X101793000Y-75212000D01*
X100885000Y-75212000D01*
X100824758Y-75212000D01*
X100885000Y-74909148D01*
X100885000Y-74958000D01*
X101793000Y-74958000D01*
X101793000Y-73292000D01*
X100885000Y-73292000D01*
X100885000Y-73592000D01*
X100929664Y-73791478D01*
X101012386Y-73978410D01*
X101115490Y-74125000D01*
X101012386Y-74271590D01*
X100929664Y-74458522D01*
X100885000Y-74658000D01*
X100885000Y-74340852D01*
X100774131Y-73783477D01*
X100556654Y-73258440D01*
X100240926Y-72785920D01*
X100193006Y-72738000D01*
X100885000Y-72738000D01*
X100885000Y-73038000D01*
X101793000Y-73038000D01*
X101793000Y-71998002D01*
X101633877Y-71870334D01*
X101450582Y-71933872D01*
X101277948Y-72043342D01*
X101129987Y-72184388D01*
X101012386Y-72351590D01*
X100929664Y-72538522D01*
X100885000Y-72738000D01*
X100193006Y-72738000D01*
X99839080Y-72384074D01*
X99366560Y-72068346D01*
X98841523Y-71850869D01*
X98284148Y-71740000D01*
X97715852Y-71740000D01*
X97158477Y-71850869D01*
X96633440Y-72068346D01*
X96160920Y-72384074D01*
X95759074Y-72785920D01*
X95443346Y-73258440D01*
X95225869Y-73783477D01*
X95115000Y-74340852D01*
X92210000Y-74340852D01*
X92210000Y-62710396D01*
X94173426Y-62710396D01*
X94177886Y-62734890D01*
X94577886Y-64134890D01*
X94585724Y-64155407D01*
X94598729Y-64176637D01*
X94615626Y-64194921D01*
X95515626Y-64994921D01*
X95543323Y-65013652D01*
X95566584Y-65022525D01*
X96666584Y-65322525D01*
X96697905Y-65326983D01*
X96722718Y-65324951D01*
X97822718Y-65124951D01*
X97841627Y-65119984D01*
X97864235Y-65109558D01*
X97884374Y-65094921D01*
X98784374Y-64294921D01*
X98800329Y-64277866D01*
X98813592Y-64256796D01*
X99213592Y-63456796D01*
X99221476Y-63437048D01*
X99226370Y-63412637D01*
X99326370Y-62412637D01*
X99324853Y-62376744D01*
X99317917Y-62352833D01*
X98917917Y-61352833D01*
X98905597Y-61329443D01*
X98889803Y-61310197D01*
X98089803Y-60510197D01*
X98073740Y-60496600D01*
X98052150Y-60484201D01*
X98028557Y-60476252D01*
X96728557Y-60176252D01*
X96711946Y-60173563D01*
X96687050Y-60173662D01*
X96662651Y-60178616D01*
X95362651Y-60578616D01*
X95336623Y-60589944D01*
X95316370Y-60604423D01*
X94516370Y-61304423D01*
X94496600Y-61326260D01*
X94484201Y-61347850D01*
X94476252Y-61371443D01*
X94176252Y-62671443D01*
X94173830Y-62685503D01*
X94173426Y-62710396D01*
X92210000Y-62710396D01*
X92210000Y-57710000D01*
X94034877Y-57710000D01*
X94066611Y-57706875D01*
X94085293Y-57707005D01*
X94095159Y-57706038D01*
X94677449Y-57644837D01*
X94740493Y-57631896D01*
X94803697Y-57619839D01*
X94813179Y-57616975D01*
X94813186Y-57616974D01*
X94813192Y-57616971D01*
X95372501Y-57443836D01*
X95431805Y-57418907D01*
X95491487Y-57394794D01*
X95500239Y-57390140D01*
X96015271Y-57111664D01*
X96068605Y-57075690D01*
X96122468Y-57040443D01*
X96130150Y-57034177D01*
X96581283Y-56660967D01*
X96626582Y-56615350D01*
X96672604Y-56570283D01*
X96678922Y-56562644D01*
X97048974Y-56108916D01*
X97084571Y-56055338D01*
X97120942Y-56002219D01*
X97125657Y-55993499D01*
X97400531Y-55476535D01*
X97425043Y-55417065D01*
X97450404Y-55357893D01*
X97453335Y-55348423D01*
X97622562Y-54787915D01*
X97635062Y-54724785D01*
X97648440Y-54661846D01*
X97649476Y-54651987D01*
X97706611Y-54069285D01*
X97710000Y-54034877D01*
X97710000Y-52210000D01*
X102745734Y-52210000D01*
X102704953Y-52243468D01*
G37*
X102704953Y-52243468D02*
X102704951Y-52243470D01*
X102671183Y-52271183D01*
X102643470Y-52304951D01*
X101334951Y-53613471D01*
X101301184Y-53641183D01*
X101273471Y-53674951D01*
X101273468Y-53674954D01*
X101190590Y-53775941D01*
X101108412Y-53929687D01*
X101057805Y-54096510D01*
X101040719Y-54270000D01*
X101045001Y-54313479D01*
X101045000Y-62265118D01*
X100969159Y-62407008D01*
X100909976Y-62602106D01*
X100895000Y-62754163D01*
X100895000Y-63455838D01*
X100909976Y-63607895D01*
X100969160Y-63802993D01*
X101045000Y-63944881D01*
X101045001Y-64185119D01*
X100969160Y-64327007D01*
X100909976Y-64522105D01*
X100895000Y-64674162D01*
X100895000Y-65375837D01*
X100909976Y-65527894D01*
X100969159Y-65722992D01*
X101065266Y-65902797D01*
X101194604Y-66060396D01*
X101352203Y-66189734D01*
X101532007Y-66285841D01*
X101727105Y-66345024D01*
X101930000Y-66365007D01*
X102132894Y-66345024D01*
X102327992Y-66285841D01*
X102507797Y-66189734D01*
X102565000Y-66142789D01*
X102622203Y-66189734D01*
X102802007Y-66285841D01*
X102997105Y-66345024D01*
X103200000Y-66365007D01*
X103402894Y-66345024D01*
X103585000Y-66289782D01*
X103585001Y-71903251D01*
X103392895Y-71844976D01*
X103190000Y-71824993D01*
X102987106Y-71844976D01*
X102792008Y-71904159D01*
X102612204Y-72000266D01*
X102560734Y-72042506D01*
X102389418Y-71933872D01*
X102206123Y-71870334D01*
X102047000Y-71998002D01*
X102047000Y-73038000D01*
X102067000Y-73038000D01*
X102067000Y-73292000D01*
X102047000Y-73292000D01*
X102047000Y-74958000D01*
X102067000Y-74958000D01*
X102067000Y-75212000D01*
X102047000Y-75212000D01*
X102047000Y-76251998D01*
X102206123Y-76379666D01*
X102389418Y-76316128D01*
X102560734Y-76207494D01*
X102612204Y-76249734D01*
X102792008Y-76345841D01*
X102987106Y-76405024D01*
X103190000Y-76425007D01*
X103392895Y-76405024D01*
X103587993Y-76345841D01*
X103767797Y-76249734D01*
X103825001Y-76202788D01*
X103882204Y-76249734D01*
X104062008Y-76345841D01*
X104257106Y-76405024D01*
X104460000Y-76425007D01*
X104662895Y-76405024D01*
X104857993Y-76345841D01*
X104995609Y-76272284D01*
X105005635Y-76374085D01*
X105018384Y-76416113D01*
X105047663Y-76512632D01*
X105115913Y-76640319D01*
X105207762Y-76752237D01*
X105235808Y-76775254D01*
X105454741Y-76994187D01*
X105477762Y-77022238D01*
X105589680Y-77114087D01*
X105716089Y-77181654D01*
X105717367Y-77182337D01*
X105855915Y-77224365D01*
X106000000Y-77238556D01*
X106036105Y-77235000D01*
X107663895Y-77235000D01*
X107700000Y-77238556D01*
X107736105Y-77235000D01*
X107844085Y-77224365D01*
X107982633Y-77182337D01*
X108110320Y-77114087D01*
X108222238Y-77022238D01*
X108245259Y-76994187D01*
X108624196Y-76615250D01*
X108652247Y-76592229D01*
X108744096Y-76480311D01*
X108800875Y-76374085D01*
X108812346Y-76352625D01*
X108854374Y-76214076D01*
X108868565Y-76069991D01*
X108865009Y-76033886D01*
X108865009Y-74340852D01*
X113115000Y-74340852D01*
X113115000Y-74909148D01*
X113225869Y-75466523D01*
X113443346Y-75991560D01*
X113759074Y-76464080D01*
X114160920Y-76865926D01*
X114633440Y-77181654D01*
X115158477Y-77399131D01*
X115715852Y-77510000D01*
X116284148Y-77510000D01*
X116841523Y-77399131D01*
X117366560Y-77181654D01*
X117839080Y-76865926D01*
X118240926Y-76464080D01*
X118556654Y-75991560D01*
X118774131Y-75466523D01*
X118885000Y-74909148D01*
X118885000Y-74340852D01*
X118774131Y-73783477D01*
X118556654Y-73258440D01*
X118240926Y-72785920D01*
X117839080Y-72384074D01*
X117366560Y-72068346D01*
X116841523Y-71850869D01*
X116284148Y-71740000D01*
X115715852Y-71740000D01*
X115158477Y-71850869D01*
X114633440Y-72068346D01*
X114160920Y-72384074D01*
X113759074Y-72785920D01*
X113443346Y-73258440D01*
X113225869Y-73783477D01*
X113115000Y-74340852D01*
X108865009Y-74340852D01*
X108865009Y-63070146D01*
X108868565Y-63034041D01*
X108854374Y-62889956D01*
X108812346Y-62751407D01*
X108744096Y-62623721D01*
X108675262Y-62539847D01*
X108675259Y-62539844D01*
X108652246Y-62511803D01*
X108624206Y-62488791D01*
X107816216Y-61680802D01*
X107793196Y-61652752D01*
X107681278Y-61560903D01*
X107553591Y-61492653D01*
X107415043Y-61450625D01*
X107307063Y-61439990D01*
X107270958Y-61436434D01*
X107234853Y-61439990D01*
X106061114Y-61439990D01*
X106025009Y-61436434D01*
X105880924Y-61450625D01*
X105838896Y-61463374D01*
X105742377Y-61492653D01*
X105614690Y-61560903D01*
X105502772Y-61652752D01*
X105479751Y-61680803D01*
X105286985Y-61873569D01*
X105162203Y-61940266D01*
X105105000Y-61987211D01*
X105047797Y-61940266D01*
X104867992Y-61844159D01*
X104672894Y-61784976D01*
X104470000Y-61764993D01*
X104267105Y-61784976D01*
X104072007Y-61844159D01*
X103892203Y-61940266D01*
X103835000Y-61987211D01*
X103777797Y-61940266D01*
X103597992Y-61844159D01*
X103402894Y-61784976D01*
X103200000Y-61764993D01*
X102997105Y-61784976D01*
X102815000Y-61840218D01*
X102815000Y-54636578D01*
X103666579Y-53785000D01*
X123315001Y-53785000D01*
X123315000Y-56093307D01*
X123300932Y-56127271D01*
X123265000Y-56307911D01*
X123265000Y-56492089D01*
X123300932Y-56672729D01*
X123371414Y-56842889D01*
X123473738Y-56996028D01*
X123603972Y-57126262D01*
X123757111Y-57228586D01*
X123791077Y-57242655D01*
X124715001Y-58166580D01*
X124715000Y-62865000D01*
X115056692Y-62865000D01*
X115022729Y-62850932D01*
X114842089Y-62815000D01*
X114657911Y-62815000D01*
X114477271Y-62850932D01*
X114307111Y-62921414D01*
X114153972Y-63023738D01*
X114023738Y-63153972D01*
X113921414Y-63307111D01*
X113850932Y-63477271D01*
X113815000Y-63657911D01*
X113815000Y-63842089D01*
X113850932Y-64022729D01*
X113921414Y-64192889D01*
X114023738Y-64346028D01*
X114153972Y-64476262D01*
X114307111Y-64578586D01*
X114477271Y-64649068D01*
X114657911Y-64685000D01*
X114842089Y-64685000D01*
X115022729Y-64649068D01*
X115056692Y-64635000D01*
X124715001Y-64635000D01*
X124715000Y-65843476D01*
X124715001Y-65843486D01*
X124715000Y-79756531D01*
X124710719Y-79800000D01*
X124715000Y-79843469D01*
X124715000Y-79843476D01*
X124727805Y-79973489D01*
X124778411Y-80140312D01*
X124860589Y-80294058D01*
X124971183Y-80428817D01*
X125004956Y-80456534D01*
X126643470Y-82095049D01*
X126671183Y-82128817D01*
X126704951Y-82156530D01*
X126704953Y-82156532D01*
X126776452Y-82215210D01*
X126805941Y-82239411D01*
X126959687Y-82321589D01*
X127126510Y-82372195D01*
X127256523Y-82385000D01*
X127256533Y-82385000D01*
X127299999Y-82389281D01*
X127343466Y-82385000D01*
X127793308Y-82385000D01*
X127827271Y-82399068D01*
X127873000Y-82408164D01*
X127873000Y-89873000D01*
X118812499Y-89873000D01*
X118805024Y-89797105D01*
X118745841Y-89602007D01*
X118649734Y-89422203D01*
X118602789Y-89365000D01*
X118649734Y-89307797D01*
X118745841Y-89127993D01*
X118805024Y-88932895D01*
X118825007Y-88730000D01*
X118805024Y-88527105D01*
X118745841Y-88332007D01*
X118649734Y-88152203D01*
X118602789Y-88095000D01*
X118649734Y-88037797D01*
X118745841Y-87857993D01*
X118805024Y-87662895D01*
X118825007Y-87460000D01*
X118805024Y-87257105D01*
X118745841Y-87062007D01*
X118649734Y-86882203D01*
X118602789Y-86825000D01*
X118649734Y-86767797D01*
X118745841Y-86587993D01*
X118805024Y-86392895D01*
X118825007Y-86190000D01*
X118805024Y-85987105D01*
X118745841Y-85792007D01*
X118649734Y-85612203D01*
X118602789Y-85555000D01*
X118649734Y-85497797D01*
X118745841Y-85317993D01*
X118805024Y-85122895D01*
X118825007Y-84920000D01*
X118805024Y-84717105D01*
X118745841Y-84522007D01*
X118649734Y-84342203D01*
X118602789Y-84285000D01*
X118649734Y-84227797D01*
X118745841Y-84047993D01*
X118805024Y-83852895D01*
X118825007Y-83650000D01*
X118805024Y-83447105D01*
X118745841Y-83252007D01*
X118649734Y-83072203D01*
X118602789Y-83015000D01*
X118649734Y-82957797D01*
X118745841Y-82777993D01*
X118805024Y-82582895D01*
X118825007Y-82380000D01*
X118805024Y-82177105D01*
X118745841Y-81982007D01*
X118649734Y-81802203D01*
X118602789Y-81745000D01*
X118649734Y-81687797D01*
X118745841Y-81507993D01*
X118805024Y-81312895D01*
X118825007Y-81110000D01*
X118805024Y-80907105D01*
X118745841Y-80712007D01*
X118649734Y-80532203D01*
X118602789Y-80475000D01*
X118649734Y-80417797D01*
X118745841Y-80237993D01*
X118805024Y-80042895D01*
X118825007Y-79840000D01*
X118805024Y-79637105D01*
X118745841Y-79442007D01*
X118649734Y-79262203D01*
X118602789Y-79205000D01*
X118649734Y-79147797D01*
X118745841Y-78967993D01*
X118805024Y-78772895D01*
X118825007Y-78570000D01*
X118805024Y-78367105D01*
X118745841Y-78172007D01*
X118649734Y-77992203D01*
X118520396Y-77834604D01*
X118362797Y-77705266D01*
X118182993Y-77609159D01*
X117987895Y-77549976D01*
X117835838Y-77535000D01*
X117134162Y-77535000D01*
X116982105Y-77549976D01*
X116787007Y-77609159D01*
X116607203Y-77705266D01*
X116449604Y-77834604D01*
X116320266Y-77992203D01*
X116224159Y-78172007D01*
X116164976Y-78367105D01*
X116144993Y-78570000D01*
X116164976Y-78772895D01*
X116224159Y-78967993D01*
X116320266Y-79147797D01*
X116367211Y-79205000D01*
X116320266Y-79262203D01*
X116224159Y-79442007D01*
X116164976Y-79637105D01*
X116144993Y-79840000D01*
X116164976Y-80042895D01*
X116224159Y-80237993D01*
X116320266Y-80417797D01*
X116367211Y-80475000D01*
X116320266Y-80532203D01*
X116224159Y-80712007D01*
X116164976Y-80907105D01*
X116144993Y-81110000D01*
X116164976Y-81312895D01*
X116224159Y-81507993D01*
X116320266Y-81687797D01*
X116367211Y-81745000D01*
X116320266Y-81802203D01*
X116224159Y-81982007D01*
X116164976Y-82177105D01*
X116144993Y-82380000D01*
X116164976Y-82582895D01*
X116224159Y-82777993D01*
X116320266Y-82957797D01*
X116367211Y-83015000D01*
X116320266Y-83072203D01*
X116224159Y-83252007D01*
X116164976Y-83447105D01*
X116144993Y-83650000D01*
X116164976Y-83852895D01*
X116224159Y-84047993D01*
X116320266Y-84227797D01*
X116367211Y-84285000D01*
X116320266Y-84342203D01*
X116224159Y-84522007D01*
X116164976Y-84717105D01*
X116144993Y-84920000D01*
X116164976Y-85122895D01*
X116224159Y-85317993D01*
X116320266Y-85497797D01*
X116367211Y-85555000D01*
X116320266Y-85612203D01*
X116224159Y-85792007D01*
X116164976Y-85987105D01*
X116144993Y-86190000D01*
X116164976Y-86392895D01*
X116224159Y-86587993D01*
X116320266Y-86767797D01*
X116367211Y-86825000D01*
X116320266Y-86882203D01*
X116224159Y-87062007D01*
X116164976Y-87257105D01*
X116144993Y-87460000D01*
X116164976Y-87662895D01*
X116224159Y-87857993D01*
X116320266Y-88037797D01*
X116367211Y-88095000D01*
X116320266Y-88152203D01*
X116224159Y-88332007D01*
X116164976Y-88527105D01*
X116144993Y-88730000D01*
X116164976Y-88932895D01*
X116224159Y-89127993D01*
X116320266Y-89307797D01*
X116367211Y-89365000D01*
X116320266Y-89422203D01*
X116224159Y-89602007D01*
X116164976Y-89797105D01*
X116157501Y-89873000D01*
X97842499Y-89873000D01*
X97835024Y-89797105D01*
X97775841Y-89602007D01*
X97679734Y-89422203D01*
X97632789Y-89365000D01*
X97679734Y-89307797D01*
X97775841Y-89127993D01*
X97835024Y-88932895D01*
X97855007Y-88730000D01*
X97835024Y-88527105D01*
X97775841Y-88332007D01*
X97679734Y-88152203D01*
X97632789Y-88095000D01*
X97679734Y-88037797D01*
X97775841Y-87857993D01*
X97835024Y-87662895D01*
X97855007Y-87460000D01*
X97835024Y-87257105D01*
X97775841Y-87062007D01*
X97679734Y-86882203D01*
X97632789Y-86825000D01*
X97679734Y-86767797D01*
X97775841Y-86587993D01*
X97835024Y-86392895D01*
X97855007Y-86190000D01*
X97835024Y-85987105D01*
X97775841Y-85792007D01*
X97679734Y-85612203D01*
X97632789Y-85555000D01*
X97679734Y-85497797D01*
X97775841Y-85317993D01*
X97835024Y-85122895D01*
X97855007Y-84920000D01*
X97835024Y-84717105D01*
X97775841Y-84522007D01*
X97679734Y-84342203D01*
X97632789Y-84285000D01*
X97679734Y-84227797D01*
X97775841Y-84047993D01*
X97835024Y-83852895D01*
X97855007Y-83650000D01*
X97835024Y-83447105D01*
X97775841Y-83252007D01*
X97679734Y-83072203D01*
X97632789Y-83015000D01*
X97679734Y-82957797D01*
X97775841Y-82777993D01*
X97835024Y-82582895D01*
X97855007Y-82380000D01*
X97835024Y-82177105D01*
X97775841Y-81982007D01*
X97679734Y-81802203D01*
X97632789Y-81745000D01*
X97679734Y-81687797D01*
X97775841Y-81507993D01*
X97835024Y-81312895D01*
X97855007Y-81110000D01*
X97835024Y-80907105D01*
X97775841Y-80712007D01*
X97679734Y-80532203D01*
X97632789Y-80475000D01*
X97679734Y-80417797D01*
X97775841Y-80237993D01*
X97835024Y-80042895D01*
X97855007Y-79840000D01*
X97835024Y-79637105D01*
X97775841Y-79442007D01*
X97679734Y-79262203D01*
X97632789Y-79205000D01*
X97679734Y-79147797D01*
X97775841Y-78967993D01*
X97835024Y-78772895D01*
X97855007Y-78570000D01*
X97835024Y-78367105D01*
X97775841Y-78172007D01*
X97679734Y-77992203D01*
X97550396Y-77834604D01*
X97392797Y-77705266D01*
X97212993Y-77609159D01*
X97017895Y-77549976D01*
X96865838Y-77535000D01*
X96164162Y-77535000D01*
X96012105Y-77549976D01*
X95817007Y-77609159D01*
X95637203Y-77705266D01*
X95479604Y-77834604D01*
X95350266Y-77992203D01*
X95254159Y-78172007D01*
X95194976Y-78367105D01*
X95174993Y-78570000D01*
X95194976Y-78772895D01*
X95254159Y-78967993D01*
X95350266Y-79147797D01*
X95397211Y-79205000D01*
X95350266Y-79262203D01*
X95254159Y-79442007D01*
X95194976Y-79637105D01*
X95174993Y-79840000D01*
X95194976Y-80042895D01*
X95254159Y-80237993D01*
X95350266Y-80417797D01*
X95397211Y-80475000D01*
X95350266Y-80532203D01*
X95254159Y-80712007D01*
X95194976Y-80907105D01*
X95174993Y-81110000D01*
X95194976Y-81312895D01*
X95254159Y-81507993D01*
X95350266Y-81687797D01*
X95397211Y-81745000D01*
X95350266Y-81802203D01*
X95254159Y-81982007D01*
X95194976Y-82177105D01*
X95174993Y-82380000D01*
X95194976Y-82582895D01*
X95254159Y-82777993D01*
X95350266Y-82957797D01*
X95397211Y-83015000D01*
X95350266Y-83072203D01*
X95254159Y-83252007D01*
X95194976Y-83447105D01*
X95174993Y-83650000D01*
X95194976Y-83852895D01*
X95254159Y-84047993D01*
X95350266Y-84227797D01*
X95397211Y-84285000D01*
X95350266Y-84342203D01*
X95254159Y-84522007D01*
X95194976Y-84717105D01*
X95174993Y-84920000D01*
X95194976Y-85122895D01*
X95254159Y-85317993D01*
X95350266Y-85497797D01*
X95397211Y-85555000D01*
X95350266Y-85612203D01*
X95254159Y-85792007D01*
X95194976Y-85987105D01*
X95174993Y-86190000D01*
X95194976Y-86392895D01*
X95254159Y-86587993D01*
X95350266Y-86767797D01*
X95397211Y-86825000D01*
X95350266Y-86882203D01*
X95254159Y-87062007D01*
X95194976Y-87257105D01*
X95174993Y-87460000D01*
X95194976Y-87662895D01*
X95254159Y-87857993D01*
X95350266Y-88037797D01*
X95397211Y-88095000D01*
X95350266Y-88152203D01*
X95254159Y-88332007D01*
X95194976Y-88527105D01*
X95174993Y-88730000D01*
X95194976Y-88932895D01*
X95254159Y-89127993D01*
X95350266Y-89307797D01*
X95397211Y-89365000D01*
X95350266Y-89422203D01*
X95254159Y-89602007D01*
X95194976Y-89797105D01*
X95187501Y-89873000D01*
X92210000Y-89873000D01*
X92210000Y-74340852D01*
X95115000Y-74340852D01*
X95115000Y-74909148D01*
X95225869Y-75466523D01*
X95443346Y-75991560D01*
X95759074Y-76464080D01*
X96160920Y-76865926D01*
X96633440Y-77181654D01*
X97158477Y-77399131D01*
X97715852Y-77510000D01*
X98284148Y-77510000D01*
X98841523Y-77399131D01*
X99366560Y-77181654D01*
X99839080Y-76865926D01*
X100240926Y-76464080D01*
X100556654Y-75991560D01*
X100774131Y-75466523D01*
X100824758Y-75212000D01*
X100885000Y-75212000D01*
X100885000Y-75512000D01*
X100929664Y-75711478D01*
X101012386Y-75898410D01*
X101129987Y-76065612D01*
X101277948Y-76206658D01*
X101450582Y-76316128D01*
X101633877Y-76379666D01*
X101793000Y-76251998D01*
X101793000Y-75212000D01*
X100885000Y-75212000D01*
X100824758Y-75212000D01*
X100885000Y-74909148D01*
X100885000Y-74958000D01*
X101793000Y-74958000D01*
X101793000Y-73292000D01*
X100885000Y-73292000D01*
X100885000Y-73592000D01*
X100929664Y-73791478D01*
X101012386Y-73978410D01*
X101115490Y-74125000D01*
X101012386Y-74271590D01*
X100929664Y-74458522D01*
X100885000Y-74658000D01*
X100885000Y-74340852D01*
X100774131Y-73783477D01*
X100556654Y-73258440D01*
X100240926Y-72785920D01*
X100193006Y-72738000D01*
X100885000Y-72738000D01*
X100885000Y-73038000D01*
X101793000Y-73038000D01*
X101793000Y-71998002D01*
X101633877Y-71870334D01*
X101450582Y-71933872D01*
X101277948Y-72043342D01*
X101129987Y-72184388D01*
X101012386Y-72351590D01*
X100929664Y-72538522D01*
X100885000Y-72738000D01*
X100193006Y-72738000D01*
X99839080Y-72384074D01*
X99366560Y-72068346D01*
X98841523Y-71850869D01*
X98284148Y-71740000D01*
X97715852Y-71740000D01*
X97158477Y-71850869D01*
X96633440Y-72068346D01*
X96160920Y-72384074D01*
X95759074Y-72785920D01*
X95443346Y-73258440D01*
X95225869Y-73783477D01*
X95115000Y-74340852D01*
X92210000Y-74340852D01*
X92210000Y-62710396D01*
X94173426Y-62710396D01*
X94177886Y-62734890D01*
X94577886Y-64134890D01*
X94585724Y-64155407D01*
X94598729Y-64176637D01*
X94615626Y-64194921D01*
X95515626Y-64994921D01*
X95543323Y-65013652D01*
X95566584Y-65022525D01*
X96666584Y-65322525D01*
X96697905Y-65326983D01*
X96722718Y-65324951D01*
X97822718Y-65124951D01*
X97841627Y-65119984D01*
X97864235Y-65109558D01*
X97884374Y-65094921D01*
X98784374Y-64294921D01*
X98800329Y-64277866D01*
X98813592Y-64256796D01*
X99213592Y-63456796D01*
X99221476Y-63437048D01*
X99226370Y-63412637D01*
X99326370Y-62412637D01*
X99324853Y-62376744D01*
X99317917Y-62352833D01*
X98917917Y-61352833D01*
X98905597Y-61329443D01*
X98889803Y-61310197D01*
X98089803Y-60510197D01*
X98073740Y-60496600D01*
X98052150Y-60484201D01*
X98028557Y-60476252D01*
X96728557Y-60176252D01*
X96711946Y-60173563D01*
X96687050Y-60173662D01*
X96662651Y-60178616D01*
X95362651Y-60578616D01*
X95336623Y-60589944D01*
X95316370Y-60604423D01*
X94516370Y-61304423D01*
X94496600Y-61326260D01*
X94484201Y-61347850D01*
X94476252Y-61371443D01*
X94176252Y-62671443D01*
X94173830Y-62685503D01*
X94173426Y-62710396D01*
X92210000Y-62710396D01*
X92210000Y-57710000D01*
X94034877Y-57710000D01*
X94066611Y-57706875D01*
X94085293Y-57707005D01*
X94095159Y-57706038D01*
X94677449Y-57644837D01*
X94740493Y-57631896D01*
X94803697Y-57619839D01*
X94813179Y-57616975D01*
X94813186Y-57616974D01*
X94813192Y-57616971D01*
X95372501Y-57443836D01*
X95431805Y-57418907D01*
X95491487Y-57394794D01*
X95500239Y-57390140D01*
X96015271Y-57111664D01*
X96068605Y-57075690D01*
X96122468Y-57040443D01*
X96130150Y-57034177D01*
X96581283Y-56660967D01*
X96626582Y-56615350D01*
X96672604Y-56570283D01*
X96678922Y-56562644D01*
X97048974Y-56108916D01*
X97084571Y-56055338D01*
X97120942Y-56002219D01*
X97125657Y-55993499D01*
X97400531Y-55476535D01*
X97425043Y-55417065D01*
X97450404Y-55357893D01*
X97453335Y-55348423D01*
X97622562Y-54787915D01*
X97635062Y-54724785D01*
X97648440Y-54661846D01*
X97649476Y-54651987D01*
X97706611Y-54069285D01*
X97710000Y-54034877D01*
X97710000Y-52210000D01*
X102745734Y-52210000D01*
X102704953Y-52243468D01*
M02*
