M48
; DRILL file {KiCad (5.1.6-0-10_14)} date Wednesday, July 22, 2020 at 10:43:27 AM
; FORMAT={-:-/ absolute / inch / decimal}
; #@! TF.CreationDate,2020-07-22T10:43:27+09:00
; #@! TF.GenerationSoftware,Kicad,Pcbnew,(5.1.6-0-10_14)
; #@! TF.FileFunction,Plated,1,2,PTH
FMAT,2
INCH
T1C0.0118
T2C0.0256
T3C0.0472
T4C0.0866
%
G90
G05
T1
X4.5177Y-2.5098
X4.6181Y-2.1614
X4.8898Y-2.2205
X5.0433Y-3.2087
T2
X4.013Y-2.4972
X4.013Y-2.5472
X4.063Y-2.4972
X4.063Y-2.5472
X4.113Y-2.4972
X4.113Y-2.5472
X4.163Y-2.4972
X4.163Y-2.5472
X4.213Y-2.4972
X4.213Y-2.5472
X3.8126Y-3.0933
X3.8126Y-3.1433
X3.8126Y-3.1933
X3.8126Y-3.2433
X3.8126Y-3.2933
X3.8126Y-3.3433
X3.8126Y-3.3933
X3.8126Y-3.4433
X3.8126Y-3.4933
X3.8126Y-3.5433
X4.0126Y-2.8933
X4.0126Y-2.9433
X4.0626Y-2.8933
X4.0626Y-2.9433
X4.1126Y-2.8933
X4.1126Y-2.9433
X4.1626Y-2.8933
X4.1626Y-2.9433
X4.2126Y-2.8933
X4.2126Y-2.9433
X4.6126Y-3.0933
X4.6126Y-3.1433
X4.6126Y-3.1933
X4.6126Y-3.2433
X4.6126Y-3.2933
X4.6126Y-3.3433
X4.6126Y-3.3933
X4.6126Y-3.4433
X4.6126Y-3.4933
X4.6126Y-3.5433
T3
X5.1Y-2.725
X5.1Y-2.925
T4
X3.8583Y-2.938
X4.5669Y-2.938
T0
M30
