M48
; DRILL file {KiCad (5.1.4)-1} date 2019/11/08 16:07:35
; FORMAT={-:-/ absolute / metric / decimal}
; #@! TF.CreationDate,2019-11-08T16:07:35+09:00
; #@! TF.GenerationSoftware,Kicad,Pcbnew,(5.1.4)-1
; #@! TF.FileFunction,Plated,1,2,PTH
FMAT,2
METRIC
T1C0.300
T2C0.650
T3C1.200
T4C2.200
%
G90
G05
T1
X96.52Y-85.852
X96.82Y-79.964
X97.536Y-62.23
X101.6Y-77.47
X104.14Y-89.662
X104.14Y-91.694
X117.094Y-77.47
T2
X139.446Y-66.548
X139.446Y-67.818
X139.446Y-69.088
X139.446Y-70.358
X139.446Y-71.628
X139.446Y-72.898
X139.446Y-74.168
X139.446Y-75.438
X139.446Y-76.708
X139.446Y-77.978
X149.606Y-81.788
X149.606Y-83.058
X150.876Y-81.788
X150.876Y-83.058
X152.146Y-81.788
X152.146Y-83.058
X153.416Y-81.788
X153.416Y-83.058
X154.686Y-81.788
X154.686Y-83.058
X159.766Y-66.548
X159.766Y-67.818
X159.766Y-69.088
X159.766Y-70.358
X159.766Y-71.628
X159.766Y-72.898
X159.766Y-74.168
X159.766Y-75.438
X159.766Y-76.708
X159.766Y-77.978
X149.606Y-91.694
X149.606Y-92.964
X150.876Y-91.694
X150.876Y-92.964
X152.146Y-91.694
X152.146Y-92.964
X153.416Y-91.694
X153.416Y-92.964
X154.686Y-91.694
X154.686Y-92.964
T3
X95.25Y-77.724
X95.25Y-82.804
T4
X140.606Y-81.923
X158.606Y-81.923
T0
M30
