G04 #@! TF.GenerationSoftware,KiCad,Pcbnew,(5.1.4)-1*
G04 #@! TF.CreationDate,2019-11-11T10:23:09+09:00*
G04 #@! TF.ProjectId,sig_sensor,7369675f-7365-46e7-936f-722e6b696361,rev?*
G04 #@! TF.SameCoordinates,Original*
G04 #@! TF.FileFunction,Legend,Top*
G04 #@! TF.FilePolarity,Positive*
%FSLAX46Y46*%
G04 Gerber Fmt 4.6, Leading zero omitted, Abs format (unit mm)*
G04 Created by KiCad (PCBNEW (5.1.4)-1) date 2019-11-11 10:23:09*
%MOMM*%
%LPD*%
G04 APERTURE LIST*
%ADD10C,0.300000*%
%ADD11C,0.150000*%
G04 APERTURE END LIST*
D10*
X147412000Y-98071714D02*
X147340571Y-98143142D01*
X147126285Y-98214571D01*
X146983428Y-98214571D01*
X146769142Y-98143142D01*
X146626285Y-98000285D01*
X146554857Y-97857428D01*
X146483428Y-97571714D01*
X146483428Y-97357428D01*
X146554857Y-97071714D01*
X146626285Y-96928857D01*
X146769142Y-96786000D01*
X146983428Y-96714571D01*
X147126285Y-96714571D01*
X147340571Y-96786000D01*
X147412000Y-96857428D01*
X147983428Y-97786000D02*
X148697714Y-97786000D01*
X147840571Y-98214571D02*
X148340571Y-96714571D01*
X148840571Y-98214571D01*
X149269142Y-98143142D02*
X149483428Y-98214571D01*
X149840571Y-98214571D01*
X149983428Y-98143142D01*
X150054857Y-98071714D01*
X150126285Y-97928857D01*
X150126285Y-97786000D01*
X150054857Y-97643142D01*
X149983428Y-97571714D01*
X149840571Y-97500285D01*
X149554857Y-97428857D01*
X149412000Y-97357428D01*
X149340571Y-97286000D01*
X149269142Y-97143142D01*
X149269142Y-97000285D01*
X149340571Y-96857428D01*
X149412000Y-96786000D01*
X149554857Y-96714571D01*
X149912000Y-96714571D01*
X150126285Y-96786000D01*
X150769142Y-97428857D02*
X151269142Y-97428857D01*
X151483428Y-98214571D02*
X150769142Y-98214571D01*
X150769142Y-96714571D01*
X151483428Y-96714571D01*
X152126285Y-98071714D02*
X152197714Y-98143142D01*
X152126285Y-98214571D01*
X152054857Y-98143142D01*
X152126285Y-98071714D01*
X152126285Y-98214571D01*
X152126285Y-97286000D02*
X152197714Y-97357428D01*
X152126285Y-97428857D01*
X152054857Y-97357428D01*
X152126285Y-97286000D01*
X152126285Y-97428857D01*
X152840571Y-98214571D02*
X152840571Y-96714571D01*
X153412000Y-96714571D01*
X153554857Y-96786000D01*
X153626285Y-96857428D01*
X153697714Y-97000285D01*
X153697714Y-97214571D01*
X153626285Y-97357428D01*
X153554857Y-97428857D01*
X153412000Y-97500285D01*
X152840571Y-97500285D01*
X154269142Y-98143142D02*
X154483428Y-98214571D01*
X154840571Y-98214571D01*
X154983428Y-98143142D01*
X155054857Y-98071714D01*
X155126285Y-97928857D01*
X155126285Y-97786000D01*
X155054857Y-97643142D01*
X154983428Y-97571714D01*
X154840571Y-97500285D01*
X154554857Y-97428857D01*
X154412000Y-97357428D01*
X154340571Y-97286000D01*
X154269142Y-97143142D01*
X154269142Y-97000285D01*
X154340571Y-96857428D01*
X154412000Y-96786000D01*
X154554857Y-96714571D01*
X154912000Y-96714571D01*
X155126285Y-96786000D01*
X155769142Y-97643142D02*
X156912000Y-97643142D01*
X158340571Y-96714571D02*
X157626285Y-96714571D01*
X157554857Y-97428857D01*
X157626285Y-97357428D01*
X157769142Y-97286000D01*
X158126285Y-97286000D01*
X158269142Y-97357428D01*
X158340571Y-97428857D01*
X158412000Y-97571714D01*
X158412000Y-97928857D01*
X158340571Y-98071714D01*
X158269142Y-98143142D01*
X158126285Y-98214571D01*
X157769142Y-98214571D01*
X157626285Y-98143142D01*
X157554857Y-98071714D01*
X159340571Y-96714571D02*
X159483428Y-96714571D01*
X159626285Y-96786000D01*
X159697714Y-96857428D01*
X159769142Y-97000285D01*
X159840571Y-97286000D01*
X159840571Y-97643142D01*
X159769142Y-97928857D01*
X159697714Y-98071714D01*
X159626285Y-98143142D01*
X159483428Y-98214571D01*
X159340571Y-98214571D01*
X159197714Y-98143142D01*
X159126285Y-98071714D01*
X159054857Y-97928857D01*
X158983428Y-97643142D01*
X158983428Y-97286000D01*
X159054857Y-97000285D01*
X159126285Y-96857428D01*
X159197714Y-96786000D01*
X159340571Y-96714571D01*
X143289142Y-68928142D02*
X143503428Y-68999571D01*
X143860571Y-68999571D01*
X144003428Y-68928142D01*
X144074857Y-68856714D01*
X144146285Y-68713857D01*
X144146285Y-68571000D01*
X144074857Y-68428142D01*
X144003428Y-68356714D01*
X143860571Y-68285285D01*
X143574857Y-68213857D01*
X143432000Y-68142428D01*
X143360571Y-68071000D01*
X143289142Y-67928142D01*
X143289142Y-67785285D01*
X143360571Y-67642428D01*
X143432000Y-67571000D01*
X143574857Y-67499571D01*
X143932000Y-67499571D01*
X144146285Y-67571000D01*
X144789142Y-68999571D02*
X144789142Y-67999571D01*
X144789142Y-67499571D02*
X144717714Y-67571000D01*
X144789142Y-67642428D01*
X144860571Y-67571000D01*
X144789142Y-67499571D01*
X144789142Y-67642428D01*
X146146285Y-67999571D02*
X146146285Y-69213857D01*
X146074857Y-69356714D01*
X146003428Y-69428142D01*
X145860571Y-69499571D01*
X145646285Y-69499571D01*
X145503428Y-69428142D01*
X146146285Y-68928142D02*
X146003428Y-68999571D01*
X145717714Y-68999571D01*
X145574857Y-68928142D01*
X145503428Y-68856714D01*
X145432000Y-68713857D01*
X145432000Y-68285285D01*
X145503428Y-68142428D01*
X145574857Y-68071000D01*
X145717714Y-67999571D01*
X146003428Y-67999571D01*
X146146285Y-68071000D01*
X146860571Y-67999571D02*
X146860571Y-68999571D01*
X146860571Y-68142428D02*
X146932000Y-68071000D01*
X147074857Y-67999571D01*
X147289142Y-67999571D01*
X147432000Y-68071000D01*
X147503428Y-68213857D01*
X147503428Y-68999571D01*
X148860571Y-68999571D02*
X148860571Y-68213857D01*
X148789142Y-68071000D01*
X148646285Y-67999571D01*
X148360571Y-67999571D01*
X148217714Y-68071000D01*
X148860571Y-68928142D02*
X148717714Y-68999571D01*
X148360571Y-68999571D01*
X148217714Y-68928142D01*
X148146285Y-68785285D01*
X148146285Y-68642428D01*
X148217714Y-68499571D01*
X148360571Y-68428142D01*
X148717714Y-68428142D01*
X148860571Y-68356714D01*
X149789142Y-68999571D02*
X149646285Y-68928142D01*
X149574857Y-68785285D01*
X149574857Y-67499571D01*
X150146285Y-67999571D02*
X150717714Y-67999571D01*
X150360571Y-67499571D02*
X150360571Y-68785285D01*
X150432000Y-68928142D01*
X150574857Y-68999571D01*
X150717714Y-68999571D01*
X151432000Y-68999571D02*
X151289142Y-68928142D01*
X151217714Y-68856714D01*
X151146285Y-68713857D01*
X151146285Y-68285285D01*
X151217714Y-68142428D01*
X151289142Y-68071000D01*
X151432000Y-67999571D01*
X151646285Y-67999571D01*
X151789142Y-68071000D01*
X151860571Y-68142428D01*
X151932000Y-68285285D01*
X151932000Y-68713857D01*
X151860571Y-68856714D01*
X151789142Y-68928142D01*
X151646285Y-68999571D01*
X151432000Y-68999571D01*
X152432000Y-67999571D02*
X152717714Y-68999571D01*
X153003428Y-68285285D01*
X153289142Y-68999571D01*
X153574857Y-67999571D01*
X154717714Y-68928142D02*
X154574857Y-68999571D01*
X154289142Y-68999571D01*
X154146285Y-68928142D01*
X154074857Y-68785285D01*
X154074857Y-68213857D01*
X154146285Y-68071000D01*
X154289142Y-67999571D01*
X154574857Y-67999571D01*
X154717714Y-68071000D01*
X154789142Y-68213857D01*
X154789142Y-68356714D01*
X154074857Y-68499571D01*
X155432000Y-68999571D02*
X155432000Y-67999571D01*
X155432000Y-68285285D02*
X155503428Y-68142428D01*
X155574857Y-68071000D01*
X155717714Y-67999571D01*
X155860571Y-67999571D01*
X157432000Y-68928142D02*
X157646285Y-68999571D01*
X158003428Y-68999571D01*
X158146285Y-68928142D01*
X158217714Y-68856714D01*
X158289142Y-68713857D01*
X158289142Y-68571000D01*
X158217714Y-68428142D01*
X158146285Y-68356714D01*
X158003428Y-68285285D01*
X157717714Y-68213857D01*
X157574857Y-68142428D01*
X157503428Y-68071000D01*
X157432000Y-67928142D01*
X157432000Y-67785285D01*
X157503428Y-67642428D01*
X157574857Y-67571000D01*
X157717714Y-67499571D01*
X158074857Y-67499571D01*
X158289142Y-67571000D01*
X159503428Y-68928142D02*
X159360571Y-68999571D01*
X159074857Y-68999571D01*
X158932000Y-68928142D01*
X158860571Y-68785285D01*
X158860571Y-68213857D01*
X158932000Y-68071000D01*
X159074857Y-67999571D01*
X159360571Y-67999571D01*
X159503428Y-68071000D01*
X159574857Y-68213857D01*
X159574857Y-68356714D01*
X158860571Y-68499571D01*
X160217714Y-67999571D02*
X160217714Y-68999571D01*
X160217714Y-68142428D02*
X160289142Y-68071000D01*
X160432000Y-67999571D01*
X160646285Y-67999571D01*
X160789142Y-68071000D01*
X160860571Y-68213857D01*
X160860571Y-68999571D01*
X161503428Y-68928142D02*
X161646285Y-68999571D01*
X161932000Y-68999571D01*
X162074857Y-68928142D01*
X162146285Y-68785285D01*
X162146285Y-68713857D01*
X162074857Y-68571000D01*
X161932000Y-68499571D01*
X161717714Y-68499571D01*
X161574857Y-68428142D01*
X161503428Y-68285285D01*
X161503428Y-68213857D01*
X161574857Y-68071000D01*
X161717714Y-67999571D01*
X161932000Y-67999571D01*
X162074857Y-68071000D01*
X163003428Y-68999571D02*
X162860571Y-68928142D01*
X162789142Y-68856714D01*
X162717714Y-68713857D01*
X162717714Y-68285285D01*
X162789142Y-68142428D01*
X162860571Y-68071000D01*
X163003428Y-67999571D01*
X163217714Y-67999571D01*
X163360571Y-68071000D01*
X163432000Y-68142428D01*
X163503428Y-68285285D01*
X163503428Y-68713857D01*
X163432000Y-68856714D01*
X163360571Y-68928142D01*
X163217714Y-68999571D01*
X163003428Y-68999571D01*
X164146285Y-68999571D02*
X164146285Y-67999571D01*
X164146285Y-68285285D02*
X164217714Y-68142428D01*
X164289142Y-68071000D01*
X164432000Y-67999571D01*
X164574857Y-67999571D01*
X147182000Y-71478142D02*
X147324857Y-71549571D01*
X147610571Y-71549571D01*
X147753428Y-71478142D01*
X147824857Y-71335285D01*
X147824857Y-71263857D01*
X147753428Y-71121000D01*
X147610571Y-71049571D01*
X147396285Y-71049571D01*
X147253428Y-70978142D01*
X147182000Y-70835285D01*
X147182000Y-70763857D01*
X147253428Y-70621000D01*
X147396285Y-70549571D01*
X147610571Y-70549571D01*
X147753428Y-70621000D01*
X148467714Y-71549571D02*
X148467714Y-70049571D01*
X149110571Y-71549571D02*
X149110571Y-70763857D01*
X149039142Y-70621000D01*
X148896285Y-70549571D01*
X148682000Y-70549571D01*
X148539142Y-70621000D01*
X148467714Y-70692428D01*
X149824857Y-71549571D02*
X149824857Y-70549571D01*
X149824857Y-70049571D02*
X149753428Y-70121000D01*
X149824857Y-70192428D01*
X149896285Y-70121000D01*
X149824857Y-70049571D01*
X149824857Y-70192428D01*
X151110571Y-71478142D02*
X150967714Y-71549571D01*
X150682000Y-71549571D01*
X150539142Y-71478142D01*
X150467714Y-71335285D01*
X150467714Y-70763857D01*
X150539142Y-70621000D01*
X150682000Y-70549571D01*
X150967714Y-70549571D01*
X151110571Y-70621000D01*
X151182000Y-70763857D01*
X151182000Y-70906714D01*
X150467714Y-71049571D01*
X152039142Y-71549571D02*
X151896285Y-71478142D01*
X151824857Y-71335285D01*
X151824857Y-70049571D01*
X153253428Y-71549571D02*
X153253428Y-70049571D01*
X153253428Y-71478142D02*
X153110571Y-71549571D01*
X152824857Y-71549571D01*
X152682000Y-71478142D01*
X152610571Y-71406714D01*
X152539142Y-71263857D01*
X152539142Y-70835285D01*
X152610571Y-70692428D01*
X152682000Y-70621000D01*
X152824857Y-70549571D01*
X153110571Y-70549571D01*
X153253428Y-70621000D01*
X154896285Y-70549571D02*
X155467714Y-70549571D01*
X155110571Y-70049571D02*
X155110571Y-71335285D01*
X155182000Y-71478142D01*
X155324857Y-71549571D01*
X155467714Y-71549571D01*
X155824857Y-70549571D02*
X156182000Y-71549571D01*
X156539142Y-70549571D02*
X156182000Y-71549571D01*
X156039142Y-71906714D01*
X155967714Y-71978142D01*
X155824857Y-72049571D01*
X157110571Y-70549571D02*
X157110571Y-72049571D01*
X157110571Y-70621000D02*
X157253428Y-70549571D01*
X157539142Y-70549571D01*
X157682000Y-70621000D01*
X157753428Y-70692428D01*
X157824857Y-70835285D01*
X157824857Y-71263857D01*
X157753428Y-71406714D01*
X157682000Y-71478142D01*
X157539142Y-71549571D01*
X157253428Y-71549571D01*
X157110571Y-71478142D01*
X159039142Y-71478142D02*
X158896285Y-71549571D01*
X158610571Y-71549571D01*
X158467714Y-71478142D01*
X158396285Y-71335285D01*
X158396285Y-70763857D01*
X158467714Y-70621000D01*
X158610571Y-70549571D01*
X158896285Y-70549571D01*
X159039142Y-70621000D01*
X159110571Y-70763857D01*
X159110571Y-70906714D01*
X158396285Y-71049571D01*
X160824857Y-71478142D02*
X161039142Y-71549571D01*
X161396285Y-71549571D01*
X161539142Y-71478142D01*
X161610571Y-71406714D01*
X161681999Y-71263857D01*
X161681999Y-71121000D01*
X161610571Y-70978142D01*
X161539142Y-70906714D01*
X161396285Y-70835285D01*
X161110571Y-70763857D01*
X160967714Y-70692428D01*
X160896285Y-70621000D01*
X160824857Y-70478142D01*
X160824857Y-70335285D01*
X160896285Y-70192428D01*
X160967714Y-70121000D01*
X161110571Y-70049571D01*
X161467714Y-70049571D01*
X161681999Y-70121000D01*
D11*
X153161904Y-83526380D02*
X153161904Y-84335904D01*
X153114285Y-84431142D01*
X153066666Y-84478761D01*
X152971428Y-84526380D01*
X152780952Y-84526380D01*
X152685714Y-84478761D01*
X152638095Y-84431142D01*
X152590476Y-84335904D01*
X152590476Y-83526380D01*
X151590476Y-84526380D02*
X152161904Y-84526380D01*
X151876190Y-84526380D02*
X151876190Y-83526380D01*
X151971428Y-83669238D01*
X152066666Y-83764476D01*
X152161904Y-83812095D01*
X158916666Y-81986380D02*
X159250000Y-81510190D01*
X159488095Y-81986380D02*
X159488095Y-80986380D01*
X159107142Y-80986380D01*
X159011904Y-81034000D01*
X158964285Y-81081619D01*
X158916666Y-81176857D01*
X158916666Y-81319714D01*
X158964285Y-81414952D01*
X159011904Y-81462571D01*
X159107142Y-81510190D01*
X159488095Y-81510190D01*
X157964285Y-81986380D02*
X158535714Y-81986380D01*
X158250000Y-81986380D02*
X158250000Y-80986380D01*
X158345238Y-81129238D01*
X158440476Y-81224476D01*
X158535714Y-81272095D01*
X158662666Y-83923142D02*
X158710285Y-83970761D01*
X158853142Y-84018380D01*
X158948380Y-84018380D01*
X159091238Y-83970761D01*
X159186476Y-83875523D01*
X159234095Y-83780285D01*
X159281714Y-83589809D01*
X159281714Y-83446952D01*
X159234095Y-83256476D01*
X159186476Y-83161238D01*
X159091238Y-83066000D01*
X158948380Y-83018380D01*
X158853142Y-83018380D01*
X158710285Y-83066000D01*
X158662666Y-83113619D01*
X158281714Y-83113619D02*
X158234095Y-83066000D01*
X158138857Y-83018380D01*
X157900761Y-83018380D01*
X157805523Y-83066000D01*
X157757904Y-83113619D01*
X157710285Y-83208857D01*
X157710285Y-83304095D01*
X157757904Y-83446952D01*
X158329333Y-84018380D01*
X157710285Y-84018380D01*
X150964666Y-82653142D02*
X151012285Y-82700761D01*
X151155142Y-82748380D01*
X151250380Y-82748380D01*
X151393238Y-82700761D01*
X151488476Y-82605523D01*
X151536095Y-82510285D01*
X151583714Y-82319809D01*
X151583714Y-82176952D01*
X151536095Y-81986476D01*
X151488476Y-81891238D01*
X151393238Y-81796000D01*
X151250380Y-81748380D01*
X151155142Y-81748380D01*
X151012285Y-81796000D01*
X150964666Y-81843619D01*
X150012285Y-82748380D02*
X150583714Y-82748380D01*
X150298000Y-82748380D02*
X150298000Y-81748380D01*
X150393238Y-81891238D01*
X150488476Y-81986476D01*
X150583714Y-82034095D01*
M02*
