G04 #@! TF.GenerationSoftware,KiCad,Pcbnew,(5.1.5)-3*
G04 #@! TF.CreationDate,2020-01-20T08:59:10+09:00*
G04 #@! TF.ProjectId,signaltower_host,7369676e-616c-4746-9f77-65725f686f73,rev?*
G04 #@! TF.SameCoordinates,Original*
G04 #@! TF.FileFunction,Copper,L1,Top*
G04 #@! TF.FilePolarity,Positive*
%FSLAX46Y46*%
G04 Gerber Fmt 4.6, Leading zero omitted, Abs format (unit mm)*
G04 Created by KiCad (PCBNEW (5.1.5)-3) date 2020-01-20 08:59:10*
%MOMM*%
%LPD*%
G04 APERTURE LIST*
%ADD10R,7.000000X7.000000*%
%ADD11R,0.760000X2.500000*%
%ADD12C,1.600000*%
%ADD13R,0.600000X0.900000*%
%ADD14R,1.350000X0.400000*%
%ADD15R,1.900000X1.600000*%
%ADD16R,2.000000X2.100000*%
%ADD17C,4.500000*%
%ADD18O,0.800000X1.400000*%
%ADD19O,1.400000X0.800000*%
%ADD20R,0.800000X1.000000*%
%ADD21R,0.700000X1.000000*%
%ADD22C,0.100000*%
%ADD23R,1.050000X0.350000*%
%ADD24R,1.350000X2.000000*%
%ADD25C,0.600000*%
%ADD26C,0.250000*%
%ADD27C,0.500000*%
%ADD28C,0.350000*%
%ADD29C,0.254000*%
G04 APERTURE END LIST*
D10*
X113538000Y-77978000D03*
D11*
X112268000Y-84228000D03*
X110998000Y-84228000D03*
X116078000Y-84228000D03*
X114808000Y-84228000D03*
D12*
X96266000Y-75946000D03*
X96266000Y-81026000D03*
D13*
X98806000Y-90678000D03*
X99756000Y-92378000D03*
X97856000Y-92378000D03*
D14*
X95575000Y-92262000D03*
X95575000Y-92912000D03*
X95575000Y-93562000D03*
X95575000Y-91612000D03*
D15*
X92900000Y-97012000D03*
D16*
X95250000Y-96012000D03*
D15*
X92900000Y-88812000D03*
D14*
X95575000Y-94212000D03*
D16*
X95250000Y-89812000D03*
D17*
X140606000Y-81923000D03*
X158606000Y-81923000D03*
D18*
X149606000Y-81463000D03*
X150876000Y-81463000D03*
X152146000Y-81463000D03*
X153416000Y-81463000D03*
X154686000Y-81463000D03*
X149606000Y-83383000D03*
X150876000Y-83383000D03*
X152146000Y-83383000D03*
X153416000Y-83383000D03*
X154686000Y-83383000D03*
D19*
X160091000Y-77978000D03*
X160091000Y-76708000D03*
X160091000Y-75438000D03*
X160091000Y-74168000D03*
X160091000Y-72898000D03*
X160091000Y-71628000D03*
X160091000Y-70358000D03*
X160091000Y-69088000D03*
X139121000Y-77978000D03*
X139121000Y-76708000D03*
X139121000Y-75438000D03*
X139121000Y-74168000D03*
X139121000Y-72898000D03*
X139121000Y-71628000D03*
X139121000Y-70358000D03*
X139121000Y-69088000D03*
X139121000Y-67818000D03*
X139121000Y-66548000D03*
X160091000Y-67818000D03*
X160091000Y-66548000D03*
D20*
X111014000Y-88786000D03*
X113014000Y-88786000D03*
X113014000Y-91186000D03*
X111014000Y-91186000D03*
D21*
X112014000Y-91186000D03*
G04 #@! TA.AperFunction,SMDPad,CuDef*
D22*
G36*
X108644958Y-87312710D02*
G01*
X108659276Y-87314834D01*
X108673317Y-87318351D01*
X108686946Y-87323228D01*
X108700031Y-87329417D01*
X108712447Y-87336858D01*
X108724073Y-87345481D01*
X108734798Y-87355202D01*
X108744519Y-87365927D01*
X108753142Y-87377553D01*
X108760583Y-87389969D01*
X108766772Y-87403054D01*
X108771649Y-87416683D01*
X108775166Y-87430724D01*
X108777290Y-87445042D01*
X108778000Y-87459500D01*
X108778000Y-87754500D01*
X108777290Y-87768958D01*
X108775166Y-87783276D01*
X108771649Y-87797317D01*
X108766772Y-87810946D01*
X108760583Y-87824031D01*
X108753142Y-87836447D01*
X108744519Y-87848073D01*
X108734798Y-87858798D01*
X108724073Y-87868519D01*
X108712447Y-87877142D01*
X108700031Y-87884583D01*
X108686946Y-87890772D01*
X108673317Y-87895649D01*
X108659276Y-87899166D01*
X108644958Y-87901290D01*
X108630500Y-87902000D01*
X108285500Y-87902000D01*
X108271042Y-87901290D01*
X108256724Y-87899166D01*
X108242683Y-87895649D01*
X108229054Y-87890772D01*
X108215969Y-87884583D01*
X108203553Y-87877142D01*
X108191927Y-87868519D01*
X108181202Y-87858798D01*
X108171481Y-87848073D01*
X108162858Y-87836447D01*
X108155417Y-87824031D01*
X108149228Y-87810946D01*
X108144351Y-87797317D01*
X108140834Y-87783276D01*
X108138710Y-87768958D01*
X108138000Y-87754500D01*
X108138000Y-87459500D01*
X108138710Y-87445042D01*
X108140834Y-87430724D01*
X108144351Y-87416683D01*
X108149228Y-87403054D01*
X108155417Y-87389969D01*
X108162858Y-87377553D01*
X108171481Y-87365927D01*
X108181202Y-87355202D01*
X108191927Y-87345481D01*
X108203553Y-87336858D01*
X108215969Y-87329417D01*
X108229054Y-87323228D01*
X108242683Y-87318351D01*
X108256724Y-87314834D01*
X108271042Y-87312710D01*
X108285500Y-87312000D01*
X108630500Y-87312000D01*
X108644958Y-87312710D01*
G37*
G04 #@! TD.AperFunction*
G04 #@! TA.AperFunction,SMDPad,CuDef*
G36*
X108644958Y-86342710D02*
G01*
X108659276Y-86344834D01*
X108673317Y-86348351D01*
X108686946Y-86353228D01*
X108700031Y-86359417D01*
X108712447Y-86366858D01*
X108724073Y-86375481D01*
X108734798Y-86385202D01*
X108744519Y-86395927D01*
X108753142Y-86407553D01*
X108760583Y-86419969D01*
X108766772Y-86433054D01*
X108771649Y-86446683D01*
X108775166Y-86460724D01*
X108777290Y-86475042D01*
X108778000Y-86489500D01*
X108778000Y-86784500D01*
X108777290Y-86798958D01*
X108775166Y-86813276D01*
X108771649Y-86827317D01*
X108766772Y-86840946D01*
X108760583Y-86854031D01*
X108753142Y-86866447D01*
X108744519Y-86878073D01*
X108734798Y-86888798D01*
X108724073Y-86898519D01*
X108712447Y-86907142D01*
X108700031Y-86914583D01*
X108686946Y-86920772D01*
X108673317Y-86925649D01*
X108659276Y-86929166D01*
X108644958Y-86931290D01*
X108630500Y-86932000D01*
X108285500Y-86932000D01*
X108271042Y-86931290D01*
X108256724Y-86929166D01*
X108242683Y-86925649D01*
X108229054Y-86920772D01*
X108215969Y-86914583D01*
X108203553Y-86907142D01*
X108191927Y-86898519D01*
X108181202Y-86888798D01*
X108171481Y-86878073D01*
X108162858Y-86866447D01*
X108155417Y-86854031D01*
X108149228Y-86840946D01*
X108144351Y-86827317D01*
X108140834Y-86813276D01*
X108138710Y-86798958D01*
X108138000Y-86784500D01*
X108138000Y-86489500D01*
X108138710Y-86475042D01*
X108140834Y-86460724D01*
X108144351Y-86446683D01*
X108149228Y-86433054D01*
X108155417Y-86419969D01*
X108162858Y-86407553D01*
X108171481Y-86395927D01*
X108181202Y-86385202D01*
X108191927Y-86375481D01*
X108203553Y-86366858D01*
X108215969Y-86359417D01*
X108229054Y-86353228D01*
X108242683Y-86348351D01*
X108256724Y-86344834D01*
X108271042Y-86342710D01*
X108285500Y-86342000D01*
X108630500Y-86342000D01*
X108644958Y-86342710D01*
G37*
G04 #@! TD.AperFunction*
G04 #@! TA.AperFunction,SMDPad,CuDef*
G36*
X98967958Y-93914710D02*
G01*
X98982276Y-93916834D01*
X98996317Y-93920351D01*
X99009946Y-93925228D01*
X99023031Y-93931417D01*
X99035447Y-93938858D01*
X99047073Y-93947481D01*
X99057798Y-93957202D01*
X99067519Y-93967927D01*
X99076142Y-93979553D01*
X99083583Y-93991969D01*
X99089772Y-94005054D01*
X99094649Y-94018683D01*
X99098166Y-94032724D01*
X99100290Y-94047042D01*
X99101000Y-94061500D01*
X99101000Y-94406500D01*
X99100290Y-94420958D01*
X99098166Y-94435276D01*
X99094649Y-94449317D01*
X99089772Y-94462946D01*
X99083583Y-94476031D01*
X99076142Y-94488447D01*
X99067519Y-94500073D01*
X99057798Y-94510798D01*
X99047073Y-94520519D01*
X99035447Y-94529142D01*
X99023031Y-94536583D01*
X99009946Y-94542772D01*
X98996317Y-94547649D01*
X98982276Y-94551166D01*
X98967958Y-94553290D01*
X98953500Y-94554000D01*
X98658500Y-94554000D01*
X98644042Y-94553290D01*
X98629724Y-94551166D01*
X98615683Y-94547649D01*
X98602054Y-94542772D01*
X98588969Y-94536583D01*
X98576553Y-94529142D01*
X98564927Y-94520519D01*
X98554202Y-94510798D01*
X98544481Y-94500073D01*
X98535858Y-94488447D01*
X98528417Y-94476031D01*
X98522228Y-94462946D01*
X98517351Y-94449317D01*
X98513834Y-94435276D01*
X98511710Y-94420958D01*
X98511000Y-94406500D01*
X98511000Y-94061500D01*
X98511710Y-94047042D01*
X98513834Y-94032724D01*
X98517351Y-94018683D01*
X98522228Y-94005054D01*
X98528417Y-93991969D01*
X98535858Y-93979553D01*
X98544481Y-93967927D01*
X98554202Y-93957202D01*
X98564927Y-93947481D01*
X98576553Y-93938858D01*
X98588969Y-93931417D01*
X98602054Y-93925228D01*
X98615683Y-93920351D01*
X98629724Y-93916834D01*
X98644042Y-93914710D01*
X98658500Y-93914000D01*
X98953500Y-93914000D01*
X98967958Y-93914710D01*
G37*
G04 #@! TD.AperFunction*
G04 #@! TA.AperFunction,SMDPad,CuDef*
G36*
X97997958Y-93914710D02*
G01*
X98012276Y-93916834D01*
X98026317Y-93920351D01*
X98039946Y-93925228D01*
X98053031Y-93931417D01*
X98065447Y-93938858D01*
X98077073Y-93947481D01*
X98087798Y-93957202D01*
X98097519Y-93967927D01*
X98106142Y-93979553D01*
X98113583Y-93991969D01*
X98119772Y-94005054D01*
X98124649Y-94018683D01*
X98128166Y-94032724D01*
X98130290Y-94047042D01*
X98131000Y-94061500D01*
X98131000Y-94406500D01*
X98130290Y-94420958D01*
X98128166Y-94435276D01*
X98124649Y-94449317D01*
X98119772Y-94462946D01*
X98113583Y-94476031D01*
X98106142Y-94488447D01*
X98097519Y-94500073D01*
X98087798Y-94510798D01*
X98077073Y-94520519D01*
X98065447Y-94529142D01*
X98053031Y-94536583D01*
X98039946Y-94542772D01*
X98026317Y-94547649D01*
X98012276Y-94551166D01*
X97997958Y-94553290D01*
X97983500Y-94554000D01*
X97688500Y-94554000D01*
X97674042Y-94553290D01*
X97659724Y-94551166D01*
X97645683Y-94547649D01*
X97632054Y-94542772D01*
X97618969Y-94536583D01*
X97606553Y-94529142D01*
X97594927Y-94520519D01*
X97584202Y-94510798D01*
X97574481Y-94500073D01*
X97565858Y-94488447D01*
X97558417Y-94476031D01*
X97552228Y-94462946D01*
X97547351Y-94449317D01*
X97543834Y-94435276D01*
X97541710Y-94420958D01*
X97541000Y-94406500D01*
X97541000Y-94061500D01*
X97541710Y-94047042D01*
X97543834Y-94032724D01*
X97547351Y-94018683D01*
X97552228Y-94005054D01*
X97558417Y-93991969D01*
X97565858Y-93979553D01*
X97574481Y-93967927D01*
X97584202Y-93957202D01*
X97594927Y-93947481D01*
X97606553Y-93938858D01*
X97618969Y-93931417D01*
X97632054Y-93925228D01*
X97645683Y-93920351D01*
X97659724Y-93916834D01*
X97674042Y-93914710D01*
X97688500Y-93914000D01*
X97983500Y-93914000D01*
X97997958Y-93914710D01*
G37*
G04 #@! TD.AperFunction*
D18*
X149606000Y-91369000D03*
X150876000Y-91369000D03*
X152146000Y-91369000D03*
X153416000Y-91369000D03*
X154686000Y-91369000D03*
X154686000Y-93289000D03*
X149606000Y-93289000D03*
X150876000Y-93289000D03*
X153416000Y-93289000D03*
X152146000Y-93289000D03*
D23*
X93218000Y-65746000D03*
X93218000Y-65246000D03*
X93218000Y-64746000D03*
X93218000Y-64246000D03*
X93218000Y-62246000D03*
X93218000Y-62746000D03*
X93218000Y-63246000D03*
X93218000Y-63746000D03*
D24*
X95968000Y-59896000D03*
X95968000Y-68096000D03*
G04 #@! TA.AperFunction,SMDPad,CuDef*
D22*
G36*
X131909504Y-77478204D02*
G01*
X131933773Y-77481804D01*
X131957571Y-77487765D01*
X131980671Y-77496030D01*
X132002849Y-77506520D01*
X132023893Y-77519133D01*
X132043598Y-77533747D01*
X132061777Y-77550223D01*
X132078253Y-77568402D01*
X132092867Y-77588107D01*
X132105480Y-77609151D01*
X132115970Y-77631329D01*
X132124235Y-77654429D01*
X132130196Y-77678227D01*
X132133796Y-77702496D01*
X132135000Y-77727000D01*
X132135000Y-78477000D01*
X132133796Y-78501504D01*
X132130196Y-78525773D01*
X132124235Y-78549571D01*
X132115970Y-78572671D01*
X132105480Y-78594849D01*
X132092867Y-78615893D01*
X132078253Y-78635598D01*
X132061777Y-78653777D01*
X132043598Y-78670253D01*
X132023893Y-78684867D01*
X132002849Y-78697480D01*
X131980671Y-78707970D01*
X131957571Y-78716235D01*
X131933773Y-78722196D01*
X131909504Y-78725796D01*
X131885000Y-78727000D01*
X129735000Y-78727000D01*
X129710496Y-78725796D01*
X129686227Y-78722196D01*
X129662429Y-78716235D01*
X129639329Y-78707970D01*
X129617151Y-78697480D01*
X129596107Y-78684867D01*
X129576402Y-78670253D01*
X129558223Y-78653777D01*
X129541747Y-78635598D01*
X129527133Y-78615893D01*
X129514520Y-78594849D01*
X129504030Y-78572671D01*
X129495765Y-78549571D01*
X129489804Y-78525773D01*
X129486204Y-78501504D01*
X129485000Y-78477000D01*
X129485000Y-77727000D01*
X129486204Y-77702496D01*
X129489804Y-77678227D01*
X129495765Y-77654429D01*
X129504030Y-77631329D01*
X129514520Y-77609151D01*
X129527133Y-77588107D01*
X129541747Y-77568402D01*
X129558223Y-77550223D01*
X129576402Y-77533747D01*
X129596107Y-77519133D01*
X129617151Y-77506520D01*
X129639329Y-77496030D01*
X129662429Y-77487765D01*
X129686227Y-77481804D01*
X129710496Y-77478204D01*
X129735000Y-77477000D01*
X131885000Y-77477000D01*
X131909504Y-77478204D01*
G37*
G04 #@! TD.AperFunction*
G04 #@! TA.AperFunction,SMDPad,CuDef*
G36*
X131909504Y-80278204D02*
G01*
X131933773Y-80281804D01*
X131957571Y-80287765D01*
X131980671Y-80296030D01*
X132002849Y-80306520D01*
X132023893Y-80319133D01*
X132043598Y-80333747D01*
X132061777Y-80350223D01*
X132078253Y-80368402D01*
X132092867Y-80388107D01*
X132105480Y-80409151D01*
X132115970Y-80431329D01*
X132124235Y-80454429D01*
X132130196Y-80478227D01*
X132133796Y-80502496D01*
X132135000Y-80527000D01*
X132135000Y-81277000D01*
X132133796Y-81301504D01*
X132130196Y-81325773D01*
X132124235Y-81349571D01*
X132115970Y-81372671D01*
X132105480Y-81394849D01*
X132092867Y-81415893D01*
X132078253Y-81435598D01*
X132061777Y-81453777D01*
X132043598Y-81470253D01*
X132023893Y-81484867D01*
X132002849Y-81497480D01*
X131980671Y-81507970D01*
X131957571Y-81516235D01*
X131933773Y-81522196D01*
X131909504Y-81525796D01*
X131885000Y-81527000D01*
X129735000Y-81527000D01*
X129710496Y-81525796D01*
X129686227Y-81522196D01*
X129662429Y-81516235D01*
X129639329Y-81507970D01*
X129617151Y-81497480D01*
X129596107Y-81484867D01*
X129576402Y-81470253D01*
X129558223Y-81453777D01*
X129541747Y-81435598D01*
X129527133Y-81415893D01*
X129514520Y-81394849D01*
X129504030Y-81372671D01*
X129495765Y-81349571D01*
X129489804Y-81325773D01*
X129486204Y-81301504D01*
X129485000Y-81277000D01*
X129485000Y-80527000D01*
X129486204Y-80502496D01*
X129489804Y-80478227D01*
X129495765Y-80454429D01*
X129504030Y-80431329D01*
X129514520Y-80409151D01*
X129527133Y-80388107D01*
X129541747Y-80368402D01*
X129558223Y-80350223D01*
X129576402Y-80333747D01*
X129596107Y-80319133D01*
X129617151Y-80306520D01*
X129639329Y-80296030D01*
X129662429Y-80287765D01*
X129686227Y-80281804D01*
X129710496Y-80278204D01*
X129735000Y-80277000D01*
X131885000Y-80277000D01*
X131909504Y-80278204D01*
G37*
G04 #@! TD.AperFunction*
G04 #@! TA.AperFunction,SMDPad,CuDef*
G36*
X107525504Y-77100204D02*
G01*
X107549773Y-77103804D01*
X107573571Y-77109765D01*
X107596671Y-77118030D01*
X107618849Y-77128520D01*
X107639893Y-77141133D01*
X107659598Y-77155747D01*
X107677777Y-77172223D01*
X107694253Y-77190402D01*
X107708867Y-77210107D01*
X107721480Y-77231151D01*
X107731970Y-77253329D01*
X107740235Y-77276429D01*
X107746196Y-77300227D01*
X107749796Y-77324496D01*
X107751000Y-77349000D01*
X107751000Y-78099000D01*
X107749796Y-78123504D01*
X107746196Y-78147773D01*
X107740235Y-78171571D01*
X107731970Y-78194671D01*
X107721480Y-78216849D01*
X107708867Y-78237893D01*
X107694253Y-78257598D01*
X107677777Y-78275777D01*
X107659598Y-78292253D01*
X107639893Y-78306867D01*
X107618849Y-78319480D01*
X107596671Y-78329970D01*
X107573571Y-78338235D01*
X107549773Y-78344196D01*
X107525504Y-78347796D01*
X107501000Y-78349000D01*
X105351000Y-78349000D01*
X105326496Y-78347796D01*
X105302227Y-78344196D01*
X105278429Y-78338235D01*
X105255329Y-78329970D01*
X105233151Y-78319480D01*
X105212107Y-78306867D01*
X105192402Y-78292253D01*
X105174223Y-78275777D01*
X105157747Y-78257598D01*
X105143133Y-78237893D01*
X105130520Y-78216849D01*
X105120030Y-78194671D01*
X105111765Y-78171571D01*
X105105804Y-78147773D01*
X105102204Y-78123504D01*
X105101000Y-78099000D01*
X105101000Y-77349000D01*
X105102204Y-77324496D01*
X105105804Y-77300227D01*
X105111765Y-77276429D01*
X105120030Y-77253329D01*
X105130520Y-77231151D01*
X105143133Y-77210107D01*
X105157747Y-77190402D01*
X105174223Y-77172223D01*
X105192402Y-77155747D01*
X105212107Y-77141133D01*
X105233151Y-77128520D01*
X105255329Y-77118030D01*
X105278429Y-77109765D01*
X105302227Y-77103804D01*
X105326496Y-77100204D01*
X105351000Y-77099000D01*
X107501000Y-77099000D01*
X107525504Y-77100204D01*
G37*
G04 #@! TD.AperFunction*
G04 #@! TA.AperFunction,SMDPad,CuDef*
G36*
X107525504Y-79900204D02*
G01*
X107549773Y-79903804D01*
X107573571Y-79909765D01*
X107596671Y-79918030D01*
X107618849Y-79928520D01*
X107639893Y-79941133D01*
X107659598Y-79955747D01*
X107677777Y-79972223D01*
X107694253Y-79990402D01*
X107708867Y-80010107D01*
X107721480Y-80031151D01*
X107731970Y-80053329D01*
X107740235Y-80076429D01*
X107746196Y-80100227D01*
X107749796Y-80124496D01*
X107751000Y-80149000D01*
X107751000Y-80899000D01*
X107749796Y-80923504D01*
X107746196Y-80947773D01*
X107740235Y-80971571D01*
X107731970Y-80994671D01*
X107721480Y-81016849D01*
X107708867Y-81037893D01*
X107694253Y-81057598D01*
X107677777Y-81075777D01*
X107659598Y-81092253D01*
X107639893Y-81106867D01*
X107618849Y-81119480D01*
X107596671Y-81129970D01*
X107573571Y-81138235D01*
X107549773Y-81144196D01*
X107525504Y-81147796D01*
X107501000Y-81149000D01*
X105351000Y-81149000D01*
X105326496Y-81147796D01*
X105302227Y-81144196D01*
X105278429Y-81138235D01*
X105255329Y-81129970D01*
X105233151Y-81119480D01*
X105212107Y-81106867D01*
X105192402Y-81092253D01*
X105174223Y-81075777D01*
X105157747Y-81057598D01*
X105143133Y-81037893D01*
X105130520Y-81016849D01*
X105120030Y-80994671D01*
X105111765Y-80971571D01*
X105105804Y-80947773D01*
X105102204Y-80923504D01*
X105101000Y-80899000D01*
X105101000Y-80149000D01*
X105102204Y-80124496D01*
X105105804Y-80100227D01*
X105111765Y-80076429D01*
X105120030Y-80053329D01*
X105130520Y-80031151D01*
X105143133Y-80010107D01*
X105157747Y-79990402D01*
X105174223Y-79972223D01*
X105192402Y-79955747D01*
X105212107Y-79941133D01*
X105233151Y-79928520D01*
X105255329Y-79918030D01*
X105278429Y-79909765D01*
X105302227Y-79903804D01*
X105326496Y-79900204D01*
X105351000Y-79899000D01*
X107501000Y-79899000D01*
X107525504Y-79900204D01*
G37*
G04 #@! TD.AperFunction*
D25*
X117975000Y-75600000D03*
X97536000Y-62230000D03*
X96520000Y-85852000D03*
X106400000Y-75825000D03*
X100838000Y-94234000D03*
X100838000Y-92202000D03*
X130810000Y-75946000D03*
X109225000Y-75850000D03*
X109728000Y-87630000D03*
X109728000Y-84582000D03*
D26*
X110998000Y-88770000D02*
X111014000Y-88786000D01*
D27*
X111014000Y-86884000D02*
X111014000Y-88786000D01*
X110744000Y-86614000D02*
X111014000Y-86884000D01*
X107188000Y-86614000D02*
X110744000Y-86614000D01*
X106426000Y-80524000D02*
X106426000Y-85852000D01*
X106426000Y-85852000D02*
X107188000Y-86614000D01*
X112268000Y-85978000D02*
X112268000Y-84228000D01*
X111632000Y-86614000D02*
X112268000Y-85978000D01*
X110744000Y-86614000D02*
X111632000Y-86614000D01*
X96266000Y-81026000D02*
X100124000Y-81026000D01*
X100626000Y-80524000D02*
X106426000Y-80524000D01*
X100124000Y-81026000D02*
X100626000Y-80524000D01*
D26*
X154686000Y-83058000D02*
X154686000Y-83438318D01*
X111014000Y-90436000D02*
X111280000Y-90170000D01*
X111014000Y-91186000D02*
X111014000Y-90436000D01*
X111280000Y-90170000D02*
X112776000Y-90170000D01*
X113014000Y-89932000D02*
X113014000Y-88786000D01*
X112776000Y-90170000D02*
X113014000Y-89932000D01*
X154686000Y-86106000D02*
X154686000Y-83058000D01*
X154178000Y-86614000D02*
X154686000Y-86106000D01*
X113014000Y-88786000D02*
X113014000Y-87138000D01*
X113014000Y-87138000D02*
X113538000Y-86614000D01*
X114808000Y-86614000D02*
X114808000Y-84228000D01*
X113538000Y-86614000D02*
X114808000Y-86614000D01*
X130810000Y-81527000D02*
X130810000Y-86614000D01*
X130810000Y-80902000D02*
X130810000Y-81527000D01*
X114808000Y-86614000D02*
X130810000Y-86614000D01*
X130810000Y-86614000D02*
X154178000Y-86614000D01*
D28*
X93218000Y-62246000D02*
X97520000Y-62246000D01*
D26*
X97520000Y-62246000D02*
X97536000Y-62230000D01*
X95100000Y-89812000D02*
X95250000Y-89812000D01*
X94100000Y-88812000D02*
X95100000Y-89812000D01*
X92900000Y-88812000D02*
X94100000Y-88812000D01*
X96520000Y-85852000D02*
X96520000Y-86614000D01*
X95250000Y-87884000D02*
X95250000Y-89812000D01*
X96520000Y-86614000D02*
X95250000Y-87884000D01*
X95250000Y-91287000D02*
X95575000Y-91612000D01*
X95250000Y-89812000D02*
X95250000Y-91287000D01*
X95575000Y-91612000D02*
X95575000Y-92262000D01*
X95100000Y-96012000D02*
X95250000Y-96012000D01*
X94100000Y-97012000D02*
X95100000Y-96012000D01*
X92900000Y-97012000D02*
X94100000Y-97012000D01*
X92900000Y-89862000D02*
X92900000Y-97012000D01*
X92900000Y-88812000D02*
X92900000Y-89862000D01*
X98806000Y-94234000D02*
X100838000Y-94234000D01*
X100662000Y-92378000D02*
X100838000Y-92202000D01*
X99756000Y-92378000D02*
X100662000Y-92378000D01*
X130810000Y-75946000D02*
X130810000Y-78102000D01*
D27*
X106426000Y-75851000D02*
X106400000Y-75825000D01*
X106426000Y-77724000D02*
X106426000Y-75851000D01*
X111410000Y-75850000D02*
X113538000Y-77978000D01*
X109225000Y-75850000D02*
X111410000Y-75850000D01*
X115916000Y-75600000D02*
X113538000Y-77978000D01*
X117975000Y-75600000D02*
X115916000Y-75600000D01*
D26*
X99337000Y-87607000D02*
X108458000Y-87607000D01*
X98806000Y-90678000D02*
X98806000Y-88138000D01*
X98806000Y-88138000D02*
X99337000Y-87607000D01*
X108458000Y-87607000D02*
X109451000Y-87607000D01*
X109451000Y-87607000D02*
X109474000Y-87630000D01*
X109474000Y-87630000D02*
X109728000Y-87630000D01*
X110998000Y-84328000D02*
X110998000Y-84228000D01*
X110644000Y-84582000D02*
X110998000Y-84228000D01*
X109728000Y-84582000D02*
X110644000Y-84582000D01*
X93218000Y-65246000D02*
X96444948Y-65246000D01*
X133986410Y-74168000D02*
X139446000Y-74168000D01*
X132716410Y-72898000D02*
X133986410Y-74168000D01*
X104096948Y-72898000D02*
X132716410Y-72898000D01*
X96444948Y-65246000D02*
X104096948Y-72898000D01*
X96581358Y-64746000D02*
X93218000Y-64746000D01*
X133352820Y-72898000D02*
X132844820Y-72390000D01*
X139446000Y-72898000D02*
X133352820Y-72898000D01*
X132844820Y-72390000D02*
X104225358Y-72390000D01*
X104225358Y-72390000D02*
X96581358Y-64746000D01*
X139425884Y-71648116D02*
X139446000Y-71628000D01*
X93218000Y-64246000D02*
X96717768Y-64246000D01*
X104119884Y-71648116D02*
X139425884Y-71648116D01*
X96717768Y-64246000D02*
X104119884Y-71648116D01*
X93218000Y-63746000D02*
X96854178Y-63746000D01*
X103466178Y-70358000D02*
X103041089Y-69932911D01*
X139446000Y-70358000D02*
X103466178Y-70358000D01*
X103016169Y-69907991D02*
X101898089Y-68789911D01*
X96854178Y-63746000D02*
X102196178Y-69088000D01*
X96990588Y-63246000D02*
X93218000Y-63246000D01*
X139446000Y-69088000D02*
X102832588Y-69088000D01*
X102832588Y-69088000D02*
X96990588Y-63246000D01*
X93218000Y-62746000D02*
X97126998Y-62746000D01*
X97126998Y-62746000D02*
X100928998Y-66548000D01*
X100928998Y-66548000D02*
X139446000Y-66548000D01*
D28*
X93218000Y-65746000D02*
X95878002Y-65746000D01*
D26*
X113792000Y-73406000D02*
X114554000Y-73406000D01*
D28*
X103538002Y-73406000D02*
X113792000Y-73406000D01*
X95878002Y-65746000D02*
X103538002Y-73406000D01*
X132588000Y-73406000D02*
X113792000Y-73406000D01*
X132842000Y-73660000D02*
X132588000Y-73406000D01*
X133858000Y-76708000D02*
X132842000Y-75692000D01*
X139446000Y-76708000D02*
X133858000Y-76708000D01*
X132842000Y-75692000D02*
X132842000Y-73660000D01*
D26*
X152146000Y-91694000D02*
X152146000Y-92964000D01*
X154686000Y-92964000D02*
X154686000Y-91694000D01*
X97836000Y-92398000D02*
X97856000Y-92378000D01*
X97814000Y-94212000D02*
X97836000Y-94234000D01*
X95575000Y-94212000D02*
X97814000Y-94212000D01*
X145288000Y-91186000D02*
X145796000Y-90678000D01*
X154686000Y-89916000D02*
X154686000Y-91694000D01*
X113014000Y-91186000D02*
X145288000Y-91186000D01*
X145796000Y-89662000D02*
X146050000Y-89408000D01*
X145796000Y-90678000D02*
X145796000Y-89662000D01*
X146050000Y-89408000D02*
X154178000Y-89408000D01*
X154178000Y-89408000D02*
X154686000Y-89916000D01*
X113014000Y-91936000D02*
X112748000Y-92202000D01*
X113014000Y-91186000D02*
X113014000Y-91936000D01*
X112748000Y-92202000D02*
X102870000Y-92202000D01*
X101646000Y-93426000D02*
X97836000Y-93426000D01*
X102870000Y-92202000D02*
X101646000Y-93426000D01*
X97836000Y-94234000D02*
X97836000Y-93426000D01*
X97836000Y-93426000D02*
X97836000Y-92398000D01*
D29*
G36*
X154868103Y-79397058D02*
G01*
X155032541Y-79446143D01*
X155184186Y-79526468D01*
X155317180Y-79634931D01*
X155426365Y-79767328D01*
X155507517Y-79918529D01*
X155557503Y-80082705D01*
X155575000Y-80259737D01*
X155575000Y-80623125D01*
X155476013Y-80482388D01*
X155328052Y-80341342D01*
X155155418Y-80231872D01*
X154972123Y-80168334D01*
X154813000Y-80296002D01*
X154813000Y-81336000D01*
X154833000Y-81336000D01*
X154833000Y-81590000D01*
X154813000Y-81590000D01*
X154813000Y-83256000D01*
X154833000Y-83256000D01*
X154833000Y-83510000D01*
X154813000Y-83510000D01*
X154813000Y-84549998D01*
X154972123Y-84677666D01*
X155155418Y-84614128D01*
X155328052Y-84504658D01*
X155476013Y-84363612D01*
X155575000Y-84222875D01*
X155575000Y-86877766D01*
X155557624Y-87054189D01*
X155507978Y-87217850D01*
X155427362Y-87368672D01*
X155318870Y-87500870D01*
X155186672Y-87609362D01*
X155035850Y-87689978D01*
X154872189Y-87739624D01*
X154695766Y-87757000D01*
X113770367Y-87757000D01*
X113768494Y-87755463D01*
X113658180Y-87696498D01*
X113538482Y-87660188D01*
X113414000Y-87647928D01*
X113299750Y-87651000D01*
X113193750Y-87757000D01*
X112834250Y-87757000D01*
X112728250Y-87651000D01*
X112614000Y-87647928D01*
X112489518Y-87660188D01*
X112369820Y-87696498D01*
X112259506Y-87755463D01*
X112257633Y-87757000D01*
X111899000Y-87757000D01*
X111899000Y-87457829D01*
X111972313Y-87435589D01*
X112126059Y-87353411D01*
X112260817Y-87242817D01*
X112288534Y-87209044D01*
X112863050Y-86634529D01*
X112896817Y-86606817D01*
X113007411Y-86472059D01*
X113089589Y-86318313D01*
X113140195Y-86151490D01*
X113153000Y-86021477D01*
X113153000Y-86021469D01*
X113157281Y-85978000D01*
X113153000Y-85934531D01*
X113153000Y-85863611D01*
X113178537Y-85832494D01*
X113237502Y-85722180D01*
X113273812Y-85602482D01*
X113286072Y-85478000D01*
X113789928Y-85478000D01*
X113802188Y-85602482D01*
X113838498Y-85722180D01*
X113897463Y-85832494D01*
X113976815Y-85929185D01*
X114073506Y-86008537D01*
X114183820Y-86067502D01*
X114303518Y-86103812D01*
X114428000Y-86116072D01*
X114522250Y-86113000D01*
X114681000Y-85954250D01*
X114681000Y-84355000D01*
X113951750Y-84355000D01*
X113793000Y-84513750D01*
X113789928Y-85478000D01*
X113286072Y-85478000D01*
X113286072Y-82978000D01*
X113789928Y-82978000D01*
X113793000Y-83942250D01*
X113951750Y-84101000D01*
X114681000Y-84101000D01*
X114681000Y-82501750D01*
X114935000Y-82501750D01*
X114935000Y-84101000D01*
X114955000Y-84101000D01*
X114955000Y-84355000D01*
X114935000Y-84355000D01*
X114935000Y-85954250D01*
X115093750Y-86113000D01*
X115188000Y-86116072D01*
X115312482Y-86103812D01*
X115432180Y-86067502D01*
X115443000Y-86061718D01*
X115453820Y-86067502D01*
X115573518Y-86103812D01*
X115698000Y-86116072D01*
X116458000Y-86116072D01*
X116582482Y-86103812D01*
X116702180Y-86067502D01*
X116812494Y-86008537D01*
X116909185Y-85929185D01*
X116988537Y-85832494D01*
X117047502Y-85722180D01*
X117083812Y-85602482D01*
X117096072Y-85478000D01*
X117096072Y-82978000D01*
X117083812Y-82853518D01*
X117047502Y-82733820D01*
X116988537Y-82623506D01*
X116909185Y-82526815D01*
X116812494Y-82447463D01*
X116702180Y-82388498D01*
X116582482Y-82352188D01*
X116458000Y-82339928D01*
X115698000Y-82339928D01*
X115573518Y-82352188D01*
X115453820Y-82388498D01*
X115443000Y-82394282D01*
X115432180Y-82388498D01*
X115312482Y-82352188D01*
X115188000Y-82339928D01*
X115093750Y-82343000D01*
X114935000Y-82501750D01*
X114681000Y-82501750D01*
X114522250Y-82343000D01*
X114428000Y-82339928D01*
X114303518Y-82352188D01*
X114183820Y-82388498D01*
X114073506Y-82447463D01*
X113976815Y-82526815D01*
X113897463Y-82623506D01*
X113838498Y-82733820D01*
X113802188Y-82853518D01*
X113789928Y-82978000D01*
X113286072Y-82978000D01*
X113273812Y-82853518D01*
X113237502Y-82733820D01*
X113178537Y-82623506D01*
X113099185Y-82526815D01*
X113002494Y-82447463D01*
X112892180Y-82388498D01*
X112772482Y-82352188D01*
X112648000Y-82339928D01*
X111888000Y-82339928D01*
X111763518Y-82352188D01*
X111643820Y-82388498D01*
X111633000Y-82394282D01*
X111622180Y-82388498D01*
X111502482Y-82352188D01*
X111378000Y-82339928D01*
X110618000Y-82339928D01*
X110493518Y-82352188D01*
X110373820Y-82388498D01*
X110263506Y-82447463D01*
X110166815Y-82526815D01*
X110087463Y-82623506D01*
X110028498Y-82733820D01*
X109992188Y-82853518D01*
X109979928Y-82978000D01*
X109979928Y-83678794D01*
X109820089Y-83647000D01*
X109635911Y-83647000D01*
X109455271Y-83682932D01*
X109285111Y-83753414D01*
X109283545Y-83754460D01*
X109332272Y-80489760D01*
X109351799Y-80315859D01*
X109399928Y-80163318D01*
X109399928Y-81478000D01*
X109412188Y-81602482D01*
X109448498Y-81722180D01*
X109507463Y-81832494D01*
X109586815Y-81929185D01*
X109683506Y-82008537D01*
X109793820Y-82067502D01*
X109913518Y-82103812D01*
X110038000Y-82116072D01*
X117038000Y-82116072D01*
X117162482Y-82103812D01*
X117282180Y-82067502D01*
X117392494Y-82008537D01*
X117489185Y-81929185D01*
X117568537Y-81832494D01*
X117627502Y-81722180D01*
X117663812Y-81602482D01*
X117671246Y-81527000D01*
X128846928Y-81527000D01*
X128859188Y-81651482D01*
X128895498Y-81771180D01*
X128954463Y-81881494D01*
X129033815Y-81978185D01*
X129130506Y-82057537D01*
X129240820Y-82116502D01*
X129360518Y-82152812D01*
X129485000Y-82165072D01*
X130524250Y-82162000D01*
X130683000Y-82003250D01*
X130683000Y-81029000D01*
X130937000Y-81029000D01*
X130937000Y-82003250D01*
X131095750Y-82162000D01*
X132135000Y-82165072D01*
X132259482Y-82152812D01*
X132379180Y-82116502D01*
X132489494Y-82057537D01*
X132586185Y-81978185D01*
X132665537Y-81881494D01*
X132724502Y-81771180D01*
X132760812Y-81651482D01*
X132773072Y-81527000D01*
X132770000Y-81187750D01*
X132611250Y-81029000D01*
X130937000Y-81029000D01*
X130683000Y-81029000D01*
X129008750Y-81029000D01*
X128850000Y-81187750D01*
X128846928Y-81527000D01*
X117671246Y-81527000D01*
X117676072Y-81478000D01*
X117676072Y-80277000D01*
X128846928Y-80277000D01*
X128850000Y-80616250D01*
X129008750Y-80775000D01*
X130683000Y-80775000D01*
X130683000Y-79800750D01*
X130937000Y-79800750D01*
X130937000Y-80775000D01*
X132611250Y-80775000D01*
X132770000Y-80616250D01*
X132773072Y-80277000D01*
X132760812Y-80152518D01*
X132724502Y-80032820D01*
X132665537Y-79922506D01*
X132586185Y-79825815D01*
X132489494Y-79746463D01*
X132379180Y-79687498D01*
X132259482Y-79651188D01*
X132135000Y-79638928D01*
X131095750Y-79642000D01*
X130937000Y-79800750D01*
X130683000Y-79800750D01*
X130524250Y-79642000D01*
X129485000Y-79638928D01*
X129360518Y-79651188D01*
X129240820Y-79687498D01*
X129130506Y-79746463D01*
X129033815Y-79825815D01*
X128954463Y-79922506D01*
X128895498Y-80032820D01*
X128859188Y-80152518D01*
X128846928Y-80277000D01*
X117676072Y-80277000D01*
X117676072Y-79582793D01*
X139090636Y-79465774D01*
X138766920Y-79682074D01*
X138365074Y-80083920D01*
X138049346Y-80556440D01*
X137831869Y-81081477D01*
X137721000Y-81638852D01*
X137721000Y-82207148D01*
X137831869Y-82764523D01*
X138049346Y-83289560D01*
X138365074Y-83762080D01*
X138766920Y-84163926D01*
X139239440Y-84479654D01*
X139764477Y-84697131D01*
X140321852Y-84808000D01*
X140890148Y-84808000D01*
X141447523Y-84697131D01*
X141972560Y-84479654D01*
X142445080Y-84163926D01*
X142846926Y-83762080D01*
X143162654Y-83289560D01*
X143380131Y-82764523D01*
X143491000Y-82207148D01*
X143491000Y-81638852D01*
X143386235Y-81112162D01*
X148571000Y-81112162D01*
X148571000Y-81813837D01*
X148585976Y-81965894D01*
X148645159Y-82160992D01*
X148741266Y-82340797D01*
X148808728Y-82423000D01*
X148741266Y-82505203D01*
X148645159Y-82685008D01*
X148585976Y-82880106D01*
X148571000Y-83032163D01*
X148571000Y-83733838D01*
X148585976Y-83885895D01*
X148645160Y-84080993D01*
X148741267Y-84260797D01*
X148870605Y-84418396D01*
X149028204Y-84547734D01*
X149208008Y-84643841D01*
X149403106Y-84703024D01*
X149606000Y-84723007D01*
X149808895Y-84703024D01*
X150003993Y-84643841D01*
X150183797Y-84547734D01*
X150241001Y-84500788D01*
X150298204Y-84547734D01*
X150478008Y-84643841D01*
X150673106Y-84703024D01*
X150876000Y-84723007D01*
X151078895Y-84703024D01*
X151273993Y-84643841D01*
X151453797Y-84547734D01*
X151511001Y-84500788D01*
X151568204Y-84547734D01*
X151748008Y-84643841D01*
X151943106Y-84703024D01*
X152146000Y-84723007D01*
X152348895Y-84703024D01*
X152543993Y-84643841D01*
X152723797Y-84547734D01*
X152781001Y-84500788D01*
X152838204Y-84547734D01*
X153018008Y-84643841D01*
X153213106Y-84703024D01*
X153416000Y-84723007D01*
X153618895Y-84703024D01*
X153813993Y-84643841D01*
X153993797Y-84547734D01*
X154045267Y-84505494D01*
X154216582Y-84614128D01*
X154399877Y-84677666D01*
X154559000Y-84549998D01*
X154559000Y-83510000D01*
X154539000Y-83510000D01*
X154539000Y-83256000D01*
X154559000Y-83256000D01*
X154559000Y-81590000D01*
X154539000Y-81590000D01*
X154539000Y-81336000D01*
X154559000Y-81336000D01*
X154559000Y-80296002D01*
X154399877Y-80168334D01*
X154216582Y-80231872D01*
X154045267Y-80340506D01*
X153993797Y-80298266D01*
X153813993Y-80202159D01*
X153618895Y-80142976D01*
X153416000Y-80122993D01*
X153213106Y-80142976D01*
X153018008Y-80202159D01*
X152838204Y-80298266D01*
X152781001Y-80345212D01*
X152723797Y-80298266D01*
X152543993Y-80202159D01*
X152348895Y-80142976D01*
X152146000Y-80122993D01*
X151943106Y-80142976D01*
X151748008Y-80202159D01*
X151568204Y-80298266D01*
X151511001Y-80345212D01*
X151453797Y-80298266D01*
X151273993Y-80202159D01*
X151078895Y-80142976D01*
X150876000Y-80122993D01*
X150673106Y-80142976D01*
X150478008Y-80202159D01*
X150298204Y-80298266D01*
X150241001Y-80345212D01*
X150183797Y-80298266D01*
X150003993Y-80202159D01*
X149808895Y-80142976D01*
X149606000Y-80122993D01*
X149403106Y-80142976D01*
X149208008Y-80202159D01*
X149028204Y-80298266D01*
X148870605Y-80427604D01*
X148741267Y-80585203D01*
X148645160Y-80765007D01*
X148585976Y-80960105D01*
X148571000Y-81112162D01*
X143386235Y-81112162D01*
X143380131Y-81081477D01*
X143162654Y-80556440D01*
X142846926Y-80083920D01*
X142445080Y-79682074D01*
X142096779Y-79449347D01*
X154690963Y-79380526D01*
X154868103Y-79397058D01*
G37*
X154868103Y-79397058D02*
X155032541Y-79446143D01*
X155184186Y-79526468D01*
X155317180Y-79634931D01*
X155426365Y-79767328D01*
X155507517Y-79918529D01*
X155557503Y-80082705D01*
X155575000Y-80259737D01*
X155575000Y-80623125D01*
X155476013Y-80482388D01*
X155328052Y-80341342D01*
X155155418Y-80231872D01*
X154972123Y-80168334D01*
X154813000Y-80296002D01*
X154813000Y-81336000D01*
X154833000Y-81336000D01*
X154833000Y-81590000D01*
X154813000Y-81590000D01*
X154813000Y-83256000D01*
X154833000Y-83256000D01*
X154833000Y-83510000D01*
X154813000Y-83510000D01*
X154813000Y-84549998D01*
X154972123Y-84677666D01*
X155155418Y-84614128D01*
X155328052Y-84504658D01*
X155476013Y-84363612D01*
X155575000Y-84222875D01*
X155575000Y-86877766D01*
X155557624Y-87054189D01*
X155507978Y-87217850D01*
X155427362Y-87368672D01*
X155318870Y-87500870D01*
X155186672Y-87609362D01*
X155035850Y-87689978D01*
X154872189Y-87739624D01*
X154695766Y-87757000D01*
X113770367Y-87757000D01*
X113768494Y-87755463D01*
X113658180Y-87696498D01*
X113538482Y-87660188D01*
X113414000Y-87647928D01*
X113299750Y-87651000D01*
X113193750Y-87757000D01*
X112834250Y-87757000D01*
X112728250Y-87651000D01*
X112614000Y-87647928D01*
X112489518Y-87660188D01*
X112369820Y-87696498D01*
X112259506Y-87755463D01*
X112257633Y-87757000D01*
X111899000Y-87757000D01*
X111899000Y-87457829D01*
X111972313Y-87435589D01*
X112126059Y-87353411D01*
X112260817Y-87242817D01*
X112288534Y-87209044D01*
X112863050Y-86634529D01*
X112896817Y-86606817D01*
X113007411Y-86472059D01*
X113089589Y-86318313D01*
X113140195Y-86151490D01*
X113153000Y-86021477D01*
X113153000Y-86021469D01*
X113157281Y-85978000D01*
X113153000Y-85934531D01*
X113153000Y-85863611D01*
X113178537Y-85832494D01*
X113237502Y-85722180D01*
X113273812Y-85602482D01*
X113286072Y-85478000D01*
X113789928Y-85478000D01*
X113802188Y-85602482D01*
X113838498Y-85722180D01*
X113897463Y-85832494D01*
X113976815Y-85929185D01*
X114073506Y-86008537D01*
X114183820Y-86067502D01*
X114303518Y-86103812D01*
X114428000Y-86116072D01*
X114522250Y-86113000D01*
X114681000Y-85954250D01*
X114681000Y-84355000D01*
X113951750Y-84355000D01*
X113793000Y-84513750D01*
X113789928Y-85478000D01*
X113286072Y-85478000D01*
X113286072Y-82978000D01*
X113789928Y-82978000D01*
X113793000Y-83942250D01*
X113951750Y-84101000D01*
X114681000Y-84101000D01*
X114681000Y-82501750D01*
X114935000Y-82501750D01*
X114935000Y-84101000D01*
X114955000Y-84101000D01*
X114955000Y-84355000D01*
X114935000Y-84355000D01*
X114935000Y-85954250D01*
X115093750Y-86113000D01*
X115188000Y-86116072D01*
X115312482Y-86103812D01*
X115432180Y-86067502D01*
X115443000Y-86061718D01*
X115453820Y-86067502D01*
X115573518Y-86103812D01*
X115698000Y-86116072D01*
X116458000Y-86116072D01*
X116582482Y-86103812D01*
X116702180Y-86067502D01*
X116812494Y-86008537D01*
X116909185Y-85929185D01*
X116988537Y-85832494D01*
X117047502Y-85722180D01*
X117083812Y-85602482D01*
X117096072Y-85478000D01*
X117096072Y-82978000D01*
X117083812Y-82853518D01*
X117047502Y-82733820D01*
X116988537Y-82623506D01*
X116909185Y-82526815D01*
X116812494Y-82447463D01*
X116702180Y-82388498D01*
X116582482Y-82352188D01*
X116458000Y-82339928D01*
X115698000Y-82339928D01*
X115573518Y-82352188D01*
X115453820Y-82388498D01*
X115443000Y-82394282D01*
X115432180Y-82388498D01*
X115312482Y-82352188D01*
X115188000Y-82339928D01*
X115093750Y-82343000D01*
X114935000Y-82501750D01*
X114681000Y-82501750D01*
X114522250Y-82343000D01*
X114428000Y-82339928D01*
X114303518Y-82352188D01*
X114183820Y-82388498D01*
X114073506Y-82447463D01*
X113976815Y-82526815D01*
X113897463Y-82623506D01*
X113838498Y-82733820D01*
X113802188Y-82853518D01*
X113789928Y-82978000D01*
X113286072Y-82978000D01*
X113273812Y-82853518D01*
X113237502Y-82733820D01*
X113178537Y-82623506D01*
X113099185Y-82526815D01*
X113002494Y-82447463D01*
X112892180Y-82388498D01*
X112772482Y-82352188D01*
X112648000Y-82339928D01*
X111888000Y-82339928D01*
X111763518Y-82352188D01*
X111643820Y-82388498D01*
X111633000Y-82394282D01*
X111622180Y-82388498D01*
X111502482Y-82352188D01*
X111378000Y-82339928D01*
X110618000Y-82339928D01*
X110493518Y-82352188D01*
X110373820Y-82388498D01*
X110263506Y-82447463D01*
X110166815Y-82526815D01*
X110087463Y-82623506D01*
X110028498Y-82733820D01*
X109992188Y-82853518D01*
X109979928Y-82978000D01*
X109979928Y-83678794D01*
X109820089Y-83647000D01*
X109635911Y-83647000D01*
X109455271Y-83682932D01*
X109285111Y-83753414D01*
X109283545Y-83754460D01*
X109332272Y-80489760D01*
X109351799Y-80315859D01*
X109399928Y-80163318D01*
X109399928Y-81478000D01*
X109412188Y-81602482D01*
X109448498Y-81722180D01*
X109507463Y-81832494D01*
X109586815Y-81929185D01*
X109683506Y-82008537D01*
X109793820Y-82067502D01*
X109913518Y-82103812D01*
X110038000Y-82116072D01*
X117038000Y-82116072D01*
X117162482Y-82103812D01*
X117282180Y-82067502D01*
X117392494Y-82008537D01*
X117489185Y-81929185D01*
X117568537Y-81832494D01*
X117627502Y-81722180D01*
X117663812Y-81602482D01*
X117671246Y-81527000D01*
X128846928Y-81527000D01*
X128859188Y-81651482D01*
X128895498Y-81771180D01*
X128954463Y-81881494D01*
X129033815Y-81978185D01*
X129130506Y-82057537D01*
X129240820Y-82116502D01*
X129360518Y-82152812D01*
X129485000Y-82165072D01*
X130524250Y-82162000D01*
X130683000Y-82003250D01*
X130683000Y-81029000D01*
X130937000Y-81029000D01*
X130937000Y-82003250D01*
X131095750Y-82162000D01*
X132135000Y-82165072D01*
X132259482Y-82152812D01*
X132379180Y-82116502D01*
X132489494Y-82057537D01*
X132586185Y-81978185D01*
X132665537Y-81881494D01*
X132724502Y-81771180D01*
X132760812Y-81651482D01*
X132773072Y-81527000D01*
X132770000Y-81187750D01*
X132611250Y-81029000D01*
X130937000Y-81029000D01*
X130683000Y-81029000D01*
X129008750Y-81029000D01*
X128850000Y-81187750D01*
X128846928Y-81527000D01*
X117671246Y-81527000D01*
X117676072Y-81478000D01*
X117676072Y-80277000D01*
X128846928Y-80277000D01*
X128850000Y-80616250D01*
X129008750Y-80775000D01*
X130683000Y-80775000D01*
X130683000Y-79800750D01*
X130937000Y-79800750D01*
X130937000Y-80775000D01*
X132611250Y-80775000D01*
X132770000Y-80616250D01*
X132773072Y-80277000D01*
X132760812Y-80152518D01*
X132724502Y-80032820D01*
X132665537Y-79922506D01*
X132586185Y-79825815D01*
X132489494Y-79746463D01*
X132379180Y-79687498D01*
X132259482Y-79651188D01*
X132135000Y-79638928D01*
X131095750Y-79642000D01*
X130937000Y-79800750D01*
X130683000Y-79800750D01*
X130524250Y-79642000D01*
X129485000Y-79638928D01*
X129360518Y-79651188D01*
X129240820Y-79687498D01*
X129130506Y-79746463D01*
X129033815Y-79825815D01*
X128954463Y-79922506D01*
X128895498Y-80032820D01*
X128859188Y-80152518D01*
X128846928Y-80277000D01*
X117676072Y-80277000D01*
X117676072Y-79582793D01*
X139090636Y-79465774D01*
X138766920Y-79682074D01*
X138365074Y-80083920D01*
X138049346Y-80556440D01*
X137831869Y-81081477D01*
X137721000Y-81638852D01*
X137721000Y-82207148D01*
X137831869Y-82764523D01*
X138049346Y-83289560D01*
X138365074Y-83762080D01*
X138766920Y-84163926D01*
X139239440Y-84479654D01*
X139764477Y-84697131D01*
X140321852Y-84808000D01*
X140890148Y-84808000D01*
X141447523Y-84697131D01*
X141972560Y-84479654D01*
X142445080Y-84163926D01*
X142846926Y-83762080D01*
X143162654Y-83289560D01*
X143380131Y-82764523D01*
X143491000Y-82207148D01*
X143491000Y-81638852D01*
X143386235Y-81112162D01*
X148571000Y-81112162D01*
X148571000Y-81813837D01*
X148585976Y-81965894D01*
X148645159Y-82160992D01*
X148741266Y-82340797D01*
X148808728Y-82423000D01*
X148741266Y-82505203D01*
X148645159Y-82685008D01*
X148585976Y-82880106D01*
X148571000Y-83032163D01*
X148571000Y-83733838D01*
X148585976Y-83885895D01*
X148645160Y-84080993D01*
X148741267Y-84260797D01*
X148870605Y-84418396D01*
X149028204Y-84547734D01*
X149208008Y-84643841D01*
X149403106Y-84703024D01*
X149606000Y-84723007D01*
X149808895Y-84703024D01*
X150003993Y-84643841D01*
X150183797Y-84547734D01*
X150241001Y-84500788D01*
X150298204Y-84547734D01*
X150478008Y-84643841D01*
X150673106Y-84703024D01*
X150876000Y-84723007D01*
X151078895Y-84703024D01*
X151273993Y-84643841D01*
X151453797Y-84547734D01*
X151511001Y-84500788D01*
X151568204Y-84547734D01*
X151748008Y-84643841D01*
X151943106Y-84703024D01*
X152146000Y-84723007D01*
X152348895Y-84703024D01*
X152543993Y-84643841D01*
X152723797Y-84547734D01*
X152781001Y-84500788D01*
X152838204Y-84547734D01*
X153018008Y-84643841D01*
X153213106Y-84703024D01*
X153416000Y-84723007D01*
X153618895Y-84703024D01*
X153813993Y-84643841D01*
X153993797Y-84547734D01*
X154045267Y-84505494D01*
X154216582Y-84614128D01*
X154399877Y-84677666D01*
X154559000Y-84549998D01*
X154559000Y-83510000D01*
X154539000Y-83510000D01*
X154539000Y-83256000D01*
X154559000Y-83256000D01*
X154559000Y-81590000D01*
X154539000Y-81590000D01*
X154539000Y-81336000D01*
X154559000Y-81336000D01*
X154559000Y-80296002D01*
X154399877Y-80168334D01*
X154216582Y-80231872D01*
X154045267Y-80340506D01*
X153993797Y-80298266D01*
X153813993Y-80202159D01*
X153618895Y-80142976D01*
X153416000Y-80122993D01*
X153213106Y-80142976D01*
X153018008Y-80202159D01*
X152838204Y-80298266D01*
X152781001Y-80345212D01*
X152723797Y-80298266D01*
X152543993Y-80202159D01*
X152348895Y-80142976D01*
X152146000Y-80122993D01*
X151943106Y-80142976D01*
X151748008Y-80202159D01*
X151568204Y-80298266D01*
X151511001Y-80345212D01*
X151453797Y-80298266D01*
X151273993Y-80202159D01*
X151078895Y-80142976D01*
X150876000Y-80122993D01*
X150673106Y-80142976D01*
X150478008Y-80202159D01*
X150298204Y-80298266D01*
X150241001Y-80345212D01*
X150183797Y-80298266D01*
X150003993Y-80202159D01*
X149808895Y-80142976D01*
X149606000Y-80122993D01*
X149403106Y-80142976D01*
X149208008Y-80202159D01*
X149028204Y-80298266D01*
X148870605Y-80427604D01*
X148741267Y-80585203D01*
X148645160Y-80765007D01*
X148585976Y-80960105D01*
X148571000Y-81112162D01*
X143386235Y-81112162D01*
X143380131Y-81081477D01*
X143162654Y-80556440D01*
X142846926Y-80083920D01*
X142445080Y-79682074D01*
X142096779Y-79449347D01*
X154690963Y-79380526D01*
X154868103Y-79397058D01*
G36*
X154869114Y-88793897D02*
G01*
X155033356Y-88843120D01*
X155184802Y-88923520D01*
X155317598Y-89031989D01*
X155426609Y-89164334D01*
X155507632Y-89315448D01*
X155557533Y-89479492D01*
X155575000Y-89656377D01*
X155575000Y-90529125D01*
X155476013Y-90388388D01*
X155328052Y-90247342D01*
X155155418Y-90137872D01*
X154972123Y-90074334D01*
X154813000Y-90202002D01*
X154813000Y-91242000D01*
X154833000Y-91242000D01*
X154833000Y-91496000D01*
X154813000Y-91496000D01*
X154813000Y-93162000D01*
X154833000Y-93162000D01*
X154833000Y-93416000D01*
X154813000Y-93416000D01*
X154813000Y-93436000D01*
X154559000Y-93436000D01*
X154559000Y-93416000D01*
X154539000Y-93416000D01*
X154539000Y-93162000D01*
X154559000Y-93162000D01*
X154559000Y-91496000D01*
X154539000Y-91496000D01*
X154539000Y-91242000D01*
X154559000Y-91242000D01*
X154559000Y-90202002D01*
X154399877Y-90074334D01*
X154216582Y-90137872D01*
X154045267Y-90246506D01*
X153993797Y-90204266D01*
X153813992Y-90108159D01*
X153618894Y-90048976D01*
X153416000Y-90028993D01*
X153213105Y-90048976D01*
X153018007Y-90108159D01*
X152838203Y-90204266D01*
X152781000Y-90251211D01*
X152723797Y-90204266D01*
X152543992Y-90108159D01*
X152348894Y-90048976D01*
X152146000Y-90028993D01*
X151943105Y-90048976D01*
X151748007Y-90108159D01*
X151568203Y-90204266D01*
X151511000Y-90251211D01*
X151453797Y-90204266D01*
X151273992Y-90108159D01*
X151078894Y-90048976D01*
X150876000Y-90028993D01*
X150673105Y-90048976D01*
X150478007Y-90108159D01*
X150298203Y-90204266D01*
X150241000Y-90251211D01*
X150183797Y-90204266D01*
X150003992Y-90108159D01*
X149808894Y-90048976D01*
X149606000Y-90028993D01*
X149403105Y-90048976D01*
X149208007Y-90108159D01*
X149028203Y-90204266D01*
X148870604Y-90333604D01*
X148741266Y-90491203D01*
X148645159Y-90671008D01*
X148585976Y-90866106D01*
X148571000Y-91018163D01*
X148571000Y-91719838D01*
X148585976Y-91871895D01*
X148645160Y-92066993D01*
X148741267Y-92246797D01*
X148808729Y-92329000D01*
X148741267Y-92411203D01*
X148645160Y-92591007D01*
X148585976Y-92786105D01*
X148571000Y-92938162D01*
X148571000Y-93639837D01*
X148585976Y-93791894D01*
X148645159Y-93986992D01*
X148741266Y-94166797D01*
X148870604Y-94324396D01*
X149028203Y-94453734D01*
X149208007Y-94549841D01*
X149403105Y-94609024D01*
X149463782Y-94615000D01*
X101692221Y-94615000D01*
X101737068Y-94506729D01*
X101773000Y-94326089D01*
X101773000Y-94141911D01*
X101737068Y-93961271D01*
X101666586Y-93791111D01*
X101564262Y-93637972D01*
X101434028Y-93507738D01*
X101280889Y-93405414D01*
X101110729Y-93334932D01*
X100930089Y-93299000D01*
X100745911Y-93299000D01*
X100565271Y-93334932D01*
X100395111Y-93405414D01*
X100292465Y-93474000D01*
X99469970Y-93474000D01*
X99460310Y-93466072D01*
X100056000Y-93466072D01*
X100180482Y-93453812D01*
X100300180Y-93417502D01*
X100410494Y-93358537D01*
X100507185Y-93279185D01*
X100586537Y-93182494D01*
X100610320Y-93138000D01*
X100624678Y-93138000D01*
X100662000Y-93141676D01*
X100699322Y-93138000D01*
X100699333Y-93138000D01*
X100733848Y-93134601D01*
X100745911Y-93137000D01*
X100930089Y-93137000D01*
X101110729Y-93101068D01*
X101280889Y-93030586D01*
X101434028Y-92928262D01*
X101564262Y-92798028D01*
X101666586Y-92644889D01*
X101737068Y-92474729D01*
X101773000Y-92294089D01*
X101773000Y-92109911D01*
X101737068Y-91929271D01*
X101666586Y-91759111D01*
X101564262Y-91605972D01*
X101434028Y-91475738D01*
X101280889Y-91373414D01*
X101110729Y-91302932D01*
X100930089Y-91267000D01*
X100745911Y-91267000D01*
X100565271Y-91302932D01*
X100395111Y-91373414D01*
X100381952Y-91382207D01*
X100300180Y-91338498D01*
X100180482Y-91302188D01*
X100056000Y-91289928D01*
X99720453Y-91289928D01*
X99731812Y-91252482D01*
X99744072Y-91128000D01*
X99744072Y-90228000D01*
X99731812Y-90103518D01*
X99695502Y-89983820D01*
X99636537Y-89873506D01*
X99566000Y-89787556D01*
X99566000Y-89004013D01*
X109975928Y-88961174D01*
X109975928Y-89286000D01*
X109988188Y-89410482D01*
X110024498Y-89530180D01*
X110083463Y-89640494D01*
X110162815Y-89737185D01*
X110259506Y-89816537D01*
X110369820Y-89875502D01*
X110466703Y-89904891D01*
X110450202Y-89924997D01*
X110450201Y-89924998D01*
X110379026Y-90011724D01*
X110319271Y-90123518D01*
X110259506Y-90155463D01*
X110162815Y-90234815D01*
X110083463Y-90331506D01*
X110024498Y-90441820D01*
X109988188Y-90561518D01*
X109975928Y-90686000D01*
X109975928Y-91686000D01*
X109988188Y-91810482D01*
X110024498Y-91930180D01*
X110083463Y-92040494D01*
X110162815Y-92137185D01*
X110259506Y-92216537D01*
X110369820Y-92275502D01*
X110489518Y-92311812D01*
X110614000Y-92324072D01*
X111414000Y-92324072D01*
X111538482Y-92311812D01*
X111539000Y-92311655D01*
X111539518Y-92311812D01*
X111664000Y-92324072D01*
X112364000Y-92324072D01*
X112488482Y-92311812D01*
X112489000Y-92311655D01*
X112489518Y-92311812D01*
X112614000Y-92324072D01*
X112728250Y-92321000D01*
X112887000Y-92162250D01*
X112887000Y-92049678D01*
X112894537Y-92040494D01*
X112953502Y-91930180D01*
X112989812Y-91810482D01*
X113002072Y-91686000D01*
X113002072Y-91313000D01*
X113141000Y-91313000D01*
X113141000Y-92162250D01*
X113299750Y-92321000D01*
X113414000Y-92324072D01*
X113538482Y-92311812D01*
X113658180Y-92275502D01*
X113768494Y-92216537D01*
X113865185Y-92137185D01*
X113944537Y-92040494D01*
X114003502Y-91930180D01*
X114039812Y-91810482D01*
X114052072Y-91686000D01*
X114049000Y-91471750D01*
X113890250Y-91313000D01*
X113141000Y-91313000D01*
X113002072Y-91313000D01*
X113002072Y-91039000D01*
X113141000Y-91039000D01*
X113141000Y-91059000D01*
X113890250Y-91059000D01*
X114049000Y-90900250D01*
X114052072Y-90686000D01*
X114039812Y-90561518D01*
X114003502Y-90441820D01*
X113944537Y-90331506D01*
X113865185Y-90234815D01*
X113768494Y-90155463D01*
X113744329Y-90142546D01*
X113763003Y-90080986D01*
X113774000Y-89969333D01*
X113774000Y-89969323D01*
X113777676Y-89932000D01*
X113774000Y-89894677D01*
X113774000Y-89812018D01*
X113865185Y-89737185D01*
X113944537Y-89640494D01*
X114003502Y-89530180D01*
X114039812Y-89410482D01*
X114052072Y-89286000D01*
X114052072Y-88944400D01*
X154692149Y-88777157D01*
X154869114Y-88793897D01*
G37*
X154869114Y-88793897D02*
X155033356Y-88843120D01*
X155184802Y-88923520D01*
X155317598Y-89031989D01*
X155426609Y-89164334D01*
X155507632Y-89315448D01*
X155557533Y-89479492D01*
X155575000Y-89656377D01*
X155575000Y-90529125D01*
X155476013Y-90388388D01*
X155328052Y-90247342D01*
X155155418Y-90137872D01*
X154972123Y-90074334D01*
X154813000Y-90202002D01*
X154813000Y-91242000D01*
X154833000Y-91242000D01*
X154833000Y-91496000D01*
X154813000Y-91496000D01*
X154813000Y-93162000D01*
X154833000Y-93162000D01*
X154833000Y-93416000D01*
X154813000Y-93416000D01*
X154813000Y-93436000D01*
X154559000Y-93436000D01*
X154559000Y-93416000D01*
X154539000Y-93416000D01*
X154539000Y-93162000D01*
X154559000Y-93162000D01*
X154559000Y-91496000D01*
X154539000Y-91496000D01*
X154539000Y-91242000D01*
X154559000Y-91242000D01*
X154559000Y-90202002D01*
X154399877Y-90074334D01*
X154216582Y-90137872D01*
X154045267Y-90246506D01*
X153993797Y-90204266D01*
X153813992Y-90108159D01*
X153618894Y-90048976D01*
X153416000Y-90028993D01*
X153213105Y-90048976D01*
X153018007Y-90108159D01*
X152838203Y-90204266D01*
X152781000Y-90251211D01*
X152723797Y-90204266D01*
X152543992Y-90108159D01*
X152348894Y-90048976D01*
X152146000Y-90028993D01*
X151943105Y-90048976D01*
X151748007Y-90108159D01*
X151568203Y-90204266D01*
X151511000Y-90251211D01*
X151453797Y-90204266D01*
X151273992Y-90108159D01*
X151078894Y-90048976D01*
X150876000Y-90028993D01*
X150673105Y-90048976D01*
X150478007Y-90108159D01*
X150298203Y-90204266D01*
X150241000Y-90251211D01*
X150183797Y-90204266D01*
X150003992Y-90108159D01*
X149808894Y-90048976D01*
X149606000Y-90028993D01*
X149403105Y-90048976D01*
X149208007Y-90108159D01*
X149028203Y-90204266D01*
X148870604Y-90333604D01*
X148741266Y-90491203D01*
X148645159Y-90671008D01*
X148585976Y-90866106D01*
X148571000Y-91018163D01*
X148571000Y-91719838D01*
X148585976Y-91871895D01*
X148645160Y-92066993D01*
X148741267Y-92246797D01*
X148808729Y-92329000D01*
X148741267Y-92411203D01*
X148645160Y-92591007D01*
X148585976Y-92786105D01*
X148571000Y-92938162D01*
X148571000Y-93639837D01*
X148585976Y-93791894D01*
X148645159Y-93986992D01*
X148741266Y-94166797D01*
X148870604Y-94324396D01*
X149028203Y-94453734D01*
X149208007Y-94549841D01*
X149403105Y-94609024D01*
X149463782Y-94615000D01*
X101692221Y-94615000D01*
X101737068Y-94506729D01*
X101773000Y-94326089D01*
X101773000Y-94141911D01*
X101737068Y-93961271D01*
X101666586Y-93791111D01*
X101564262Y-93637972D01*
X101434028Y-93507738D01*
X101280889Y-93405414D01*
X101110729Y-93334932D01*
X100930089Y-93299000D01*
X100745911Y-93299000D01*
X100565271Y-93334932D01*
X100395111Y-93405414D01*
X100292465Y-93474000D01*
X99469970Y-93474000D01*
X99460310Y-93466072D01*
X100056000Y-93466072D01*
X100180482Y-93453812D01*
X100300180Y-93417502D01*
X100410494Y-93358537D01*
X100507185Y-93279185D01*
X100586537Y-93182494D01*
X100610320Y-93138000D01*
X100624678Y-93138000D01*
X100662000Y-93141676D01*
X100699322Y-93138000D01*
X100699333Y-93138000D01*
X100733848Y-93134601D01*
X100745911Y-93137000D01*
X100930089Y-93137000D01*
X101110729Y-93101068D01*
X101280889Y-93030586D01*
X101434028Y-92928262D01*
X101564262Y-92798028D01*
X101666586Y-92644889D01*
X101737068Y-92474729D01*
X101773000Y-92294089D01*
X101773000Y-92109911D01*
X101737068Y-91929271D01*
X101666586Y-91759111D01*
X101564262Y-91605972D01*
X101434028Y-91475738D01*
X101280889Y-91373414D01*
X101110729Y-91302932D01*
X100930089Y-91267000D01*
X100745911Y-91267000D01*
X100565271Y-91302932D01*
X100395111Y-91373414D01*
X100381952Y-91382207D01*
X100300180Y-91338498D01*
X100180482Y-91302188D01*
X100056000Y-91289928D01*
X99720453Y-91289928D01*
X99731812Y-91252482D01*
X99744072Y-91128000D01*
X99744072Y-90228000D01*
X99731812Y-90103518D01*
X99695502Y-89983820D01*
X99636537Y-89873506D01*
X99566000Y-89787556D01*
X99566000Y-89004013D01*
X109975928Y-88961174D01*
X109975928Y-89286000D01*
X109988188Y-89410482D01*
X110024498Y-89530180D01*
X110083463Y-89640494D01*
X110162815Y-89737185D01*
X110259506Y-89816537D01*
X110369820Y-89875502D01*
X110466703Y-89904891D01*
X110450202Y-89924997D01*
X110450201Y-89924998D01*
X110379026Y-90011724D01*
X110319271Y-90123518D01*
X110259506Y-90155463D01*
X110162815Y-90234815D01*
X110083463Y-90331506D01*
X110024498Y-90441820D01*
X109988188Y-90561518D01*
X109975928Y-90686000D01*
X109975928Y-91686000D01*
X109988188Y-91810482D01*
X110024498Y-91930180D01*
X110083463Y-92040494D01*
X110162815Y-92137185D01*
X110259506Y-92216537D01*
X110369820Y-92275502D01*
X110489518Y-92311812D01*
X110614000Y-92324072D01*
X111414000Y-92324072D01*
X111538482Y-92311812D01*
X111539000Y-92311655D01*
X111539518Y-92311812D01*
X111664000Y-92324072D01*
X112364000Y-92324072D01*
X112488482Y-92311812D01*
X112489000Y-92311655D01*
X112489518Y-92311812D01*
X112614000Y-92324072D01*
X112728250Y-92321000D01*
X112887000Y-92162250D01*
X112887000Y-92049678D01*
X112894537Y-92040494D01*
X112953502Y-91930180D01*
X112989812Y-91810482D01*
X113002072Y-91686000D01*
X113002072Y-91313000D01*
X113141000Y-91313000D01*
X113141000Y-92162250D01*
X113299750Y-92321000D01*
X113414000Y-92324072D01*
X113538482Y-92311812D01*
X113658180Y-92275502D01*
X113768494Y-92216537D01*
X113865185Y-92137185D01*
X113944537Y-92040494D01*
X114003502Y-91930180D01*
X114039812Y-91810482D01*
X114052072Y-91686000D01*
X114049000Y-91471750D01*
X113890250Y-91313000D01*
X113141000Y-91313000D01*
X113002072Y-91313000D01*
X113002072Y-91039000D01*
X113141000Y-91039000D01*
X113141000Y-91059000D01*
X113890250Y-91059000D01*
X114049000Y-90900250D01*
X114052072Y-90686000D01*
X114039812Y-90561518D01*
X114003502Y-90441820D01*
X113944537Y-90331506D01*
X113865185Y-90234815D01*
X113768494Y-90155463D01*
X113744329Y-90142546D01*
X113763003Y-90080986D01*
X113774000Y-89969333D01*
X113774000Y-89969323D01*
X113777676Y-89932000D01*
X113774000Y-89894677D01*
X113774000Y-89812018D01*
X113865185Y-89737185D01*
X113944537Y-89640494D01*
X114003502Y-89530180D01*
X114039812Y-89410482D01*
X114052072Y-89286000D01*
X114052072Y-88944400D01*
X154692149Y-88777157D01*
X154869114Y-88793897D01*
G36*
X98046000Y-89787556D02*
G01*
X97975463Y-89873506D01*
X97916498Y-89983820D01*
X97880188Y-90103518D01*
X97867928Y-90228000D01*
X97867928Y-91128000D01*
X97880188Y-91252482D01*
X97916498Y-91372180D01*
X97975463Y-91482494D01*
X97983000Y-91491678D01*
X97983000Y-92251000D01*
X98632250Y-92251000D01*
X98791000Y-92092250D01*
X98794072Y-91928000D01*
X98781812Y-91803518D01*
X98770453Y-91766072D01*
X98841547Y-91766072D01*
X98830188Y-91803518D01*
X98817928Y-91928000D01*
X98817928Y-92828000D01*
X98830188Y-92952482D01*
X98866498Y-93072180D01*
X98925463Y-93182494D01*
X99004815Y-93279185D01*
X99007304Y-93281227D01*
X98953500Y-93275928D01*
X98658500Y-93275928D01*
X98604696Y-93281227D01*
X98607185Y-93279185D01*
X98686537Y-93182494D01*
X98745502Y-93072180D01*
X98781812Y-92952482D01*
X98794072Y-92828000D01*
X98791000Y-92663750D01*
X98632250Y-92505000D01*
X97983000Y-92505000D01*
X97983000Y-93304250D01*
X98039750Y-93361000D01*
X97963000Y-93437750D01*
X97963000Y-93704237D01*
X97932726Y-93760875D01*
X97888023Y-93908243D01*
X97872928Y-94061500D01*
X97872928Y-94381000D01*
X97709000Y-94381000D01*
X97709000Y-94361000D01*
X97064750Y-94361000D01*
X96906000Y-94519750D01*
X96902928Y-94554000D01*
X96908936Y-94615000D01*
X96851751Y-94615000D01*
X96873741Y-94546474D01*
X96885000Y-94443750D01*
X96726250Y-94285000D01*
X96613678Y-94285000D01*
X96701185Y-94213185D01*
X96780537Y-94116494D01*
X96817032Y-94048218D01*
X96885000Y-93980250D01*
X96877739Y-93914000D01*
X96902928Y-93914000D01*
X96906000Y-93948250D01*
X97064750Y-94107000D01*
X97709000Y-94107000D01*
X97709000Y-93437750D01*
X97652250Y-93381000D01*
X97729000Y-93304250D01*
X97729000Y-92505000D01*
X97079750Y-92505000D01*
X96921000Y-92663750D01*
X96917928Y-92828000D01*
X96930188Y-92952482D01*
X96966498Y-93072180D01*
X97025463Y-93182494D01*
X97104815Y-93279185D01*
X97201506Y-93358537D01*
X97217322Y-93366991D01*
X97186506Y-93383463D01*
X97089815Y-93462815D01*
X97010463Y-93559506D01*
X96951498Y-93669820D01*
X96915188Y-93789518D01*
X96902928Y-93914000D01*
X96877739Y-93914000D01*
X96875012Y-93889120D01*
X96875812Y-93886482D01*
X96888072Y-93762000D01*
X96888072Y-93362000D01*
X96875812Y-93237518D01*
X96875655Y-93237000D01*
X96875812Y-93236482D01*
X96888072Y-93112000D01*
X96888072Y-92712000D01*
X96875812Y-92587518D01*
X96875655Y-92587000D01*
X96875812Y-92586482D01*
X96888072Y-92462000D01*
X96888072Y-92062000D01*
X96875812Y-91937518D01*
X96875655Y-91937000D01*
X96875812Y-91936482D01*
X96876647Y-91928000D01*
X96917928Y-91928000D01*
X96921000Y-92092250D01*
X97079750Y-92251000D01*
X97729000Y-92251000D01*
X97729000Y-91451750D01*
X97570250Y-91293000D01*
X97556000Y-91289928D01*
X97431518Y-91302188D01*
X97311820Y-91338498D01*
X97201506Y-91397463D01*
X97104815Y-91476815D01*
X97025463Y-91573506D01*
X96966498Y-91683820D01*
X96930188Y-91803518D01*
X96917928Y-91928000D01*
X96876647Y-91928000D01*
X96888072Y-91812000D01*
X96888072Y-91412000D01*
X96875812Y-91287518D01*
X96839502Y-91167820D01*
X96823028Y-91137000D01*
X96839502Y-91106180D01*
X96875812Y-90986482D01*
X96888072Y-90862000D01*
X96888072Y-89015034D01*
X98046000Y-89010269D01*
X98046000Y-89787556D01*
G37*
X98046000Y-89787556D02*
X97975463Y-89873506D01*
X97916498Y-89983820D01*
X97880188Y-90103518D01*
X97867928Y-90228000D01*
X97867928Y-91128000D01*
X97880188Y-91252482D01*
X97916498Y-91372180D01*
X97975463Y-91482494D01*
X97983000Y-91491678D01*
X97983000Y-92251000D01*
X98632250Y-92251000D01*
X98791000Y-92092250D01*
X98794072Y-91928000D01*
X98781812Y-91803518D01*
X98770453Y-91766072D01*
X98841547Y-91766072D01*
X98830188Y-91803518D01*
X98817928Y-91928000D01*
X98817928Y-92828000D01*
X98830188Y-92952482D01*
X98866498Y-93072180D01*
X98925463Y-93182494D01*
X99004815Y-93279185D01*
X99007304Y-93281227D01*
X98953500Y-93275928D01*
X98658500Y-93275928D01*
X98604696Y-93281227D01*
X98607185Y-93279185D01*
X98686537Y-93182494D01*
X98745502Y-93072180D01*
X98781812Y-92952482D01*
X98794072Y-92828000D01*
X98791000Y-92663750D01*
X98632250Y-92505000D01*
X97983000Y-92505000D01*
X97983000Y-93304250D01*
X98039750Y-93361000D01*
X97963000Y-93437750D01*
X97963000Y-93704237D01*
X97932726Y-93760875D01*
X97888023Y-93908243D01*
X97872928Y-94061500D01*
X97872928Y-94381000D01*
X97709000Y-94381000D01*
X97709000Y-94361000D01*
X97064750Y-94361000D01*
X96906000Y-94519750D01*
X96902928Y-94554000D01*
X96908936Y-94615000D01*
X96851751Y-94615000D01*
X96873741Y-94546474D01*
X96885000Y-94443750D01*
X96726250Y-94285000D01*
X96613678Y-94285000D01*
X96701185Y-94213185D01*
X96780537Y-94116494D01*
X96817032Y-94048218D01*
X96885000Y-93980250D01*
X96877739Y-93914000D01*
X96902928Y-93914000D01*
X96906000Y-93948250D01*
X97064750Y-94107000D01*
X97709000Y-94107000D01*
X97709000Y-93437750D01*
X97652250Y-93381000D01*
X97729000Y-93304250D01*
X97729000Y-92505000D01*
X97079750Y-92505000D01*
X96921000Y-92663750D01*
X96917928Y-92828000D01*
X96930188Y-92952482D01*
X96966498Y-93072180D01*
X97025463Y-93182494D01*
X97104815Y-93279185D01*
X97201506Y-93358537D01*
X97217322Y-93366991D01*
X97186506Y-93383463D01*
X97089815Y-93462815D01*
X97010463Y-93559506D01*
X96951498Y-93669820D01*
X96915188Y-93789518D01*
X96902928Y-93914000D01*
X96877739Y-93914000D01*
X96875012Y-93889120D01*
X96875812Y-93886482D01*
X96888072Y-93762000D01*
X96888072Y-93362000D01*
X96875812Y-93237518D01*
X96875655Y-93237000D01*
X96875812Y-93236482D01*
X96888072Y-93112000D01*
X96888072Y-92712000D01*
X96875812Y-92587518D01*
X96875655Y-92587000D01*
X96875812Y-92586482D01*
X96888072Y-92462000D01*
X96888072Y-92062000D01*
X96875812Y-91937518D01*
X96875655Y-91937000D01*
X96875812Y-91936482D01*
X96876647Y-91928000D01*
X96917928Y-91928000D01*
X96921000Y-92092250D01*
X97079750Y-92251000D01*
X97729000Y-92251000D01*
X97729000Y-91451750D01*
X97570250Y-91293000D01*
X97556000Y-91289928D01*
X97431518Y-91302188D01*
X97311820Y-91338498D01*
X97201506Y-91397463D01*
X97104815Y-91476815D01*
X97025463Y-91573506D01*
X96966498Y-91683820D01*
X96930188Y-91803518D01*
X96917928Y-91928000D01*
X96876647Y-91928000D01*
X96888072Y-91812000D01*
X96888072Y-91412000D01*
X96875812Y-91287518D01*
X96839502Y-91167820D01*
X96823028Y-91137000D01*
X96839502Y-91106180D01*
X96875812Y-90986482D01*
X96888072Y-90862000D01*
X96888072Y-89015034D01*
X98046000Y-89010269D01*
X98046000Y-89787556D01*
M02*
