G04 #@! TF.GenerationSoftware,KiCad,Pcbnew,(5.1.4)-1*
G04 #@! TF.CreationDate,2019-11-11T10:19:35+09:00*
G04 #@! TF.ProjectId,sig_sensor,7369675f-7365-46e7-936f-722e6b696361,rev?*
G04 #@! TF.SameCoordinates,Original*
G04 #@! TF.FileFunction,Copper,L2,Bot*
G04 #@! TF.FilePolarity,Positive*
%FSLAX46Y46*%
G04 Gerber Fmt 4.6, Leading zero omitted, Abs format (unit mm)*
G04 Created by KiCad (PCBNEW (5.1.4)-1) date 2019-11-11 10:19:35*
%MOMM*%
%LPD*%
G04 APERTURE LIST*
%ADD10R,0.350000X0.250000*%
%ADD11C,0.100000*%
%ADD12C,0.590000*%
%ADD13C,0.400000*%
%ADD14C,1.800000*%
%ADD15C,0.600000*%
%ADD16C,0.250000*%
%ADD17C,0.400000*%
G04 APERTURE END LIST*
D10*
X155291000Y-84050000D03*
X155291000Y-83050000D03*
X153941000Y-84050000D03*
X153941000Y-83550000D03*
X153941000Y-83050000D03*
D11*
G36*
X157286958Y-81706710D02*
G01*
X157301276Y-81708834D01*
X157315317Y-81712351D01*
X157328946Y-81717228D01*
X157342031Y-81723417D01*
X157354447Y-81730858D01*
X157366073Y-81739481D01*
X157376798Y-81749202D01*
X157386519Y-81759927D01*
X157395142Y-81771553D01*
X157402583Y-81783969D01*
X157408772Y-81797054D01*
X157413649Y-81810683D01*
X157417166Y-81824724D01*
X157419290Y-81839042D01*
X157420000Y-81853500D01*
X157420000Y-82198500D01*
X157419290Y-82212958D01*
X157417166Y-82227276D01*
X157413649Y-82241317D01*
X157408772Y-82254946D01*
X157402583Y-82268031D01*
X157395142Y-82280447D01*
X157386519Y-82292073D01*
X157376798Y-82302798D01*
X157366073Y-82312519D01*
X157354447Y-82321142D01*
X157342031Y-82328583D01*
X157328946Y-82334772D01*
X157315317Y-82339649D01*
X157301276Y-82343166D01*
X157286958Y-82345290D01*
X157272500Y-82346000D01*
X156977500Y-82346000D01*
X156963042Y-82345290D01*
X156948724Y-82343166D01*
X156934683Y-82339649D01*
X156921054Y-82334772D01*
X156907969Y-82328583D01*
X156895553Y-82321142D01*
X156883927Y-82312519D01*
X156873202Y-82302798D01*
X156863481Y-82292073D01*
X156854858Y-82280447D01*
X156847417Y-82268031D01*
X156841228Y-82254946D01*
X156836351Y-82241317D01*
X156832834Y-82227276D01*
X156830710Y-82212958D01*
X156830000Y-82198500D01*
X156830000Y-81853500D01*
X156830710Y-81839042D01*
X156832834Y-81824724D01*
X156836351Y-81810683D01*
X156841228Y-81797054D01*
X156847417Y-81783969D01*
X156854858Y-81771553D01*
X156863481Y-81759927D01*
X156873202Y-81749202D01*
X156883927Y-81739481D01*
X156895553Y-81730858D01*
X156907969Y-81723417D01*
X156921054Y-81717228D01*
X156934683Y-81712351D01*
X156948724Y-81708834D01*
X156963042Y-81706710D01*
X156977500Y-81706000D01*
X157272500Y-81706000D01*
X157286958Y-81706710D01*
X157286958Y-81706710D01*
G37*
D12*
X157125000Y-82026000D03*
D11*
G36*
X156316958Y-81706710D02*
G01*
X156331276Y-81708834D01*
X156345317Y-81712351D01*
X156358946Y-81717228D01*
X156372031Y-81723417D01*
X156384447Y-81730858D01*
X156396073Y-81739481D01*
X156406798Y-81749202D01*
X156416519Y-81759927D01*
X156425142Y-81771553D01*
X156432583Y-81783969D01*
X156438772Y-81797054D01*
X156443649Y-81810683D01*
X156447166Y-81824724D01*
X156449290Y-81839042D01*
X156450000Y-81853500D01*
X156450000Y-82198500D01*
X156449290Y-82212958D01*
X156447166Y-82227276D01*
X156443649Y-82241317D01*
X156438772Y-82254946D01*
X156432583Y-82268031D01*
X156425142Y-82280447D01*
X156416519Y-82292073D01*
X156406798Y-82302798D01*
X156396073Y-82312519D01*
X156384447Y-82321142D01*
X156372031Y-82328583D01*
X156358946Y-82334772D01*
X156345317Y-82339649D01*
X156331276Y-82343166D01*
X156316958Y-82345290D01*
X156302500Y-82346000D01*
X156007500Y-82346000D01*
X155993042Y-82345290D01*
X155978724Y-82343166D01*
X155964683Y-82339649D01*
X155951054Y-82334772D01*
X155937969Y-82328583D01*
X155925553Y-82321142D01*
X155913927Y-82312519D01*
X155903202Y-82302798D01*
X155893481Y-82292073D01*
X155884858Y-82280447D01*
X155877417Y-82268031D01*
X155871228Y-82254946D01*
X155866351Y-82241317D01*
X155862834Y-82227276D01*
X155860710Y-82212958D01*
X155860000Y-82198500D01*
X155860000Y-81853500D01*
X155860710Y-81839042D01*
X155862834Y-81824724D01*
X155866351Y-81810683D01*
X155871228Y-81797054D01*
X155877417Y-81783969D01*
X155884858Y-81771553D01*
X155893481Y-81759927D01*
X155903202Y-81749202D01*
X155913927Y-81739481D01*
X155925553Y-81730858D01*
X155937969Y-81723417D01*
X155951054Y-81717228D01*
X155964683Y-81712351D01*
X155978724Y-81708834D01*
X155993042Y-81706710D01*
X156007500Y-81706000D01*
X156302500Y-81706000D01*
X156316958Y-81706710D01*
X156316958Y-81706710D01*
G37*
D12*
X156155000Y-82026000D03*
D11*
G36*
X156845802Y-82842482D02*
G01*
X156855509Y-82843921D01*
X156865028Y-82846306D01*
X156874268Y-82849612D01*
X156883140Y-82853808D01*
X156891557Y-82858853D01*
X156899439Y-82864699D01*
X156906711Y-82871289D01*
X156913301Y-82878561D01*
X156919147Y-82886443D01*
X156924192Y-82894860D01*
X156928388Y-82903732D01*
X156931694Y-82912972D01*
X156934079Y-82922491D01*
X156935518Y-82932198D01*
X156936000Y-82942000D01*
X156936000Y-83142000D01*
X156935518Y-83151802D01*
X156934079Y-83161509D01*
X156931694Y-83171028D01*
X156928388Y-83180268D01*
X156924192Y-83189140D01*
X156919147Y-83197557D01*
X156913301Y-83205439D01*
X156906711Y-83212711D01*
X156899439Y-83219301D01*
X156891557Y-83225147D01*
X156883140Y-83230192D01*
X156874268Y-83234388D01*
X156865028Y-83237694D01*
X156855509Y-83240079D01*
X156845802Y-83241518D01*
X156836000Y-83242000D01*
X156576000Y-83242000D01*
X156566198Y-83241518D01*
X156556491Y-83240079D01*
X156546972Y-83237694D01*
X156537732Y-83234388D01*
X156528860Y-83230192D01*
X156520443Y-83225147D01*
X156512561Y-83219301D01*
X156505289Y-83212711D01*
X156498699Y-83205439D01*
X156492853Y-83197557D01*
X156487808Y-83189140D01*
X156483612Y-83180268D01*
X156480306Y-83171028D01*
X156477921Y-83161509D01*
X156476482Y-83151802D01*
X156476000Y-83142000D01*
X156476000Y-82942000D01*
X156476482Y-82932198D01*
X156477921Y-82922491D01*
X156480306Y-82912972D01*
X156483612Y-82903732D01*
X156487808Y-82894860D01*
X156492853Y-82886443D01*
X156498699Y-82878561D01*
X156505289Y-82871289D01*
X156512561Y-82864699D01*
X156520443Y-82858853D01*
X156528860Y-82853808D01*
X156537732Y-82849612D01*
X156546972Y-82846306D01*
X156556491Y-82843921D01*
X156566198Y-82842482D01*
X156576000Y-82842000D01*
X156836000Y-82842000D01*
X156845802Y-82842482D01*
X156845802Y-82842482D01*
G37*
D13*
X156706000Y-83042000D03*
D11*
G36*
X156205802Y-82842482D02*
G01*
X156215509Y-82843921D01*
X156225028Y-82846306D01*
X156234268Y-82849612D01*
X156243140Y-82853808D01*
X156251557Y-82858853D01*
X156259439Y-82864699D01*
X156266711Y-82871289D01*
X156273301Y-82878561D01*
X156279147Y-82886443D01*
X156284192Y-82894860D01*
X156288388Y-82903732D01*
X156291694Y-82912972D01*
X156294079Y-82922491D01*
X156295518Y-82932198D01*
X156296000Y-82942000D01*
X156296000Y-83142000D01*
X156295518Y-83151802D01*
X156294079Y-83161509D01*
X156291694Y-83171028D01*
X156288388Y-83180268D01*
X156284192Y-83189140D01*
X156279147Y-83197557D01*
X156273301Y-83205439D01*
X156266711Y-83212711D01*
X156259439Y-83219301D01*
X156251557Y-83225147D01*
X156243140Y-83230192D01*
X156234268Y-83234388D01*
X156225028Y-83237694D01*
X156215509Y-83240079D01*
X156205802Y-83241518D01*
X156196000Y-83242000D01*
X155936000Y-83242000D01*
X155926198Y-83241518D01*
X155916491Y-83240079D01*
X155906972Y-83237694D01*
X155897732Y-83234388D01*
X155888860Y-83230192D01*
X155880443Y-83225147D01*
X155872561Y-83219301D01*
X155865289Y-83212711D01*
X155858699Y-83205439D01*
X155852853Y-83197557D01*
X155847808Y-83189140D01*
X155843612Y-83180268D01*
X155840306Y-83171028D01*
X155837921Y-83161509D01*
X155836482Y-83151802D01*
X155836000Y-83142000D01*
X155836000Y-82942000D01*
X155836482Y-82932198D01*
X155837921Y-82922491D01*
X155840306Y-82912972D01*
X155843612Y-82903732D01*
X155847808Y-82894860D01*
X155852853Y-82886443D01*
X155858699Y-82878561D01*
X155865289Y-82871289D01*
X155872561Y-82864699D01*
X155880443Y-82858853D01*
X155888860Y-82853808D01*
X155897732Y-82849612D01*
X155906972Y-82846306D01*
X155916491Y-82843921D01*
X155926198Y-82842482D01*
X155936000Y-82842000D01*
X156196000Y-82842000D01*
X156205802Y-82842482D01*
X156205802Y-82842482D01*
G37*
D13*
X156066000Y-83042000D03*
D11*
G36*
X152583802Y-82334482D02*
G01*
X152593509Y-82335921D01*
X152603028Y-82338306D01*
X152612268Y-82341612D01*
X152621140Y-82345808D01*
X152629557Y-82350853D01*
X152637439Y-82356699D01*
X152644711Y-82363289D01*
X152651301Y-82370561D01*
X152657147Y-82378443D01*
X152662192Y-82386860D01*
X152666388Y-82395732D01*
X152669694Y-82404972D01*
X152672079Y-82414491D01*
X152673518Y-82424198D01*
X152674000Y-82434000D01*
X152674000Y-82634000D01*
X152673518Y-82643802D01*
X152672079Y-82653509D01*
X152669694Y-82663028D01*
X152666388Y-82672268D01*
X152662192Y-82681140D01*
X152657147Y-82689557D01*
X152651301Y-82697439D01*
X152644711Y-82704711D01*
X152637439Y-82711301D01*
X152629557Y-82717147D01*
X152621140Y-82722192D01*
X152612268Y-82726388D01*
X152603028Y-82729694D01*
X152593509Y-82732079D01*
X152583802Y-82733518D01*
X152574000Y-82734000D01*
X152314000Y-82734000D01*
X152304198Y-82733518D01*
X152294491Y-82732079D01*
X152284972Y-82729694D01*
X152275732Y-82726388D01*
X152266860Y-82722192D01*
X152258443Y-82717147D01*
X152250561Y-82711301D01*
X152243289Y-82704711D01*
X152236699Y-82697439D01*
X152230853Y-82689557D01*
X152225808Y-82681140D01*
X152221612Y-82672268D01*
X152218306Y-82663028D01*
X152215921Y-82653509D01*
X152214482Y-82643802D01*
X152214000Y-82634000D01*
X152214000Y-82434000D01*
X152214482Y-82424198D01*
X152215921Y-82414491D01*
X152218306Y-82404972D01*
X152221612Y-82395732D01*
X152225808Y-82386860D01*
X152230853Y-82378443D01*
X152236699Y-82370561D01*
X152243289Y-82363289D01*
X152250561Y-82356699D01*
X152258443Y-82350853D01*
X152266860Y-82345808D01*
X152275732Y-82341612D01*
X152284972Y-82338306D01*
X152294491Y-82335921D01*
X152304198Y-82334482D01*
X152314000Y-82334000D01*
X152574000Y-82334000D01*
X152583802Y-82334482D01*
X152583802Y-82334482D01*
G37*
D13*
X152444000Y-82534000D03*
D11*
G36*
X153223802Y-82334482D02*
G01*
X153233509Y-82335921D01*
X153243028Y-82338306D01*
X153252268Y-82341612D01*
X153261140Y-82345808D01*
X153269557Y-82350853D01*
X153277439Y-82356699D01*
X153284711Y-82363289D01*
X153291301Y-82370561D01*
X153297147Y-82378443D01*
X153302192Y-82386860D01*
X153306388Y-82395732D01*
X153309694Y-82404972D01*
X153312079Y-82414491D01*
X153313518Y-82424198D01*
X153314000Y-82434000D01*
X153314000Y-82634000D01*
X153313518Y-82643802D01*
X153312079Y-82653509D01*
X153309694Y-82663028D01*
X153306388Y-82672268D01*
X153302192Y-82681140D01*
X153297147Y-82689557D01*
X153291301Y-82697439D01*
X153284711Y-82704711D01*
X153277439Y-82711301D01*
X153269557Y-82717147D01*
X153261140Y-82722192D01*
X153252268Y-82726388D01*
X153243028Y-82729694D01*
X153233509Y-82732079D01*
X153223802Y-82733518D01*
X153214000Y-82734000D01*
X152954000Y-82734000D01*
X152944198Y-82733518D01*
X152934491Y-82732079D01*
X152924972Y-82729694D01*
X152915732Y-82726388D01*
X152906860Y-82722192D01*
X152898443Y-82717147D01*
X152890561Y-82711301D01*
X152883289Y-82704711D01*
X152876699Y-82697439D01*
X152870853Y-82689557D01*
X152865808Y-82681140D01*
X152861612Y-82672268D01*
X152858306Y-82663028D01*
X152855921Y-82653509D01*
X152854482Y-82643802D01*
X152854000Y-82634000D01*
X152854000Y-82434000D01*
X152854482Y-82424198D01*
X152855921Y-82414491D01*
X152858306Y-82404972D01*
X152861612Y-82395732D01*
X152865808Y-82386860D01*
X152870853Y-82378443D01*
X152876699Y-82370561D01*
X152883289Y-82363289D01*
X152890561Y-82356699D01*
X152898443Y-82350853D01*
X152906860Y-82345808D01*
X152915732Y-82341612D01*
X152924972Y-82338306D01*
X152934491Y-82335921D01*
X152944198Y-82334482D01*
X152954000Y-82334000D01*
X153214000Y-82334000D01*
X153223802Y-82334482D01*
X153223802Y-82334482D01*
G37*
D13*
X153084000Y-82534000D03*
D14*
X141300000Y-70770000D03*
X165800000Y-70770000D03*
X141300000Y-95270000D03*
X165800000Y-95270000D03*
D15*
X156380000Y-87820000D03*
X153090000Y-79450000D03*
X156190000Y-80380000D03*
X155300000Y-86040000D03*
X153930000Y-85030000D03*
D16*
X153516000Y-83550000D02*
X153941000Y-83550000D01*
X153160000Y-83550000D02*
X153516000Y-83550000D01*
X152444000Y-82834000D02*
X153160000Y-83550000D01*
X152444000Y-82534000D02*
X152444000Y-82834000D01*
X157125000Y-82623000D02*
X156706000Y-83042000D01*
X157125000Y-82026000D02*
X157125000Y-82623000D01*
X156706000Y-83233058D02*
X156372048Y-83567010D01*
X156706000Y-83042000D02*
X156706000Y-83233058D01*
X154366000Y-83550000D02*
X153941000Y-83550000D01*
X154383010Y-83567010D02*
X154366000Y-83550000D01*
X156372048Y-83567010D02*
X154383010Y-83567010D01*
X156380000Y-83574962D02*
X156372048Y-83567010D01*
X156380000Y-87820000D02*
X156380000Y-83574962D01*
X153425000Y-82534000D02*
X153941000Y-83050000D01*
X153084000Y-82534000D02*
X153425000Y-82534000D01*
X153084000Y-79456000D02*
X153090000Y-79450000D01*
D17*
X153084000Y-82534000D02*
X153084000Y-79456000D01*
D16*
X156058000Y-83050000D02*
X156066000Y-83042000D01*
X155291000Y-83050000D02*
X156058000Y-83050000D01*
X156066000Y-82115000D02*
X156066000Y-83042000D01*
X156155000Y-82026000D02*
X156066000Y-82115000D01*
X156190000Y-81991000D02*
X156155000Y-82026000D01*
X156190000Y-80380000D02*
X156190000Y-81991000D01*
X155300000Y-84059000D02*
X155291000Y-84050000D01*
X155300000Y-86040000D02*
X155300000Y-84059000D01*
X153930000Y-84061000D02*
X153941000Y-84050000D01*
X153930000Y-85030000D02*
X153930000Y-84061000D01*
M02*
