G04 #@! TF.GenerationSoftware,KiCad,Pcbnew,(5.1.6-0-10_14)*
G04 #@! TF.CreationDate,2020-07-22T10:41:49+09:00*
G04 #@! TF.ProjectId,signaltower_host,7369676e-616c-4746-9f77-65725f686f73,rev?*
G04 #@! TF.SameCoordinates,Original*
G04 #@! TF.FileFunction,Soldermask,Top*
G04 #@! TF.FilePolarity,Negative*
%FSLAX46Y46*%
G04 Gerber Fmt 4.6, Leading zero omitted, Abs format (unit mm)*
G04 Created by KiCad (PCBNEW (5.1.6-0-10_14)) date 2020-07-22 10:41:49*
%MOMM*%
%LPD*%
G01*
G04 APERTURE LIST*
%ADD10C,2.200000*%
%ADD11R,2.800000X1.000000*%
%ADD12R,1.700000X0.600000*%
%ADD13C,4.500000*%
%ADD14O,0.800000X1.400000*%
%ADD15O,1.400000X0.800000*%
%ADD16R,7.000000X7.000000*%
%ADD17R,2.500000X0.760000*%
%ADD18C,1.600000*%
%ADD19R,0.900000X0.600000*%
%ADD20R,1.350000X0.400000*%
%ADD21R,1.900000X1.600000*%
%ADD22R,2.000000X2.100000*%
%ADD23R,1.000000X0.800000*%
%ADD24R,1.000000X0.700000*%
G04 APERTURE END LIST*
D10*
X128750000Y-102750000D03*
X128750000Y-62750000D03*
X96750000Y-102750000D03*
X96750000Y-62750000D03*
D11*
X132200000Y-90200000D03*
X132200000Y-97400000D03*
D12*
X127050000Y-91300000D03*
X127050000Y-92300000D03*
X127050000Y-93300000D03*
X127050000Y-94300000D03*
X127050000Y-95300000D03*
X127050000Y-96300000D03*
D13*
X116000000Y-74625000D03*
X98000000Y-74625000D03*
D14*
X107000000Y-75085000D03*
X105730000Y-75085000D03*
X104460000Y-75085000D03*
X103190000Y-75085000D03*
X101920000Y-75085000D03*
X107000000Y-73165000D03*
X105730000Y-73165000D03*
X104460000Y-73165000D03*
X103190000Y-73165000D03*
X101920000Y-73165000D03*
D15*
X96515000Y-78570000D03*
X96515000Y-79840000D03*
X96515000Y-81110000D03*
X96515000Y-82380000D03*
X96515000Y-83650000D03*
X96515000Y-84920000D03*
X96515000Y-86190000D03*
X96515000Y-87460000D03*
X117485000Y-78570000D03*
X117485000Y-79840000D03*
X117485000Y-81110000D03*
X117485000Y-82380000D03*
X117485000Y-83650000D03*
X117485000Y-84920000D03*
X117485000Y-86190000D03*
X117485000Y-87460000D03*
X117485000Y-88730000D03*
X117485000Y-90000000D03*
X96515000Y-88730000D03*
X96515000Y-90000000D03*
D14*
X107010000Y-65025000D03*
X105740000Y-65025000D03*
X104470000Y-65025000D03*
X103200000Y-65025000D03*
X101930000Y-65025000D03*
X101930000Y-63105000D03*
X107010000Y-63105000D03*
X105740000Y-63105000D03*
X103200000Y-63105000D03*
X104470000Y-63105000D03*
D16*
X108400000Y-56200000D03*
D17*
X114650000Y-57470000D03*
X114650000Y-58740000D03*
X114650000Y-53660000D03*
X114650000Y-54930000D03*
D18*
X129540000Y-74295000D03*
X129540000Y-69215000D03*
D19*
X111300000Y-62550000D03*
X113000000Y-61600000D03*
X113000000Y-63500000D03*
D20*
X129925000Y-83450000D03*
X129925000Y-82800000D03*
X129925000Y-82150000D03*
X129925000Y-84100000D03*
D21*
X132600000Y-78700000D03*
D22*
X130250000Y-79700000D03*
D21*
X132600000Y-86900000D03*
D20*
X129925000Y-81500000D03*
D22*
X130250000Y-85900000D03*
D23*
X120400000Y-58400000D03*
X120400000Y-56400000D03*
X122800000Y-56400000D03*
X122800000Y-58400000D03*
D24*
X122800000Y-57400000D03*
G36*
G01*
X115060000Y-60077500D02*
X115060000Y-60422500D01*
G75*
G02*
X114912500Y-60570000I-147500J0D01*
G01*
X114617500Y-60570000D01*
G75*
G02*
X114470000Y-60422500I0J147500D01*
G01*
X114470000Y-60077500D01*
G75*
G02*
X114617500Y-59930000I147500J0D01*
G01*
X114912500Y-59930000D01*
G75*
G02*
X115060000Y-60077500I0J-147500D01*
G01*
G37*
G36*
G01*
X116030000Y-60077500D02*
X116030000Y-60422500D01*
G75*
G02*
X115882500Y-60570000I-147500J0D01*
G01*
X115587500Y-60570000D01*
G75*
G02*
X115440000Y-60422500I0J147500D01*
G01*
X115440000Y-60077500D01*
G75*
G02*
X115587500Y-59930000I147500J0D01*
G01*
X115882500Y-59930000D01*
G75*
G02*
X116030000Y-60077500I0J-147500D01*
G01*
G37*
G36*
G01*
X114922500Y-62075000D02*
X114577500Y-62075000D01*
G75*
G02*
X114430000Y-61927500I0J147500D01*
G01*
X114430000Y-61632500D01*
G75*
G02*
X114577500Y-61485000I147500J0D01*
G01*
X114922500Y-61485000D01*
G75*
G02*
X115070000Y-61632500I0J-147500D01*
G01*
X115070000Y-61927500D01*
G75*
G02*
X114922500Y-62075000I-147500J0D01*
G01*
G37*
G36*
G01*
X114922500Y-63045000D02*
X114577500Y-63045000D01*
G75*
G02*
X114430000Y-62897500I0J147500D01*
G01*
X114430000Y-62602500D01*
G75*
G02*
X114577500Y-62455000I147500J0D01*
G01*
X114922500Y-62455000D01*
G75*
G02*
X115070000Y-62602500I0J-147500D01*
G01*
X115070000Y-62897500D01*
G75*
G02*
X114922500Y-63045000I-147500J0D01*
G01*
G37*
G36*
G01*
X122075000Y-54975000D02*
X122075000Y-52825000D01*
G75*
G02*
X122325000Y-52575000I250000J0D01*
G01*
X123075000Y-52575000D01*
G75*
G02*
X123325000Y-52825000I0J-250000D01*
G01*
X123325000Y-54975000D01*
G75*
G02*
X123075000Y-55225000I-250000J0D01*
G01*
X122325000Y-55225000D01*
G75*
G02*
X122075000Y-54975000I0J250000D01*
G01*
G37*
G36*
G01*
X119275000Y-54975000D02*
X119275000Y-52825000D01*
G75*
G02*
X119525000Y-52575000I250000J0D01*
G01*
X120275000Y-52575000D01*
G75*
G02*
X120525000Y-52825000I0J-250000D01*
G01*
X120525000Y-54975000D01*
G75*
G02*
X120275000Y-55225000I-250000J0D01*
G01*
X119525000Y-55225000D01*
G75*
G02*
X119275000Y-54975000I0J250000D01*
G01*
G37*
G36*
G01*
X118825000Y-62375000D02*
X120975000Y-62375000D01*
G75*
G02*
X121225000Y-62625000I0J-250000D01*
G01*
X121225000Y-63375000D01*
G75*
G02*
X120975000Y-63625000I-250000J0D01*
G01*
X118825000Y-63625000D01*
G75*
G02*
X118575000Y-63375000I0J250000D01*
G01*
X118575000Y-62625000D01*
G75*
G02*
X118825000Y-62375000I250000J0D01*
G01*
G37*
G36*
G01*
X118825000Y-59575000D02*
X120975000Y-59575000D01*
G75*
G02*
X121225000Y-59825000I0J-250000D01*
G01*
X121225000Y-60575000D01*
G75*
G02*
X120975000Y-60825000I-250000J0D01*
G01*
X118825000Y-60825000D01*
G75*
G02*
X118575000Y-60575000I0J250000D01*
G01*
X118575000Y-59825000D01*
G75*
G02*
X118825000Y-59575000I250000J0D01*
G01*
G37*
M02*
