M48
; DRILL file {KiCad (5.1.5)-3} date 2020/01/20 8:55:00
; FORMAT={-:-/ absolute / inch / decimal}
; #@! TF.CreationDate,2020-01-20T08:55:00+09:00
; #@! TF.GenerationSoftware,Kicad,Pcbnew,(5.1.5)-3
FMAT,2
INCH
T1C0.0118
T2C0.0256
T3C0.0472
T4C0.0866
%
G90
G05
T1
X3.8Y-3.38
X3.84Y-2.45
X3.97Y-3.63
X3.97Y-3.71
X4.189Y-2.9852
X4.3002Y-2.9862
X4.32Y-3.33
X4.32Y-3.45
X4.6447Y-2.9764
X5.15Y-2.99
T2
X5.89Y-3.61
X5.89Y-3.66
X5.94Y-3.61
X5.94Y-3.66
X5.99Y-3.61
X5.99Y-3.66
X6.04Y-3.61
X6.04Y-3.66
X6.09Y-3.61
X6.09Y-3.66
X5.49Y-2.62
X5.49Y-2.67
X5.49Y-2.72
X5.49Y-2.77
X5.49Y-2.82
X5.49Y-2.87
X5.49Y-2.92
X5.49Y-2.97
X5.49Y-3.02
X5.49Y-3.07
X5.89Y-3.22
X5.89Y-3.27
X5.94Y-3.22
X5.94Y-3.27
X5.99Y-3.22
X5.99Y-3.27
X6.04Y-3.22
X6.04Y-3.27
X6.09Y-3.22
X6.09Y-3.27
X6.29Y-2.62
X6.29Y-2.67
X6.29Y-2.72
X6.29Y-2.77
X6.29Y-2.82
X6.29Y-2.87
X6.29Y-2.92
X6.29Y-2.97
X6.29Y-3.02
X6.29Y-3.07
T3
X3.79Y-2.99
X3.79Y-3.19
T4
X5.5357Y-3.2253
X6.2443Y-3.2253
T0
M30
