G04 #@! TF.GenerationSoftware,KiCad,Pcbnew,(5.1.4)-1*
G04 #@! TF.CreationDate,2019-11-08T11:00:50+09:00*
G04 #@! TF.ProjectId,sig_sensor,7369675f-7365-46e7-936f-722e6b696361,rev?*
G04 #@! TF.SameCoordinates,Original*
G04 #@! TF.FileFunction,Paste,Bot*
G04 #@! TF.FilePolarity,Positive*
%FSLAX46Y46*%
G04 Gerber Fmt 4.6, Leading zero omitted, Abs format (unit mm)*
G04 Created by KiCad (PCBNEW (5.1.4)-1) date 2019-11-08 11:00:50*
%MOMM*%
%LPD*%
G04 APERTURE LIST*
%ADD10R,0.350000X0.250000*%
%ADD11C,0.100000*%
%ADD12C,0.590000*%
%ADD13C,0.318000*%
G04 APERTURE END LIST*
D10*
X155291000Y-84050000D03*
X155291000Y-83050000D03*
X153941000Y-84050000D03*
X153941000Y-83550000D03*
X153941000Y-83050000D03*
D11*
G36*
X157286958Y-81706710D02*
G01*
X157301276Y-81708834D01*
X157315317Y-81712351D01*
X157328946Y-81717228D01*
X157342031Y-81723417D01*
X157354447Y-81730858D01*
X157366073Y-81739481D01*
X157376798Y-81749202D01*
X157386519Y-81759927D01*
X157395142Y-81771553D01*
X157402583Y-81783969D01*
X157408772Y-81797054D01*
X157413649Y-81810683D01*
X157417166Y-81824724D01*
X157419290Y-81839042D01*
X157420000Y-81853500D01*
X157420000Y-82198500D01*
X157419290Y-82212958D01*
X157417166Y-82227276D01*
X157413649Y-82241317D01*
X157408772Y-82254946D01*
X157402583Y-82268031D01*
X157395142Y-82280447D01*
X157386519Y-82292073D01*
X157376798Y-82302798D01*
X157366073Y-82312519D01*
X157354447Y-82321142D01*
X157342031Y-82328583D01*
X157328946Y-82334772D01*
X157315317Y-82339649D01*
X157301276Y-82343166D01*
X157286958Y-82345290D01*
X157272500Y-82346000D01*
X156977500Y-82346000D01*
X156963042Y-82345290D01*
X156948724Y-82343166D01*
X156934683Y-82339649D01*
X156921054Y-82334772D01*
X156907969Y-82328583D01*
X156895553Y-82321142D01*
X156883927Y-82312519D01*
X156873202Y-82302798D01*
X156863481Y-82292073D01*
X156854858Y-82280447D01*
X156847417Y-82268031D01*
X156841228Y-82254946D01*
X156836351Y-82241317D01*
X156832834Y-82227276D01*
X156830710Y-82212958D01*
X156830000Y-82198500D01*
X156830000Y-81853500D01*
X156830710Y-81839042D01*
X156832834Y-81824724D01*
X156836351Y-81810683D01*
X156841228Y-81797054D01*
X156847417Y-81783969D01*
X156854858Y-81771553D01*
X156863481Y-81759927D01*
X156873202Y-81749202D01*
X156883927Y-81739481D01*
X156895553Y-81730858D01*
X156907969Y-81723417D01*
X156921054Y-81717228D01*
X156934683Y-81712351D01*
X156948724Y-81708834D01*
X156963042Y-81706710D01*
X156977500Y-81706000D01*
X157272500Y-81706000D01*
X157286958Y-81706710D01*
X157286958Y-81706710D01*
G37*
D12*
X157125000Y-82026000D03*
D11*
G36*
X156316958Y-81706710D02*
G01*
X156331276Y-81708834D01*
X156345317Y-81712351D01*
X156358946Y-81717228D01*
X156372031Y-81723417D01*
X156384447Y-81730858D01*
X156396073Y-81739481D01*
X156406798Y-81749202D01*
X156416519Y-81759927D01*
X156425142Y-81771553D01*
X156432583Y-81783969D01*
X156438772Y-81797054D01*
X156443649Y-81810683D01*
X156447166Y-81824724D01*
X156449290Y-81839042D01*
X156450000Y-81853500D01*
X156450000Y-82198500D01*
X156449290Y-82212958D01*
X156447166Y-82227276D01*
X156443649Y-82241317D01*
X156438772Y-82254946D01*
X156432583Y-82268031D01*
X156425142Y-82280447D01*
X156416519Y-82292073D01*
X156406798Y-82302798D01*
X156396073Y-82312519D01*
X156384447Y-82321142D01*
X156372031Y-82328583D01*
X156358946Y-82334772D01*
X156345317Y-82339649D01*
X156331276Y-82343166D01*
X156316958Y-82345290D01*
X156302500Y-82346000D01*
X156007500Y-82346000D01*
X155993042Y-82345290D01*
X155978724Y-82343166D01*
X155964683Y-82339649D01*
X155951054Y-82334772D01*
X155937969Y-82328583D01*
X155925553Y-82321142D01*
X155913927Y-82312519D01*
X155903202Y-82302798D01*
X155893481Y-82292073D01*
X155884858Y-82280447D01*
X155877417Y-82268031D01*
X155871228Y-82254946D01*
X155866351Y-82241317D01*
X155862834Y-82227276D01*
X155860710Y-82212958D01*
X155860000Y-82198500D01*
X155860000Y-81853500D01*
X155860710Y-81839042D01*
X155862834Y-81824724D01*
X155866351Y-81810683D01*
X155871228Y-81797054D01*
X155877417Y-81783969D01*
X155884858Y-81771553D01*
X155893481Y-81759927D01*
X155903202Y-81749202D01*
X155913927Y-81739481D01*
X155925553Y-81730858D01*
X155937969Y-81723417D01*
X155951054Y-81717228D01*
X155964683Y-81712351D01*
X155978724Y-81708834D01*
X155993042Y-81706710D01*
X156007500Y-81706000D01*
X156302500Y-81706000D01*
X156316958Y-81706710D01*
X156316958Y-81706710D01*
G37*
D12*
X156155000Y-82026000D03*
D11*
G36*
X156818292Y-82862383D02*
G01*
X156826010Y-82863528D01*
X156833578Y-82865423D01*
X156840923Y-82868052D01*
X156847976Y-82871387D01*
X156854668Y-82875398D01*
X156860934Y-82880046D01*
X156866715Y-82885285D01*
X156871954Y-82891066D01*
X156876602Y-82897332D01*
X156880613Y-82904024D01*
X156883948Y-82911077D01*
X156886577Y-82918422D01*
X156888472Y-82925990D01*
X156889617Y-82933708D01*
X156890000Y-82941500D01*
X156890000Y-83142500D01*
X156889617Y-83150292D01*
X156888472Y-83158010D01*
X156886577Y-83165578D01*
X156883948Y-83172923D01*
X156880613Y-83179976D01*
X156876602Y-83186668D01*
X156871954Y-83192934D01*
X156866715Y-83198715D01*
X156860934Y-83203954D01*
X156854668Y-83208602D01*
X156847976Y-83212613D01*
X156840923Y-83215948D01*
X156833578Y-83218577D01*
X156826010Y-83220472D01*
X156818292Y-83221617D01*
X156810500Y-83222000D01*
X156651500Y-83222000D01*
X156643708Y-83221617D01*
X156635990Y-83220472D01*
X156628422Y-83218577D01*
X156621077Y-83215948D01*
X156614024Y-83212613D01*
X156607332Y-83208602D01*
X156601066Y-83203954D01*
X156595285Y-83198715D01*
X156590046Y-83192934D01*
X156585398Y-83186668D01*
X156581387Y-83179976D01*
X156578052Y-83172923D01*
X156575423Y-83165578D01*
X156573528Y-83158010D01*
X156572383Y-83150292D01*
X156572000Y-83142500D01*
X156572000Y-82941500D01*
X156572383Y-82933708D01*
X156573528Y-82925990D01*
X156575423Y-82918422D01*
X156578052Y-82911077D01*
X156581387Y-82904024D01*
X156585398Y-82897332D01*
X156590046Y-82891066D01*
X156595285Y-82885285D01*
X156601066Y-82880046D01*
X156607332Y-82875398D01*
X156614024Y-82871387D01*
X156621077Y-82868052D01*
X156628422Y-82865423D01*
X156635990Y-82863528D01*
X156643708Y-82862383D01*
X156651500Y-82862000D01*
X156810500Y-82862000D01*
X156818292Y-82862383D01*
X156818292Y-82862383D01*
G37*
D13*
X156731000Y-83042000D03*
D11*
G36*
X156128292Y-82862383D02*
G01*
X156136010Y-82863528D01*
X156143578Y-82865423D01*
X156150923Y-82868052D01*
X156157976Y-82871387D01*
X156164668Y-82875398D01*
X156170934Y-82880046D01*
X156176715Y-82885285D01*
X156181954Y-82891066D01*
X156186602Y-82897332D01*
X156190613Y-82904024D01*
X156193948Y-82911077D01*
X156196577Y-82918422D01*
X156198472Y-82925990D01*
X156199617Y-82933708D01*
X156200000Y-82941500D01*
X156200000Y-83142500D01*
X156199617Y-83150292D01*
X156198472Y-83158010D01*
X156196577Y-83165578D01*
X156193948Y-83172923D01*
X156190613Y-83179976D01*
X156186602Y-83186668D01*
X156181954Y-83192934D01*
X156176715Y-83198715D01*
X156170934Y-83203954D01*
X156164668Y-83208602D01*
X156157976Y-83212613D01*
X156150923Y-83215948D01*
X156143578Y-83218577D01*
X156136010Y-83220472D01*
X156128292Y-83221617D01*
X156120500Y-83222000D01*
X155961500Y-83222000D01*
X155953708Y-83221617D01*
X155945990Y-83220472D01*
X155938422Y-83218577D01*
X155931077Y-83215948D01*
X155924024Y-83212613D01*
X155917332Y-83208602D01*
X155911066Y-83203954D01*
X155905285Y-83198715D01*
X155900046Y-83192934D01*
X155895398Y-83186668D01*
X155891387Y-83179976D01*
X155888052Y-83172923D01*
X155885423Y-83165578D01*
X155883528Y-83158010D01*
X155882383Y-83150292D01*
X155882000Y-83142500D01*
X155882000Y-82941500D01*
X155882383Y-82933708D01*
X155883528Y-82925990D01*
X155885423Y-82918422D01*
X155888052Y-82911077D01*
X155891387Y-82904024D01*
X155895398Y-82897332D01*
X155900046Y-82891066D01*
X155905285Y-82885285D01*
X155911066Y-82880046D01*
X155917332Y-82875398D01*
X155924024Y-82871387D01*
X155931077Y-82868052D01*
X155938422Y-82865423D01*
X155945990Y-82863528D01*
X155953708Y-82862383D01*
X155961500Y-82862000D01*
X156120500Y-82862000D01*
X156128292Y-82862383D01*
X156128292Y-82862383D01*
G37*
D13*
X156041000Y-83042000D03*
D11*
G36*
X152506292Y-82354383D02*
G01*
X152514010Y-82355528D01*
X152521578Y-82357423D01*
X152528923Y-82360052D01*
X152535976Y-82363387D01*
X152542668Y-82367398D01*
X152548934Y-82372046D01*
X152554715Y-82377285D01*
X152559954Y-82383066D01*
X152564602Y-82389332D01*
X152568613Y-82396024D01*
X152571948Y-82403077D01*
X152574577Y-82410422D01*
X152576472Y-82417990D01*
X152577617Y-82425708D01*
X152578000Y-82433500D01*
X152578000Y-82634500D01*
X152577617Y-82642292D01*
X152576472Y-82650010D01*
X152574577Y-82657578D01*
X152571948Y-82664923D01*
X152568613Y-82671976D01*
X152564602Y-82678668D01*
X152559954Y-82684934D01*
X152554715Y-82690715D01*
X152548934Y-82695954D01*
X152542668Y-82700602D01*
X152535976Y-82704613D01*
X152528923Y-82707948D01*
X152521578Y-82710577D01*
X152514010Y-82712472D01*
X152506292Y-82713617D01*
X152498500Y-82714000D01*
X152339500Y-82714000D01*
X152331708Y-82713617D01*
X152323990Y-82712472D01*
X152316422Y-82710577D01*
X152309077Y-82707948D01*
X152302024Y-82704613D01*
X152295332Y-82700602D01*
X152289066Y-82695954D01*
X152283285Y-82690715D01*
X152278046Y-82684934D01*
X152273398Y-82678668D01*
X152269387Y-82671976D01*
X152266052Y-82664923D01*
X152263423Y-82657578D01*
X152261528Y-82650010D01*
X152260383Y-82642292D01*
X152260000Y-82634500D01*
X152260000Y-82433500D01*
X152260383Y-82425708D01*
X152261528Y-82417990D01*
X152263423Y-82410422D01*
X152266052Y-82403077D01*
X152269387Y-82396024D01*
X152273398Y-82389332D01*
X152278046Y-82383066D01*
X152283285Y-82377285D01*
X152289066Y-82372046D01*
X152295332Y-82367398D01*
X152302024Y-82363387D01*
X152309077Y-82360052D01*
X152316422Y-82357423D01*
X152323990Y-82355528D01*
X152331708Y-82354383D01*
X152339500Y-82354000D01*
X152498500Y-82354000D01*
X152506292Y-82354383D01*
X152506292Y-82354383D01*
G37*
D13*
X152419000Y-82534000D03*
D11*
G36*
X153196292Y-82354383D02*
G01*
X153204010Y-82355528D01*
X153211578Y-82357423D01*
X153218923Y-82360052D01*
X153225976Y-82363387D01*
X153232668Y-82367398D01*
X153238934Y-82372046D01*
X153244715Y-82377285D01*
X153249954Y-82383066D01*
X153254602Y-82389332D01*
X153258613Y-82396024D01*
X153261948Y-82403077D01*
X153264577Y-82410422D01*
X153266472Y-82417990D01*
X153267617Y-82425708D01*
X153268000Y-82433500D01*
X153268000Y-82634500D01*
X153267617Y-82642292D01*
X153266472Y-82650010D01*
X153264577Y-82657578D01*
X153261948Y-82664923D01*
X153258613Y-82671976D01*
X153254602Y-82678668D01*
X153249954Y-82684934D01*
X153244715Y-82690715D01*
X153238934Y-82695954D01*
X153232668Y-82700602D01*
X153225976Y-82704613D01*
X153218923Y-82707948D01*
X153211578Y-82710577D01*
X153204010Y-82712472D01*
X153196292Y-82713617D01*
X153188500Y-82714000D01*
X153029500Y-82714000D01*
X153021708Y-82713617D01*
X153013990Y-82712472D01*
X153006422Y-82710577D01*
X152999077Y-82707948D01*
X152992024Y-82704613D01*
X152985332Y-82700602D01*
X152979066Y-82695954D01*
X152973285Y-82690715D01*
X152968046Y-82684934D01*
X152963398Y-82678668D01*
X152959387Y-82671976D01*
X152956052Y-82664923D01*
X152953423Y-82657578D01*
X152951528Y-82650010D01*
X152950383Y-82642292D01*
X152950000Y-82634500D01*
X152950000Y-82433500D01*
X152950383Y-82425708D01*
X152951528Y-82417990D01*
X152953423Y-82410422D01*
X152956052Y-82403077D01*
X152959387Y-82396024D01*
X152963398Y-82389332D01*
X152968046Y-82383066D01*
X152973285Y-82377285D01*
X152979066Y-82372046D01*
X152985332Y-82367398D01*
X152992024Y-82363387D01*
X152999077Y-82360052D01*
X153006422Y-82357423D01*
X153013990Y-82355528D01*
X153021708Y-82354383D01*
X153029500Y-82354000D01*
X153188500Y-82354000D01*
X153196292Y-82354383D01*
X153196292Y-82354383D01*
G37*
D13*
X153109000Y-82534000D03*
M02*
