G04 #@! TF.GenerationSoftware,KiCad,Pcbnew,(5.1.4)-1*
G04 #@! TF.CreationDate,2019-11-08T11:00:50+09:00*
G04 #@! TF.ProjectId,sig_sensor,7369675f-7365-46e7-936f-722e6b696361,rev?*
G04 #@! TF.SameCoordinates,Original*
G04 #@! TF.FileFunction,Legend,Bot*
G04 #@! TF.FilePolarity,Positive*
%FSLAX46Y46*%
G04 Gerber Fmt 4.6, Leading zero omitted, Abs format (unit mm)*
G04 Created by KiCad (PCBNEW (5.1.4)-1) date 2019-11-08 11:00:50*
%MOMM*%
%LPD*%
G04 APERTURE LIST*
%ADD10C,0.150000*%
G04 APERTURE END LIST*
D10*
X152829904Y-83256380D02*
X152829904Y-84065904D01*
X152782285Y-84161142D01*
X152734666Y-84208761D01*
X152639428Y-84256380D01*
X152448952Y-84256380D01*
X152353714Y-84208761D01*
X152306095Y-84161142D01*
X152258476Y-84065904D01*
X152258476Y-83256380D01*
X151258476Y-84256380D02*
X151829904Y-84256380D01*
X151544190Y-84256380D02*
X151544190Y-83256380D01*
X151639428Y-83399238D01*
X151734666Y-83494476D01*
X151829904Y-83542095D01*
X159092666Y-82224380D02*
X159426000Y-81748190D01*
X159664095Y-82224380D02*
X159664095Y-81224380D01*
X159283142Y-81224380D01*
X159187904Y-81272000D01*
X159140285Y-81319619D01*
X159092666Y-81414857D01*
X159092666Y-81557714D01*
X159140285Y-81652952D01*
X159187904Y-81700571D01*
X159283142Y-81748190D01*
X159664095Y-81748190D01*
X158140285Y-82224380D02*
X158711714Y-82224380D01*
X158426000Y-82224380D02*
X158426000Y-81224380D01*
X158521238Y-81367238D01*
X158616476Y-81462476D01*
X158711714Y-81510095D01*
X159092666Y-83653142D02*
X159140285Y-83700761D01*
X159283142Y-83748380D01*
X159378380Y-83748380D01*
X159521238Y-83700761D01*
X159616476Y-83605523D01*
X159664095Y-83510285D01*
X159711714Y-83319809D01*
X159711714Y-83176952D01*
X159664095Y-82986476D01*
X159616476Y-82891238D01*
X159521238Y-82796000D01*
X159378380Y-82748380D01*
X159283142Y-82748380D01*
X159140285Y-82796000D01*
X159092666Y-82843619D01*
X158711714Y-82843619D02*
X158664095Y-82796000D01*
X158568857Y-82748380D01*
X158330761Y-82748380D01*
X158235523Y-82796000D01*
X158187904Y-82843619D01*
X158140285Y-82938857D01*
X158140285Y-83034095D01*
X158187904Y-83176952D01*
X158759333Y-83748380D01*
X158140285Y-83748380D01*
X150964666Y-82383142D02*
X151012285Y-82430761D01*
X151155142Y-82478380D01*
X151250380Y-82478380D01*
X151393238Y-82430761D01*
X151488476Y-82335523D01*
X151536095Y-82240285D01*
X151583714Y-82049809D01*
X151583714Y-81906952D01*
X151536095Y-81716476D01*
X151488476Y-81621238D01*
X151393238Y-81526000D01*
X151250380Y-81478380D01*
X151155142Y-81478380D01*
X151012285Y-81526000D01*
X150964666Y-81573619D01*
X150012285Y-82478380D02*
X150583714Y-82478380D01*
X150298000Y-82478380D02*
X150298000Y-81478380D01*
X150393238Y-81621238D01*
X150488476Y-81716476D01*
X150583714Y-81764095D01*
M02*
