G04 #@! TF.GenerationSoftware,KiCad,Pcbnew,(5.1.4)-1*
G04 #@! TF.CreationDate,2019-11-08T11:00:50+09:00*
G04 #@! TF.ProjectId,sig_sensor,7369675f-7365-46e7-936f-722e6b696361,rev?*
G04 #@! TF.SameCoordinates,Original*
G04 #@! TF.FileFunction,Copper,L1,Top*
G04 #@! TF.FilePolarity,Positive*
%FSLAX46Y46*%
G04 Gerber Fmt 4.6, Leading zero omitted, Abs format (unit mm)*
G04 Created by KiCad (PCBNEW (5.1.4)-1) date 2019-11-08 11:00:50*
%MOMM*%
%LPD*%
G04 APERTURE LIST*
%ADD10R,1.050000X0.350000*%
%ADD11R,1.350000X2.000000*%
%ADD12C,1.800000*%
%ADD13C,0.600000*%
%ADD14C,0.250000*%
%ADD15C,0.254000*%
G04 APERTURE END LIST*
D10*
X172660000Y-81140000D03*
X172660000Y-81640000D03*
X172660000Y-82140000D03*
X172660000Y-82640000D03*
X172660000Y-84640000D03*
X172660000Y-84140000D03*
X172660000Y-83640000D03*
X172660000Y-83140000D03*
D11*
X169910000Y-86990000D03*
X169910000Y-78790000D03*
D10*
X135160000Y-84750000D03*
X135160000Y-84250000D03*
X135160000Y-83750000D03*
X135160000Y-83250000D03*
X135160000Y-81250000D03*
X135160000Y-81750000D03*
X135160000Y-82250000D03*
X135160000Y-82750000D03*
D11*
X137910000Y-78900000D03*
X137910000Y-87100000D03*
D12*
X141300000Y-70770000D03*
X165800000Y-70770000D03*
X141300000Y-95270000D03*
X165800000Y-95270000D03*
D13*
X156380000Y-87820000D03*
X153090000Y-79450000D03*
X156190000Y-80380000D03*
X155300000Y-86040000D03*
X153930000Y-85030000D03*
D14*
X172660000Y-84640000D02*
X172660000Y-89468000D01*
X149184043Y-89468000D02*
X149124043Y-89408000D01*
X172660000Y-89468000D02*
X149184043Y-89468000D01*
X135160000Y-85175000D02*
X135160000Y-84750000D01*
X135160000Y-86610002D02*
X135160000Y-85175000D01*
X137957998Y-89408000D02*
X135160000Y-86610002D01*
X149124043Y-89408000D02*
X137957998Y-89408000D01*
X172660000Y-81140000D02*
X172660000Y-76260000D01*
X172660000Y-76260000D02*
X172600000Y-76200000D01*
X135160000Y-80825000D02*
X135160000Y-81250000D01*
X135160000Y-79389998D02*
X135160000Y-80825000D01*
X138349998Y-76200000D02*
X135160000Y-79389998D01*
X172600000Y-76200000D02*
X138349998Y-76200000D01*
X142036410Y-81750000D02*
X142076401Y-81710009D01*
X135160000Y-81750000D02*
X142036410Y-81750000D01*
X142076401Y-81710009D02*
X143283205Y-80503205D01*
X143283205Y-80503205D02*
X143406410Y-80380000D01*
X143406410Y-80380000D02*
X156190000Y-80380000D01*
X165376410Y-86040000D02*
X155300000Y-86040000D01*
X172660000Y-84140000D02*
X167276410Y-84140000D01*
X167276410Y-84140000D02*
X165376410Y-86040000D01*
X135935000Y-84250000D02*
X135160000Y-84250000D01*
X142690000Y-84250000D02*
X135935000Y-84250000D01*
X155300000Y-86040000D02*
X144480000Y-86040000D01*
X144480000Y-86040000D02*
X142690000Y-84250000D01*
X172660000Y-83640000D02*
X167140000Y-83640000D01*
X167140000Y-83640000D02*
X165660000Y-85120000D01*
X165660000Y-85120000D02*
X154020000Y-85120000D01*
X154020000Y-85120000D02*
X153930000Y-85030000D01*
X144750000Y-85030000D02*
X153930000Y-85030000D01*
X135160000Y-83750000D02*
X143470000Y-83750000D01*
X143470000Y-83750000D02*
X144750000Y-85030000D01*
X135935000Y-83250000D02*
X135160000Y-83250000D01*
X159992820Y-83250000D02*
X135935000Y-83250000D01*
X160602820Y-82640000D02*
X159992820Y-83250000D01*
X172660000Y-82640000D02*
X160602820Y-82640000D01*
X160330000Y-81640000D02*
X172660000Y-81640000D01*
X159710000Y-82260000D02*
X160330000Y-81640000D01*
X142182820Y-82260000D02*
X159710000Y-82260000D01*
X135160000Y-82250000D02*
X142172820Y-82250000D01*
X142172820Y-82250000D02*
X142182820Y-82260000D01*
X135935000Y-82750000D02*
X135160000Y-82750000D01*
X159856410Y-82750000D02*
X135935000Y-82750000D01*
X160466410Y-82140000D02*
X159856410Y-82750000D01*
X172660000Y-82140000D02*
X160466410Y-82140000D01*
D15*
G36*
X155202856Y-61460910D02*
G01*
X157001082Y-61674830D01*
X158775100Y-62038470D01*
X160512456Y-62549278D01*
X162200997Y-63203681D01*
X163828839Y-63997074D01*
X165384586Y-64923900D01*
X166857325Y-65977660D01*
X168236710Y-67150949D01*
X169513095Y-68435561D01*
X170677503Y-69822467D01*
X171721782Y-71301954D01*
X172638589Y-72863622D01*
X173421507Y-74496534D01*
X174065037Y-76189222D01*
X174564676Y-77929847D01*
X174916907Y-79706154D01*
X175079350Y-81150758D01*
X173735942Y-81148681D01*
X173715537Y-81110506D01*
X173682725Y-81070525D01*
X173820000Y-80933250D01*
X173808355Y-80828751D01*
X173769797Y-80709758D01*
X173708765Y-80600574D01*
X173627605Y-80505395D01*
X173529436Y-80427878D01*
X173418030Y-80371003D01*
X173297670Y-80336954D01*
X173172979Y-80327041D01*
X172945750Y-80330000D01*
X172787000Y-80488750D01*
X172787000Y-80826928D01*
X172533000Y-80826928D01*
X172533000Y-80488750D01*
X172374250Y-80330000D01*
X172147021Y-80327041D01*
X172022330Y-80336954D01*
X171901970Y-80371003D01*
X171790564Y-80427878D01*
X171692395Y-80505395D01*
X171611235Y-80600574D01*
X171550203Y-80709758D01*
X171511645Y-80828751D01*
X171505934Y-80880000D01*
X160367322Y-80880000D01*
X160329999Y-80876324D01*
X160292676Y-80880000D01*
X160292667Y-80880000D01*
X160181014Y-80890997D01*
X160037753Y-80934454D01*
X159905724Y-81005026D01*
X159905722Y-81005027D01*
X159905723Y-81005027D01*
X159818996Y-81076201D01*
X159818992Y-81076205D01*
X159789999Y-81099999D01*
X159767769Y-81127087D01*
X156761816Y-81122440D01*
X156786028Y-81106262D01*
X156916262Y-80976028D01*
X157018586Y-80822889D01*
X157089068Y-80652729D01*
X157125000Y-80472089D01*
X157125000Y-80287911D01*
X157089068Y-80107271D01*
X157018586Y-79937111D01*
X156916262Y-79783972D01*
X156786028Y-79653738D01*
X156632889Y-79551414D01*
X156462729Y-79480932D01*
X156282089Y-79445000D01*
X156097911Y-79445000D01*
X155917271Y-79480932D01*
X155747111Y-79551414D01*
X155644465Y-79620000D01*
X143443732Y-79620000D01*
X143406409Y-79616324D01*
X143369087Y-79620000D01*
X143369077Y-79620000D01*
X143257424Y-79630997D01*
X143114163Y-79674454D01*
X142982134Y-79745026D01*
X142866409Y-79839999D01*
X142842606Y-79869003D01*
X142772208Y-79939401D01*
X142772202Y-79939406D01*
X141721609Y-80990000D01*
X136314066Y-80990000D01*
X136308355Y-80938751D01*
X136269797Y-80819758D01*
X136208765Y-80710574D01*
X136127605Y-80615395D01*
X136029436Y-80537878D01*
X135918030Y-80481003D01*
X135797670Y-80446954D01*
X135672979Y-80437041D01*
X135445750Y-80440000D01*
X135287000Y-80598750D01*
X135287000Y-80936928D01*
X135033000Y-80936928D01*
X135033000Y-80598750D01*
X134874250Y-80440000D01*
X134647021Y-80437041D01*
X134522330Y-80446954D01*
X134401970Y-80481003D01*
X134290564Y-80537878D01*
X134192395Y-80615395D01*
X134111235Y-80710574D01*
X134050203Y-80819758D01*
X134011645Y-80938751D01*
X134000000Y-81043250D01*
X134044069Y-81087319D01*
X132032865Y-81084210D01*
X132137238Y-80016690D01*
X132463645Y-78235451D01*
X132554685Y-77900000D01*
X136596928Y-77900000D01*
X136596928Y-79900000D01*
X136609188Y-80024482D01*
X136645498Y-80144180D01*
X136704463Y-80254494D01*
X136783815Y-80351185D01*
X136880506Y-80430537D01*
X136990820Y-80489502D01*
X137110518Y-80525812D01*
X137235000Y-80538072D01*
X138585000Y-80538072D01*
X138709482Y-80525812D01*
X138829180Y-80489502D01*
X138939494Y-80430537D01*
X139036185Y-80351185D01*
X139115537Y-80254494D01*
X139174502Y-80144180D01*
X139210812Y-80024482D01*
X139223072Y-79900000D01*
X139223072Y-77900000D01*
X139212239Y-77790000D01*
X168596928Y-77790000D01*
X168596928Y-79790000D01*
X168609188Y-79914482D01*
X168645498Y-80034180D01*
X168704463Y-80144494D01*
X168783815Y-80241185D01*
X168880506Y-80320537D01*
X168990820Y-80379502D01*
X169110518Y-80415812D01*
X169235000Y-80428072D01*
X170585000Y-80428072D01*
X170709482Y-80415812D01*
X170829180Y-80379502D01*
X170939494Y-80320537D01*
X171036185Y-80241185D01*
X171115537Y-80144494D01*
X171174502Y-80034180D01*
X171210812Y-79914482D01*
X171223072Y-79790000D01*
X171223072Y-77790000D01*
X171210812Y-77665518D01*
X171174502Y-77545820D01*
X171115537Y-77435506D01*
X171036185Y-77338815D01*
X170939494Y-77259463D01*
X170829180Y-77200498D01*
X170709482Y-77164188D01*
X170585000Y-77151928D01*
X169235000Y-77151928D01*
X169110518Y-77164188D01*
X168990820Y-77200498D01*
X168880506Y-77259463D01*
X168783815Y-77338815D01*
X168704463Y-77435506D01*
X168645498Y-77545820D01*
X168609188Y-77665518D01*
X168596928Y-77790000D01*
X139212239Y-77790000D01*
X139210812Y-77775518D01*
X139174502Y-77655820D01*
X139115537Y-77545506D01*
X139036185Y-77448815D01*
X138939494Y-77369463D01*
X138829180Y-77310498D01*
X138709482Y-77274188D01*
X138585000Y-77261928D01*
X137235000Y-77261928D01*
X137110518Y-77274188D01*
X136990820Y-77310498D01*
X136880506Y-77369463D01*
X136783815Y-77448815D01*
X136704463Y-77545506D01*
X136645498Y-77655820D01*
X136609188Y-77775518D01*
X136596928Y-77900000D01*
X132554685Y-77900000D01*
X132937959Y-76487770D01*
X133556853Y-74785903D01*
X134315979Y-73141805D01*
X135210021Y-71566991D01*
X135858863Y-70618816D01*
X139765000Y-70618816D01*
X139765000Y-70921184D01*
X139823989Y-71217743D01*
X139939701Y-71497095D01*
X140107688Y-71748505D01*
X140321495Y-71962312D01*
X140572905Y-72130299D01*
X140852257Y-72246011D01*
X141148816Y-72305000D01*
X141451184Y-72305000D01*
X141747743Y-72246011D01*
X142027095Y-72130299D01*
X142278505Y-71962312D01*
X142492312Y-71748505D01*
X142660299Y-71497095D01*
X142776011Y-71217743D01*
X142835000Y-70921184D01*
X142835000Y-70618816D01*
X164265000Y-70618816D01*
X164265000Y-70921184D01*
X164323989Y-71217743D01*
X164439701Y-71497095D01*
X164607688Y-71748505D01*
X164821495Y-71962312D01*
X165072905Y-72130299D01*
X165352257Y-72246011D01*
X165648816Y-72305000D01*
X165951184Y-72305000D01*
X166247743Y-72246011D01*
X166527095Y-72130299D01*
X166778505Y-71962312D01*
X166992312Y-71748505D01*
X167160299Y-71497095D01*
X167276011Y-71217743D01*
X167335000Y-70921184D01*
X167335000Y-70618816D01*
X167276011Y-70322257D01*
X167160299Y-70042905D01*
X166992312Y-69791495D01*
X166778505Y-69577688D01*
X166527095Y-69409701D01*
X166247743Y-69293989D01*
X165951184Y-69235000D01*
X165648816Y-69235000D01*
X165352257Y-69293989D01*
X165072905Y-69409701D01*
X164821495Y-69577688D01*
X164607688Y-69791495D01*
X164439701Y-70042905D01*
X164323989Y-70322257D01*
X164265000Y-70618816D01*
X142835000Y-70618816D01*
X142776011Y-70322257D01*
X142660299Y-70042905D01*
X142492312Y-69791495D01*
X142278505Y-69577688D01*
X142027095Y-69409701D01*
X141747743Y-69293989D01*
X141451184Y-69235000D01*
X141148816Y-69235000D01*
X140852257Y-69293989D01*
X140572905Y-69409701D01*
X140321495Y-69577688D01*
X140107688Y-69791495D01*
X139939701Y-70042905D01*
X139823989Y-70322257D01*
X139765000Y-70618816D01*
X135858863Y-70618816D01*
X136232710Y-70072501D01*
X137376865Y-68668835D01*
X138634459Y-67365834D01*
X139996664Y-66172646D01*
X141453959Y-65097610D01*
X142996084Y-64148298D01*
X144612249Y-63331351D01*
X146291102Y-62652510D01*
X148020852Y-62116536D01*
X149789414Y-61727179D01*
X151584328Y-61487178D01*
X153393053Y-61398214D01*
X155202856Y-61460910D01*
X155202856Y-61460910D01*
G37*
X155202856Y-61460910D02*
X157001082Y-61674830D01*
X158775100Y-62038470D01*
X160512456Y-62549278D01*
X162200997Y-63203681D01*
X163828839Y-63997074D01*
X165384586Y-64923900D01*
X166857325Y-65977660D01*
X168236710Y-67150949D01*
X169513095Y-68435561D01*
X170677503Y-69822467D01*
X171721782Y-71301954D01*
X172638589Y-72863622D01*
X173421507Y-74496534D01*
X174065037Y-76189222D01*
X174564676Y-77929847D01*
X174916907Y-79706154D01*
X175079350Y-81150758D01*
X173735942Y-81148681D01*
X173715537Y-81110506D01*
X173682725Y-81070525D01*
X173820000Y-80933250D01*
X173808355Y-80828751D01*
X173769797Y-80709758D01*
X173708765Y-80600574D01*
X173627605Y-80505395D01*
X173529436Y-80427878D01*
X173418030Y-80371003D01*
X173297670Y-80336954D01*
X173172979Y-80327041D01*
X172945750Y-80330000D01*
X172787000Y-80488750D01*
X172787000Y-80826928D01*
X172533000Y-80826928D01*
X172533000Y-80488750D01*
X172374250Y-80330000D01*
X172147021Y-80327041D01*
X172022330Y-80336954D01*
X171901970Y-80371003D01*
X171790564Y-80427878D01*
X171692395Y-80505395D01*
X171611235Y-80600574D01*
X171550203Y-80709758D01*
X171511645Y-80828751D01*
X171505934Y-80880000D01*
X160367322Y-80880000D01*
X160329999Y-80876324D01*
X160292676Y-80880000D01*
X160292667Y-80880000D01*
X160181014Y-80890997D01*
X160037753Y-80934454D01*
X159905724Y-81005026D01*
X159905722Y-81005027D01*
X159905723Y-81005027D01*
X159818996Y-81076201D01*
X159818992Y-81076205D01*
X159789999Y-81099999D01*
X159767769Y-81127087D01*
X156761816Y-81122440D01*
X156786028Y-81106262D01*
X156916262Y-80976028D01*
X157018586Y-80822889D01*
X157089068Y-80652729D01*
X157125000Y-80472089D01*
X157125000Y-80287911D01*
X157089068Y-80107271D01*
X157018586Y-79937111D01*
X156916262Y-79783972D01*
X156786028Y-79653738D01*
X156632889Y-79551414D01*
X156462729Y-79480932D01*
X156282089Y-79445000D01*
X156097911Y-79445000D01*
X155917271Y-79480932D01*
X155747111Y-79551414D01*
X155644465Y-79620000D01*
X143443732Y-79620000D01*
X143406409Y-79616324D01*
X143369087Y-79620000D01*
X143369077Y-79620000D01*
X143257424Y-79630997D01*
X143114163Y-79674454D01*
X142982134Y-79745026D01*
X142866409Y-79839999D01*
X142842606Y-79869003D01*
X142772208Y-79939401D01*
X142772202Y-79939406D01*
X141721609Y-80990000D01*
X136314066Y-80990000D01*
X136308355Y-80938751D01*
X136269797Y-80819758D01*
X136208765Y-80710574D01*
X136127605Y-80615395D01*
X136029436Y-80537878D01*
X135918030Y-80481003D01*
X135797670Y-80446954D01*
X135672979Y-80437041D01*
X135445750Y-80440000D01*
X135287000Y-80598750D01*
X135287000Y-80936928D01*
X135033000Y-80936928D01*
X135033000Y-80598750D01*
X134874250Y-80440000D01*
X134647021Y-80437041D01*
X134522330Y-80446954D01*
X134401970Y-80481003D01*
X134290564Y-80537878D01*
X134192395Y-80615395D01*
X134111235Y-80710574D01*
X134050203Y-80819758D01*
X134011645Y-80938751D01*
X134000000Y-81043250D01*
X134044069Y-81087319D01*
X132032865Y-81084210D01*
X132137238Y-80016690D01*
X132463645Y-78235451D01*
X132554685Y-77900000D01*
X136596928Y-77900000D01*
X136596928Y-79900000D01*
X136609188Y-80024482D01*
X136645498Y-80144180D01*
X136704463Y-80254494D01*
X136783815Y-80351185D01*
X136880506Y-80430537D01*
X136990820Y-80489502D01*
X137110518Y-80525812D01*
X137235000Y-80538072D01*
X138585000Y-80538072D01*
X138709482Y-80525812D01*
X138829180Y-80489502D01*
X138939494Y-80430537D01*
X139036185Y-80351185D01*
X139115537Y-80254494D01*
X139174502Y-80144180D01*
X139210812Y-80024482D01*
X139223072Y-79900000D01*
X139223072Y-77900000D01*
X139212239Y-77790000D01*
X168596928Y-77790000D01*
X168596928Y-79790000D01*
X168609188Y-79914482D01*
X168645498Y-80034180D01*
X168704463Y-80144494D01*
X168783815Y-80241185D01*
X168880506Y-80320537D01*
X168990820Y-80379502D01*
X169110518Y-80415812D01*
X169235000Y-80428072D01*
X170585000Y-80428072D01*
X170709482Y-80415812D01*
X170829180Y-80379502D01*
X170939494Y-80320537D01*
X171036185Y-80241185D01*
X171115537Y-80144494D01*
X171174502Y-80034180D01*
X171210812Y-79914482D01*
X171223072Y-79790000D01*
X171223072Y-77790000D01*
X171210812Y-77665518D01*
X171174502Y-77545820D01*
X171115537Y-77435506D01*
X171036185Y-77338815D01*
X170939494Y-77259463D01*
X170829180Y-77200498D01*
X170709482Y-77164188D01*
X170585000Y-77151928D01*
X169235000Y-77151928D01*
X169110518Y-77164188D01*
X168990820Y-77200498D01*
X168880506Y-77259463D01*
X168783815Y-77338815D01*
X168704463Y-77435506D01*
X168645498Y-77545820D01*
X168609188Y-77665518D01*
X168596928Y-77790000D01*
X139212239Y-77790000D01*
X139210812Y-77775518D01*
X139174502Y-77655820D01*
X139115537Y-77545506D01*
X139036185Y-77448815D01*
X138939494Y-77369463D01*
X138829180Y-77310498D01*
X138709482Y-77274188D01*
X138585000Y-77261928D01*
X137235000Y-77261928D01*
X137110518Y-77274188D01*
X136990820Y-77310498D01*
X136880506Y-77369463D01*
X136783815Y-77448815D01*
X136704463Y-77545506D01*
X136645498Y-77655820D01*
X136609188Y-77775518D01*
X136596928Y-77900000D01*
X132554685Y-77900000D01*
X132937959Y-76487770D01*
X133556853Y-74785903D01*
X134315979Y-73141805D01*
X135210021Y-71566991D01*
X135858863Y-70618816D01*
X139765000Y-70618816D01*
X139765000Y-70921184D01*
X139823989Y-71217743D01*
X139939701Y-71497095D01*
X140107688Y-71748505D01*
X140321495Y-71962312D01*
X140572905Y-72130299D01*
X140852257Y-72246011D01*
X141148816Y-72305000D01*
X141451184Y-72305000D01*
X141747743Y-72246011D01*
X142027095Y-72130299D01*
X142278505Y-71962312D01*
X142492312Y-71748505D01*
X142660299Y-71497095D01*
X142776011Y-71217743D01*
X142835000Y-70921184D01*
X142835000Y-70618816D01*
X164265000Y-70618816D01*
X164265000Y-70921184D01*
X164323989Y-71217743D01*
X164439701Y-71497095D01*
X164607688Y-71748505D01*
X164821495Y-71962312D01*
X165072905Y-72130299D01*
X165352257Y-72246011D01*
X165648816Y-72305000D01*
X165951184Y-72305000D01*
X166247743Y-72246011D01*
X166527095Y-72130299D01*
X166778505Y-71962312D01*
X166992312Y-71748505D01*
X167160299Y-71497095D01*
X167276011Y-71217743D01*
X167335000Y-70921184D01*
X167335000Y-70618816D01*
X167276011Y-70322257D01*
X167160299Y-70042905D01*
X166992312Y-69791495D01*
X166778505Y-69577688D01*
X166527095Y-69409701D01*
X166247743Y-69293989D01*
X165951184Y-69235000D01*
X165648816Y-69235000D01*
X165352257Y-69293989D01*
X165072905Y-69409701D01*
X164821495Y-69577688D01*
X164607688Y-69791495D01*
X164439701Y-70042905D01*
X164323989Y-70322257D01*
X164265000Y-70618816D01*
X142835000Y-70618816D01*
X142776011Y-70322257D01*
X142660299Y-70042905D01*
X142492312Y-69791495D01*
X142278505Y-69577688D01*
X142027095Y-69409701D01*
X141747743Y-69293989D01*
X141451184Y-69235000D01*
X141148816Y-69235000D01*
X140852257Y-69293989D01*
X140572905Y-69409701D01*
X140321495Y-69577688D01*
X140107688Y-69791495D01*
X139939701Y-70042905D01*
X139823989Y-70322257D01*
X139765000Y-70618816D01*
X135858863Y-70618816D01*
X136232710Y-70072501D01*
X137376865Y-68668835D01*
X138634459Y-67365834D01*
X139996664Y-66172646D01*
X141453959Y-65097610D01*
X142996084Y-64148298D01*
X144612249Y-63331351D01*
X146291102Y-62652510D01*
X148020852Y-62116536D01*
X149789414Y-61727179D01*
X151584328Y-61487178D01*
X153393053Y-61398214D01*
X155202856Y-61460910D01*
G36*
X175137584Y-82155097D02*
G01*
X175170331Y-83315900D01*
X175069746Y-85124000D01*
X174818214Y-86917350D01*
X174417504Y-88683349D01*
X173870420Y-90409641D01*
X173180804Y-92084094D01*
X172353489Y-93694973D01*
X171394287Y-95230965D01*
X170309915Y-96681315D01*
X169107986Y-98035835D01*
X167788147Y-99293401D01*
X167762043Y-99315945D01*
X139362163Y-99324914D01*
X138211641Y-98260112D01*
X136990177Y-96923184D01*
X135884861Y-95488727D01*
X135646325Y-95118816D01*
X139765000Y-95118816D01*
X139765000Y-95421184D01*
X139823989Y-95717743D01*
X139939701Y-95997095D01*
X140107688Y-96248505D01*
X140321495Y-96462312D01*
X140572905Y-96630299D01*
X140852257Y-96746011D01*
X141148816Y-96805000D01*
X141451184Y-96805000D01*
X141747743Y-96746011D01*
X142027095Y-96630299D01*
X142278505Y-96462312D01*
X142492312Y-96248505D01*
X142660299Y-95997095D01*
X142776011Y-95717743D01*
X142835000Y-95421184D01*
X142835000Y-95118816D01*
X164265000Y-95118816D01*
X164265000Y-95421184D01*
X164323989Y-95717743D01*
X164439701Y-95997095D01*
X164607688Y-96248505D01*
X164821495Y-96462312D01*
X165072905Y-96630299D01*
X165352257Y-96746011D01*
X165648816Y-96805000D01*
X165951184Y-96805000D01*
X166247743Y-96746011D01*
X166527095Y-96630299D01*
X166778505Y-96462312D01*
X166992312Y-96248505D01*
X167160299Y-95997095D01*
X167276011Y-95717743D01*
X167335000Y-95421184D01*
X167335000Y-95118816D01*
X167276011Y-94822257D01*
X167160299Y-94542905D01*
X166992312Y-94291495D01*
X166778505Y-94077688D01*
X166527095Y-93909701D01*
X166247743Y-93793989D01*
X165951184Y-93735000D01*
X165648816Y-93735000D01*
X165352257Y-93793989D01*
X165072905Y-93909701D01*
X164821495Y-94077688D01*
X164607688Y-94291495D01*
X164439701Y-94542905D01*
X164323989Y-94822257D01*
X164265000Y-95118816D01*
X142835000Y-95118816D01*
X142776011Y-94822257D01*
X142660299Y-94542905D01*
X142492312Y-94291495D01*
X142278505Y-94077688D01*
X142027095Y-93909701D01*
X141747743Y-93793989D01*
X141451184Y-93735000D01*
X141148816Y-93735000D01*
X140852257Y-93793989D01*
X140572905Y-93909701D01*
X140321495Y-94077688D01*
X140107688Y-94291495D01*
X139939701Y-94542905D01*
X139823989Y-94822257D01*
X139765000Y-95118816D01*
X135646325Y-95118816D01*
X134903463Y-93966823D01*
X134052850Y-92368124D01*
X133338999Y-90703859D01*
X132766915Y-88985701D01*
X132340605Y-87225693D01*
X132166019Y-86100000D01*
X136596928Y-86100000D01*
X136596928Y-88100000D01*
X136609188Y-88224482D01*
X136645498Y-88344180D01*
X136704463Y-88454494D01*
X136783815Y-88551185D01*
X136880506Y-88630537D01*
X136990820Y-88689502D01*
X137110518Y-88725812D01*
X137235000Y-88738072D01*
X138585000Y-88738072D01*
X138709482Y-88725812D01*
X138829180Y-88689502D01*
X138939494Y-88630537D01*
X139036185Y-88551185D01*
X139115537Y-88454494D01*
X139174502Y-88344180D01*
X139210812Y-88224482D01*
X139223072Y-88100000D01*
X139223072Y-86100000D01*
X139210812Y-85975518D01*
X139174502Y-85855820D01*
X139115537Y-85745506D01*
X139036185Y-85648815D01*
X138939494Y-85569463D01*
X138829180Y-85510498D01*
X138709482Y-85474188D01*
X138585000Y-85461928D01*
X137235000Y-85461928D01*
X137110518Y-85474188D01*
X136990820Y-85510498D01*
X136880506Y-85569463D01*
X136783815Y-85648815D01*
X136704463Y-85745506D01*
X136645498Y-85855820D01*
X136609188Y-85975518D01*
X136596928Y-86100000D01*
X132166019Y-86100000D01*
X132063066Y-85436182D01*
X131955898Y-83909687D01*
X133996928Y-83824045D01*
X133996928Y-83925000D01*
X134004315Y-84000000D01*
X133996928Y-84075000D01*
X133996928Y-84425000D01*
X134004552Y-84502406D01*
X134000000Y-84543250D01*
X134010475Y-84553725D01*
X134045498Y-84669180D01*
X134104463Y-84779494D01*
X134137275Y-84819475D01*
X134000000Y-84956750D01*
X134011645Y-85061249D01*
X134050203Y-85180242D01*
X134111235Y-85289426D01*
X134192395Y-85384605D01*
X134290564Y-85462122D01*
X134401970Y-85518997D01*
X134522330Y-85553046D01*
X134647021Y-85562959D01*
X134874250Y-85560000D01*
X135033000Y-85401250D01*
X135033000Y-85063072D01*
X135287000Y-85063072D01*
X135287000Y-85401250D01*
X135445750Y-85560000D01*
X135672979Y-85562959D01*
X135797670Y-85553046D01*
X135918030Y-85518997D01*
X136029436Y-85462122D01*
X136127605Y-85384605D01*
X136208765Y-85289426D01*
X136269797Y-85180242D01*
X136308355Y-85061249D01*
X136314066Y-85010000D01*
X142375199Y-85010000D01*
X143916201Y-86551003D01*
X143939999Y-86580001D01*
X144055724Y-86674974D01*
X144187753Y-86745546D01*
X144331014Y-86789003D01*
X144442667Y-86800000D01*
X144442676Y-86800000D01*
X144479999Y-86803676D01*
X144517322Y-86800000D01*
X154754465Y-86800000D01*
X154857111Y-86868586D01*
X155027271Y-86939068D01*
X155207911Y-86975000D01*
X155392089Y-86975000D01*
X155572729Y-86939068D01*
X155742889Y-86868586D01*
X155845535Y-86800000D01*
X165339088Y-86800000D01*
X165376410Y-86803676D01*
X165413732Y-86800000D01*
X165413743Y-86800000D01*
X165525396Y-86789003D01*
X165668657Y-86745546D01*
X165800686Y-86674974D01*
X165916411Y-86580001D01*
X165940214Y-86550997D01*
X166501211Y-85990000D01*
X168596928Y-85990000D01*
X168596928Y-87990000D01*
X168609188Y-88114482D01*
X168645498Y-88234180D01*
X168704463Y-88344494D01*
X168783815Y-88441185D01*
X168880506Y-88520537D01*
X168990820Y-88579502D01*
X169110518Y-88615812D01*
X169235000Y-88628072D01*
X170585000Y-88628072D01*
X170709482Y-88615812D01*
X170829180Y-88579502D01*
X170939494Y-88520537D01*
X171036185Y-88441185D01*
X171115537Y-88344494D01*
X171174502Y-88234180D01*
X171210812Y-88114482D01*
X171223072Y-87990000D01*
X171223072Y-85990000D01*
X171210812Y-85865518D01*
X171174502Y-85745820D01*
X171115537Y-85635506D01*
X171036185Y-85538815D01*
X170939494Y-85459463D01*
X170829180Y-85400498D01*
X170709482Y-85364188D01*
X170585000Y-85351928D01*
X169235000Y-85351928D01*
X169110518Y-85364188D01*
X168990820Y-85400498D01*
X168880506Y-85459463D01*
X168783815Y-85538815D01*
X168704463Y-85635506D01*
X168645498Y-85745820D01*
X168609188Y-85865518D01*
X168596928Y-85990000D01*
X166501211Y-85990000D01*
X167591212Y-84900000D01*
X171505934Y-84900000D01*
X171511645Y-84951249D01*
X171550203Y-85070242D01*
X171611235Y-85179426D01*
X171692395Y-85274605D01*
X171790564Y-85352122D01*
X171901970Y-85408997D01*
X172022330Y-85443046D01*
X172147021Y-85452959D01*
X172374250Y-85450000D01*
X172533000Y-85291250D01*
X172533000Y-84953072D01*
X172787000Y-84953072D01*
X172787000Y-85291250D01*
X172945750Y-85450000D01*
X173172979Y-85452959D01*
X173297670Y-85443046D01*
X173418030Y-85408997D01*
X173529436Y-85352122D01*
X173627605Y-85274605D01*
X173708765Y-85179426D01*
X173769797Y-85070242D01*
X173808355Y-84951249D01*
X173820000Y-84846750D01*
X173682725Y-84709475D01*
X173715537Y-84669494D01*
X173774502Y-84559180D01*
X173809525Y-84443725D01*
X173820000Y-84433250D01*
X173815448Y-84392406D01*
X173823072Y-84315000D01*
X173823072Y-83965000D01*
X173815685Y-83890000D01*
X173823072Y-83815000D01*
X173823072Y-83465000D01*
X173815685Y-83390000D01*
X173823072Y-83315000D01*
X173823072Y-82965000D01*
X173815685Y-82890000D01*
X173823072Y-82815000D01*
X173823072Y-82465000D01*
X173815685Y-82390000D01*
X173823072Y-82315000D01*
X173823072Y-82152927D01*
X174201440Y-82137051D01*
X175137584Y-82155097D01*
X175137584Y-82155097D01*
G37*
X175137584Y-82155097D02*
X175170331Y-83315900D01*
X175069746Y-85124000D01*
X174818214Y-86917350D01*
X174417504Y-88683349D01*
X173870420Y-90409641D01*
X173180804Y-92084094D01*
X172353489Y-93694973D01*
X171394287Y-95230965D01*
X170309915Y-96681315D01*
X169107986Y-98035835D01*
X167788147Y-99293401D01*
X167762043Y-99315945D01*
X139362163Y-99324914D01*
X138211641Y-98260112D01*
X136990177Y-96923184D01*
X135884861Y-95488727D01*
X135646325Y-95118816D01*
X139765000Y-95118816D01*
X139765000Y-95421184D01*
X139823989Y-95717743D01*
X139939701Y-95997095D01*
X140107688Y-96248505D01*
X140321495Y-96462312D01*
X140572905Y-96630299D01*
X140852257Y-96746011D01*
X141148816Y-96805000D01*
X141451184Y-96805000D01*
X141747743Y-96746011D01*
X142027095Y-96630299D01*
X142278505Y-96462312D01*
X142492312Y-96248505D01*
X142660299Y-95997095D01*
X142776011Y-95717743D01*
X142835000Y-95421184D01*
X142835000Y-95118816D01*
X164265000Y-95118816D01*
X164265000Y-95421184D01*
X164323989Y-95717743D01*
X164439701Y-95997095D01*
X164607688Y-96248505D01*
X164821495Y-96462312D01*
X165072905Y-96630299D01*
X165352257Y-96746011D01*
X165648816Y-96805000D01*
X165951184Y-96805000D01*
X166247743Y-96746011D01*
X166527095Y-96630299D01*
X166778505Y-96462312D01*
X166992312Y-96248505D01*
X167160299Y-95997095D01*
X167276011Y-95717743D01*
X167335000Y-95421184D01*
X167335000Y-95118816D01*
X167276011Y-94822257D01*
X167160299Y-94542905D01*
X166992312Y-94291495D01*
X166778505Y-94077688D01*
X166527095Y-93909701D01*
X166247743Y-93793989D01*
X165951184Y-93735000D01*
X165648816Y-93735000D01*
X165352257Y-93793989D01*
X165072905Y-93909701D01*
X164821495Y-94077688D01*
X164607688Y-94291495D01*
X164439701Y-94542905D01*
X164323989Y-94822257D01*
X164265000Y-95118816D01*
X142835000Y-95118816D01*
X142776011Y-94822257D01*
X142660299Y-94542905D01*
X142492312Y-94291495D01*
X142278505Y-94077688D01*
X142027095Y-93909701D01*
X141747743Y-93793989D01*
X141451184Y-93735000D01*
X141148816Y-93735000D01*
X140852257Y-93793989D01*
X140572905Y-93909701D01*
X140321495Y-94077688D01*
X140107688Y-94291495D01*
X139939701Y-94542905D01*
X139823989Y-94822257D01*
X139765000Y-95118816D01*
X135646325Y-95118816D01*
X134903463Y-93966823D01*
X134052850Y-92368124D01*
X133338999Y-90703859D01*
X132766915Y-88985701D01*
X132340605Y-87225693D01*
X132166019Y-86100000D01*
X136596928Y-86100000D01*
X136596928Y-88100000D01*
X136609188Y-88224482D01*
X136645498Y-88344180D01*
X136704463Y-88454494D01*
X136783815Y-88551185D01*
X136880506Y-88630537D01*
X136990820Y-88689502D01*
X137110518Y-88725812D01*
X137235000Y-88738072D01*
X138585000Y-88738072D01*
X138709482Y-88725812D01*
X138829180Y-88689502D01*
X138939494Y-88630537D01*
X139036185Y-88551185D01*
X139115537Y-88454494D01*
X139174502Y-88344180D01*
X139210812Y-88224482D01*
X139223072Y-88100000D01*
X139223072Y-86100000D01*
X139210812Y-85975518D01*
X139174502Y-85855820D01*
X139115537Y-85745506D01*
X139036185Y-85648815D01*
X138939494Y-85569463D01*
X138829180Y-85510498D01*
X138709482Y-85474188D01*
X138585000Y-85461928D01*
X137235000Y-85461928D01*
X137110518Y-85474188D01*
X136990820Y-85510498D01*
X136880506Y-85569463D01*
X136783815Y-85648815D01*
X136704463Y-85745506D01*
X136645498Y-85855820D01*
X136609188Y-85975518D01*
X136596928Y-86100000D01*
X132166019Y-86100000D01*
X132063066Y-85436182D01*
X131955898Y-83909687D01*
X133996928Y-83824045D01*
X133996928Y-83925000D01*
X134004315Y-84000000D01*
X133996928Y-84075000D01*
X133996928Y-84425000D01*
X134004552Y-84502406D01*
X134000000Y-84543250D01*
X134010475Y-84553725D01*
X134045498Y-84669180D01*
X134104463Y-84779494D01*
X134137275Y-84819475D01*
X134000000Y-84956750D01*
X134011645Y-85061249D01*
X134050203Y-85180242D01*
X134111235Y-85289426D01*
X134192395Y-85384605D01*
X134290564Y-85462122D01*
X134401970Y-85518997D01*
X134522330Y-85553046D01*
X134647021Y-85562959D01*
X134874250Y-85560000D01*
X135033000Y-85401250D01*
X135033000Y-85063072D01*
X135287000Y-85063072D01*
X135287000Y-85401250D01*
X135445750Y-85560000D01*
X135672979Y-85562959D01*
X135797670Y-85553046D01*
X135918030Y-85518997D01*
X136029436Y-85462122D01*
X136127605Y-85384605D01*
X136208765Y-85289426D01*
X136269797Y-85180242D01*
X136308355Y-85061249D01*
X136314066Y-85010000D01*
X142375199Y-85010000D01*
X143916201Y-86551003D01*
X143939999Y-86580001D01*
X144055724Y-86674974D01*
X144187753Y-86745546D01*
X144331014Y-86789003D01*
X144442667Y-86800000D01*
X144442676Y-86800000D01*
X144479999Y-86803676D01*
X144517322Y-86800000D01*
X154754465Y-86800000D01*
X154857111Y-86868586D01*
X155027271Y-86939068D01*
X155207911Y-86975000D01*
X155392089Y-86975000D01*
X155572729Y-86939068D01*
X155742889Y-86868586D01*
X155845535Y-86800000D01*
X165339088Y-86800000D01*
X165376410Y-86803676D01*
X165413732Y-86800000D01*
X165413743Y-86800000D01*
X165525396Y-86789003D01*
X165668657Y-86745546D01*
X165800686Y-86674974D01*
X165916411Y-86580001D01*
X165940214Y-86550997D01*
X166501211Y-85990000D01*
X168596928Y-85990000D01*
X168596928Y-87990000D01*
X168609188Y-88114482D01*
X168645498Y-88234180D01*
X168704463Y-88344494D01*
X168783815Y-88441185D01*
X168880506Y-88520537D01*
X168990820Y-88579502D01*
X169110518Y-88615812D01*
X169235000Y-88628072D01*
X170585000Y-88628072D01*
X170709482Y-88615812D01*
X170829180Y-88579502D01*
X170939494Y-88520537D01*
X171036185Y-88441185D01*
X171115537Y-88344494D01*
X171174502Y-88234180D01*
X171210812Y-88114482D01*
X171223072Y-87990000D01*
X171223072Y-85990000D01*
X171210812Y-85865518D01*
X171174502Y-85745820D01*
X171115537Y-85635506D01*
X171036185Y-85538815D01*
X170939494Y-85459463D01*
X170829180Y-85400498D01*
X170709482Y-85364188D01*
X170585000Y-85351928D01*
X169235000Y-85351928D01*
X169110518Y-85364188D01*
X168990820Y-85400498D01*
X168880506Y-85459463D01*
X168783815Y-85538815D01*
X168704463Y-85635506D01*
X168645498Y-85745820D01*
X168609188Y-85865518D01*
X168596928Y-85990000D01*
X166501211Y-85990000D01*
X167591212Y-84900000D01*
X171505934Y-84900000D01*
X171511645Y-84951249D01*
X171550203Y-85070242D01*
X171611235Y-85179426D01*
X171692395Y-85274605D01*
X171790564Y-85352122D01*
X171901970Y-85408997D01*
X172022330Y-85443046D01*
X172147021Y-85452959D01*
X172374250Y-85450000D01*
X172533000Y-85291250D01*
X172533000Y-84953072D01*
X172787000Y-84953072D01*
X172787000Y-85291250D01*
X172945750Y-85450000D01*
X173172979Y-85452959D01*
X173297670Y-85443046D01*
X173418030Y-85408997D01*
X173529436Y-85352122D01*
X173627605Y-85274605D01*
X173708765Y-85179426D01*
X173769797Y-85070242D01*
X173808355Y-84951249D01*
X173820000Y-84846750D01*
X173682725Y-84709475D01*
X173715537Y-84669494D01*
X173774502Y-84559180D01*
X173809525Y-84443725D01*
X173820000Y-84433250D01*
X173815448Y-84392406D01*
X173823072Y-84315000D01*
X173823072Y-83965000D01*
X173815685Y-83890000D01*
X173823072Y-83815000D01*
X173823072Y-83465000D01*
X173815685Y-83390000D01*
X173823072Y-83315000D01*
X173823072Y-82965000D01*
X173815685Y-82890000D01*
X173823072Y-82815000D01*
X173823072Y-82465000D01*
X173815685Y-82390000D01*
X173823072Y-82315000D01*
X173823072Y-82152927D01*
X174201440Y-82137051D01*
X175137584Y-82155097D01*
M02*
