%TF.GenerationSoftware,KiCad,Pcbnew,(5.1.6-0-10_14)*%
%TF.CreationDate,2020-07-22T10:09:11+09:00*%
%TF.ProjectId,sig_sensor,7369675f-7365-46e7-936f-722e6b696361,rev?*%
%TF.SameCoordinates,Original*%
%TF.FileFunction,Soldermask,Top*%
%TF.FilePolarity,Negative*%
%FSLAX46Y46*%
G04 Gerber Fmt 4.6, Leading zero omitted, Abs format (unit mm)*
G04 Created by KiCad (PCBNEW (5.1.6-0-10_14)) date 2020-07-22 10:09:11*
%MOMM*%
%LPD*%
G01*
G04 APERTURE LIST*
%ADD10C,0.100000*%
G04 APERTURE END LIST*
D10*
G36*
X184151000Y-106601000D02*
G01*
X183049000Y-106601000D01*
X183049000Y-103699000D01*
X184151000Y-103699000D01*
X184151000Y-106601000D01*
G37*
G36*
X176951000Y-106601000D02*
G01*
X175849000Y-106601000D01*
X175849000Y-103699000D01*
X176951000Y-103699000D01*
X176951000Y-106601000D01*
G37*
G36*
X180851000Y-100901000D02*
G01*
X180149000Y-100901000D01*
X180149000Y-99099000D01*
X180851000Y-99099000D01*
X180851000Y-100901000D01*
G37*
G36*
X179851000Y-100901000D02*
G01*
X179149000Y-100901000D01*
X179149000Y-99099000D01*
X179851000Y-99099000D01*
X179851000Y-100901000D01*
G37*
G36*
X178851000Y-100901000D02*
G01*
X178149000Y-100901000D01*
X178149000Y-99099000D01*
X178851000Y-99099000D01*
X178851000Y-100901000D01*
G37*
G36*
X177851000Y-100901000D02*
G01*
X177149000Y-100901000D01*
X177149000Y-99099000D01*
X177851000Y-99099000D01*
X177851000Y-100901000D01*
G37*
G36*
X181851000Y-100901000D02*
G01*
X181149000Y-100901000D01*
X181149000Y-99099000D01*
X181851000Y-99099000D01*
X181851000Y-100901000D01*
G37*
G36*
X182851000Y-100901000D02*
G01*
X182149000Y-100901000D01*
X182149000Y-99099000D01*
X182851000Y-99099000D01*
X182851000Y-100901000D01*
G37*
G36*
X182186938Y-97431716D02*
G01*
X182207557Y-97437971D01*
X182226553Y-97448124D01*
X182243208Y-97461792D01*
X182256876Y-97478447D01*
X182267029Y-97497443D01*
X182273284Y-97518062D01*
X182276000Y-97545640D01*
X182276000Y-98054360D01*
X182273284Y-98081938D01*
X182267029Y-98102557D01*
X182256876Y-98121553D01*
X182243208Y-98138208D01*
X182226553Y-98151876D01*
X182207557Y-98162029D01*
X182186938Y-98168284D01*
X182159360Y-98171000D01*
X181700640Y-98171000D01*
X181673062Y-98168284D01*
X181652443Y-98162029D01*
X181633447Y-98151876D01*
X181616792Y-98138208D01*
X181603124Y-98121553D01*
X181592971Y-98102557D01*
X181586716Y-98081938D01*
X181584000Y-98054360D01*
X181584000Y-97545640D01*
X181586716Y-97518062D01*
X181592971Y-97497443D01*
X181603124Y-97478447D01*
X181616792Y-97461792D01*
X181633447Y-97448124D01*
X181652443Y-97437971D01*
X181673062Y-97431716D01*
X181700640Y-97429000D01*
X182159360Y-97429000D01*
X182186938Y-97431716D01*
G37*
G36*
X183156938Y-97431716D02*
G01*
X183177557Y-97437971D01*
X183196553Y-97448124D01*
X183213208Y-97461792D01*
X183226876Y-97478447D01*
X183237029Y-97497443D01*
X183243284Y-97518062D01*
X183246000Y-97545640D01*
X183246000Y-98054360D01*
X183243284Y-98081938D01*
X183237029Y-98102557D01*
X183226876Y-98121553D01*
X183213208Y-98138208D01*
X183196553Y-98151876D01*
X183177557Y-98162029D01*
X183156938Y-98168284D01*
X183129360Y-98171000D01*
X182670640Y-98171000D01*
X182643062Y-98168284D01*
X182622443Y-98162029D01*
X182603447Y-98151876D01*
X182586792Y-98138208D01*
X182573124Y-98121553D01*
X182562971Y-98102557D01*
X182556716Y-98081938D01*
X182554000Y-98054360D01*
X182554000Y-97545640D01*
X182556716Y-97518062D01*
X182562971Y-97497443D01*
X182573124Y-97478447D01*
X182586792Y-97461792D01*
X182603447Y-97448124D01*
X182622443Y-97437971D01*
X182643062Y-97431716D01*
X182670640Y-97429000D01*
X183129360Y-97429000D01*
X183156938Y-97431716D01*
G37*
G36*
X178500170Y-96600803D02*
G01*
X178511875Y-96604354D01*
X178522665Y-96610121D01*
X178532119Y-96617881D01*
X178539879Y-96627335D01*
X178545646Y-96638125D01*
X178549197Y-96649830D01*
X178551000Y-96668138D01*
X178551000Y-97091862D01*
X178549197Y-97110170D01*
X178545645Y-97121877D01*
X178535383Y-97141077D01*
X178526006Y-97163716D01*
X178521226Y-97187749D01*
X178521226Y-97212253D01*
X178526007Y-97236286D01*
X178535383Y-97258923D01*
X178545645Y-97278123D01*
X178549197Y-97289830D01*
X178551000Y-97308138D01*
X178551000Y-97731862D01*
X178549197Y-97750170D01*
X178545646Y-97761875D01*
X178539879Y-97772665D01*
X178532119Y-97782119D01*
X178522665Y-97789879D01*
X178511875Y-97795646D01*
X178500170Y-97799197D01*
X178481862Y-97801000D01*
X178118138Y-97801000D01*
X178099830Y-97799197D01*
X178088125Y-97795646D01*
X178077335Y-97789879D01*
X178067881Y-97782119D01*
X178060121Y-97772665D01*
X178054354Y-97761875D01*
X178050803Y-97750170D01*
X178049000Y-97731862D01*
X178049000Y-97308138D01*
X178050803Y-97289830D01*
X178054355Y-97278123D01*
X178064617Y-97258923D01*
X178073994Y-97236284D01*
X178078774Y-97212251D01*
X178078774Y-97187747D01*
X178073993Y-97163714D01*
X178064617Y-97141077D01*
X178054355Y-97121877D01*
X178050803Y-97110170D01*
X178049000Y-97091862D01*
X178049000Y-96668138D01*
X178050803Y-96649830D01*
X178054354Y-96638125D01*
X178060121Y-96627335D01*
X178067881Y-96617881D01*
X178077335Y-96610121D01*
X178088125Y-96604354D01*
X178099830Y-96600803D01*
X178118138Y-96599000D01*
X178481862Y-96599000D01*
X178500170Y-96600803D01*
G37*
G36*
X179551000Y-97676000D02*
G01*
X179099000Y-97676000D01*
X179099000Y-96324000D01*
X179551000Y-96324000D01*
X179551000Y-97676000D01*
G37*
G36*
X180901000Y-97676000D02*
G01*
X180449000Y-97676000D01*
X180449000Y-97324000D01*
X180901000Y-97324000D01*
X180901000Y-97676000D01*
G37*
G36*
X182210170Y-96250803D02*
G01*
X182221877Y-96254355D01*
X182241077Y-96264617D01*
X182263716Y-96273994D01*
X182287749Y-96278774D01*
X182312253Y-96278774D01*
X182336286Y-96273993D01*
X182358923Y-96264617D01*
X182378123Y-96254355D01*
X182389830Y-96250803D01*
X182408138Y-96249000D01*
X182831862Y-96249000D01*
X182850170Y-96250803D01*
X182861875Y-96254354D01*
X182872665Y-96260121D01*
X182882119Y-96267881D01*
X182889879Y-96277335D01*
X182895646Y-96288125D01*
X182899197Y-96299830D01*
X182901000Y-96318138D01*
X182901000Y-96681862D01*
X182899197Y-96700170D01*
X182895646Y-96711875D01*
X182889879Y-96722665D01*
X182882119Y-96732119D01*
X182872665Y-96739879D01*
X182861875Y-96745646D01*
X182850170Y-96749197D01*
X182831862Y-96751000D01*
X182408138Y-96751000D01*
X182389830Y-96749197D01*
X182378123Y-96745645D01*
X182358923Y-96735383D01*
X182336284Y-96726006D01*
X182312251Y-96721226D01*
X182287747Y-96721226D01*
X182263714Y-96726007D01*
X182241077Y-96735383D01*
X182221877Y-96745645D01*
X182210170Y-96749197D01*
X182191862Y-96751000D01*
X181768138Y-96751000D01*
X181749830Y-96749197D01*
X181738125Y-96745646D01*
X181727335Y-96739879D01*
X181717881Y-96732119D01*
X181710121Y-96722665D01*
X181704354Y-96711875D01*
X181700803Y-96700170D01*
X181699000Y-96681862D01*
X181699000Y-96318138D01*
X181700803Y-96299830D01*
X181704354Y-96288125D01*
X181710121Y-96277335D01*
X181717881Y-96267881D01*
X181727335Y-96260121D01*
X181738125Y-96254354D01*
X181749830Y-96250803D01*
X181768138Y-96249000D01*
X182191862Y-96249000D01*
X182210170Y-96250803D01*
G37*
G36*
X180901000Y-96676000D02*
G01*
X180449000Y-96676000D01*
X180449000Y-96324000D01*
X180901000Y-96324000D01*
X180901000Y-96676000D01*
G37*
G36*
X177851000Y-94901000D02*
G01*
X177149000Y-94901000D01*
X177149000Y-93099000D01*
X177851000Y-93099000D01*
X177851000Y-94901000D01*
G37*
G36*
X178851000Y-94901000D02*
G01*
X178149000Y-94901000D01*
X178149000Y-93099000D01*
X178851000Y-93099000D01*
X178851000Y-94901000D01*
G37*
G36*
X179851000Y-94901000D02*
G01*
X179149000Y-94901000D01*
X179149000Y-93099000D01*
X179851000Y-93099000D01*
X179851000Y-94901000D01*
G37*
G36*
X180851000Y-94901000D02*
G01*
X180149000Y-94901000D01*
X180149000Y-93099000D01*
X180851000Y-93099000D01*
X180851000Y-94901000D01*
G37*
G36*
X181851000Y-94901000D02*
G01*
X181149000Y-94901000D01*
X181149000Y-93099000D01*
X181851000Y-93099000D01*
X181851000Y-94901000D01*
G37*
G36*
X182851000Y-94901000D02*
G01*
X182149000Y-94901000D01*
X182149000Y-93099000D01*
X182851000Y-93099000D01*
X182851000Y-94901000D01*
G37*
G36*
X176951000Y-90301000D02*
G01*
X175849000Y-90301000D01*
X175849000Y-87399000D01*
X176951000Y-87399000D01*
X176951000Y-90301000D01*
G37*
G36*
X184151000Y-90301000D02*
G01*
X183049000Y-90301000D01*
X183049000Y-87399000D01*
X184151000Y-87399000D01*
X184151000Y-90301000D01*
G37*
M02*
