%TF.GenerationSoftware,KiCad,Pcbnew,(5.1.6-0-10_14)*%
%TF.CreationDate,2020-07-22T10:09:11+09:00*%
%TF.ProjectId,sig_sensor,7369675f-7365-46e7-936f-722e6b696361,rev?*%
%TF.SameCoordinates,Original*%
%TF.FileFunction,Legend,Top*%
%TF.FilePolarity,Positive*%
%FSLAX46Y46*%
G04 Gerber Fmt 4.6, Leading zero omitted, Abs format (unit mm)*
G04 Created by KiCad (PCBNEW (5.1.6-0-10_14)) date 2020-07-22 10:09:11*
%MOMM*%
%LPD*%
G01*
G04 APERTURE LIST*
%ADD10C,0.120000*%
%ADD11C,0.150000*%
G04 APERTURE END LIST*
D10*
%TO.C,J2*%
X183000000Y-103510000D02*
X183000000Y-98970000D01*
X177000000Y-103510000D02*
X177000000Y-98970000D01*
X184460000Y-103510000D02*
X182800000Y-103510000D01*
X175540000Y-103510000D02*
X177200000Y-103500000D01*
X184460000Y-106800000D02*
X184460000Y-103510000D01*
X175540000Y-106800000D02*
X175540000Y-103510000D01*
X182800000Y-106800000D02*
X184460000Y-106800000D01*
X177200000Y-106800000D02*
X175540000Y-106800000D01*
X182800000Y-103500000D02*
X182800000Y-106800000D01*
X177200000Y-103500000D02*
X177200000Y-106800000D01*
X177000000Y-101030000D02*
X183000000Y-101030000D01*
X177000000Y-98970000D02*
X183000000Y-98970000D01*
%TO.C,J1*%
X177000000Y-90490000D02*
X177000000Y-95030000D01*
X183000000Y-90490000D02*
X183000000Y-95030000D01*
X175540000Y-90490000D02*
X177200000Y-90490000D01*
X184460000Y-90490000D02*
X182800000Y-90500000D01*
X175540000Y-87200000D02*
X175540000Y-90490000D01*
X184460000Y-87200000D02*
X184460000Y-90490000D01*
X177200000Y-87200000D02*
X175540000Y-87200000D01*
X182800000Y-87200000D02*
X184460000Y-87200000D01*
X177200000Y-90500000D02*
X177200000Y-87200000D01*
X182800000Y-90500000D02*
X182800000Y-87200000D01*
X183000000Y-92970000D02*
X177000000Y-92970000D01*
X183000000Y-95030000D02*
X177000000Y-95030000D01*
%TO.C,J2*%
D11*
X179666666Y-101452380D02*
X179666666Y-102166666D01*
X179619047Y-102309523D01*
X179523809Y-102404761D01*
X179380952Y-102452380D01*
X179285714Y-102452380D01*
X180095238Y-101547619D02*
X180142857Y-101500000D01*
X180238095Y-101452380D01*
X180476190Y-101452380D01*
X180571428Y-101500000D01*
X180619047Y-101547619D01*
X180666666Y-101642857D01*
X180666666Y-101738095D01*
X180619047Y-101880952D01*
X180047619Y-102452380D01*
X180666666Y-102452380D01*
%TO.C,J1*%
X179666666Y-91452380D02*
X179666666Y-92166666D01*
X179619047Y-92309523D01*
X179523809Y-92404761D01*
X179380952Y-92452380D01*
X179285714Y-92452380D01*
X180666666Y-92452380D02*
X180095238Y-92452380D01*
X180380952Y-92452380D02*
X180380952Y-91452380D01*
X180285714Y-91595238D01*
X180190476Y-91690476D01*
X180095238Y-91738095D01*
%TD*%
M02*
