%TF.GenerationSoftware,KiCad,Pcbnew,(5.1.6-0-10_14)*%
%TF.CreationDate,2020-07-22T10:09:11+09:00*%
%TF.ProjectId,sig_sensor,7369675f-7365-46e7-936f-722e6b696361,rev?*%
%TF.SameCoordinates,Original*%
%TF.FileFunction,Paste,Top*%
%TF.FilePolarity,Positive*%
%FSLAX46Y46*%
G04 Gerber Fmt 4.6, Leading zero omitted, Abs format (unit mm)*
G04 Created by KiCad (PCBNEW (5.1.6-0-10_14)) date 2020-07-22 10:09:11*
%MOMM*%
%LPD*%
G01*
G04 APERTURE LIST*
%ADD10R,1.000000X2.800000*%
%ADD11R,0.600000X1.700000*%
%ADD12R,0.350000X0.250000*%
G04 APERTURE END LIST*
D10*
%TO.C,J2*%
X183600000Y-105150000D03*
X176400000Y-105150000D03*
D11*
X182500000Y-100000000D03*
X181500000Y-100000000D03*
X180500000Y-100000000D03*
X179500000Y-100000000D03*
X178500000Y-100000000D03*
X177500000Y-100000000D03*
%TD*%
D10*
%TO.C,J1*%
X176400000Y-88850000D03*
X183600000Y-88850000D03*
D11*
X177500000Y-94000000D03*
X178500000Y-94000000D03*
X179500000Y-94000000D03*
X180500000Y-94000000D03*
X181500000Y-94000000D03*
X182500000Y-94000000D03*
%TD*%
%TO.C,C1*%
G36*
G01*
X178400500Y-97014000D02*
X178199500Y-97014000D01*
G75*
G02*
X178120000Y-96934500I0J79500D01*
G01*
X178120000Y-96775500D01*
G75*
G02*
X178199500Y-96696000I79500J0D01*
G01*
X178400500Y-96696000D01*
G75*
G02*
X178480000Y-96775500I0J-79500D01*
G01*
X178480000Y-96934500D01*
G75*
G02*
X178400500Y-97014000I-79500J0D01*
G01*
G37*
G36*
G01*
X178400500Y-97704000D02*
X178199500Y-97704000D01*
G75*
G02*
X178120000Y-97624500I0J79500D01*
G01*
X178120000Y-97465500D01*
G75*
G02*
X178199500Y-97386000I79500J0D01*
G01*
X178400500Y-97386000D01*
G75*
G02*
X178480000Y-97465500I0J-79500D01*
G01*
X178480000Y-97624500D01*
G75*
G02*
X178400500Y-97704000I-79500J0D01*
G01*
G37*
%TD*%
%TO.C,C2*%
G36*
G01*
X182486000Y-96600500D02*
X182486000Y-96399500D01*
G75*
G02*
X182565500Y-96320000I79500J0D01*
G01*
X182724500Y-96320000D01*
G75*
G02*
X182804000Y-96399500I0J-79500D01*
G01*
X182804000Y-96600500D01*
G75*
G02*
X182724500Y-96680000I-79500J0D01*
G01*
X182565500Y-96680000D01*
G75*
G02*
X182486000Y-96600500I0J79500D01*
G01*
G37*
G36*
G01*
X181796000Y-96600500D02*
X181796000Y-96399500D01*
G75*
G02*
X181875500Y-96320000I79500J0D01*
G01*
X182034500Y-96320000D01*
G75*
G02*
X182114000Y-96399500I0J-79500D01*
G01*
X182114000Y-96600500D01*
G75*
G02*
X182034500Y-96680000I-79500J0D01*
G01*
X181875500Y-96680000D01*
G75*
G02*
X181796000Y-96600500I0J79500D01*
G01*
G37*
%TD*%
%TO.C,R1*%
G36*
G01*
X182605000Y-97972500D02*
X182605000Y-97627500D01*
G75*
G02*
X182752500Y-97480000I147500J0D01*
G01*
X183047500Y-97480000D01*
G75*
G02*
X183195000Y-97627500I0J-147500D01*
G01*
X183195000Y-97972500D01*
G75*
G02*
X183047500Y-98120000I-147500J0D01*
G01*
X182752500Y-98120000D01*
G75*
G02*
X182605000Y-97972500I0J147500D01*
G01*
G37*
G36*
G01*
X181635000Y-97972500D02*
X181635000Y-97627500D01*
G75*
G02*
X181782500Y-97480000I147500J0D01*
G01*
X182077500Y-97480000D01*
G75*
G02*
X182225000Y-97627500I0J-147500D01*
G01*
X182225000Y-97972500D01*
G75*
G02*
X182077500Y-98120000I-147500J0D01*
G01*
X181782500Y-98120000D01*
G75*
G02*
X181635000Y-97972500I0J147500D01*
G01*
G37*
%TD*%
D12*
%TO.C,U1*%
X180675000Y-96500000D03*
X180675000Y-97500000D03*
X179325000Y-96500000D03*
X179325000Y-97000000D03*
X179325000Y-97500000D03*
%TD*%
M02*
